<?xml version="1.0" encoding="utf-8"?>
<!-- Generator: Adobe Illustrator 22.1.0, SVG Export Plug-In . SVG Version: 6.00 Build 0)  -->
<svg version="1.1" id="Layer_1" xmlns="http://www.w3.org/2000/svg" xmlns:xlink="http://www.w3.org/1999/xlink" x="0px" y="0px"
	 viewBox="0 0 600 80" style="enable-background:new 0 0 600 80;" xml:space="preserve">
<style type="text/css">
	.st0{fill:#E6E6E6;}
	.st1{fill:#91C433;}
</style>
<g>
	<path class="st0" d="M595,10H5c-2.7,0-5-2.2-5-5v0c0-2.7,2.2-5,5-5l590,0c2.8,0,5,2.2,5,5v0C600,7.8,597.8,10,595,10z"/>
	<path class="st1" d="M145,10H5c-2.7,0-5-2.2-5-5v0c0-2.7,2.2-5,5-5h140c2.8,0,5,2.2,5,5v0C150,7.8,147.8,10,145,10z"/>
</g>
</svg>
