<?xml version="1.0" encoding="utf-8"?>
<!-- Generator: Adobe Illustrator 22.1.0, SVG Export Plug-In . SVG Version: 6.00 Build 0)  -->
<svg version="1.1" id="Layer_1" xmlns="http://www.w3.org/2000/svg" xmlns:xlink="http://www.w3.org/1999/xlink" x="0px" y="0px"
	 viewBox="0 0 32 32" style="enable-background:new 0 0 32 32;" xml:space="preserve">
<style type="text/css">
	.st0{fill:#A0A0A0;}
	.st1{fill:#FFFFFF;}
</style>
<title>facebook</title>
<desc>Created with Sketch.</desc>
<g id="Page-1">
	<g id="Main" transform="translate(-1022.000000, -5562.000000)">
		<g id="footer" transform="translate(-40.000000, 5511.000000)">
			<g id="sns" transform="translate(1015.000000, 50.000000)">
				<g id="facebook" transform="translate(47.000000, 0.000000)">
					<path id="Fill-5" class="st0" d="M16,1c8.8,0,16,7.2,16,16s-7.2,16-16,16C7.2,33,0,25.8,0,17S7.2,1,16,1"/>
					<path id="Fill-7" class="st1" d="M17.9,12H20V9h-2.4v0c-2.9,0.1-3.5,1.8-3.6,3.5h0V14h-2v3h2v8h3v-8h2.5l0.5-3H17v-0.9
						C17,12.5,17.4,12,17.9,12"/>
				</g>
			</g>
		</g>
	</g>
</g>
</svg>
