<?xml version="1.0" encoding="utf-8"?>
<!-- Generator: Adobe Illustrator 22.1.0, SVG Export Plug-In . SVG Version: 6.00 Build 0)  -->
<svg version="1.1" id="Layer_1" xmlns="http://www.w3.org/2000/svg" xmlns:xlink="http://www.w3.org/1999/xlink" x="0px" y="0px"
	 viewBox="0 0 300 300" style="enable-background:new 0 0 300 300;" xml:space="preserve">
<style type="text/css">
	.st0{fill:none;stroke:#91C433;stroke-linecap:round;stroke-linejoin:round;stroke-miterlimit:10;}
	.st1{fill:none;stroke:#242626;stroke-linecap:round;stroke-linejoin:round;stroke-miterlimit:10;}
	.st2{fill:#242626;}
	.st3{fill:none;stroke:#222829;stroke-linecap:round;stroke-linejoin:round;stroke-miterlimit:10;}
	.st4{fill:none;stroke:#222829;stroke-linejoin:round;stroke-miterlimit:10;}
	.st5{fill:none;stroke:#222829;stroke-miterlimit:10;}
	.st6{fill:none;stroke:#9BA4A5;stroke-linejoin:round;stroke-miterlimit:10;}
	.st7{fill:none;stroke:#91C433;stroke-linecap:round;stroke-linejoin:round;}
	.st8{fill:none;stroke:#91C433;stroke-linecap:round;stroke-linejoin:round;stroke-dasharray:4.4286,4.4286;}
	.st9{fill:none;stroke:#91C433;stroke-linecap:round;stroke-linejoin:round;stroke-miterlimit:10;stroke-dasharray:5;}
</style>
<g>
	<g>
		<g>
			<g>
				<g>
					<g>
						<path class="st0" d="M145.9,35.4c0,1.3,1.1,2.4,2.4,2.4c1.3,0,2.4-1.1,2.4-2.4c0-1.3-2.4-2.4-2.4-2.4s-2.4-1.1-2.4-2.4
							c0-1.3,1.1-2.4,2.4-2.4c1.3,0,2.4,1.1,2.4,2.4"/>
						<line class="st0" x1="148.3" y1="28.2" x2="148.3" y2="25.8"/>
						<line class="st0" x1="148.3" y1="37.8" x2="148.3" y2="40.3"/>
						<line class="st0" x1="153.1" y1="33" x2="154.7" y2="33"/>
						<line class="st0" x1="141.8" y1="33" x2="143.4" y2="33"/>
					</g>
					<path class="st0" d="M151.5,55.6h-15.3c-2.7,0-4.8-2.2-4.8-4.8c0,0,0-9.7,0-12.9c0-17.7,9.7-17.7,12.9-21"/>
					<path class="st0" d="M152.3,16.9c3.2,3.2,12.9,2.4,12.9,20.2"/>
					<path class="st0" d="M153.1,16.1c0,0.4-0.4,0.8-0.8,0.8h-8.1c-0.4,0-0.8-0.4-0.8-0.8v-1.6c0-0.4,0.4-0.8,0.8-0.8h8.1
						c0.4,0,0.8,0.4,0.8,0.8V16.1z"/>
					<polygon class="st0" points="154.7,7.2 151.5,5.6 148.3,7.2 145.1,5.6 141.8,7.2 145.1,13.7 151.5,13.7 					"/>
					<path class="st0" d="M156.3,12c0,1.8-1.4,3.2-3.2,3.2"/>
					<path class="st0" d="M140.2,12c0,1.8,1.4,3.2,3.2,3.2"/>
					<circle class="st0" cx="148.3" cy="33" r="9.7"/>
				</g>
				<g>
					<path class="st0" d="M162,54.8c0,0.4-0.4,0.8-0.8,0.8h-6.5c-0.4,0-0.8-0.4-0.8-0.8v-1.6c0-0.4,0.4-0.8,0.8-0.8h6.5
						c0.4,0,0.8,0.4,0.8,0.8V54.8z"/>
					<path class="st0" d="M162,51.6c0,0.4-0.4,0.8-0.8,0.8h-6.5c-0.4,0-0.8-0.4-0.8-0.8v-1.6c0-0.4,0.4-0.8,0.8-0.8h6.5
						c0.4,0,0.8,0.4,0.8,0.8V51.6z"/>
					<path class="st0" d="M162,48.3c0,0.4-0.4,0.8-0.8,0.8h-6.5c-0.4,0-0.8-0.4-0.8-0.8v-1.6c0-0.4,0.4-0.8,0.8-0.8h6.5
						c0.4,0,0.8,0.4,0.8,0.8V48.3z"/>
					<path class="st0" d="M170.1,54.8c0,0.4-0.4,0.8-0.8,0.8h-6.5c-0.4,0-0.8-0.4-0.8-0.8v-1.6c0-0.4,0.4-0.8,0.8-0.8h6.5
						c0.4,0,0.8,0.4,0.8,0.8V54.8z"/>
					<path class="st0" d="M170.1,51.6c0,0.4-0.4,0.8-0.8,0.8h-6.5c-0.4,0-0.8-0.4-0.8-0.8v-1.6c0-0.4,0.4-0.8,0.8-0.8h6.5
						c0.4,0,0.8,0.4,0.8,0.8V51.6z"/>
					<path class="st0" d="M170.1,48.3c0,0.4-0.4,0.8-0.8,0.8h-6.5c-0.4,0-0.8-0.4-0.8-0.8v-1.6c0-0.4,0.4-0.8,0.8-0.8h6.5
						c0.4,0,0.8,0.4,0.8,0.8V48.3z"/>
					<path class="st0" d="M170.1,45.1c0,0.4-0.4,0.8-0.8,0.8h-6.5c-0.4,0-0.8-0.4-0.8-0.8v-1.6c0-0.4,0.4-0.8,0.8-0.8h6.5
						c0.4,0,0.8,0.4,0.8,0.8V45.1z"/>
					<path class="st0" d="M170.1,41.9c0,0.4-0.4,0.8-0.8,0.8h-6.5c-0.4,0-0.8-0.4-0.8-0.8v-1.6c0-0.4,0.4-0.8,0.8-0.8h6.5
						c0.4,0,0.8,0.4,0.8,0.8V41.9z"/>
					<path class="st0" d="M178.1,54.8c0,0.4-0.4,0.8-0.8,0.8h-6.5c-0.4,0-0.8-0.4-0.8-0.8v-1.6c0-0.4,0.4-0.8,0.8-0.8h6.5
						c0.4,0,0.8,0.4,0.8,0.8V54.8z"/>
					<path class="st0" d="M178.1,51.6c0,0.4-0.4,0.8-0.8,0.8h-6.5c-0.4,0-0.8-0.4-0.8-0.8v-1.6c0-0.4,0.4-0.8,0.8-0.8h6.5
						c0.4,0,0.8,0.4,0.8,0.8V51.6z"/>
					<path class="st0" d="M178.1,48.3c0,0.4-0.4,0.8-0.8,0.8h-6.5c-0.4,0-0.8-0.4-0.8-0.8v-1.6c0-0.4,0.4-0.8,0.8-0.8h6.5
						c0.4,0,0.8,0.4,0.8,0.8V48.3z"/>
					<path class="st0" d="M178.1,45.1c0,0.4-0.4,0.8-0.8,0.8h-6.5c-0.4,0-0.8-0.4-0.8-0.8v-1.6c0-0.4,0.4-0.8,0.8-0.8h6.5
						c0.4,0,0.8,0.4,0.8,0.8V45.1z"/>
					<path class="st0" d="M178.1,41.9c0,0.4-0.4,0.8-0.8,0.8h-6.5c-0.4,0-0.8-0.4-0.8-0.8v-1.6c0-0.4,0.4-0.8,0.8-0.8h6.5
						c0.4,0,0.8,0.4,0.8,0.8V41.9z"/>
					<path class="st0" d="M178.1,38.7c0,0.4-0.4,0.8-0.8,0.8h-6.5c-0.4,0-0.8-0.4-0.8-0.8V37c0-0.4,0.4-0.8,0.8-0.8h6.5
						c0.4,0,0.8,0.4,0.8,0.8V38.7z"/>
					<path class="st0" d="M178.1,35.4c0,0.4-0.4,0.8-0.8,0.8h-6.5c-0.4,0-0.8-0.4-0.8-0.8v-1.6c0-0.4,0.4-0.8,0.8-0.8h6.5
						c0.4,0,0.8,0.4,0.8,0.8V35.4z"/>
					<path class="st0" d="M178.1,27.4c0,0.4-0.4,0.8-0.8,0.8h-6.5c-0.4,0-0.8-0.4-0.8-0.8v-1.6c0-0.4,0.4-0.8,0.8-0.8h6.5
						c0.4,0,0.8,0.4,0.8,0.8V27.4z"/>
					<line class="st0" x1="172.5" y1="22.5" x2="172.5" y2="16.1"/>
					<line class="st0" x1="175.7" y1="17.7" x2="175.7" y2="11.2"/>
					<line class="st0" x1="172.5" y1="14.5" x2="172.5" y2="12.8"/>
					<line class="st0" x1="175.7" y1="19.3" x2="175.7" y2="20.9"/>
				</g>
			</g>
		</g>
	</g>
	<g>
		<g>
			<g>
				<g>
					<g>
						<g>
							<line class="st1" x1="18.2" y1="259.5" x2="18.2" y2="294.4"/>
							<line class="st1" x1="24.5" y1="257.9" x2="24.5" y2="294.4"/>
						</g>
						<g>
							<line class="st1" x1="75.3" y1="259.5" x2="75.3" y2="294.4"/>
							<line class="st1" x1="69" y1="257.9" x2="69" y2="294.4"/>
						</g>
						<path class="st1" d="M56.3,248.4l4.8,6.3l9.5,3.2c9.5,3.2,20.6,7.8,20.6,17.5v19"/>
						<path class="st1" d="M37.2,248.4l-4.8,6.3l-9.5,3.2c-9.5,3.2-20.6,7.8-20.6,17.5v19"/>
						<g>
							<path class="st1" d="M29.3,208.7v-7.9l-3.2-3.2v-3.2h31.7c3.5,0,6.3,2.8,6.3,6.3v11.1l-7.9-3.2H40.4l-4.8-3.2l-1.6,3.2H29.3z
								"/>
							<path class="st1" d="M64.2,221.4c0,11.1-9.5,15.9-9.5,15.9l-3.2-6.3H42l-3.2,6.3c0,0-9.5-4.8-9.5-15.9"/>
							<path class="st1" d="M64.2,215v19c0,7.9-6.3,15.9-17.5,15.9s-17.5-7.9-17.5-15.9v-22.2"/>
							<circle class="st1" cx="38.8" cy="219.8" r="4.8"/>
							<circle class="st1" cx="54.7" cy="219.8" r="4.8"/>
							<line class="st1" x1="34.1" y1="219.8" x2="29.3" y2="219.8"/>
							<line class="st1" x1="59.5" y1="219.8" x2="64.2" y2="219.8"/>
							<line class="st1" x1="43.6" y1="219.8" x2="49.9" y2="219.8"/>
						</g>
						<polyline class="st1" points="56.3,250 46.8,259.5 37.2,250 						"/>
						<g>
							<polygon class="st1" points="54.7,270.6 46.8,265.8 38.8,270.6 34.1,270.6 34.1,261.1 38.8,261.1 46.8,265.8 54.7,261.1 
								59.5,261.1 59.5,270.6 							"/>
						</g>
						<line class="st1" x1="46.8" y1="272.2" x2="46.8" y2="275.4"/>
						<line class="st1" x1="46.8" y1="278.5" x2="46.8" y2="281.7"/>
						<line class="st1" x1="46.8" y1="284.9" x2="46.8" y2="288.1"/>
					</g>
				</g>
			</g>
			<circle class="st2" cx="54.7" cy="216.7" r="1.6"/>
			<circle class="st2" cx="38.8" cy="216.7" r="1.6"/>
			<line class="st1" x1="46.8" y1="219.8" x2="46.8" y2="230.9"/>
			<path class="st1" d="M43.9,235.4c1.6,1.6,4.1,1.6,5.6,0"/>
		</g>
		<g>
			<g>
				<g>
					<g>
						<line class="st3" x1="126.2" y1="281.7" x2="126.2" y2="294.4"/>
						<line class="st3" x1="177" y1="281.7" x2="177" y2="294.4"/>
						<path class="st3" d="M172.2,257.9v-47.6c0-8.8-7.1-15.9-15.9-15.9v3.2l-9.5-3.2c-8.8,0-15.9,7.1-15.9,15.9v47.6"/>
						<path class="st3" d="M137.3,215v4.8c0,11.4,4.8,22.2,14.3,22.2c9.5,0,14.3-10.8,14.3-22.2V215c0-2.6-2.1-4.8-4.8-4.8h-9.5
							l-9.5-4.8v4.8C139.4,210.3,137.3,212.4,137.3,215z"/>
						<polyline class="st3" points="148.4,256.3 135.7,261.1 140.5,248.4 148.4,256.3 154.8,256.3 162.7,248.4 167.5,261.1 
							154.8,256.3 						"/>
						<line class="st3" x1="151.6" y1="267.4" x2="151.6" y2="270.6"/>
						<line class="st3" x1="151.6" y1="261.1" x2="151.6" y2="264.2"/>
						<line class="st3" x1="151.6" y1="273.8" x2="151.6" y2="276.9"/>
						<line class="st3" x1="151.6" y1="280.1" x2="151.6" y2="283.3"/>
						<line class="st3" x1="151.6" y1="286.5" x2="151.6" y2="289.6"/>
						<line class="st3" x1="159.5" y1="275.4" x2="172.2" y2="275.4"/>
						<path class="st3" d="M110.3,294.4v-17.5c0-9.6,4.8-12.7,14.3-15.9l14.3-7.9"/>
						<path class="st3" d="M192.9,294.4v-17.5c0-9.6-4.8-12.7-14.3-15.9l-14.3-7.9"/>
						<line class="st3" x1="142.1" y1="237.3" x2="142.1" y2="250"/>
						<line class="st3" x1="161.1" y1="237.3" x2="161.1" y2="250"/>
					</g>
				</g>
			</g>
			<g>
				<circle class="st2" cx="159.5" cy="213.5" r="1.6"/>
				<circle class="st2" cx="143.7" cy="213.5" r="1.6"/>
			</g>
			<line class="st1" x1="151.6" y1="210.1" x2="151.6" y2="221.2"/>
			<path class="st1" d="M148.8,228.7c1.6,1.6,4.1,1.6,5.6,0"/>
		</g>
		<g>
			<g>
				<circle class="st2" cx="262.8" cy="211.9" r="1.6"/>
				<circle class="st2" cx="246.9" cy="211.9" r="1.6"/>
			</g>
			<line class="st1" x1="254.8" y1="210.1" x2="254.8" y2="221.2"/>
			<path class="st1" d="M252,228.7c1.6,1.6,4.1,1.6,5.6,0"/>
			<g>
				<g>
					<g>
						<g>
							<line class="st4" x1="264.3" y1="237.3" x2="264.3" y2="248.4"/>
							<line class="st4" x1="245.3" y1="237.3" x2="245.3" y2="248.4"/>
							<line class="st4" x1="227.8" y1="281.7" x2="227.8" y2="294.4"/>
							<line class="st4" x1="281.8" y1="281.7" x2="281.8" y2="294.4"/>
							<path class="st4" d="M237.4,211.9v7.9l1.6,1.6c0,9.5,6.3,20.6,15.9,20.6s15.9-11.1,15.9-20.6l1.6-1.6v-7.9"/>
							<g>
								<circle class="st4" cx="246.9" cy="215" r="4.8"/>
								<circle class="st4" cx="262.8" cy="215" r="4.8"/>
								<line class="st4" x1="258" y1="215" x2="251.6" y2="215"/>
								<path class="st4" d="M242.1,215h-1.6c-1.8,0-3.2-1.4-3.2-3.2"/>
								<path class="st4" d="M267.5,215h1.6c1.8,0,3.2-1.4,3.2-3.2"/>
							</g>
							<path class="st4" d="M270.7,210.3v-3.2c0-8.8-7.1-12.7-15.9-12.7s-15.9,3.9-15.9,12.7v3.2"/>
							<path class="st4" d="M248.5,227.9c0-1.8,1.4-3.2,3.2-3.2h6.3c1.8,0,3.2,1.4,3.2,3.2"/>
							<path class="st4" d="M269.1,243.6c0,3.5-6.4,6.3-14.3,6.3c-7.9,0-14.3-2.8-14.3-6.3"/>
							<path class="st3" d="M270.7,250c0,3.5-7.1,6.3-15.9,6.3s-15.9-2.8-15.9-6.3"/>
							<path class="st5" d="M240.5,243.6c0,4.8-3.2,7.9-3.2,7.9l-9.5,4.8c-9.5,3.2-15.9,7.8-15.9,17.5v20.6"/>
							<path class="st5" d="M269.1,243.6c0,4.8,3.2,7.9,3.2,7.9l9.5,4.8c9.5,3.2,15.9,7.8,15.9,17.5v20.6"/>
						</g>
					</g>
				</g>
			</g>
		</g>
		<g>
			<g>
				<g>
					<rect x="134.8" y="136.8" class="st6" width="32.1" height="30"/>
					<line class="st6" x1="134.8" y1="140.9" x2="166.8" y2="140.9"/>
					<line class="st6" x1="136.3" y1="138.9" x2="137.3" y2="138.9"/>
					<line class="st6" x1="138.4" y1="138.9" x2="139.4" y2="138.9"/>
					<line class="st6" x1="140.4" y1="138.9" x2="141.5" y2="138.9"/>
					<line class="st6" x1="143" y1="136.8" x2="143" y2="140.9"/>
					<line class="st6" x1="144.6" y1="138.9" x2="165.3" y2="138.9"/>
					<rect x="136.8" y="143" class="st6" width="27.9" height="21.7"/>
					<line class="st6" x1="139.4" y1="146.1" x2="162.2" y2="146.1"/>
					<line class="st6" x1="139.4" y1="161.6" x2="162.2" y2="161.6"/>
					<line class="st6" x1="139.4" y1="153.9" x2="140.4" y2="153.9"/>
					<line class="st6" x1="161.1" y1="153.9" x2="162.2" y2="153.9"/>
				</g>
			</g>
			<circle class="st6" cx="150.8" cy="151.8" r="28.4"/>
		</g>
		<g>
			<g>
				<g>
					<rect x="30.7" y="136.8" class="st6" width="32.1" height="30"/>
					<line class="st6" x1="30.7" y1="140.9" x2="62.8" y2="140.9"/>
					<line class="st6" x1="32.3" y1="138.9" x2="33.3" y2="138.9"/>
					<line class="st6" x1="34.4" y1="138.9" x2="35.4" y2="138.9"/>
					<line class="st6" x1="36.4" y1="138.9" x2="37.5" y2="138.9"/>
					<line class="st6" x1="39" y1="136.8" x2="39" y2="140.9"/>
					<line class="st6" x1="40.6" y1="138.9" x2="61.2" y2="138.9"/>
					<rect x="32.8" y="143" class="st6" width="27.9" height="21.7"/>
					<line class="st6" x1="35.4" y1="146.1" x2="58.1" y2="146.1"/>
					<line class="st6" x1="35.4" y1="161.6" x2="58.1" y2="161.6"/>
					<line class="st6" x1="35.4" y1="153.9" x2="36.4" y2="153.9"/>
					<line class="st6" x1="57.1" y1="153.9" x2="58.1" y2="153.9"/>
				</g>
			</g>
			<circle class="st6" cx="46.8" cy="151.8" r="28.4"/>
		</g>
		<g>
			<g>
				<g>
					<rect x="238.8" y="136.8" class="st6" width="32.1" height="30"/>
					<line class="st6" x1="238.8" y1="140.9" x2="270.9" y2="140.9"/>
					<line class="st6" x1="240.3" y1="138.9" x2="241.4" y2="138.9"/>
					<line class="st6" x1="242.4" y1="138.9" x2="243.4" y2="138.9"/>
					<line class="st6" x1="244.5" y1="138.9" x2="245.5" y2="138.9"/>
					<line class="st6" x1="247.1" y1="136.8" x2="247.1" y2="140.9"/>
					<line class="st6" x1="248.6" y1="138.9" x2="269.3" y2="138.9"/>
					<rect x="240.9" y="143" class="st6" width="27.9" height="21.7"/>
					<line class="st6" x1="243.4" y1="146.1" x2="266.2" y2="146.1"/>
					<line class="st6" x1="243.4" y1="161.6" x2="266.2" y2="161.6"/>
					<line class="st6" x1="243.4" y1="153.9" x2="244.5" y2="153.9"/>
					<line class="st6" x1="265.2" y1="153.9" x2="266.2" y2="153.9"/>
				</g>
			</g>
			<circle class="st6" cx="254.8" cy="151.8" r="28.4"/>
		</g>
		<g>
			<g>
				<line class="st7" x1="80.8" y1="151.8" x2="83.3" y2="151.8"/>
				<line class="st8" x1="87.7" y1="151.8" x2="112.1" y2="151.8"/>
				<line class="st7" x1="114.3" y1="151.8" x2="116.8" y2="151.8"/>
			</g>
		</g>
		<g>
			<g>
				<line class="st7" x1="184.8" y1="151.8" x2="187.3" y2="151.8"/>
				<line class="st8" x1="191.7" y1="151.8" x2="216.1" y2="151.8"/>
				<line class="st7" x1="218.3" y1="151.8" x2="220.8" y2="151.8"/>
			</g>
		</g>
	</g>
	<line class="st9" x1="150.8" y1="111.8" x2="150.8" y2="67.2"/>
</g>
</svg>
