<?xml version="1.0" encoding="utf-8"?>
<!-- Generator: Adobe Illustrator 22.1.0, SVG Export Plug-In . SVG Version: 6.00 Build 0)  -->
<svg version="1.1" id="Layer_1" xmlns="http://www.w3.org/2000/svg" xmlns:xlink="http://www.w3.org/1999/xlink" x="0px" y="0px"
	 viewBox="0 0 32 32" style="enable-background:new 0 0 32 32;" xml:space="preserve">
<style type="text/css">
	.st0{fill:#A0A0A0;}
	.st1{fill:#FFFFFF;stroke:#FFFFFF;stroke-linecap:round;stroke-linejoin:round;stroke-miterlimit:10;}
</style>
<title>facebook</title>
<desc>Created with Sketch.</desc>
<path id="Fill-5" class="st0" d="M16,0c8.8,0,16,7.2,16,16s-7.2,16-16,16S0,24.8,0,16S7.2,0,16,0"/>
<g>
	<path class="st1" d="M17.6,18.6c4-0.5,4.7-2.2,4.7-5c0-0.9-0.3-1.6-0.8-2.3c0.1-0.3,0.5-1.2,0.5-3c0,0-1.4,0-2.9,1.3
		c-0.9-0.3-1.9-0.5-2.9-0.5c-1.1,0-2,0.2-2.9,0.5c-1.4-1.3-2.6-1.3-2.6-1.3c0,1.5,0.3,2.4,0.4,2.8c-0.6,0.7-0.9,1.5-0.9,2.4
		c0,2.8,1.2,4.5,4.7,5"/>
	<path class="st1" d="M14.9,18.6c0,0-0.9,0.3-1,2.3c-1.5,0.4-2-0.4-2.6-0.9c-0.7-0.7-1.7-1.3-1.7-1.3c1.7,1,1.1,3.4,3.1,3.4
		c0.4,0,0.8,0,1.1,0c0,0.9,0,1.6,0,1.6h4.7c0,0,0-1,0-2.4c0-2.2-1.1-2.6-1.1-2.6"/>
</g>
</svg>
