<?xml version="1.0" encoding="utf-8"?>
<!-- Generator: Adobe Illustrator 22.1.0, SVG Export Plug-In . SVG Version: 6.00 Build 0)  -->
<svg version="1.1" id="Layer_1" xmlns="http://www.w3.org/2000/svg" xmlns:xlink="http://www.w3.org/1999/xlink" x="0px" y="0px"
	 viewBox="0 0 242 130" style="enable-background:new 0 0 242 130;" xml:space="preserve">
<style type="text/css">
	.st0{fill:none;stroke:#91C433;stroke-linejoin:round;stroke-miterlimit:10;}
	.st1{fill:none;stroke:#91C433;stroke-linecap:round;stroke-linejoin:round;stroke-miterlimit:10;stroke-dasharray:4.0823;}
	.st2{enable-background:new    ;}
	.st3{fill:#91C433;}
	.st4{fill:#FFFFFF;}
</style>
<g>
	<g>
		<g>
			<polyline class="st0" points="115.2,47.4 123.4,55.2 115.2,62.9 			"/>
		</g>
		<line class="st0" x1="123.4" y1="55.2" x2="98.6" y2="55.2"/>
	</g>
	<g>
		<circle class="st1" cx="40" cy="55.2" r="40"/>
		<g class="st2">
			<path d="M23.3,56.7c0-1.4,1-2.3,1.9-2.8v-0.1c-0.8-0.5-1.4-1.3-1.4-2.4c0-1.6,1.2-2.6,2.8-2.6c1.8,0,2.8,1.1,2.8,2.7
				c0,1.1-0.8,2-1.4,2.5v0.1c0.9,0.5,1.7,1.3,1.7,2.7c0,1.5-1.3,2.7-3.2,2.7C24.7,59.5,23.3,58.3,23.3,56.7z M28.6,56.8
				c0-1.4-1.3-1.9-2.7-2.5c-0.8,0.5-1.4,1.3-1.4,2.3c0,1.1,0.9,1.9,2.1,1.9C27.8,58.5,28.6,57.8,28.6,56.8z M28.3,51.6
				c0-1-0.6-1.8-1.8-1.8c-0.9,0-1.6,0.7-1.6,1.7c0,1.2,1.1,1.8,2.3,2.2C28,53.1,28.3,52.4,28.3,51.6z"/>
			<path d="M31.1,54.1c0-3.6,1.2-5.3,3.2-5.3c1.9,0,3.2,1.7,3.2,5.3s-1.2,5.4-3.2,5.4S31.1,57.7,31.1,54.1z M36.3,54.1
				c0-3-0.8-4.3-1.9-4.3c-1.2,0-2,1.3-2,4.3s0.8,4.3,2,4.3C35.5,58.4,36.3,57.1,36.3,54.1z"/>
			<path d="M38.9,54.1c0-3.6,1.2-5.3,3.2-5.3c1.9,0,3.2,1.7,3.2,5.3s-1.2,5.4-3.2,5.4C40.1,59.5,38.9,57.7,38.9,54.1z M44,54.1
				c0-3-0.8-4.3-1.9-4.3c-1.2,0-2,1.3-2,4.3s0.8,4.3,2,4.3C43.2,58.4,44,57.1,44,54.1z"/>
			<path d="M47.4,49H49l2,5.5c0.2,0.7,0.5,1.4,0.7,2.1h0.1c0.2-0.7,0.5-1.4,0.7-2.1l2-5.5h1.6v10.3h-1.2v-5.7c0-0.9,0.1-2.1,0.2-3
				H55l-0.8,2.3l-1.9,5.3h-0.9l-1.9-5.3l-0.8-2.3h-0.1c0.1,0.9,0.2,2.1,0.2,3v5.7h-1.2V49H47.4z"/>
		</g>
		<g class="st2">
			<path d="M29.3,121.8c2.3-2,3.4-3.5,3.4-4.7c0-0.8-0.4-1.4-1.3-1.4c-0.6,0-1.1,0.4-1.5,0.8l-0.5-0.5c0.6-0.6,1.2-1.1,2.2-1.1
				c1.3,0,2.1,0.9,2.1,2.2c0,1.5-1.1,2.9-2.9,4.6c0.4,0,0.8-0.1,1.2-0.1h2v0.8h-4.6v-0.6H29.3z"/>
			<path d="M34.9,118.7c0-2.5,0.9-3.8,2.3-3.8c1.4,0,2.3,1.2,2.3,3.8c0,2.5-0.9,3.8-2.3,3.8C35.8,122.5,34.9,121.2,34.9,118.7z
				 M38.6,118.7c0-2.1-0.6-3-1.4-3c-0.8,0-1.4,0.9-1.4,3c0,2.2,0.6,3.1,1.4,3.1C38,121.8,38.6,120.8,38.6,118.7z"/>
			<path d="M40.9,121.6h1.6v-5.5h-1.3v-0.6c0.6-0.1,1.1-0.3,1.5-0.5h0.7v6.6h1.5v0.8h-4V121.6z"/>
			<path d="M46.6,121.2c0.3,0.3,0.8,0.6,1.2,0.6c0.9,0,1.8-0.8,1.8-3.1c-0.4,0.5-1.1,0.9-1.7,0.9c-1.2,0-2-0.8-2-2.3
				c0-1.4,1-2.4,2.1-2.4c1.4,0,2.5,1.2,2.5,3.5c0,3-1.3,4.1-2.7,4.1c-0.8,0-1.3-0.3-1.8-0.8L46.6,121.2z M49.7,117.9
				c-0.1-1.5-0.7-2.3-1.6-2.3c-0.7,0-1.2,0.7-1.2,1.7s0.4,1.6,1.3,1.6C48.6,118.9,49.2,118.6,49.7,117.9z"/>
		</g>
	</g>
	<g>
		<circle class="st3" cx="192" cy="55.2" r="50"/>
		<g class="st2">
			<path class="st4" d="M180.9,58.2h2.3v-7.7h-1.8v-0.8c0.9-0.2,1.6-0.4,2.1-0.7h1v9.2h2.1v1.1H181v-1.1H180.9z"/>
			<path class="st4" d="M193.7,50.7c-0.4-0.5-1-0.8-1.7-0.8c-1.4,0-2.6,1.1-2.6,4.3c0.6-0.8,1.5-1.2,2.3-1.2c1.7,0,2.8,1.1,2.8,3.2
				c0,2-1.3,3.3-2.9,3.3c-2,0-3.4-1.7-3.4-5.1c0-4,1.8-5.6,3.8-5.6c1.1,0,1.8,0.4,2.4,1.1L193.7,50.7z M193.4,56.1
				c0-1.4-0.6-2.3-1.8-2.3c-0.6,0-1.4,0.4-2.1,1.3c0.2,2.1,0.9,3.3,2.2,3.3C192.6,58.5,193.4,57.5,193.4,56.1z"/>
			<path class="st4" d="M196.6,49h3.1c2.1,0,3.5,0.7,3.5,2.5c0,1-0.5,1.9-1.5,2.2v0.1c1.2,0.2,2.1,1.1,2.1,2.5c0,2-1.6,3-3.9,3h-3.3
				L196.6,49L196.6,49z M199.4,53.4c1.8,0,2.5-0.7,2.5-1.7c0-1.2-0.8-1.7-2.4-1.7h-1.6v3.3h1.5V53.4z M199.7,58.2
				c1.8,0,2.8-0.6,2.8-2c0-1.3-1-1.8-2.8-1.8h-1.8v3.9h1.8V58.2z"/>
		</g>
		<g class="st2">
			<path d="M181.4,121.8c2.3-2,3.4-3.5,3.4-4.7c0-0.8-0.4-1.4-1.3-1.4c-0.6,0-1.1,0.4-1.5,0.8l-0.5-0.5c0.6-0.6,1.2-1.1,2.2-1.1
				c1.3,0,2.1,0.9,2.1,2.2c0,1.5-1.1,2.9-2.9,4.6c0.4,0,0.8-0.1,1.2-0.1h2v0.8h-4.6L181.4,121.8L181.4,121.8z"/>
			<path d="M187,118.7c0-2.5,0.9-3.8,2.3-3.8c1.4,0,2.3,1.2,2.3,3.8c0,2.5-0.9,3.8-2.3,3.8C187.8,122.5,187,121.2,187,118.7z
				 M190.6,118.7c0-2.1-0.6-3-1.4-3c-0.8,0-1.4,0.9-1.4,3c0,2.2,0.6,3.1,1.4,3.1C190.1,121.8,190.6,120.8,190.6,118.7z"/>
			<path d="M192.5,121.8c2.3-2,3.4-3.5,3.4-4.7c0-0.8-0.4-1.4-1.3-1.4c-0.6,0-1.1,0.4-1.5,0.8l-0.5-0.5c0.6-0.6,1.2-1.1,2.2-1.1
				c1.3,0,2.1,0.9,2.1,2.2c0,1.5-1.1,2.9-2.9,4.6c0.4,0,0.8-0.1,1.2-0.1h2v0.8h-4.7V121.8z"/>
			<path d="M198.5,121.6h1.6v-5.5h-1.3v-0.6c0.6-0.1,1.1-0.3,1.5-0.5h0.7v6.6h1.5v0.8h-4V121.6z"/>
		</g>
	</g>
</g>
</svg>
