<?xml version="1.0" encoding="utf-8"?>
<!-- Generator: Adobe Illustrator 22.1.0, SVG Export Plug-In . SVG Version: 6.00 Build 0)  -->
<svg version="1.1" xmlns="http://www.w3.org/2000/svg" xmlns:xlink="http://www.w3.org/1999/xlink" x="0px" y="0px"
	 viewBox="0 0 1040 820" style="enable-background:new 0 0 1040 820;" xml:space="preserve">
<style type="text/css">
	.st0{fill:#FFFFFF;}
	.st1{fill:#CCCCCC;}
	.st2{fill:none;stroke:#242626;stroke-width:6;stroke-linecap:round;stroke-linejoin:round;stroke-miterlimit:10;}
	.st3{fill:#242626;}
	.st4{fill:none;stroke:#91C433;stroke-width:6;stroke-linecap:round;stroke-linejoin:round;stroke-miterlimit:10;}
	.st5{fill:#F2F2F2;}
	.st6{fill:#999999;}
	.st7{font-family:'NotoSansKR-Bold-KSCpc-EUC-H';}
	.st8{font-size:3.4731px;}
	.st9{font-size:5.2096px;}
	.st10{clip-path:url(#SVGID_2_);}
	.st11{fill:none;stroke:#242626;stroke-width:0.868;stroke-linecap:round;stroke-linejoin:round;stroke-miterlimit:10;}
	.st12{fill:none;stroke:#91C433;stroke-width:0.868;stroke-linecap:round;stroke-linejoin:round;stroke-miterlimit:10;}
	.st13{fill:#FFFFFF;stroke:#242626;stroke-width:6;stroke-linecap:round;stroke-linejoin:round;stroke-miterlimit:10;}
</style>
<g id="bg">
</g>
<g id="Layer_1">
	<g>
		<path class="st0" d="M40,819c-21.5,0-39-17.5-39-39V100c0-21.5,17.5-39,39-39h960c21.5,0,39,17.5,39,39v680c0,21.5-17.5,39-39,39
			H40z"/>
		<path class="st1" d="M1000,62c21,0,38,17,38,38v680c0,21-17,38-38,38H40c-21,0-38-17-38-38V100c0-21,17-38,38-38H1000 M1000,60H40
			C17.9,60,0,77.9,0,100v680c0,22.1,17.9,40,40,40h960c22.1,0,40-17.9,40-40V100C1040,77.9,1022.1,60,1000,60L1000,60z"/>
	</g>
	<g>
		<g>
			<path class="st2" d="M679.7,820.5V558.4c0-57.8-66.6-85.6-123.7-104.7l-57.1-19l-28.5-38.1V347"/>
			<path class="st2" d="M146.8,820.5V558.4c0-57.8,66.6-85.6,123.7-104.7l57.1-19l28.5-38.1v-47.1"/>
			<path class="st2" d="M493,206.4v88.5c0,36.9-29.5,73.8-81.1,73.8s-81.1-36.9-81.1-73.8V191.6"/>
			<polyline class="st2" points="470.3,422.8 413.2,479.9 356.1,422.8 			"/>
			<line class="st2" x1="413.2" y1="499.6" x2="413.2" y2="518.7"/>
			<circle class="st3" cx="448.7" cy="230.1" r="7.5"/>
			<circle class="st3" cx="374.9" cy="230.1" r="7.5"/>
			<line class="st2" x1="411.8" y1="207.5" x2="411.8" y2="259.1"/>
			<path class="st2" d="M398.7,301c7.2,7.2,18.9,7.2,26.2,0"/>
			<rect x="482.2" y="521.1" class="st2" width="98.2" height="20.9"/>
			<rect x="482.2" y="542" class="st2" width="98.2" height="75.2"/>
			<g>
				<path class="st2" d="M492.8,229.5v43.6c11.7-0.4,21.1-10,21.1-21.8C513.9,239.5,504.5,229.9,492.8,229.5z"/>
				<path class="st2" d="M500.1,259.3c4.4-4.4,4.4-11.6,0-16"/>
			</g>
			<g>
				<path class="st2" d="M330.9,229.5v43.6c-11.7-0.4-21.1-10-21.1-21.8C309.8,239.5,319.2,229.9,330.9,229.5z"/>
				<path class="st2" d="M323.6,259.3c-4.4-4.4-4.4-11.6,0-16"/>
			</g>
			<path class="st2" d="M460.9,212.4c-7-7-18.2-7-25.2,0"/>
			<path class="st2" d="M388,212.4c-7-7-18.2-7-25.2,0"/>
			<path class="st4" d="M330.7,176.9V140l-14.8-14.8l-15.8-14.8h163.4c16.3,0,29.5,13.2,29.5,29.5v100.7h-9.6l-7.7-56l-19.6-7.8
				h-73.8h-29.5H330.7z"/>
		</g>
		<g>
			<g>
				<path class="st5" d="M530.7,564.5V426.2c0-6.1,5-11.1,11.1-11.1h277.8c6.1,0,11.1,5,11.1,11.1v138.4H530.7z"/>
				<path class="st1" d="M819.5,415.6c5.8,0,10.6,4.7,10.6,10.6V564H531.2V426.2c0-5.8,4.7-10.6,10.6-10.6H819.5 M819.5,414.6H541.8
					c-6.4,0-11.6,5.2-11.6,11.6V565h300.9V426.2C831.1,419.8,825.9,414.6,819.5,414.6L819.5,414.6z"/>
			</g>
			<g>
				<path class="st5" d="M541.8,714.4c-6.1,0-11.1-5-11.1-11.1V565h299.9v138.4c0,6.1-5,11.1-11.1,11.1H541.8z"/>
				<path class="st1" d="M830.1,565.5v137.9c0,5.8-4.7,10.6-10.6,10.6H541.8c-5.8,0-10.6-4.7-10.6-10.6V565.5H830.1 M831.1,564.5
					H530.2v138.9c0,6.4,5.2,11.6,11.6,11.6h277.8c6.4,0,11.6-5.2,11.6-11.6V564.5L831.1,564.5z"/>
			</g>
			<g>
				<path class="st6" d="M812,545.7l3.9,0.6v2.7l-17.1-2.9v-3.5l17.1-2.9v2.7L812,543V545.7z M802.7,544.3l6.7,1v-1.9L802.7,544.3z"
					/>
				<path class="st6" d="M812,534.6l3.9,0.6v2.7l-17.1-2.9v-3.5l17.1-2.9v2.7l-3.9,0.6V534.6z M802.7,533.3l6.7,1v-1.9L802.7,533.3z
					"/>
				<path class="st6" d="M815.9,526.4h-13.1v2.2H801c-0.1-0.6-0.3-1.2-0.7-1.8c-0.4-0.6-0.9-1-1.4-1.2v-1.8h17.1V526.4z"/>
				<path class="st6" d="M803.4,521.7c-1.6,0-2.9-0.4-3.7-1.3c-0.7-0.7-1.1-1.7-1.1-3c0-1.1,0.4-2.1,1.3-2.9c0.8-0.8,1.8-1.2,3-1.2
					c1.3,0,2.5,0.3,3.6,0.8c0.6,0.3,1.6,0.9,3.1,2c0.4,0.3,1,0.7,1.9,1.3l0.7,0.5c0.5,0.3,0.8,0.5,1.1,0.7c0.1,0.1,0.2,0.1,0.2,0.1
					l0-5.1h2.5v8.2h-2.4c-0.1,0-0.4-0.2-0.9-0.6c-0.3-0.2-0.6-0.4-0.9-0.6l-1-0.7c-0.5-0.4-1.4-1-2.6-1.8c-1.1-0.8-2.1-1.4-3-1.8
					c-0.7-0.3-1.5-0.5-2.3-0.5c-0.5,0-1,0.1-1.3,0.4c-0.4,0.3-0.6,0.7-0.6,1.2c0,0.7,0.4,1.2,1.2,1.5c0.3,0.1,0.6,0.1,1,0.1h0.7v2.5
					H803.4z"/>
				<path class="st6" d="M813.5,507.6c0-1.2-0.5-1.8-1.6-1.8h-1c-1.8,0-2.6,0.9-2.6,2.8H806c0-1-0.3-1.7-0.8-2.2
					c-0.5-0.4-1.2-0.6-2.1-0.6h-0.4c-1.1,0-1.7,0.5-1.7,1.5c0,0.5,0.2,0.9,0.6,1.2c0.3,0.2,0.7,0.3,1.2,0.3h0.4v2.5h-0.4
					c-1.2,0-2.2-0.3-3-0.9c-0.9-0.7-1.3-1.7-1.3-2.9c0-1.2,0.4-2.2,1.2-2.9c0.7-0.7,1.6-1,2.7-1h0.7c1.1,0,2,0.3,2.7,1
					c0.3,0.3,0.6,0.6,0.8,1c0.4-0.8,1.1-1.4,1.9-1.8c0.4-0.2,1-0.3,1.6-0.3h1.4c1.3,0,2.3,0.4,3.1,1.3c0.8,0.8,1.2,1.8,1.2,3
					c0,1.1-0.4,2.1-1.2,2.9c-0.8,0.8-1.8,1.2-2.9,1.2h-0.4l-0.2-2.4l0.6-0.1c0.4,0,0.8-0.2,1-0.5C813.4,508.3,813.5,508,813.5,507.6
					z"/>
				<path class="st6" d="M809.6,501.4l-10.8-4.5v-2.6h10.8v-1.6h2.6v1.6h3.7v2.6h-3.7v4.5H809.6z M809.6,496.9h-5.3l5.3,2.1V496.9z"
					/>
				<path class="st6" d="M801.4,487.8h3.7c-0.4-0.2-0.6-0.6-0.8-1.1c-0.1-0.2-0.1-0.5-0.1-0.9c0-1.1,0.4-2,1.2-2.5
					c0.7-0.5,1.6-0.7,2.9-0.7h3.7c1.3,0,2.3,0.4,3.1,1.2c0.8,0.8,1.2,1.7,1.2,2.9c0,1.1-0.4,2.1-1.2,2.8c-0.8,0.7-1.7,1.1-2.9,1.1
					h-0.4l-0.2-2.5l0.6-0.1c0.7-0.1,1.1-0.3,1.4-0.8c0.1-0.1,0.1-0.3,0.1-0.5c0-1.1-0.5-1.6-1.6-1.6h-4.2c-0.5,0-0.9,0.2-1.2,0.6
					c-0.2,0.2-0.2,0.4-0.2,0.7c0,0.4,0.2,0.8,0.5,1c0.3,0.2,0.6,0.3,1,0.3h0.5v2.6h-9.4v-7.5h2.6V487.8z"/>
				<path class="st6" d="M803.1,475.4h-0.4c-0.4,0-0.8,0.1-1.1,0.3c-0.3,0.2-0.4,0.5-0.4,1c0,0.4,0.1,0.7,0.4,0.9
					c0.3,0.2,0.6,0.3,1.1,0.3h3.4c-0.5-0.6-0.8-1.2-0.8-1.9c0-1.1,0.4-2,1.2-2.5c0.7-0.5,1.7-0.7,2.9-0.7h2.9v0
					c1.1,0.1,2,0.4,2.7,1.2c0.7,0.7,1.1,1.6,1.1,2.7c0,1.1-0.4,2.1-1.2,2.8c-0.8,0.7-1.7,1.1-2.9,1.1h-9.4c-0.8,0-1.6-0.2-2.3-0.6
					s-1.2-1-1.5-1.7c-0.2-0.5-0.3-1-0.3-1.6c0-1.1,0.4-2.1,1.2-2.8c0.8-0.7,1.7-1.1,2.9-1.1h0.4V475.4z M812,478
					c0.4,0,0.8-0.1,1-0.3c0.3-0.2,0.4-0.5,0.4-0.9c0-0.4-0.1-0.7-0.4-1c-0.3-0.2-0.6-0.3-1-0.3h-3.2c-0.5,0-0.9,0.2-1.2,0.5
					c-0.1,0.2-0.2,0.4-0.2,0.7c0,0.4,0.2,0.8,0.5,1c0.3,0.2,0.6,0.3,1,0.3H812z"/>
				<path class="st6" d="M798.8,463.2h2.6l14.5,3.6v2.5l-14.5-3.6v5.2h-2.6V463.2z"/>
				<path class="st6" d="M812.1,453.1c1.1,0,2.1,0.4,2.9,1.2c0.8,0.8,1.2,1.8,1.2,2.9v0.2c0,1.1-0.4,2.1-1.2,2.9
					c-0.8,0.8-1.8,1.2-2.9,1.2h-1.6c-1,0-2-0.3-2.7-1c-0.3-0.3-0.6-0.6-0.8-1c-0.4,0.7-0.9,1.2-1.8,1.6c-0.4,0.2-1,0.3-1.6,0.3h-0.9
					c-1.1,0-2-0.3-2.7-1c-0.8-0.7-1.2-1.7-1.2-2.9v-0.2c0-1.2,0.4-2.2,1.2-2.9c0.7-0.7,1.6-1,2.7-1h0.9c1.1,0,2,0.3,2.6,1
					c0.3,0.3,0.5,0.6,0.7,0.9c0.4-0.8,1.1-1.4,1.9-1.8c0.4-0.2,1-0.3,1.6-0.3H812.1z M803.3,455.6c-1.2,0-1.9,0.4-2.2,1.1
					c-0.1,0.2-0.1,0.4-0.1,0.6c0,0.4,0.1,0.8,0.4,1.1c0.2,0.2,0.5,0.4,0.8,0.5s0.7,0.1,1.2,0.1c0.7,0,1.3-0.1,1.6-0.4
					c0.4-0.3,0.7-0.7,0.7-1.3s-0.2-1.1-0.7-1.3C804.5,455.7,803.9,455.6,803.3,455.6z M810.8,455.7c-1,0-1.7,0.2-2.1,0.7
					c-0.2,0.2-0.2,0.5-0.2,0.9c0,0.7,0.3,1.1,0.9,1.4c0.4,0.1,0.8,0.2,1.4,0.2h0.9c0.6,0,1-0.2,1.4-0.5c0.3-0.3,0.4-0.6,0.5-1.1
					c0-0.7-0.4-1.2-1-1.5c-0.2-0.1-0.5-0.1-0.8-0.1H810.8z"/>
				<path class="st6" d="M798.6,447.1c0-1.1,0.4-2.1,1.2-2.8c0.8-0.7,1.7-1.1,2.9-1.1h9.4c1.1,0,2.1,0.4,2.9,1.1
					c0.8,0.7,1.2,1.7,1.2,2.8c0,1.1-0.4,2.1-1.2,2.8c-0.8,0.7-1.7,1.1-2.9,1.1h-0.4v-2.7h0.4c0.4,0,0.8-0.1,1-0.3
					c0.3-0.2,0.4-0.5,0.4-0.9c0-0.4-0.1-0.7-0.4-1s-0.6-0.3-1-0.3h-3.4c0.5,0.6,0.8,1.2,0.8,1.9c0,1.1-0.4,2-1.2,2.5
					c-0.7,0.5-1.7,0.7-2.9,0.7h-3v0c-0.8,0-1.5-0.3-2.1-0.7c-0.6-0.4-1.1-1-1.4-1.7C798.7,448.1,798.6,447.6,798.6,447.1z
					 M802.7,445.7c-0.4,0-0.8,0.1-1.1,0.3s-0.4,0.5-0.4,1c0,0.4,0.1,0.7,0.4,0.9c0.3,0.2,0.6,0.3,1.1,0.3h3.2c0.5,0,0.9-0.2,1.2-0.5
					c0.2-0.2,0.2-0.4,0.2-0.7c0-0.7-0.3-1.1-1-1.2c-0.2,0-0.4-0.1-0.5-0.1H802.7z"/>
				<path class="st6" d="M812.1,432.8c1.1,0,2.1,0.4,2.9,1.2c0.8,0.8,1.2,1.8,1.2,2.9c0,1.1-0.4,2.1-1.2,2.9
					c-0.8,0.8-1.8,1.2-2.9,1.2h-9.4c-1.1,0-2.1-0.4-2.9-1.2c-0.8-0.8-1.2-1.8-1.2-2.9c0-1.1,0.4-2.1,1.2-2.9
					c0.8-0.8,1.8-1.2,2.9-1.2H812.1z M802.6,435.5c-0.4,0-0.8,0.1-1,0.4c-0.3,0.3-0.4,0.6-0.4,1.1c0,0.4,0.1,0.8,0.4,1
					c0.3,0.3,0.6,0.4,1,0.4h9.4c0.4,0,0.8-0.1,1-0.4c0.3-0.3,0.4-0.6,0.4-1c0-0.4-0.1-0.8-0.4-1.1c-0.3-0.3-0.6-0.4-1-0.4H802.6z"/>
			</g>
			<g>
				<path class="st6" d="M631.2,581.6h-1.3V573h1.3V581.6z"/>
				<path class="st6" d="M633.8,573l1.7,5.7V573h1.3v8.5h-1.4l-1.8-5.5v5.5h-1.3V573H633.8z"/>
				<path class="st6" d="M639.2,574.3h-1.4V573h4v1.3h-1.4v7.3h-1.3V574.3z"/>
				<path class="st6" d="M642.9,581.6V573h3.7v1.3h-2.4v2.3h1.7v1.3h-1.7v2.3h2.4v1.3H642.9z"/>
				<path class="st6" d="M649.5,573c0.7,0,1.2,0.2,1.6,0.6c0.3,0.3,0.4,0.8,0.4,1.4v1.2c0,0.6-0.2,1.1-0.7,1.5l1,3.7h-1.4l-0.8-3.2
					c0,0-0.1,0-0.1,0h-0.7v3.2h-1.3V573H649.5z M650.2,575.1c0-0.5-0.2-0.7-0.7-0.7h-0.8v2.7h0.8c0.2,0,0.4-0.1,0.5-0.2
					c0.1-0.1,0.2-0.3,0.2-0.5V575.1z"/>
				<path class="st6" d="M654.3,573l1.7,5.7V573h1.3v8.5h-1.4l-1.8-5.5v5.5h-1.3V573H654.3z"/>
				<path class="st6" d="M660,579.6l-0.3,2h-1.3l1.4-8.5h1.8l1.4,8.5h-1.3l-0.3-2H660z M660.7,575l-0.5,3.4h1L660.7,575z"/>
				<path class="st6" d="M664.3,574.3h-1.4V573h4v1.3h-1.4v7.3h-1.3V574.3z"/>
				<path class="st6" d="M669.3,581.6H668V573h1.3V581.6z"/>
				<path class="st6" d="M672.4,572.9c0.6,0,1.1,0.2,1.4,0.6c0.4,0.4,0.6,0.9,0.6,1.4v4.7c0,0.6-0.2,1.1-0.6,1.5
					c-0.4,0.4-0.9,0.6-1.4,0.6c-0.6,0-1-0.2-1.4-0.6s-0.6-0.9-0.6-1.4V575c0-0.6,0.2-1.1,0.6-1.5
					C671.4,573.1,671.9,572.9,672.4,572.9z M673.1,574.9c0-0.2-0.1-0.4-0.2-0.5c-0.1-0.1-0.3-0.2-0.5-0.2c-0.2,0-0.4,0.1-0.5,0.2
					c-0.1,0.1-0.2,0.3-0.2,0.5v4.7c0,0.2,0.1,0.4,0.2,0.5c0.1,0.1,0.3,0.2,0.5,0.2c0.2,0,0.4-0.1,0.5-0.2c0.1-0.1,0.2-0.3,0.2-0.5
					V574.9z"/>
				<path class="st6" d="M677.1,573l1.7,5.7V573h1.3v8.5h-1.4l-1.8-5.5v5.5h-1.3V573H677.1z"/>
				<path class="st6" d="M682.8,579.6l-0.3,2h-1.3l1.4-8.5h1.8l1.4,8.5h-1.3l-0.3-2H682.8z M683.5,575l-0.5,3.4h1L683.5,575z"/>
				<path class="st6" d="M690.4,581.6h-3.5V573h1.3v7.3h2.2V581.6z"/>
				<path class="st6" d="M694.2,573c0.6,0,1.1,0.2,1.5,0.6c0.3,0.4,0.5,0.9,0.5,1.4v1.2c0,0.6-0.2,1-0.6,1.4
					c-0.4,0.4-0.9,0.6-1.4,0.6h-0.7v3.2h-1.3V573H694.2z M695,575.1c0-0.2-0.1-0.4-0.2-0.5c-0.1-0.1-0.3-0.2-0.5-0.2h-0.8v2.7h0.8
					c0.2,0,0.4-0.1,0.5-0.2c0.1-0.1,0.2-0.3,0.2-0.5V575.1z"/>
				<path class="st6" d="M698.1,579.6l-0.3,2h-1.3l1.4-8.5h1.8l1.4,8.5h-1.3l-0.3-2H698.1z M698.7,575l-0.5,3.4h1L698.7,575z"/>
				<path class="st6" d="M706,579.4c0,0.6-0.1,1.1-0.5,1.5c-0.2,0.3-0.5,0.5-0.9,0.6c-0.2,0.1-0.4,0.1-0.7,0.1
					c-0.5,0-0.9-0.1-1.3-0.4c-0.3-0.2-0.5-0.5-0.7-0.8c-0.2-0.4-0.3-0.8-0.3-1.2l1.2-0.1c0.1,0.5,0.2,0.9,0.4,1.1
					c0.2,0.2,0.3,0.2,0.5,0.2c0.3,0,0.5-0.1,0.7-0.4c0.1-0.1,0.1-0.3,0.1-0.6c0-0.4-0.2-0.7-0.5-1.1c-0.3-0.2-0.6-0.6-1.1-1.1
					c-0.4-0.4-0.7-0.8-0.9-1.1c-0.2-0.4-0.3-0.8-0.3-1.2c0-0.8,0.3-1.4,0.8-1.8c0.3-0.2,0.7-0.4,1.2-0.4c0.5,0,0.9,0.1,1.2,0.3
					c0.3,0.2,0.5,0.4,0.6,0.7c0.2,0.3,0.3,0.6,0.3,1l-1.2,0.2c0-0.3-0.1-0.6-0.3-0.8c-0.1-0.1-0.3-0.2-0.5-0.2
					c-0.2,0-0.4,0.1-0.5,0.3c-0.1,0.2-0.2,0.4-0.2,0.6c0,0.4,0.2,0.8,0.5,1.2c0.1,0.2,0.3,0.3,0.6,0.5c0.3,0.3,0.5,0.4,0.6,0.5
					c0.3,0.3,0.6,0.6,0.7,0.9c0.1,0.1,0.1,0.3,0.2,0.4C705.9,578.9,706,579.2,706,579.4z"/>
				<path class="st6" d="M711.2,579.4c0,0.6-0.1,1.1-0.5,1.5c-0.2,0.3-0.5,0.5-0.9,0.6c-0.2,0.1-0.4,0.1-0.7,0.1
					c-0.5,0-0.9-0.1-1.3-0.4c-0.3-0.2-0.5-0.5-0.7-0.8c-0.2-0.4-0.3-0.8-0.3-1.2l1.2-0.1c0.1,0.5,0.2,0.9,0.4,1.1
					c0.2,0.2,0.3,0.2,0.5,0.2c0.3,0,0.5-0.1,0.7-0.4c0.1-0.1,0.1-0.3,0.1-0.6c0-0.4-0.2-0.7-0.5-1.1c-0.3-0.2-0.6-0.6-1.1-1.1
					c-0.4-0.4-0.7-0.8-0.9-1.1c-0.2-0.4-0.3-0.8-0.3-1.2c0-0.8,0.3-1.4,0.8-1.8c0.3-0.2,0.7-0.4,1.2-0.4c0.5,0,0.9,0.1,1.2,0.3
					c0.3,0.2,0.5,0.4,0.6,0.7c0.2,0.3,0.3,0.6,0.3,1l-1.2,0.2c0-0.3-0.1-0.6-0.3-0.8c-0.1-0.1-0.3-0.2-0.5-0.2
					c-0.2,0-0.4,0.1-0.5,0.3c-0.1,0.2-0.2,0.4-0.2,0.6c0,0.4,0.2,0.8,0.5,1.2c0.1,0.2,0.3,0.3,0.6,0.5c0.3,0.3,0.5,0.4,0.6,0.5
					c0.3,0.3,0.6,0.6,0.7,0.9c0.1,0.1,0.1,0.3,0.2,0.4C711.1,578.9,711.2,579.2,711.2,579.4z"/>
				<path class="st6" d="M714.3,573c0.6,0,1.1,0.2,1.5,0.6c0.3,0.4,0.5,0.9,0.5,1.4v1.2c0,0.6-0.2,1-0.6,1.4
					c-0.4,0.4-0.9,0.6-1.4,0.6h-0.7v3.2h-1.3V573H714.3z M715,575.1c0-0.2-0.1-0.4-0.2-0.5c-0.1-0.1-0.3-0.2-0.5-0.2h-0.8v2.7h0.8
					c0.2,0,0.4-0.1,0.5-0.2c0.1-0.1,0.2-0.3,0.2-0.5V575.1z"/>
				<path class="st6" d="M719.2,572.9c0.6,0,1.1,0.2,1.5,0.6c0.4,0.4,0.6,0.9,0.6,1.4v4.7c0,0.6-0.2,1.1-0.6,1.5
					c-0.4,0.4-0.9,0.6-1.4,0.6c-0.6,0-1-0.2-1.4-0.6c-0.4-0.4-0.6-0.9-0.6-1.4V575c0-0.6,0.2-1.1,0.6-1.5
					C718.2,573.1,718.6,572.9,719.2,572.9z M719.9,574.9c0-0.2-0.1-0.4-0.2-0.5c-0.1-0.1-0.3-0.2-0.5-0.2c-0.2,0-0.4,0.1-0.5,0.2
					c-0.1,0.1-0.2,0.3-0.2,0.5v4.7c0,0.2,0.1,0.4,0.2,0.5c0.1,0.1,0.3,0.2,0.5,0.2c0.2,0,0.4-0.1,0.5-0.2c0.1-0.1,0.2-0.3,0.2-0.5
					V574.9z"/>
				<path class="st6" d="M724.4,573c0.7,0,1.2,0.2,1.6,0.6c0.3,0.3,0.4,0.8,0.4,1.4v1.2c0,0.6-0.2,1.1-0.7,1.5l1,3.7h-1.4l-0.8-3.2
					c0,0-0.1,0-0.1,0h-0.7v3.2h-1.3V573H724.4z M725.2,575.1c0-0.5-0.2-0.7-0.7-0.7h-0.8v2.7h0.8c0.2,0,0.4-0.1,0.5-0.2
					c0.1-0.1,0.2-0.3,0.2-0.5V575.1z"/>
				<path class="st6" d="M728.7,574.3h-1.4V573h4v1.3H730v7.3h-1.3V574.3z"/>
			</g>
			<g>
				<text transform="matrix(1 0 0 1 570.9391 591.9551)" class="st6 st7 st8">PASSPORT</text>
				<text transform="matrix(1 0 0 1 628.7663 591.9551)" class="st6 st7 st8">TYPE</text>
				<text transform="matrix(1 0 0 1 628.9831 598.8984)" class="st7 st9">PM</text>
				<text transform="matrix(1 0 0 1 677.9929 591.9551)" class="st6 st7 st8">ISSUING COUNTRY</text>
				<text transform="matrix(1 0 0 1 686.3327 598.8984)" class="st7 st9">WWW</text>
				<g>
					<text transform="matrix(1 0 0 1 758.7282 591.9551)" class="st6 st7 st8">PASSPORT NO.</text>
					<text transform="matrix(1 0 0 1 752.8591 598.8984)" class="st7 st9">AA1234567890</text>
				</g>
			</g>
			<g>
				<path class="st6" d="M544.8,695.9v0.8l-2.1,0.9l2.1,0.9v0.8l-3-1.3v-0.7L544.8,695.9z"/>
				<path class="st6" d="M548.5,695.9v0.8l-2.1,0.9l2.1,0.9v0.8l-3-1.3v-0.7L548.5,695.9z"/>
				<path class="st6" d="M550.6,694.4c0.4,0,0.8,0.1,1.1,0.4c0.2,0.3,0.4,0.6,0.4,1v0.9c0,0.4-0.1,0.7-0.4,1c-0.3,0.3-0.6,0.4-1,0.4
					H550v2.3h-0.9v-6.1H550.6z M551.1,695.9c0-0.2,0-0.3-0.1-0.4c-0.1-0.1-0.2-0.1-0.4-0.1H550v1.9h0.6c0.1,0,0.3-0.1,0.4-0.2
					c0.1-0.1,0.2-0.2,0.2-0.4V695.9z"/>
				<path class="st6" d="M552.6,695.9l3,1.3v0.7l-3,1.3v-0.8l2.1-0.9l-2.1-0.9V695.9z"/>
				<path class="st6" d="M556.3,695.9l3,1.3v0.7l-3,1.3v-0.8l2.1-0.9l-2.1-0.9V695.9z"/>
				<path class="st6" d="M560,695.9l3,1.3v0.7l-3,1.3v-0.8l2.1-0.9l-2.1-0.9V695.9z"/>
				<path class="st6" d="M566.1,694.1h0.7l-2.5,6.6h-0.7L566.1,694.1z"/>
				<path class="st6" d="M570.6,695.9v0.8l-2.1,0.9l2.1,0.9v0.8l-3-1.3v-0.7L570.6,695.9z"/>
				<path class="st6" d="M574.2,695.9v0.8l-2.1,0.9l2.1,0.9v0.8l-3-1.3v-0.7L574.2,695.9z"/>
				<path class="st6" d="M575.8,697.9v2.6h-0.9v-6.1h0.9v2.6h1.1v-2.6h0.9v6.1h-0.9v-2.6H575.8z"/>
				<path class="st6" d="M580,694.3c0.4,0,0.7,0.1,1,0.4c0.3,0.3,0.4,0.6,0.4,1v3.3c0,0.4-0.1,0.7-0.4,1c-0.3,0.3-0.6,0.4-1,0.4
					c-0.4,0-0.7-0.1-1-0.4c-0.3-0.3-0.4-0.6-0.4-1v-3.3c0-0.4,0.1-0.7,0.4-1C579.3,694.5,579.6,694.3,580,694.3z M580.5,695.8
					c0-0.1-0.1-0.3-0.2-0.4c-0.1-0.1-0.2-0.2-0.4-0.2c-0.1,0-0.3,0.1-0.4,0.2c-0.1,0.1-0.2,0.2-0.2,0.4v3.3c0,0.1,0.1,0.3,0.2,0.4
					c0.1,0.1,0.2,0.2,0.4,0.2c0.1,0,0.3-0.1,0.4-0.2c0.1-0.1,0.2-0.2,0.2-0.4V695.8z"/>
				<path class="st6" d="M583.3,694.4l1.2,4.1v-4.1h0.9v6.1h-1l-1.3-3.9v3.9h-0.9v-6.1H583.3z"/>
				<path class="st6" d="M587.7,700.6c-0.4,0-0.7-0.1-1-0.4c-0.3-0.3-0.4-0.6-0.4-1v-3.3c0-0.4,0.1-0.7,0.4-1c0.3-0.3,0.6-0.4,1-0.4
					c0.4,0,0.7,0.1,1,0.4c0.3,0.3,0.4,0.6,0.4,1v0.7h-0.9v-0.7c0-0.1-0.1-0.3-0.2-0.4c-0.1-0.1-0.2-0.2-0.4-0.2
					c-0.1,0-0.3,0.1-0.4,0.2c-0.1,0.1-0.2,0.2-0.2,0.4v3.3c0,0.1,0.1,0.3,0.2,0.4c0.1,0.1,0.2,0.2,0.4,0.2c0.1,0,0.3-0.1,0.4-0.2
					s0.2-0.2,0.2-0.4v-1.2h-0.5V697h1.5v2.1c0,0.4-0.1,0.7-0.4,1C588.4,700.4,588.1,700.6,587.7,700.6z"/>
				<path class="st6" d="M592.8,695.9v0.8l-2.1,0.9l2.1,0.9v0.8l-3-1.3v-0.7L592.8,695.9z"/>
				<path class="st6" d="M596.5,695.9v0.8l-2.1,0.9l2.1,0.9v0.8l-3-1.3v-0.7L596.5,695.9z"/>
				<path class="st6" d="M598.5,700.6c-0.4,0-0.7-0.1-1-0.4c-0.3-0.3-0.4-0.6-0.4-1v-3.3c0-0.4,0.1-0.7,0.4-1c0.3-0.3,0.6-0.4,1-0.4
					c0.4,0,0.7,0.1,1,0.4c0.3,0.3,0.4,0.6,0.4,1v0.7H599v-0.7c0-0.1-0.1-0.3-0.2-0.4c-0.1-0.1-0.2-0.2-0.4-0.2
					c-0.1,0-0.3,0.1-0.4,0.2c-0.1,0.1-0.2,0.2-0.2,0.4v3.3c0,0.1,0.1,0.3,0.2,0.4c0.1,0.1,0.2,0.2,0.4,0.2c0.1,0,0.3-0.1,0.4-0.2
					s0.2-0.2,0.2-0.4v-1.2h-0.5V697h1.5v2.1c0,0.4-0.1,0.7-0.4,1C599.3,700.4,598.9,700.6,598.5,700.6z"/>
				<path class="st6" d="M601.7,700.5h-0.9v-6.1h0.9V700.5z"/>
				<path class="st6" d="M605,700.5h-2.5v-6.1h0.9v5.2h1.6V700.5z"/>
				<path class="st6" d="M608.5,699c0,0.4-0.1,0.7-0.4,1c-0.3,0.3-0.6,0.4-1,0.4h-1.4v-6.1h1.4c0.4,0,0.7,0.1,1,0.4
					c0.3,0.3,0.4,0.6,0.4,1V699z M606.6,699.6h0.6c0.1,0,0.3-0.1,0.4-0.2c0.1-0.1,0.1-0.2,0.1-0.4v-3.2c0-0.1-0.1-0.3-0.2-0.4
					c-0.1-0.1-0.2-0.2-0.4-0.2h-0.6V699.6z"/>
				<path class="st6" d="M610.7,694.3c0.4,0,0.7,0.1,1,0.4c0.3,0.3,0.4,0.6,0.4,1v3.3c0,0.4-0.1,0.7-0.4,1c-0.3,0.3-0.6,0.4-1,0.4
					s-0.7-0.1-1-0.4c-0.3-0.3-0.4-0.6-0.4-1v-3.3c0-0.4,0.1-0.7,0.4-1C610,694.5,610.4,694.3,610.7,694.3z M611.2,695.8
					c0-0.1-0.1-0.3-0.2-0.4c-0.1-0.1-0.2-0.2-0.4-0.2c-0.1,0-0.3,0.1-0.4,0.2c-0.1,0.1-0.2,0.2-0.2,0.4v3.3c0,0.1,0.1,0.3,0.2,0.4
					c0.1,0.1,0.2,0.2,0.4,0.2c0.1,0,0.3-0.1,0.4-0.2c0.1-0.1,0.2-0.2,0.2-0.4V695.8z"/>
				<path class="st6" d="M614,694.4l1.2,4.1v-4.1h0.9v6.1h-1l-1.3-3.9v3.9H613v-6.1H614z"/>
				<path class="st6" d="M618.4,700.6c-0.4,0-0.7-0.1-1-0.4c-0.3-0.3-0.4-0.6-0.4-1v-3.3c0-0.4,0.1-0.7,0.4-1c0.3-0.3,0.6-0.4,1-0.4
					c0.4,0,0.7,0.1,1,0.4c0.3,0.3,0.4,0.6,0.4,1v0.7h-0.9v-0.7c0-0.1-0.1-0.3-0.2-0.4c-0.1-0.1-0.2-0.2-0.4-0.2
					c-0.1,0-0.3,0.1-0.4,0.2c-0.1,0.1-0.2,0.2-0.2,0.4v3.3c0,0.1,0.1,0.3,0.2,0.4c0.1,0.1,0.2,0.2,0.4,0.2c0.1,0,0.3-0.1,0.4-0.2
					c0.1-0.1,0.2-0.2,0.2-0.4v-1.2h-0.5V697h1.5v2.1c0,0.4-0.1,0.7-0.4,1C619.1,700.4,618.8,700.6,618.4,700.6z"/>
				<path class="st6" d="M623.5,695.9v0.8l-2.1,0.9l2.1,0.9v0.8l-3-1.3v-0.7L623.5,695.9z"/>
				<path class="st6" d="M627.2,695.9v0.8l-2.1,0.9l2.1,0.9v0.8l-3-1.3v-0.7L627.2,695.9z"/>
				<path class="st6" d="M630.8,695.9v0.8l-2.1,0.9l2.1,0.9v0.8l-3-1.3v-0.7L630.8,695.9z"/>
				<path class="st6" d="M634.5,695.9v0.8l-2.1,0.9l2.1,0.9v0.8l-3-1.3v-0.7L634.5,695.9z"/>
				<path class="st6" d="M638.2,695.9v0.8l-2.1,0.9l2.1,0.9v0.8l-3-1.3v-0.7L638.2,695.9z"/>
				<path class="st6" d="M641.8,695.9v0.8l-2.1,0.9l2.1,0.9v0.8l-3-1.3v-0.7L641.8,695.9z"/>
				<path class="st6" d="M645.5,695.9v0.8l-2.1,0.9l2.1,0.9v0.8l-3-1.3v-0.7L645.5,695.9z"/>
				<path class="st6" d="M649.2,695.9v0.8l-2.1,0.9l2.1,0.9v0.8l-3-1.3v-0.7L649.2,695.9z"/>
				<path class="st6" d="M652.8,695.9v0.8l-2.1,0.9l2.1,0.9v0.8l-3-1.3v-0.7L652.8,695.9z"/>
				<path class="st6" d="M656.5,695.9v0.8l-2.1,0.9l2.1,0.9v0.8l-3-1.3v-0.7L656.5,695.9z"/>
				<path class="st6" d="M660.1,695.9v0.8l-2.1,0.9l2.1,0.9v0.8l-3-1.3v-0.7L660.1,695.9z"/>
				<path class="st6" d="M663.8,695.9v0.8l-2.1,0.9l2.1,0.9v0.8l-3-1.3v-0.7L663.8,695.9z"/>
				<path class="st6" d="M667.5,695.9v0.8l-2.1,0.9l2.1,0.9v0.8l-3-1.3v-0.7L667.5,695.9z"/>
				<path class="st6" d="M671.1,695.9v0.8l-2.1,0.9l2.1,0.9v0.8l-3-1.3v-0.7L671.1,695.9z"/>
				<path class="st6" d="M674.8,695.9v0.8l-2.1,0.9l2.1,0.9v0.8l-3-1.3v-0.7L674.8,695.9z"/>
				<path class="st6" d="M678.5,695.9v0.8l-2.1,0.9l2.1,0.9v0.8l-3-1.3v-0.7L678.5,695.9z"/>
				<path class="st6" d="M682.1,695.9v0.8l-2.1,0.9l2.1,0.9v0.8l-3-1.3v-0.7L682.1,695.9z"/>
				<path class="st6" d="M685.8,695.9v0.8l-2.1,0.9l2.1,0.9v0.8l-3-1.3v-0.7L685.8,695.9z"/>
				<path class="st6" d="M689.4,695.9v0.8l-2.1,0.9l2.1,0.9v0.8l-3-1.3v-0.7L689.4,695.9z"/>
				<path class="st6" d="M693.1,695.9v0.8l-2.1,0.9l2.1,0.9v0.8l-3-1.3v-0.7L693.1,695.9z"/>
				<path class="st6" d="M696.8,695.9v0.8l-2.1,0.9l2.1,0.9v0.8l-3-1.3v-0.7L696.8,695.9z"/>
				<path class="st6" d="M700.4,695.9v0.8l-2.1,0.9l2.1,0.9v0.8l-3-1.3v-0.7L700.4,695.9z"/>
				<path class="st6" d="M704.1,695.9v0.8l-2.1,0.9l2.1,0.9v0.8l-3-1.3v-0.7L704.1,695.9z"/>
				<path class="st6" d="M707.8,695.9v0.8l-2.1,0.9l2.1,0.9v0.8l-3-1.3v-0.7L707.8,695.9z"/>
				<path class="st6" d="M711.4,695.9v0.8l-2.1,0.9l2.1,0.9v0.8l-3-1.3v-0.7L711.4,695.9z"/>
				<path class="st6" d="M715.1,695.9v0.8l-2.1,0.9l2.1,0.9v0.8l-3-1.3v-0.7L715.1,695.9z"/>
				<path class="st6" d="M718.7,695.9v0.8l-2.1,0.9l2.1,0.9v0.8l-3-1.3v-0.7L718.7,695.9z"/>
				<path class="st6" d="M722.4,695.9v0.8l-2.1,0.9l2.1,0.9v0.8l-3-1.3v-0.7L722.4,695.9z"/>
				<path class="st6" d="M726.1,695.9v0.8l-2.1,0.9l2.1,0.9v0.8l-3-1.3v-0.7L726.1,695.9z"/>
				<path class="st6" d="M729.7,695.9v0.8l-2.1,0.9l2.1,0.9v0.8l-3-1.3v-0.7L729.7,695.9z"/>
				<path class="st6" d="M733.4,695.9v0.8l-2.1,0.9l2.1,0.9v0.8l-3-1.3v-0.7L733.4,695.9z"/>
				<path class="st6" d="M737.1,695.9v0.8l-2.1,0.9l2.1,0.9v0.8l-3-1.3v-0.7L737.1,695.9z"/>
				<path class="st6" d="M740.7,695.9v0.8l-2.1,0.9l2.1,0.9v0.8l-3-1.3v-0.7L740.7,695.9z"/>
				<path class="st6" d="M744.4,695.9v0.8l-2.1,0.9l2.1,0.9v0.8l-3-1.3v-0.7L744.4,695.9z"/>
				<path class="st6" d="M748,695.9v0.8l-2.1,0.9l2.1,0.9v0.8l-3-1.3v-0.7L748,695.9z"/>
				<path class="st6" d="M751.7,695.9v0.8l-2.1,0.9l2.1,0.9v0.8l-3-1.3v-0.7L751.7,695.9z"/>
				<path class="st6" d="M755.4,695.9v0.8l-2.1,0.9l2.1,0.9v0.8l-3-1.3v-0.7L755.4,695.9z"/>
				<path class="st6" d="M759,695.9v0.8l-2.1,0.9l2.1,0.9v0.8l-3-1.3v-0.7L759,695.9z"/>
				<path class="st6" d="M762.7,695.9v0.8l-2.1,0.9l2.1,0.9v0.8l-3-1.3v-0.7L762.7,695.9z"/>
				<path class="st6" d="M766.4,695.9v0.8l-2.1,0.9l2.1,0.9v0.8l-3-1.3v-0.7L766.4,695.9z"/>
				<path class="st6" d="M770,695.9v0.8l-2.1,0.9l2.1,0.9v0.8l-3-1.3v-0.7L770,695.9z"/>
				<path class="st6" d="M773.7,695.9v0.8l-2.1,0.9l2.1,0.9v0.8l-3-1.3v-0.7L773.7,695.9z"/>
				<path class="st6" d="M777.3,695.9v0.8l-2.1,0.9l2.1,0.9v0.8l-3-1.3v-0.7L777.3,695.9z"/>
				<path class="st6" d="M781,695.9v0.8l-2.1,0.9l2.1,0.9v0.8l-3-1.3v-0.7L781,695.9z"/>
				<path class="st6" d="M784.7,695.9v0.8l-2.1,0.9l2.1,0.9v0.8l-3-1.3v-0.7L784.7,695.9z"/>
				<path class="st6" d="M788.3,695.9v0.8l-2.1,0.9l2.1,0.9v0.8l-3-1.3v-0.7L788.3,695.9z"/>
				<path class="st6" d="M792,695.9v0.8l-2.1,0.9l2.1,0.9v0.8l-3-1.3v-0.7L792,695.9z"/>
				<path class="st6" d="M795.7,695.9v0.8l-2.1,0.9l2.1,0.9v0.8l-3-1.3v-0.7L795.7,695.9z"/>
				<path class="st6" d="M799.3,695.9v0.8l-2.1,0.9l2.1,0.9v0.8l-3-1.3v-0.7L799.3,695.9z"/>
				<path class="st6" d="M803,695.9v0.8l-2.1,0.9l2.1,0.9v0.8l-3-1.3v-0.7L803,695.9z"/>
				<path class="st6" d="M806.6,695.9v0.8l-2.1,0.9l2.1,0.9v0.8l-3-1.3v-0.7L806.6,695.9z"/>
				<path class="st6" d="M810.3,695.9v0.8l-2.1,0.9l2.1,0.9v0.8l-3-1.3v-0.7L810.3,695.9z"/>
				<path class="st6" d="M814,695.9v0.8l-2.1,0.9l2.1,0.9v0.8l-3-1.3v-0.7L814,695.9z"/>
				<path class="st6" d="M817.6,695.9v0.8l-2.1,0.9l2.1,0.9v0.8l-3-1.3v-0.7L817.6,695.9z"/>
				<path class="st6" d="M543,707.3l-0.2,1.4h-1l1-6.1h1.3l1,6.1h-1l-0.2-1.4H543z M543.5,704l-0.3,2.4h0.7L543.5,704z"/>
				<path class="st6" d="M545.9,708.7V704h-0.8v-0.6c0.2,0,0.4-0.1,0.6-0.2c0.2-0.1,0.3-0.3,0.4-0.5h0.6v6.1H545.9z"/>
				<path class="st6" d="M547.6,704.2c0-0.6,0.2-1,0.5-1.3c0.3-0.3,0.6-0.4,1.1-0.4c0.4,0,0.7,0.1,1,0.4c0.3,0.3,0.4,0.6,0.4,1.1
					c0,0.5-0.1,0.9-0.3,1.3c-0.1,0.2-0.3,0.6-0.7,1.1c-0.1,0.1-0.2,0.4-0.4,0.7l-0.2,0.2c-0.1,0.2-0.2,0.3-0.2,0.4c0,0,0,0.1,0,0.1
					l1.8,0v0.9h-2.9v-0.8c0,0,0.1-0.1,0.2-0.3c0.1-0.1,0.1-0.2,0.2-0.3l0.2-0.3c0.1-0.2,0.4-0.5,0.7-0.9c0.3-0.4,0.5-0.7,0.6-1.1
					c0.1-0.3,0.2-0.5,0.2-0.8c0-0.2-0.1-0.3-0.2-0.5c-0.1-0.1-0.3-0.2-0.4-0.2c-0.3,0-0.4,0.1-0.5,0.4c0,0.1-0.1,0.2-0.1,0.3v0.2
					h-0.9V704.2z"/>
				<path class="st6" d="M552.6,707.8c0.4,0,0.6-0.2,0.6-0.6v-0.4c0-0.6-0.3-0.9-1-0.9v-0.8c0.4,0,0.6-0.1,0.8-0.3
					c0.2-0.2,0.2-0.4,0.2-0.7v-0.1c0-0.4-0.2-0.6-0.5-0.6c-0.2,0-0.3,0.1-0.4,0.2c-0.1,0.1-0.1,0.3-0.1,0.4v0.2h-0.9V704
					c0-0.4,0.1-0.8,0.3-1.1c0.2-0.3,0.6-0.5,1-0.5c0.4,0,0.8,0.1,1,0.4c0.2,0.3,0.3,0.6,0.3,1v0.3c0,0.4-0.1,0.7-0.3,1
					c-0.1,0.1-0.2,0.2-0.3,0.3c0.3,0.2,0.5,0.4,0.6,0.7c0.1,0.2,0.1,0.3,0.1,0.6v0.5c0,0.4-0.2,0.8-0.5,1.1
					c-0.3,0.3-0.6,0.4-1.1,0.4c-0.4,0-0.7-0.1-1-0.4c-0.3-0.3-0.4-0.6-0.4-1v-0.1l0.9-0.1l0,0.2c0,0.2,0.1,0.3,0.2,0.4
					C552.3,707.7,552.4,707.8,552.6,707.8z"/>
				<path class="st6" d="M554.8,706.4l1.6-3.8h0.9v3.8h0.6v0.9h-0.6v1.3h-0.9v-1.3h-1.6V706.4z M556.4,706.4v-1.9l-0.8,1.9H556.4z"
					/>
				<path class="st6" d="M559.6,703.5v1.3c0.1-0.1,0.2-0.2,0.4-0.3c0.1,0,0.2-0.1,0.3-0.1c0.4,0,0.7,0.1,0.9,0.4
					c0.2,0.2,0.2,0.6,0.2,1v1.3c0,0.4-0.1,0.8-0.4,1.1c-0.3,0.3-0.6,0.4-1,0.4c-0.4,0-0.7-0.1-1-0.4c-0.3-0.3-0.4-0.6-0.4-1v-0.1
					l0.9-0.1l0,0.2c0,0.2,0.1,0.4,0.3,0.5c0.1,0,0.1,0,0.2,0c0.4,0,0.6-0.2,0.6-0.6v-1.5c0-0.2-0.1-0.3-0.2-0.4
					c-0.1-0.1-0.1-0.1-0.3-0.1c-0.2,0-0.3,0.1-0.4,0.2c-0.1,0.1-0.1,0.2-0.1,0.3v0.2h-0.9v-3.3h2.7v0.9H559.6z"/>
				<path class="st6" d="M564,704.1v-0.1c0-0.1,0-0.3-0.1-0.4c-0.1-0.1-0.2-0.2-0.3-0.2c-0.1,0-0.3,0.1-0.3,0.2s-0.1,0.2-0.1,0.4
					v1.2c0.2-0.2,0.4-0.3,0.7-0.3c0.4,0,0.7,0.1,0.9,0.4c0.2,0.2,0.3,0.6,0.3,1v1h0c0,0.4-0.2,0.7-0.4,1c-0.3,0.3-0.6,0.4-1,0.4
					c-0.4,0-0.7-0.1-1-0.4c-0.3-0.3-0.4-0.6-0.4-1V704c0-0.3,0.1-0.6,0.2-0.8c0.1-0.2,0.3-0.4,0.6-0.5c0.2-0.1,0.4-0.1,0.6-0.1
					c0.4,0,0.7,0.1,1,0.4c0.3,0.3,0.4,0.6,0.4,1v0.1H564z M563.1,707.3c0,0.1,0,0.3,0.1,0.4c0.1,0.1,0.2,0.2,0.3,0.2
					c0.1,0,0.3-0.1,0.3-0.2c0.1-0.1,0.1-0.2,0.1-0.4v-1.1c0-0.2-0.1-0.3-0.2-0.4c-0.1-0.1-0.1-0.1-0.3-0.1c-0.2,0-0.3,0.1-0.4,0.2
					c-0.1,0.1-0.1,0.2-0.1,0.3V707.3z"/>
				<path class="st6" d="M568.3,702.6v0.9l-1.3,5.1h-0.9l1.3-5.2h-1.9v-0.9H568.3z"/>
				<path class="st6" d="M571.9,707.3c0,0.4-0.1,0.7-0.4,1c-0.3,0.3-0.6,0.4-1,0.4h-0.1c-0.4,0-0.7-0.1-1-0.4
					c-0.3-0.3-0.4-0.6-0.4-1v-0.6c0-0.4,0.1-0.7,0.4-1c0.1-0.1,0.2-0.2,0.4-0.3c-0.2-0.1-0.4-0.3-0.6-0.6c-0.1-0.2-0.1-0.3-0.1-0.6
					v-0.3c0-0.4,0.1-0.7,0.3-1c0.3-0.3,0.6-0.4,1-0.4h0.1c0.4,0,0.8,0.1,1,0.4c0.2,0.3,0.3,0.6,0.3,1v0.3c0,0.4-0.1,0.7-0.3,0.9
					c-0.1,0.1-0.2,0.2-0.3,0.3c0.3,0.2,0.5,0.4,0.6,0.7c0.1,0.2,0.1,0.3,0.1,0.6V707.3z M571.1,704.2c0-0.4-0.1-0.7-0.4-0.8
					c-0.1,0-0.1,0-0.2,0c-0.2,0-0.3,0-0.4,0.1c-0.1,0.1-0.1,0.2-0.2,0.3c0,0.1,0,0.3,0,0.4c0,0.3,0.1,0.5,0.1,0.6
					c0.1,0.2,0.3,0.2,0.5,0.2s0.4-0.1,0.5-0.2C571,704.6,571.1,704.4,571.1,704.2z M571,706.8c0-0.4-0.1-0.6-0.2-0.7
					c-0.1-0.1-0.2-0.1-0.3-0.1c-0.2,0-0.4,0.1-0.5,0.3c-0.1,0.1-0.1,0.3-0.1,0.5v0.3c0,0.2,0.1,0.4,0.2,0.5c0.1,0.1,0.2,0.2,0.4,0.2
					c0.2,0,0.4-0.1,0.5-0.4c0-0.1,0.1-0.2,0.1-0.3V706.8z"/>
				<path class="st6" d="M574.1,702.5c0.4,0,0.7,0.1,1,0.4c0.3,0.3,0.4,0.6,0.4,1v3.3c0,0.4-0.1,0.7-0.4,1c-0.3,0.3-0.6,0.4-1,0.4
					c-0.4,0-0.7-0.1-1-0.4c-0.3-0.3-0.4-0.6-0.4-1v-0.1h0.9v0.1c0,0.1,0,0.3,0.1,0.4c0.1,0.1,0.2,0.1,0.3,0.1c0.1,0,0.3,0,0.3-0.1
					c0.1-0.1,0.1-0.2,0.1-0.4v-1.2c-0.2,0.2-0.4,0.3-0.7,0.3c-0.4,0-0.7-0.1-0.9-0.4c-0.2-0.2-0.3-0.6-0.3-1v-1.1h0
					c0-0.3,0.1-0.5,0.2-0.8c0.1-0.2,0.3-0.4,0.6-0.5C573.7,702.5,573.9,702.5,574.1,702.5z M574.6,704c0-0.1,0-0.3-0.1-0.4
					s-0.2-0.2-0.3-0.2c-0.1,0-0.3,0.1-0.3,0.2c-0.1,0.1-0.1,0.2-0.1,0.4v1.1c0,0.2,0.1,0.3,0.2,0.4c0.1,0.1,0.1,0.1,0.3,0.1
					c0.2,0,0.4-0.1,0.4-0.4c0-0.1,0-0.1,0-0.2V704z"/>
				<path class="st6" d="M577.3,707.3l-0.2,1.4h-1l1-6.1h1.3l1,6.1h-1l-0.2-1.4H577.3z M577.7,704l-0.3,2.4h0.7L577.7,704z"/>
				<path class="st6" d="M581.2,707.3l-0.2,1.4h-1l1-6.1h1.3l1,6.1h-1l-0.2-1.4H581.2z M581.7,704l-0.3,2.4h0.7L581.7,704z"/>
				<path class="st6" d="M584.1,708.7V704h-0.8v-0.6c0.2,0,0.4-0.1,0.6-0.2c0.2-0.1,0.3-0.3,0.4-0.5h0.6v6.1H584.1z"/>
				<path class="st6" d="M585.8,704.2c0-0.6,0.2-1,0.5-1.3c0.3-0.3,0.6-0.4,1.1-0.4c0.4,0,0.7,0.1,1,0.4c0.3,0.3,0.4,0.6,0.4,1.1
					c0,0.5-0.1,0.9-0.3,1.3c-0.1,0.2-0.3,0.6-0.7,1.1c-0.1,0.1-0.2,0.4-0.4,0.7l-0.2,0.2c-0.1,0.2-0.2,0.3-0.2,0.4c0,0,0,0.1,0,0.1
					l1.8,0v0.9h-2.9v-0.8c0,0,0.1-0.1,0.2-0.3c0.1-0.1,0.1-0.2,0.2-0.3l0.2-0.3c0.1-0.2,0.4-0.5,0.7-0.9c0.3-0.4,0.5-0.7,0.6-1.1
					c0.1-0.3,0.2-0.5,0.2-0.8c0-0.2-0.1-0.3-0.2-0.5c-0.1-0.1-0.3-0.2-0.4-0.2c-0.3,0-0.4,0.1-0.5,0.4c0,0.1-0.1,0.2-0.1,0.3v0.2
					h-0.9V704.2z"/>
				<path class="st6" d="M590.8,707.8c0.4,0,0.6-0.2,0.6-0.6v-0.4c0-0.6-0.3-0.9-1-0.9v-0.8c0.4,0,0.6-0.1,0.8-0.3
					c0.2-0.2,0.2-0.4,0.2-0.7v-0.1c0-0.4-0.2-0.6-0.5-0.6c-0.2,0-0.3,0.1-0.4,0.2c-0.1,0.1-0.1,0.3-0.1,0.4v0.2h-0.9V704
					c0-0.4,0.1-0.8,0.3-1.1c0.2-0.3,0.6-0.5,1-0.5c0.4,0,0.8,0.1,1,0.4c0.2,0.3,0.3,0.6,0.3,1v0.3c0,0.4-0.1,0.7-0.3,1
					c-0.1,0.1-0.2,0.2-0.3,0.3c0.3,0.2,0.5,0.4,0.6,0.7c0.1,0.2,0.1,0.3,0.1,0.6v0.5c0,0.4-0.2,0.8-0.5,1.1
					c-0.3,0.3-0.6,0.4-1.1,0.4c-0.4,0-0.7-0.1-1-0.4c-0.3-0.3-0.4-0.6-0.4-1v-0.1l0.9-0.1l0,0.2c0,0.2,0.1,0.3,0.2,0.4
					C590.5,707.7,590.7,707.8,590.8,707.8z"/>
				<path class="st6" d="M593,706.4l1.6-3.8h0.9v3.8h0.6v0.9h-0.6v1.3h-0.9v-1.3H593V706.4z M594.6,706.4v-1.9l-0.8,1.9H594.6z"/>
				<path class="st6" d="M597.8,703.5v1.3c0.1-0.1,0.2-0.2,0.4-0.3c0.1,0,0.2-0.1,0.3-0.1c0.4,0,0.7,0.1,0.9,0.4
					c0.2,0.2,0.2,0.6,0.2,1v1.3c0,0.4-0.1,0.8-0.4,1.1c-0.3,0.3-0.6,0.4-1,0.4c-0.4,0-0.7-0.1-1-0.4c-0.3-0.3-0.4-0.6-0.4-1v-0.1
					l0.9-0.1l0,0.2c0,0.2,0.1,0.4,0.3,0.5c0.1,0,0.1,0,0.2,0c0.4,0,0.6-0.2,0.6-0.6v-1.5c0-0.2-0.1-0.3-0.2-0.4
					c-0.1-0.1-0.1-0.1-0.3-0.1c-0.2,0-0.3,0.1-0.4,0.2c-0.1,0.1-0.1,0.2-0.1,0.3v0.2h-0.9v-3.3h2.7v0.9H597.8z"/>
				<path class="st6" d="M602.2,704.1v-0.1c0-0.1,0-0.3-0.1-0.4s-0.2-0.2-0.3-0.2c-0.1,0-0.3,0.1-0.3,0.2c-0.1,0.1-0.1,0.2-0.1,0.4
					v1.2c0.2-0.2,0.4-0.3,0.7-0.3c0.4,0,0.7,0.1,0.9,0.4c0.2,0.2,0.3,0.6,0.3,1v1h0c0,0.4-0.2,0.7-0.4,1c-0.3,0.3-0.6,0.4-1,0.4
					c-0.4,0-0.7-0.1-1-0.4c-0.3-0.3-0.4-0.6-0.4-1V704c0-0.3,0.1-0.6,0.2-0.8c0.1-0.2,0.3-0.4,0.6-0.5c0.2-0.1,0.4-0.1,0.6-0.1
					c0.4,0,0.7,0.1,1,0.4c0.3,0.3,0.4,0.6,0.4,1v0.1H602.2z M601.3,707.3c0,0.1,0,0.3,0.1,0.4c0.1,0.1,0.2,0.2,0.3,0.2
					c0.1,0,0.3-0.1,0.3-0.2c0.1-0.1,0.1-0.2,0.1-0.4v-1.1c0-0.2-0.1-0.3-0.2-0.4c-0.1-0.1-0.1-0.1-0.3-0.1c-0.2,0-0.3,0.1-0.4,0.2
					c-0.1,0.1-0.1,0.2-0.1,0.3V707.3z"/>
				<path class="st6" d="M606.6,702.6v0.9l-1.3,5.1h-0.9l1.3-5.2h-1.9v-0.9H606.6z"/>
				<path class="st6" d="M610.2,707.3c0,0.4-0.1,0.7-0.4,1c-0.3,0.3-0.6,0.4-1,0.4h-0.1c-0.4,0-0.7-0.1-1-0.4
					c-0.3-0.3-0.4-0.6-0.4-1v-0.6c0-0.4,0.1-0.7,0.4-1c0.1-0.1,0.2-0.2,0.4-0.3c-0.2-0.1-0.4-0.3-0.6-0.6c-0.1-0.2-0.1-0.3-0.1-0.6
					v-0.3c0-0.4,0.1-0.7,0.3-1c0.3-0.3,0.6-0.4,1-0.4h0.1c0.4,0,0.8,0.1,1,0.4c0.2,0.3,0.3,0.6,0.3,1v0.3c0,0.4-0.1,0.7-0.3,0.9
					c-0.1,0.1-0.2,0.2-0.3,0.3c0.3,0.2,0.5,0.4,0.6,0.7c0.1,0.2,0.1,0.3,0.1,0.6V707.3z M609.3,704.2c0-0.4-0.1-0.7-0.4-0.8
					c-0.1,0-0.1,0-0.2,0c-0.2,0-0.3,0-0.4,0.1c-0.1,0.1-0.1,0.2-0.2,0.3c0,0.1,0,0.3,0,0.4c0,0.3,0.1,0.5,0.1,0.6
					c0.1,0.2,0.3,0.2,0.5,0.2s0.4-0.1,0.5-0.2C609.2,704.6,609.3,704.4,609.3,704.2z M609.2,706.8c0-0.4-0.1-0.6-0.2-0.7
					c-0.1-0.1-0.2-0.1-0.3-0.1c-0.2,0-0.4,0.1-0.5,0.3c-0.1,0.1-0.1,0.3-0.1,0.5v0.3c0,0.2,0.1,0.4,0.2,0.5c0.1,0.1,0.2,0.2,0.4,0.2
					c0.2,0,0.4-0.1,0.5-0.4c0-0.1,0.1-0.2,0.1-0.3V706.8z"/>
				<path class="st6" d="M612.3,702.5c0.4,0,0.7,0.1,1,0.4c0.3,0.3,0.4,0.6,0.4,1v3.3c0,0.4-0.1,0.7-0.4,1c-0.3,0.3-0.6,0.4-1,0.4
					c-0.4,0-0.7-0.1-1-0.4c-0.3-0.3-0.4-0.6-0.4-1v-0.1h0.9v0.1c0,0.1,0,0.3,0.1,0.4c0.1,0.1,0.2,0.1,0.3,0.1c0.1,0,0.3,0,0.3-0.1
					c0.1-0.1,0.1-0.2,0.1-0.4v-1.2c-0.2,0.2-0.4,0.3-0.7,0.3c-0.4,0-0.7-0.1-0.9-0.4c-0.2-0.2-0.3-0.6-0.3-1v-1.1h0
					c0-0.3,0.1-0.5,0.2-0.8c0.1-0.2,0.3-0.4,0.6-0.5C611.9,702.5,612.1,702.5,612.3,702.5z M612.8,704c0-0.1,0-0.3-0.1-0.4
					c-0.1-0.1-0.2-0.2-0.3-0.2c-0.1,0-0.3,0.1-0.3,0.2c-0.1,0.1-0.1,0.2-0.1,0.4v1.1c0,0.2,0.1,0.3,0.2,0.4c0.1,0.1,0.1,0.1,0.3,0.1
					c0.2,0,0.4-0.1,0.4-0.4c0-0.1,0-0.1,0-0.2V704z"/>
				<path class="st6" d="M617.4,707.3c0,0.4-0.1,0.7-0.4,1c-0.3,0.3-0.6,0.4-1,0.4c-0.4,0-0.7-0.1-1-0.4c-0.3-0.3-0.4-0.6-0.4-1V704
					c0-0.4,0.1-0.7,0.4-1c0.3-0.3,0.6-0.4,1-0.4c0.4,0,0.7,0.1,1,0.4c0.3,0.3,0.4,0.6,0.4,1V707.3z M616.4,703.9
					c0-0.1-0.1-0.3-0.2-0.4c-0.1-0.1-0.2-0.2-0.4-0.2c-0.1,0-0.3,0.1-0.4,0.2c-0.1,0.1-0.2,0.2-0.2,0.4v3.3c0,0.1,0.1,0.3,0.2,0.4
					c0.1,0.1,0.2,0.2,0.4,0.2c0.1,0,0.3-0.1,0.4-0.2c0.1-0.1,0.2-0.2,0.2-0.4V703.9z"/>
				<path class="st6" d="M619.2,707.3l-0.2,1.4h-1l1-6.1h1.3l1,6.1h-1l-0.2-1.4H619.2z M619.6,704l-0.3,2.4h0.7L619.6,704z"/>
				<path class="st6" d="M623.1,707.3l-0.2,1.4h-1l1-6.1h1.3l1,6.1h-1l-0.2-1.4H623.1z M623.6,704l-0.3,2.4h0.7L623.6,704z"/>
				<path class="st6" d="M627,707.3l-0.2,1.4h-1l1-6.1h1.3l1,6.1h-1l-0.2-1.4H627z M627.5,704l-0.3,2.4h0.7L627.5,704z"/>
				<path class="st6" d="M632.8,704v0.8l-2.1,0.9l2.1,0.9v0.8l-3-1.3v-0.7L632.8,704z"/>
				<path class="st6" d="M636.5,704v0.8l-2.1,0.9l2.1,0.9v0.8l-3-1.3v-0.7L636.5,704z"/>
				<path class="st6" d="M640.2,704v0.8l-2.1,0.9l2.1,0.9v0.8l-3-1.3v-0.7L640.2,704z"/>
				<path class="st6" d="M643.8,704v0.8l-2.1,0.9l2.1,0.9v0.8l-3-1.3v-0.7L643.8,704z"/>
				<path class="st6" d="M647.5,704v0.8l-2.1,0.9l2.1,0.9v0.8l-3-1.3v-0.7L647.5,704z"/>
				<path class="st6" d="M651.1,704v0.8l-2.1,0.9l2.1,0.9v0.8l-3-1.3v-0.7L651.1,704z"/>
				<path class="st6" d="M654.8,704v0.8l-2.1,0.9l2.1,0.9v0.8l-3-1.3v-0.7L654.8,704z"/>
				<path class="st6" d="M658.5,704v0.8l-2.1,0.9l2.1,0.9v0.8l-3-1.3v-0.7L658.5,704z"/>
				<path class="st6" d="M662.1,704v0.8l-2.1,0.9l2.1,0.9v0.8l-3-1.3v-0.7L662.1,704z"/>
				<path class="st6" d="M665.8,704v0.8l-2.1,0.9l2.1,0.9v0.8l-3-1.3v-0.7L665.8,704z"/>
				<path class="st6" d="M669.5,704v0.8l-2.1,0.9l2.1,0.9v0.8l-3-1.3v-0.7L669.5,704z"/>
				<path class="st6" d="M673.1,704v0.8l-2.1,0.9l2.1,0.9v0.8l-3-1.3v-0.7L673.1,704z"/>
				<path class="st6" d="M676.8,704v0.8l-2.1,0.9l2.1,0.9v0.8l-3-1.3v-0.7L676.8,704z"/>
				<path class="st6" d="M680.4,704v0.8l-2.1,0.9l2.1,0.9v0.8l-3-1.3v-0.7L680.4,704z"/>
				<path class="st6" d="M684.1,704v0.8l-2.1,0.9l2.1,0.9v0.8l-3-1.3v-0.7L684.1,704z"/>
				<path class="st6" d="M687.8,704v0.8l-2.1,0.9l2.1,0.9v0.8l-3-1.3v-0.7L687.8,704z"/>
				<path class="st6" d="M691.4,704v0.8l-2.1,0.9l2.1,0.9v0.8l-3-1.3v-0.7L691.4,704z"/>
				<path class="st6" d="M695.1,704v0.8l-2.1,0.9l2.1,0.9v0.8l-3-1.3v-0.7L695.1,704z"/>
				<path class="st6" d="M698.8,704v0.8l-2.1,0.9l2.1,0.9v0.8l-3-1.3v-0.7L698.8,704z"/>
				<path class="st6" d="M702.4,704v0.8l-2.1,0.9l2.1,0.9v0.8l-3-1.3v-0.7L702.4,704z"/>
				<path class="st6" d="M706.1,704v0.8l-2.1,0.9l2.1,0.9v0.8l-3-1.3v-0.7L706.1,704z"/>
				<path class="st6" d="M709.7,704v0.8l-2.1,0.9l2.1,0.9v0.8l-3-1.3v-0.7L709.7,704z"/>
				<path class="st6" d="M713.4,704v0.8l-2.1,0.9l2.1,0.9v0.8l-3-1.3v-0.7L713.4,704z"/>
				<path class="st6" d="M717.1,704v0.8l-2.1,0.9l2.1,0.9v0.8l-3-1.3v-0.7L717.1,704z"/>
				<path class="st6" d="M720.7,704v0.8l-2.1,0.9l2.1,0.9v0.8l-3-1.3v-0.7L720.7,704z"/>
				<path class="st6" d="M724.4,704v0.8l-2.1,0.9l2.1,0.9v0.8l-3-1.3v-0.7L724.4,704z"/>
				<path class="st6" d="M728.1,704v0.8l-2.1,0.9l2.1,0.9v0.8l-3-1.3v-0.7L728.1,704z"/>
				<path class="st6" d="M731.7,704v0.8l-2.1,0.9l2.1,0.9v0.8l-3-1.3v-0.7L731.7,704z"/>
				<path class="st6" d="M735.4,704v0.8l-2.1,0.9l2.1,0.9v0.8l-3-1.3v-0.7L735.4,704z"/>
				<path class="st6" d="M739,704v0.8l-2.1,0.9l2.1,0.9v0.8l-3-1.3v-0.7L739,704z"/>
				<path class="st6" d="M742.7,704v0.8l-2.1,0.9l2.1,0.9v0.8l-3-1.3v-0.7L742.7,704z"/>
				<path class="st6" d="M746.4,704v0.8l-2.1,0.9l2.1,0.9v0.8l-3-1.3v-0.7L746.4,704z"/>
				<path class="st6" d="M750,704v0.8l-2.1,0.9l2.1,0.9v0.8l-3-1.3v-0.7L750,704z"/>
				<path class="st6" d="M753.7,704v0.8l-2.1,0.9l2.1,0.9v0.8l-3-1.3v-0.7L753.7,704z"/>
				<path class="st6" d="M757.4,704v0.8l-2.1,0.9l2.1,0.9v0.8l-3-1.3v-0.7L757.4,704z"/>
				<path class="st6" d="M761,704v0.8l-2.1,0.9l2.1,0.9v0.8l-3-1.3v-0.7L761,704z"/>
				<path class="st6" d="M764.7,704v0.8l-2.1,0.9l2.1,0.9v0.8l-3-1.3v-0.7L764.7,704z"/>
				<path class="st6" d="M768.3,704v0.8l-2.1,0.9l2.1,0.9v0.8l-3-1.3v-0.7L768.3,704z"/>
				<path class="st6" d="M772,704v0.8l-2.1,0.9l2.1,0.9v0.8l-3-1.3v-0.7L772,704z"/>
				<path class="st6" d="M775.7,704v0.8l-2.1,0.9l2.1,0.9v0.8l-3-1.3v-0.7L775.7,704z"/>
				<path class="st6" d="M779.3,704v0.8l-2.1,0.9l2.1,0.9v0.8l-3-1.3v-0.7L779.3,704z"/>
				<path class="st6" d="M783,704v0.8l-2.1,0.9l2.1,0.9v0.8l-3-1.3v-0.7L783,704z"/>
				<path class="st6" d="M786.7,704v0.8l-2.1,0.9l2.1,0.9v0.8l-3-1.3v-0.7L786.7,704z"/>
				<path class="st6" d="M790.3,704v0.8l-2.1,0.9l2.1,0.9v0.8l-3-1.3v-0.7L790.3,704z"/>
				<path class="st6" d="M794,704v0.8l-2.1,0.9l2.1,0.9v0.8l-3-1.3v-0.7L794,704z"/>
				<path class="st6" d="M797.7,704v0.8l-2.1,0.9l2.1,0.9v0.8l-3-1.3v-0.7L797.7,704z"/>
				<path class="st6" d="M801.3,704v0.8l-2.1,0.9l2.1,0.9v0.8l-3-1.3v-0.7L801.3,704z"/>
				<path class="st6" d="M805,704v0.8l-2.1,0.9l2.1,0.9v0.8l-3-1.3v-0.7L805,704z"/>
				<path class="st6" d="M808.6,704v0.8l-2.1,0.9l2.1,0.9v0.8l-3-1.3v-0.7L808.6,704z"/>
				<path class="st6" d="M812.3,704v0.8l-2.1,0.9l2.1,0.9v0.8l-3-1.3v-0.7L812.3,704z"/>
				<path class="st6" d="M815.8,707.3c0,0.4-0.1,0.7-0.4,1c-0.3,0.3-0.6,0.4-1,0.4c-0.4,0-0.7-0.1-1-0.4c-0.3-0.3-0.4-0.6-0.4-1V704
					c0-0.4,0.1-0.7,0.4-1c0.3-0.3,0.6-0.4,1-0.4c0.4,0,0.7,0.1,1,0.4c0.3,0.3,0.4,0.6,0.4,1V707.3z M814.9,703.9
					c0-0.1-0.1-0.3-0.2-0.4c-0.1-0.1-0.2-0.2-0.4-0.2c-0.1,0-0.3,0.1-0.4,0.2s-0.2,0.2-0.2,0.4v3.3c0,0.1,0.1,0.3,0.2,0.4
					c0.1,0.1,0.2,0.2,0.4,0.2c0.1,0,0.3-0.1,0.4-0.2c0.1-0.1,0.2-0.2,0.2-0.4V703.9z"/>
				<path class="st6" d="M819.5,707.3c0,0.4-0.1,0.7-0.4,1c-0.3,0.3-0.6,0.4-1,0.4c-0.4,0-0.7-0.1-1-0.4c-0.3-0.3-0.4-0.6-0.4-1V704
					c0-0.4,0.1-0.7,0.4-1c0.3-0.3,0.6-0.4,1-0.4c0.4,0,0.7,0.1,1,0.4c0.3,0.3,0.4,0.6,0.4,1V707.3z M818.6,703.9
					c0-0.1-0.1-0.3-0.2-0.4c-0.1-0.1-0.2-0.2-0.4-0.2c-0.1,0-0.3,0.1-0.4,0.2s-0.2,0.2-0.2,0.4v3.3c0,0.1,0.1,0.3,0.2,0.4
					c0.1,0.1,0.2,0.2,0.4,0.2c0.1,0,0.3-0.1,0.4-0.2c0.1-0.1,0.2-0.2,0.2-0.4V703.9z"/>
			</g>
			<g>
				<text transform="matrix(1 0 0 1 619.6364 608.6084)" class="st6 st7 st8">SURNAME</text>
				<text transform="matrix(1 0 0 1 619.6354 614.3955)" class="st7 st9">HONG</text>
			</g>
			<g>
				<text transform="matrix(1 0 0 1 619.6364 621.0498)" class="st6 st7 st8">GIVEN NAME</text>
				<text transform="matrix(1 0 0 1 619.6354 626.8359)" class="st7 st9">GILDONG</text>
			</g>
			<g>
				<text transform="matrix(1 0 0 1 619.6364 633.4912)" class="st6 st7 st8">NATIONALITY</text>
				<text transform="matrix(1 0 0 1 619.6354 639.2764)" class="st7 st9">KOREA, REPUBLIC OF</text>
			</g>
			<g>
				<text transform="matrix(1 0 0 1 619.6364 645.9326)" class="st6 st7 st8">DATE OF BIRTH</text>
				<text transform="matrix(1 0 0 1 619.6354 651.7188)" class="st7 st9">DD MM YYYY</text>
			</g>
			<g>
				<text transform="matrix(1 0 0 1 619.6364 658.374)" class="st6 st7 st8">SEX</text>
				<text transform="matrix(1 0 0 1 619.6354 664.1602)" class="st7 st9">M</text>
			</g>
			<text transform="matrix(1 0 0 1 799.5505 658.374)" class="st6 st7 st8">AUTHORITY</text>
			<g>
				<text transform="matrix(1 0 0 1 715.3298 658.374)" class="st6 st7 st8">PLACE OF BIRTH</text>
				<text transform="matrix(1 0 0 1 701.9821 664.1602)" class="st7 st9">KOREA, REPUBLIC OF</text>
			</g>
			<g>
				<text transform="matrix(1 0 0 1 799.7448 676.6006)" class="st6 st7 st8">SIGNATURE</text>
				<text transform="matrix(1 0 0 1 778.9147 682.3877)" class="st7 st9">GILDONG HONG</text>
			</g>
			<text transform="matrix(1 0 0 1 619.6364 671.1045)" class="st6 st7 st8">DATE OF ISSUE</text>
			<text transform="matrix(1 0 0 1 619.6364 676.6006)" class="st6 st7 st8">DATE OF EXPIRY</text>
			<g>
				<rect x="546.1" y="605.6" class="st0" width="66.5" height="78.1"/>
			</g>
			<g>
				<defs>
					<rect id="SVGID_1_" x="546.1" y="605.6" width="66.5" height="78.1"/>
				</defs>
				<clipPath id="SVGID_2_">
					<use xlink:href="#SVGID_1_"  style="overflow:visible;"/>
				</clipPath>
				<g class="st10">
					<path class="st11" d="M617,694.7v-15.8c0-8-9.2-11.9-17.1-14.5l-7.9-2.6l-4-5.3v-6.9"/>
					<path class="st11" d="M543.2,694.7v-15.8c0-8,9.2-11.9,17.1-14.5l7.9-2.6l4-5.3v-6.5"/>
					<path class="st11" d="M591.2,630.1v12.3c0,5.1-4.1,10.2-11.2,10.2c-7.2,0-11.2-5.1-11.2-10.2v-14.3"/>
					<polyline class="st11" points="588,660.1 580.1,668 572.2,660.1 					"/>
					<line class="st11" x1="580.1" y1="670.7" x2="580.1" y2="673.4"/>
					<circle class="st3" cx="585" cy="633.4" r="1"/>
					<circle class="st3" cx="574.8" cy="633.4" r="1"/>
					<line class="st11" x1="579.9" y1="630.3" x2="579.9" y2="637.4"/>
					<path class="st11" d="M578.1,643.2c1,1,2.6,1,3.6,0"/>
					<rect x="589.7" y="673.7" class="st11" width="13.6" height="2.9"/>
					<rect x="589.7" y="676.6" class="st11" width="13.6" height="10.4"/>
					<g>
						<path class="st11" d="M591.1,633.3v6c1.6-0.1,2.9-1.4,2.9-3C594,634.7,592.8,633.4,591.1,633.3z"/>
						<path class="st11" d="M592.1,637.4c0.6-0.6,0.6-1.6,0-2.2"/>
					</g>
					<g>
						<path class="st11" d="M568.7,633.3v6c-1.6-0.1-2.9-1.4-2.9-3C565.8,634.7,567.1,633.4,568.7,633.3z"/>
						<path class="st11" d="M567.7,637.4c-0.6-0.6-0.6-1.6,0-2.2"/>
					</g>
					<path class="st11" d="M586.7,630.9c-1-1-2.5-1-3.5,0"/>
					<path class="st11" d="M576.6,630.9c-1-1-2.5-1-3.5,0"/>
					<path class="st12" d="M568.7,626v-5.1l-2-2l-2.2-2h22.6c2.3,0,4.1,1.8,4.1,4.1v14h-1.3l-1.1-7.8L586,626h-10.2h-4.1H568.7z"/>
				</g>
			</g>
		</g>
		<line class="st2" x1="233.7" y1="694.5" x2="233.7" y2="818.5"/>
		<g>
			<g>
				<line class="st13" x1="806.2" y1="511" x2="825.6" y2="511"/>
				<line class="st13" x1="815.9" y1="530.3" x2="835.2" y2="530.3"/>
				<path class="st13" d="M773.6,491.7c-5.3,0-9.7,4.3-9.7,9.7s4.3,9.7,9.7,9.7h32.7c-5.3,0-9.7,4.3-9.7,9.7s4.3,9.7,9.7,9.7h9.7
					c-5.3,0-9.7,4.3-9.7,9.7c0,5.3,4.3,9.7,9.7,9.7h48.3l28-9.7l1-62.8L854.6,453h-33.8c-5.3,0-9.7,4.3-9.7,9.7v9.7"/>
				<path class="st13" d="M815.9,491.7h-58c-5.3,0-9.7-4.3-9.7-9.7s4.3-9.7,9.7-9.7h67.7"/>
			</g>
			<line class="st13" x1="803.3" y1="511.2" x2="819.5" y2="511.2"/>
			<line class="st13" x1="815.3" y1="530.2" x2="825.2" y2="530.2"/>
		</g>
	</g>
</g>
</svg>
