<?xml version="1.0" encoding="UTF-8"?>
<svg width="32px" height="32px" viewBox="0 0 32 32" version="1.1" xmlns="http://www.w3.org/2000/svg" xmlns:xlink="http://www.w3.org/1999/xlink">
    <!-- Generator: Sketch 50.2 (55047) - http://www.bohemiancoding.com/sketch -->
    <title>instagram</title>
    <desc>Created with Sketch.</desc>
    <defs></defs>
    <g id="Page-1" stroke="none" stroke-width="1" fill="none" fill-rule="evenodd">
        <g id="Main" transform="translate(-975.000000, -5562.000000)">
            <g id="footer" transform="translate(-40.000000, 5511.000000)">
                <g id="sns" transform="translate(1015.000000, 50.000000)">
                    <g id="instagram" transform="translate(0.000000, 1.000000)">
                        <path d="M16,0 C24.836,0 32,7.164 32,16 C32,24.836 24.836,32 16,32 C7.164,32 0,24.836 0,16 C0,7.164 7.163,0 16,0" id="Fill-1" fill="#A0A0A0"></path>
                        <path d="M23.0288,21.3051 C23.0288,22.2561 22.2558,23.0301 21.3028,23.0301 L10.6628,23.0301 C9.7108,23.0301 8.9368,22.2571 8.9368,21.3051 L8.9368,13.9961 L11.4368,13.9961 C11.2048,14.5671 11.0738,15.3471 11.0738,16.0011 C11.0738,18.7151 13.2818,20.9241 15.9968,20.9241 C18.7118,20.9241 20.9188,18.7151 20.9188,16.0011 C20.9188,15.3471 20.7878,14.5671 20.5568,13.9961 L23.0268,13.9961 L23.0268,21.3051 L23.0288,21.3051 Z M15.9998,12.9881 C18.4968,12.9881 19.0118,15.3321 19.0118,16.0011 C19.0118,17.6601 17.6598,19.0121 15.9998,19.0121 C14.3388,19.0121 12.9878,17.6601 12.9878,16.0011 C12.9868,15.3321 13.5028,12.9881 15.9998,12.9881 Z M22.6178,9.0111 L23.0118,9.0101 L23.0118,11.9981 L20.0018,12.0081 L19.9918,9.0201 L22.6178,9.0111 Z M21.5218,6.9981 L10.4768,6.9981 C8.5578,6.9981 6.9978,8.5591 6.9978,10.4771 L6.9978,21.5231 C6.9978,23.4421 8.5588,25.0021 10.4768,25.0021 L21.5228,25.0021 C23.4418,25.0021 25.0018,23.4411 25.0018,21.5231 L25.0018,10.4771 C25.0018,8.5591 23.4408,6.9981 21.5218,6.9981 Z" id="Fill-3" fill="#FFFFFF"></path>
                    </g>
                </g>
            </g>
        </g>
    </g>
</svg>