<?xml version="1.0" encoding="utf-8"?>
<!-- Generator: Adobe Illustrator 22.1.0, SVG Export Plug-In . SVG Version: 6.00 Build 0)  -->
<svg version="1.1" id="레이어_1" xmlns="http://www.w3.org/2000/svg" xmlns:xlink="http://www.w3.org/1999/xlink" x="0px"
	 y="0px" viewBox="0 0 205.2 32" style="enable-background:new 0 0 205.2 32;" xml:space="preserve">
<style type="text/css">
	.st0{enable-background:new    ;}
	.st1{fill:#363636;}
	.st2{fill:none;stroke:url(#Combined-Shape_1_);stroke-width:2;stroke-linecap:round;stroke-linejoin:round;}
	.st3{fill:none;stroke:#B7B7B7;stroke-width:0.8216;stroke-linecap:round;stroke-linejoin:round;stroke-miterlimit:10;}
</style>
<title>logo</title>
<desc>Created with Sketch.</desc>
<g id="logo" transform="translate(170.000000, 45.000000)">
	<g class="st0">
		<path class="st1" d="M-124.8-26.9v5.1h-2.7v-14.5h4.7c1,0,1.8,0.1,2.5,0.3c0.7,0.2,1.3,0.5,1.8,1s0.8,0.9,1,1.5s0.3,1.2,0.3,1.9
			s-0.1,1.3-0.4,1.9s-0.6,1.1-1,1.5c-0.5,0.4-1.1,0.7-1.8,1c-0.7,0.2-1.5,0.4-2.5,0.4L-124.8-26.9L-124.8-26.9z M-124.8-29h2
			c0.5,0,0.9-0.1,1.3-0.2c0.4-0.1,0.7-0.3,0.9-0.5c0.2-0.2,0.4-0.5,0.5-0.8s0.2-0.7,0.2-1.1s-0.1-0.7-0.2-1.1
			c-0.1-0.3-0.3-0.6-0.5-0.8c-0.2-0.2-0.5-0.4-0.9-0.5c-0.4-0.1-0.8-0.2-1.3-0.2h-2V-29z"/>
		<path class="st1" d="M-109.2-24c0.5,0,1-0.1,1.4-0.3c0.4-0.2,0.8-0.4,1-0.7c0.2-0.3,0.5-0.7,0.7-1.1c0.1-0.4,0.2-0.9,0.2-1.5v-8.7
			h2.7v8.7c0,0.9-0.1,1.7-0.4,2.4c-0.3,0.7-0.7,1.4-1.2,1.9s-1.1,0.9-1.9,1.2c-0.7,0.3-1.6,0.4-2.5,0.4s-1.8-0.1-2.5-0.4
			s-1.4-0.7-1.9-1.2s-0.9-1.2-1.2-1.9c-0.3-0.7-0.4-1.5-0.4-2.4v-8.7h2.7v8.7c0,0.6,0.1,1.1,0.2,1.5c0.1,0.4,0.4,0.8,0.6,1.1
			c0.3,0.3,0.6,0.6,1,0.7C-110.2-24.1-109.7-24-109.2-24z"/>
		<path class="st1" d="M-100.5-21.8v-14.5h5c0.9,0,1.8,0.1,2.4,0.3c0.7,0.2,1.2,0.4,1.6,0.8c0.4,0.3,0.7,0.7,0.9,1.2s0.3,1,0.3,1.6
			c0,0.3,0,0.7-0.2,1c-0.1,0.3-0.3,0.6-0.5,0.9s-0.5,0.5-0.8,0.7c-0.3,0.2-0.7,0.4-1.2,0.6c2,0.4,3,1.5,3,3.2c0,0.6-0.1,1.2-0.3,1.7
			c-0.2,0.5-0.6,1-1,1.3s-1,0.7-1.6,0.9c-0.5,0.2-1.3,0.3-2.1,0.3H-100.5z M-97.8-30h2.1c0.9,0,1.6-0.2,2.1-0.5s0.7-0.9,0.7-1.6
			c0-0.8-0.2-1.3-0.6-1.6s-1.1-0.5-2-0.5h-2.3C-97.8-34.2-97.8-30-97.8-30z M-97.8-28.1v4.2h2.7c0.5,0,0.9-0.1,1.3-0.2
			c0.3-0.1,0.6-0.3,0.8-0.5c0.2-0.2,0.4-0.4,0.4-0.7c0-0.3,0.1-0.5,0.1-0.8s0-0.6-0.2-0.8c-0.1-0.2-0.3-0.5-0.5-0.6
			c-0.2-0.1-0.5-0.3-0.8-0.4c-0.3-0.1-0.7-0.1-1.2-0.1L-97.8-28.1L-97.8-28.1z"/>
		<path class="st1" d="M-84.8-24h5.8v2.2h-8.5v-14.5h2.7V-24z"/>
		<path class="st1" d="M-73-27.4v5.6h-2.7v-5.6l-5.3-8.8h2.4c0.2,0,0.4,0.1,0.6,0.2s0.3,0.3,0.3,0.4l2.7,4.8
			c0.2,0.3,0.3,0.6,0.4,0.8s0.2,0.5,0.3,0.8c0.1-0.3,0.2-0.5,0.3-0.8c0.1-0.3,0.2-0.5,0.4-0.8l2.6-4.9c0.1-0.1,0.2-0.3,0.3-0.4
			c0.1-0.1,0.3-0.2,0.6-0.2h2.4L-73-27.4z"/>
		<path class="st1" d="M-56.1-36.3v2.2h-4.4v12.3h-2.7V-34h-4.4v-2.3H-56.1z"/>
		<path class="st1" d="M-41.3-29c0,1.1-0.2,2-0.5,2.9s-0.8,1.7-1.5,2.3c-0.6,0.7-1.4,1.2-2.3,1.5c-0.9,0.4-1.9,0.6-3,0.6
			s-2.1-0.2-3-0.6c-0.9-0.4-1.7-0.9-2.3-1.5c-0.6-0.7-1.1-1.4-1.5-2.3c-0.4-0.9-0.5-1.9-0.5-2.9c0-1.1,0.2-2,0.5-2.9
			c0.4-0.9,0.9-1.7,1.5-2.3c0.6-0.7,1.4-1.2,2.3-1.5c0.9-0.4,1.9-0.6,3-0.6s2.1,0.2,3,0.6c0.9,0.4,1.7,0.9,2.3,1.5
			c0.6,0.7,1.1,1.4,1.5,2.3C-41.4-31-41.3-30.1-41.3-29z M-44.1-29c0-0.8-0.1-1.5-0.3-2.1c-0.2-0.6-0.5-1.2-0.9-1.6
			c-0.4-0.4-0.9-0.8-1.4-1c-0.6-0.2-1.2-0.3-1.9-0.3c-0.7,0-1.3,0.1-1.9,0.3s-1,0.6-1.4,1c-0.4,0.4-0.7,1-0.9,1.6
			c-0.2,0.6-0.3,1.3-0.3,2.1s0.1,1.5,0.3,2.1c0.2,0.6,0.5,1.2,0.9,1.6c0.4,0.4,0.9,0.8,1.4,1c0.6,0.2,1.2,0.4,1.9,0.4
			c0.7,0,1.3-0.1,1.9-0.4c0.6-0.2,1-0.6,1.4-1c0.4-0.4,0.7-1,0.9-1.6C-44.2-27.5-44.1-28.2-44.1-29z"/>
	</g>
	<g id="icon">
		
			<linearGradient id="Combined-Shape_1_" gradientUnits="userSpaceOnUse" x1="-525.0453" y1="-513.4123" x2="-523.6932" y2="-511.5758" gradientTransform="matrix(30 0 0 30 15575 15343)">
			<stop  offset="0" style="stop-color:#95DC0C"/>
			<stop  offset="1" style="stop-color:#D9E856"/>
		</linearGradient>
		<path id="Combined-Shape" class="st2" d="M-149.3-33.7h10.3V-14h-19.7v-10.3H-169V-44h19.7V-33.7z"/>
	</g>
</g>
<g>
	<path d="M140.3,11.6h1.4l0.8,4.6L143,19h0c0.2-0.9,0.4-1.9,0.6-2.8l1.1-4.6h1.2l1.2,4.6c0.2,0.9,0.4,1.9,0.6,2.8h0.1
		c0.1-1,0.3-1.9,0.4-2.8l0.8-4.6h1.3l-1.7,8.8H147l-1.2-4.9c-0.2-0.7-0.3-1.4-0.4-2h-0.1c-0.1,0.7-0.3,1.3-0.4,2l-1.2,4.9h-1.7
		L140.3,11.6z"/>
	<path d="M151.9,11.6h1.4v3.6h3.8v-3.6h1.4v8.8h-1.4v-4h-3.8v4h-1.4V11.6z"/>
	<path d="M160.8,11.6h1.4v8.8h-1.4V11.6z"/>
	<path d="M166.3,12.8h-2.6v-1.2h6.6v1.2h-2.6v7.7h-1.4V12.8z"/>
	<path d="M171.8,11.6h5.2v1.2h-3.8v2.5h3.2v1.2h-3.2v2.9h4v1.2h-5.3V11.6z"/>
	<path d="M181.7,11.6h1.4v7.7h3.7v1.2h-5.1V11.6z"/>
	<path d="M188.4,11.6h1.4v8.8h-1.4V11.6z"/>
	<path d="M191.5,19.3l0.8-1c0.6,0.6,1.5,1,2.4,1c1.1,0,1.7-0.5,1.7-1.2c0-0.8-0.6-1.1-1.4-1.4l-1.2-0.5c-0.9-0.4-1.8-1-1.8-2.3
		c0-1.4,1.2-2.4,2.9-2.4c1,0,2,0.4,2.7,1.1l-0.7,0.9c-0.6-0.5-1.2-0.8-1.9-0.8c-0.9,0-1.5,0.4-1.5,1.1c0,0.8,0.7,1,1.4,1.3l1.2,0.5
		c1,0.4,1.8,1.1,1.8,2.4c0,1.4-1.2,2.6-3.1,2.6C193.4,20.6,192.3,20.1,191.5,19.3z"/>
	<path d="M200.9,12.8h-2.6v-1.2h6.6v1.2h-2.6v7.7h-1.4V12.8z"/>
</g>
<line class="st3" x1="134.8" y1="13.5" x2="134.8" y2="18.5"/>
</svg>
