<?xml version="1.0" encoding="utf-8"?>
<!-- Generator: Adobe Illustrator 22.1.0, SVG Export Plug-In . SVG Version: 6.00 Build 0)  -->
<svg version="1.1" id="Layer_1" xmlns="http://www.w3.org/2000/svg" xmlns:xlink="http://www.w3.org/1999/xlink" x="0px" y="0px"
	 viewBox="0 0 129 32" style="enable-background:new 0 0 129 32;" xml:space="preserve">
<style type="text/css">
	.st0{enable-background:new    ;}
	.st1{fill:#363636;}
	.st2{fill:none;stroke:url(#Combined-Shape_1_);stroke-width:2;stroke-linecap:round;stroke-linejoin:round;}
</style>
<title>logo</title>
<desc>Created with Sketch.</desc>
<g id="Page-1">
	<g id="logo">
		<g transform="translate(1.000000, 1.000000)">
			<g class="st0">
				<path class="st1" d="M44.2,17.1v5.1h-2.7V7.8h4.7c1,0,1.8,0.1,2.5,0.3s1.3,0.5,1.8,1s0.8,0.9,1,1.5c0.2,0.6,0.3,1.2,0.3,1.9
					c0,0.7-0.1,1.3-0.4,1.9s-0.6,1.1-1,1.5c-0.5,0.4-1.1,0.7-1.8,1c-0.7,0.2-1.5,0.4-2.5,0.4H44.2z M44.2,15h2
					c0.5,0,0.9-0.1,1.3-0.2s0.7-0.3,0.9-0.5c0.2-0.2,0.4-0.5,0.5-0.8s0.2-0.7,0.2-1.1c0-0.4-0.1-0.7-0.2-1.1
					c-0.1-0.3-0.3-0.6-0.5-0.8c-0.2-0.2-0.5-0.4-0.9-0.5c-0.4-0.1-0.8-0.2-1.3-0.2h-2V15z"/>
				<path class="st1" d="M59.8,20.1c0.5,0,1-0.1,1.4-0.3c0.4-0.2,0.8-0.4,1-0.7s0.5-0.7,0.7-1.1c0.1-0.4,0.2-0.9,0.2-1.5V7.8h2.7
					v8.7c0,0.9-0.1,1.7-0.4,2.4c-0.3,0.7-0.7,1.4-1.2,1.9c-0.5,0.5-1.1,0.9-1.9,1.2c-0.7,0.3-1.6,0.4-2.5,0.4
					c-0.9,0-1.8-0.1-2.5-0.4c-0.7-0.3-1.4-0.7-1.9-1.2c-0.5-0.5-0.9-1.2-1.2-1.9c-0.3-0.7-0.4-1.5-0.4-2.4V7.8h2.7v8.7
					c0,0.6,0.1,1.1,0.2,1.5c0.1,0.4,0.4,0.8,0.6,1.1c0.3,0.3,0.6,0.6,1,0.7C58.8,20,59.3,20.1,59.8,20.1z"/>
				<path class="st1" d="M68.5,22.2V7.8h5c0.9,0,1.8,0.1,2.4,0.3c0.7,0.2,1.2,0.4,1.6,0.8c0.4,0.3,0.7,0.7,0.9,1.2s0.3,1,0.3,1.6
					c0,0.3,0,0.7-0.2,1c-0.1,0.3-0.3,0.6-0.5,0.9c-0.2,0.3-0.5,0.5-0.8,0.7c-0.3,0.2-0.7,0.4-1.2,0.6c2,0.4,3,1.5,3,3.2
					c0,0.6-0.1,1.2-0.3,1.7c-0.2,0.5-0.6,1-1,1.3s-1,0.7-1.6,0.9c-0.7,0.2-1.4,0.3-2.2,0.3H68.5z M71.2,14h2.1
					c0.9,0,1.6-0.2,2.1-0.5c0.5-0.3,0.7-0.9,0.7-1.6c0-0.8-0.2-1.3-0.6-1.6c-0.4-0.3-1.1-0.5-2-0.5h-2.3V14z M71.2,15.9v4.2h2.7
					c0.5,0,0.9-0.1,1.3-0.2c0.3-0.1,0.6-0.3,0.8-0.5c0.2-0.2,0.4-0.4,0.4-0.7s0.1-0.5,0.1-0.8c0-0.3,0-0.6-0.2-0.8
					c-0.1-0.2-0.3-0.5-0.5-0.6s-0.5-0.3-0.8-0.4c-0.3-0.1-0.7-0.1-1.2-0.1H71.2z"/>
				<path class="st1" d="M84.2,20H90v2.2h-8.5V7.8h2.7V20z"/>
				<path class="st1" d="M96,16.6v5.6h-2.7v-5.6l-5.3-8.8h2.4c0.2,0,0.4,0.1,0.6,0.2s0.3,0.3,0.3,0.4l2.7,4.8
					c0.2,0.3,0.3,0.6,0.4,0.8s0.2,0.5,0.3,0.8c0.1-0.3,0.2-0.5,0.3-0.8c0.1-0.3,0.2-0.5,0.4-0.8L98,8.4c0.1-0.1,0.2-0.3,0.3-0.4
					c0.1-0.1,0.3-0.2,0.6-0.2h2.4L96,16.6z"/>
				<path class="st1" d="M112.9,7.8V10h-4.4v12.2h-2.7V10h-4.4V7.8H112.9z"/>
				<path class="st1" d="M127.7,15c0,1.1-0.2,2-0.5,2.9s-0.8,1.7-1.5,2.3c-0.6,0.7-1.4,1.2-2.3,1.5c-0.9,0.4-1.9,0.6-3,0.6
					c-1.1,0-2.1-0.2-3-0.6c-0.9-0.4-1.7-0.9-2.3-1.5c-0.6-0.7-1.1-1.4-1.5-2.3c-0.4-0.9-0.5-1.9-0.5-2.9c0-1.1,0.2-2,0.5-2.9
					c0.4-0.9,0.9-1.7,1.5-2.3c0.6-0.7,1.4-1.2,2.3-1.5c0.9-0.4,1.9-0.6,3-0.6c1.1,0,2.1,0.2,3,0.6c0.9,0.4,1.7,0.9,2.3,1.5
					c0.6,0.7,1.1,1.4,1.5,2.3S127.7,13.9,127.7,15z M124.9,15c0-0.8-0.1-1.5-0.3-2.1c-0.2-0.6-0.5-1.2-0.9-1.6
					c-0.4-0.4-0.9-0.8-1.4-1c-0.6-0.2-1.2-0.3-1.9-0.3c-0.7,0-1.3,0.1-1.9,0.3c-0.6,0.2-1,0.6-1.4,1c-0.4,0.4-0.7,1-0.9,1.6
					s-0.3,1.3-0.3,2.1c0,0.8,0.1,1.5,0.3,2.1s0.5,1.2,0.9,1.6c0.4,0.4,0.9,0.8,1.4,1c0.6,0.2,1.2,0.4,1.9,0.4c0.7,0,1.3-0.1,1.9-0.4
					c0.6-0.2,1-0.6,1.4-1s0.7-1,0.9-1.6C124.8,16.5,124.9,15.8,124.9,15z"/>
			</g>
			<g id="icon">
				
					<linearGradient id="Combined-Shape_1_" gradientUnits="userSpaceOnUse" x1="-866.412" y1="539.079" x2="-865.0599" y2="537.2424" gradientTransform="matrix(30 0 0 -30 25985 16157)">
					<stop  offset="0" style="stop-color:#95DC0C"/>
					<stop  offset="1" style="stop-color:#D9E856"/>
				</linearGradient>
				<path id="Combined-Shape" class="st2" d="M19.7,10.3H30V30H10.3V19.7H0V0h19.7V10.3z"/>
			</g>
		</g>
	</g>
</g>
</svg>
