<?xml version="1.0" encoding="utf-8"?>
<!-- Generator: Adobe Illustrator 22.1.0, SVG Export Plug-In . SVG Version: 6.00 Build 0)  -->
<svg version="1.1" id="Layer_1" xmlns="http://www.w3.org/2000/svg" xmlns:xlink="http://www.w3.org/1999/xlink" x="0px" y="0px"
	 viewBox="0 0 32 32" style="enable-background:new 0 0 32 32;" xml:space="preserve">
<style type="text/css">
	.st0{fill:#A0A0A0;}
	.st1{fill:#FFFFFF;}
	.st2{fill:#EAEAEA;}
	.st3{fill:#D1D1D1;}
	.st4{fill:#BCBCBC;}
</style>
<title>facebook</title>
<desc>Created with Sketch.</desc>
<path id="Fill-5" class="st0" d="M16,0c8.8,0,16,7.2,16,16s-7.2,16-16,16S0,24.8,0,16S7.2,0,16,0"/>
<g>
	<path class="st1" d="M19.2,9.3c-0.3-0.1-0.5,0-0.5,0.3v10.8l4.6,2.2c0.5,0.2,0.9,0.1,0.9-0.4V11.8c0,0,0-0.1-0.1-0.1L19.2,9.3
		L19.2,9.3L19.2,9.3L19.2,9.3z"/>
	<path class="st2" d="M13.2,17.7l5.3-8.2c0.1-0.2,0.5-0.3,0.7-0.2l5,2.4c0,0,0,0.1,0,0.1l-5.5,8.6L13.2,17.7L13.2,17.7L13.2,17.7z"
		/>
	<path class="st3" d="M8.4,9.5C8,9.3,7.9,9.4,8.1,9.8l5.1,7.9l5.6,2.7l-5.5-8.6c0,0,0,0,0,0L8.4,9.5L8.4,9.5L8.4,9.5z"/>
	<path class="st4" d="M13.2,22.2c0,0.5-0.3,0.7-0.8,0.5l-4.3-2.1c-0.3-0.1-0.5-0.4-0.5-0.7V9.8c0-0.4,0.3-0.5,0.6-0.4l4.9,2.3
		c0,0,0,0,0,0V22.2L13.2,22.2L13.2,22.2z"/>
</g>
</svg>
