<?xml version="1.0" encoding="utf-8"?>
<!-- Generator: Adobe Illustrator 22.1.0, SVG Export Plug-In . SVG Version: 6.00 Build 0)  -->
<svg version="1.1" id="Layer_1" xmlns="http://www.w3.org/2000/svg" xmlns:xlink="http://www.w3.org/1999/xlink" x="0px" y="0px"
	 viewBox="0 0 1040 1128" style="enable-background:new 0 0 1040 1128;" xml:space="preserve">
<style type="text/css">
	.st0{fill:#F2F2F2;stroke:#000000;stroke-width:2;stroke-miterlimit:10;}
	.st1{fill:#CCCCCC;}
	.st2{fill:#999999;}
	.st3{enable-background:new    ;}
	.st4{fill:#FFFFFF;}
	.st5{clip-path:url(#SVGID_2_);}
	.st6{fill:none;stroke:#242626;stroke-width:3;stroke-linecap:round;stroke-linejoin:round;stroke-miterlimit:10;}
	.st7{fill:#242626;}
	.st8{fill:none;stroke:#91C433;stroke-width:3;stroke-linecap:round;stroke-linejoin:round;stroke-miterlimit:10;}
	.st9{opacity:0.7;fill:#F72D53;}
</style>
<g id="bg">
	<g>
		<path class="st0" d="M1,579V100c0-21.5,17.5-39,39-39h960c21.5,0,39,17.5,39,39v479H1z"/>
		<path class="st1" d="M1000,62c21,0,38,17,38,38v478H2V100c0-21,17-38,38-38H1000 M1000,60H40C17.9,60,0,77.9,0,100v480h1040V100
			C1040,77.9,1022.1,60,1000,60L1000,60z"/>
	</g>
	<g>
		<path class="st0" d="M40,1097c-21.5,0-39-17.5-39-39V579h1038v479c0,21.5-17.5,39-39,39H40z"/>
		<path class="st1" d="M1038,580v478c0,21-17,38-38,38H40c-21,0-38-17-38-38V580H1038 M1040,578H0v480c0,22.1,17.9,40,40,40h960
			c22.1,0,40-17.9,40-40V578L1040,578z"/>
	</g>
</g>
<g id="Layer_1_1_">
	<g>
		<path class="st2" d="M973.9,513.1l13.6,2.2v9.3l-59-10v-12.3l59-9.9v9.3l-13.6,2.1V513.1z M942,508.4l23.3,3.3v-6.6L942,508.4z"/>
		<path class="st2" d="M973.9,474.8l13.6,2.2v9.3l-59-10V464l59-9.9v9.3l-13.6,2.1V474.8z M942,470.2l23.3,3.3v-6.6L942,470.2z"/>
		<path class="st2" d="M987.5,446.5H942v7.5h-6.2c-0.2-2.1-1-4.1-2.4-6.1c-1.4-1.9-3-3.3-5-4.2v-6.2h59v9H987.5z"/>
		<path class="st2" d="M944.4,430.1c-5.6,0-9.9-1.5-12.8-4.5c-2.6-2.6-3.9-6-3.9-10.3c0-3.9,1.5-7.2,4.4-10s6.3-4.1,10.2-4.1
			c4.5,0,8.6,0.9,12.3,2.7c2.1,1,5.6,3.2,10.7,6.8c1.4,1,3.5,2.4,6.4,4.3l2.4,1.6c1.6,1,2.8,1.8,3.7,2.3c0.5,0.3,0.7,0.4,0.8,0.4
			v-17.5h8.7v28.3h-8.2c-0.2,0-1.3-0.7-3.2-2c-0.9-0.6-1.9-1.3-3-2l-3.4-2.3c-1.9-1.4-4.8-3.5-8.9-6.4c-3.8-2.7-7.3-4.8-10.4-6.1
			c-2.5-1.1-5.2-1.7-7.8-1.7c-1.8,0-3.3,0.5-4.6,1.5c-1.3,1.1-2,2.5-2,4.2c0,2.5,1.4,4.2,4.3,5.3c0.9,0.3,2,0.5,3.4,0.5h2.3v8.8
			h-1.4V430.1z"/>
		<path class="st2" d="M979.1,381.3c0-4.1-1.9-6.1-5.7-6.1h-3.5c-6.1,0-9.1,3.2-9.1,9.5h-7.6c0-3.4-1-6-2.9-7.6
			c-1.7-1.5-4.1-2.2-7.2-2.2h-1.4c-3.9,0-5.8,1.7-5.8,5.1c0,1.9,0.7,3.3,2.2,4.1c1.1,0.6,2.5,1,4.3,1h1.6v8.7h-1.4
			c-4.2,0-7.6-1.1-10.3-3.2c-3-2.4-4.5-5.8-4.5-10.2c0-4.2,1.4-7.5,4.2-10c2.5-2.3,5.7-3.4,9.5-3.4h2.6c3.7,0,6.8,1.1,9.5,3.3
			c1.1,0.9,2.1,2,2.9,3.3c1.5-2.6,3.7-4.7,6.7-6.1c1.5-0.8,3.4-1.1,5.6-1.1h4.7c4.4,0,7.9,1.5,10.7,4.5c2.7,2.8,4,6.3,4,10.3
			c0,3.9-1.4,7.2-4.1,10s-6.1,4.1-9.9,4.1h-1.5l-0.6-8.4l2.1-0.2c1.5-0.1,2.7-0.7,3.6-1.6S979.1,382.8,979.1,381.3z"/>
		<path class="st2" d="M965.7,360.1l-37.3-15.7v-8.9h37.3v-5.7h9v5.7h12.7v8.9h-12.7v15.7H965.7z M965.7,344.4h-18.3l18.3,7.3V344.4
			z"/>
		<path class="st2" d="M937.3,312.9h12.8c-1.3-0.9-2.2-2.1-2.9-3.7c-0.3-0.9-0.5-1.9-0.5-3c0-3.9,1.4-6.8,4.1-8.6
			c2.4-1.6,5.7-2.4,10-2.4h12.6c4.4,0,7.9,1.4,10.7,4.1c2.7,2.6,4,6,4,10c0,3.9-1.4,7.1-4.2,9.7c-2.7,2.5-6,3.7-9.9,3.7h-1.4
			l-0.6-8.5l2-0.2c2.4-0.2,3.9-1.2,4.7-2.8c0.3-0.5,0.4-1.1,0.4-1.6c0-3.6-1.9-5.5-5.7-5.5H959c-1.7,0-3.1,0.6-4.3,1.9
			c-0.5,0.6-0.8,1.4-0.8,2.5c0,1.6,0.6,2.7,1.8,3.5c1.1,0.6,2.2,0.9,3.4,0.9h1.6v9h-32.4v-26h8.9v17H937.3z"/>
		<path class="st2" d="M943.1,270.2h-1.5c-1.4,0-2.7,0.4-3.6,1.1c-1,0.8-1.5,1.9-1.5,3.3s0.5,2.5,1.5,3.3s2.2,1.1,3.6,1.1h11.9
			c-1.8-2-2.7-4.3-2.7-6.7c0-3.9,1.4-6.8,4.1-8.8c2.4-1.7,5.7-2.6,9.9-2.6h10.1v0.1c3.8,0.2,6.9,1.6,9.4,4.1s3.8,5.6,3.8,9.3
			c0,3.9-1.4,7.2-4.2,9.7c-2.7,2.5-6,3.7-9.9,3.7h-32.3c-2.9,0-5.5-0.7-7.8-2.1s-4-3.4-5.2-5.9c-0.8-1.6-1.1-3.4-1.1-5.4
			c0-3.9,1.4-7.1,4.2-9.7c2.7-2.5,6-3.7,9.9-3.7h1.3L943.1,270.2L943.1,270.2z M974,279c1.4,0,2.6-0.4,3.6-1.1
			c1-0.8,1.6-1.9,1.6-3.3s-0.5-2.5-1.6-3.3c-0.9-0.8-2.1-1.1-3.6-1.1h-10.9c-1.7,0-3.1,0.6-4.2,1.9c-0.5,0.6-0.8,1.4-0.8,2.5
			c0,1.5,0.6,2.7,1.8,3.5c1,0.6,2.1,0.9,3.4,0.9H974z"/>
		<path class="st2" d="M928.4,228.1h8.9l50.1,12.5v8.7l-50.1-12.5v18h-8.9V228.1z"/>
		<path class="st2" d="M974.1,193.1c3.9,0,7.3,1.4,10,4.1c2.7,2.8,4.1,6.1,4.1,10v0.7c0,3.9-1.4,7.2-4.1,10
			c-2.8,2.7-6.1,4.1-9.9,4.1h-5.5c-3.6,0-6.8-1.2-9.4-3.6c-1.2-1-2.1-2.2-2.9-3.6c-1.2,2.4-3.3,4.2-6.1,5.6c-1.5,0.7-3.3,1-5.6,1
			h-3.2c-3.8,0-7-1.1-9.5-3.4c-2.8-2.5-4.2-5.8-4.2-10v-0.7c0-4.2,1.4-7.5,4.2-10c2.5-2.3,5.7-3.4,9.5-3.4h3.2
			c3.7,0,6.7,1.1,9.2,3.3c1.1,1,1.9,2,2.5,3.2c1.5-2.6,3.7-4.7,6.7-6.1c1.5-0.8,3.4-1.1,5.6-1.1h5.4V193.1z M943.8,201.7
			c-4.1,0-6.6,1.3-7.6,3.8c-0.3,0.6-0.4,1.3-0.4,2c0,1.5,0.4,2.8,1.3,3.8c0.7,0.8,1.6,1.4,2.7,1.7c1.1,0.3,2.4,0.5,4.1,0.4
			c2.6-0.1,4.4-0.5,5.5-1.2c1.5-0.9,2.3-2.5,2.3-4.6s-0.8-3.7-2.4-4.7C947.9,202,946.1,201.7,943.8,201.7z M969.8,202
			c-3.5,0-5.9,0.8-7.1,2.4c-0.6,0.8-0.8,1.8-0.8,3.2c0,2.4,1,3.9,3,4.8c1.2,0.5,2.9,0.8,4.9,0.8h2.9c1.9,0,3.5-0.6,4.7-1.8
			c1-1,1.6-2.2,1.6-3.8c-0.1-2.4-1.3-4.1-3.6-5c-0.8-0.3-1.7-0.5-2.7-0.5L969.8,202L969.8,202z"/>
		<path class="st2" d="M927.7,172.3c0-3.9,1.4-7.1,4.2-9.7c2.7-2.5,6-3.7,9.9-3.7h32.3c3.9,0,7.3,1.3,10,3.8
			c2.7,2.6,4.1,5.8,4.1,9.6c0,3.9-1.4,7.2-4.2,9.7c-2.7,2.5-6,3.7-9.9,3.7h-1.3v-9.2h1.5c1.4,0,2.7-0.4,3.6-1.1
			c1-0.8,1.5-1.8,1.5-3.3c0-1.4-0.5-2.5-1.5-3.3s-2.2-1.1-3.6-1.1h-11.8c1.9,2.1,2.8,4.3,2.8,6.7c0,3.9-1.4,6.8-4.1,8.7
			c-2.4,1.7-5.7,2.6-10,2.6H941l0,0c-2.7-0.1-5.2-0.9-7.4-2.3c-2.2-1.4-3.8-3.4-4.9-5.8C928,175.9,927.7,174.2,927.7,172.3z
			 M941.9,167.6c-1.4,0-2.7,0.4-3.7,1.1c-1,0.8-1.5,1.9-1.5,3.3c0,1.4,0.5,2.5,1.5,3.3s2.2,1.1,3.7,1.1h11c1.7,0,3.2-0.6,4.3-1.9
			c0.5-0.6,0.8-1.4,0.8-2.5c0-2.3-1.2-3.7-3.6-4.2c-0.7-0.2-1.3-0.2-1.7-0.2L941.9,167.6L941.9,167.6z"/>
		<path class="st2" d="M974.1,123c3.9,0,7.3,1.4,10,4.1c2.7,2.8,4.1,6.1,4.1,9.9c0,3.9-1.4,7.3-4.1,10c-2.8,2.7-6.1,4.1-10,4.1
			h-32.3c-3.9,0-7.3-1.4-10-4.1c-2.7-2.8-4.1-6.1-4.1-10s1.4-7.3,4.1-10c2.8-2.7,6.1-4.1,10-4.1h32.3V123z M941.6,132.2
			c-1.4,0-2.6,0.5-3.6,1.5s-1.5,2.2-1.5,3.6c0,1.4,0.5,2.6,1.5,3.6s2.2,1.5,3.6,1.5H974c1.4,0,2.6-0.5,3.6-1.5s1.5-2.2,1.5-3.6
			c0-1.4-0.5-2.6-1.5-3.6s-2.2-1.5-3.6-1.5H941.6z"/>
	</g>
	<g>
		<path class="st2" d="M349.1,637.1h-4.5v-29.5h4.5V637.1z"/>
		<path class="st2" d="M358.1,607.5l5.9,19.8v-19.8h4.5V637h-4.8l-6.1-18.9V637h-4.5v-29.5H358.1z"/>
		<path class="st2" d="M376.7,612H372v-4.5h13.9v4.5h-4.7v25.1h-4.5L376.7,612L376.7,612z"/>
		<path class="st2" d="M389.5,637.1v-29.5h12.7v4.5H394v8.1h6v4.5h-6v8.1h8.2v4.5h-12.7V637.1z"/>
		<path class="st2" d="M412.2,607.5c2.5,0,4.3,0.7,5.5,2.1c1,1.2,1.5,2.9,1.5,5v4.3c0,2.1-0.8,3.9-2.4,5.3l3.3,12.9h-4.8l-2.7-11.2
			c-0.1,0-0.3,0-0.4,0h-2.6V637h-4.5v-29.5L412.2,607.5L412.2,607.5z M414.9,614.7c0-1.7-0.8-2.6-2.5-2.6h-2.7v9.4h2.7
			c0.7,0,1.3-0.3,1.8-0.8s0.7-1.1,0.7-1.8V614.7z"/>
		<path class="st2" d="M429,607.5l5.9,19.8v-19.8h4.5V637h-4.8l-6.1-18.9V637H424v-29.5H429z"/>
		<path class="st2" d="M448.8,630.3l-1.1,6.8H443l5-29.5h6.1l4.9,29.5h-4.7l-1.1-6.8H448.8z M451.1,614.3l-1.7,11.6h3.3L451.1,614.3
			z"/>
		<path class="st2" d="M463.4,612h-4.7v-4.5h13.9v4.5h-4.7v25.1h-4.5L463.4,612L463.4,612z"/>
		<path class="st2" d="M480.6,637.1h-4.5v-29.5h4.5V637.1z"/>
		<path class="st2" d="M491.6,607.2c2,0,3.6,0.7,5,2.1c1.4,1.4,2.1,3,2.1,5v16.1c0,2-0.7,3.6-2.1,5s-3,2.1-5,2.1s-3.6-0.7-5-2.1
			s-2-3-2-5v-16.1c0-2,0.7-3.6,2.1-5C488,607.9,489.7,607.2,491.6,607.2z M494,614.2c0-0.7-0.2-1.3-0.7-1.8s-1.1-0.7-1.8-0.7
			c-0.7,0-1.3,0.2-1.8,0.7s-0.8,1.1-0.8,1.8v16.2c0,0.7,0.3,1.3,0.8,1.8s1.1,0.7,1.8,0.7c0.7,0,1.3-0.2,1.8-0.7s0.7-1.1,0.7-1.8
			V614.2z"/>
		<path class="st2" d="M507.6,607.5l5.9,19.8v-19.8h4.5V637h-4.8l-6.1-18.9V637h-4.5v-29.5H507.6z"/>
		<path class="st2" d="M527.4,630.3l-1.1,6.8h-4.6l5-29.5h6.1l4.9,29.5H533l-1.1-6.8H527.4z M529.7,614.3l-1.7,11.6h3.3L529.7,614.3
			z"/>
		<path class="st2" d="M553.6,637.1h-12.1v-29.5h4.5v25.1h7.7v4.4H553.6z"/>
		<path class="st2" d="M566.8,607.5c2.2,0,3.9,0.7,5.2,2.1c1.2,1.3,1.8,3,1.8,5v4.3c0,1.9-0.7,3.6-2,5c-1.4,1.4-3,2.1-4.9,2.1h-2.6
			v11.1h-4.5v-29.5L566.8,607.5L566.8,607.5z M569.4,614.7c0-0.8-0.2-1.4-0.7-1.9s-1.1-0.7-1.8-0.7h-2.7v9.4h2.7
			c0.7,0,1.3-0.3,1.8-0.8s0.7-1.1,0.7-1.8V614.7z"/>
		<path class="st2" d="M580.1,630.3l-1.1,6.8h-4.6l5-29.5h6.1l4.9,29.5h-4.7l-1.1-6.8H580.1z M582.5,614.3l-1.7,11.6h3.3
			L582.5,614.3z"/>
		<path class="st2" d="M607.6,629.7c0,2.1-0.5,3.8-1.6,5.3c-0.7,1-1.7,1.7-3.1,2.1c-0.7,0.2-1.5,0.3-2.5,0.3c-1.7,0-3.2-0.4-4.3-1.3
			c-0.9-0.7-1.7-1.7-2.3-2.9s-0.9-2.6-1-4.2l4.2-0.3c0.2,1.7,0.7,3,1.4,3.7c0.5,0.6,1.1,0.9,1.8,0.8c1,0,1.7-0.5,2.3-1.4
			c0.3-0.5,0.5-1.1,0.5-2c0-1.2-0.6-2.5-1.7-3.7c-0.9-0.8-2.2-2.1-4-3.7c-1.5-1.4-2.5-2.7-3.1-3.8c-0.7-1.3-1-2.7-1-4.1
			c0-2.7,0.9-4.7,2.7-6.1c1.1-0.8,2.5-1.2,4.1-1.2s2.9,0.4,4.1,1.1c0.9,0.5,1.6,1.3,2.1,2.3s0.9,2.1,1,3.4l-4.3,0.8
			c-0.1-1.2-0.5-2.1-1-2.8c-0.4-0.5-1-0.7-1.8-0.7s-1.4,0.4-1.9,1.1c-0.3,0.6-0.5,1.3-0.5,2.2c0,1.3,0.6,2.7,1.7,4.1
			c0.4,0.5,1.1,1.2,2,1.9c1,0.9,1.7,1.5,2.1,1.8c1.1,1.1,1.9,2.2,2.5,3.3c0.3,0.5,0.5,1,0.7,1.4
			C607.4,627.9,607.6,628.9,607.6,629.7z"/>
		<path class="st2" d="M625.4,629.7c0,2.1-0.5,3.8-1.6,5.3c-0.7,1-1.7,1.7-3.1,2.1c-0.7,0.2-1.5,0.3-2.5,0.3c-1.7,0-3.2-0.4-4.3-1.3
			c-0.9-0.7-1.7-1.7-2.3-2.9s-0.9-2.6-1-4.2l4.2-0.3c0.2,1.7,0.7,3,1.4,3.7c0.5,0.6,1.1,0.9,1.8,0.8c1,0,1.7-0.5,2.3-1.4
			c0.3-0.5,0.5-1.1,0.5-2c0-1.2-0.6-2.5-1.7-3.7c-0.9-0.8-2.2-2.1-4-3.7c-1.5-1.4-2.5-2.7-3.1-3.8c-0.7-1.3-1-2.7-1-4.1
			c0-2.7,0.9-4.7,2.7-6.1c1.1-0.8,2.5-1.2,4.1-1.2s2.9,0.4,4.1,1.1c0.9,0.5,1.6,1.3,2.1,2.3s0.9,2.1,1,3.4l-4.3,0.8
			c-0.1-1.2-0.5-2.1-1-2.8c-0.4-0.5-1-0.7-1.8-0.7s-1.4,0.4-1.9,1.1c-0.3,0.6-0.5,1.3-0.5,2.2c0,1.3,0.6,2.7,1.7,4.1
			c0.4,0.5,1.1,1.2,2,1.9c1,0.9,1.7,1.5,2.1,1.8c1.1,1.1,1.9,2.2,2.5,3.3c0.3,0.5,0.5,1,0.7,1.4
			C625.2,627.9,625.4,628.9,625.4,629.7z"/>
		<path class="st2" d="M636.1,607.5c2.2,0,3.9,0.7,5.2,2.1c1.2,1.3,1.8,3,1.8,5v4.3c0,1.9-0.7,3.6-2,5c-1.4,1.4-3,2.1-4.9,2.1h-2.6
			v11.1h-4.5v-29.5L636.1,607.5L636.1,607.5z M638.8,614.7c0-0.8-0.2-1.4-0.7-1.9s-1.1-0.7-1.8-0.7h-2.7v9.4h2.7
			c0.7,0,1.3-0.3,1.8-0.8s0.7-1.1,0.7-1.8V614.7z"/>
		<path class="st2" d="M653.2,607.2c2,0,3.6,0.7,5,2.1c1.4,1.4,2.1,3,2.1,5v16.1c0,2-0.7,3.6-2.1,5c-1.4,1.4-3,2.1-5,2.1
			s-3.6-0.7-5-2.1c-1.4-1.4-2-3-2-5v-16.1c0-2,0.7-3.6,2.1-5C649.6,607.9,651.3,607.2,653.2,607.2z M655.6,614.2
			c0-0.7-0.2-1.3-0.7-1.8s-1.1-0.7-1.8-0.7s-1.3,0.2-1.8,0.7s-0.8,1.1-0.8,1.8v16.2c0,0.7,0.3,1.3,0.8,1.8s1.1,0.7,1.8,0.7
			s1.3-0.2,1.8-0.7s0.7-1.1,0.7-1.8V614.2z"/>
		<path class="st2" d="M671.2,607.5c2.5,0,4.3,0.7,5.5,2.1c1,1.2,1.5,2.9,1.5,5v4.3c0,2.1-0.8,3.9-2.4,5.3l3.3,12.9h-4.8l-2.7-11.2
			c-0.1,0-0.3,0-0.4,0h-2.6V637h-4.5v-29.5L671.2,607.5L671.2,607.5z M673.9,614.7c0-1.7-0.8-2.6-2.5-2.6h-2.7v9.4h2.7
			c0.7,0,1.3-0.3,1.8-0.8s0.7-1.1,0.7-1.8V614.7z"/>
		<path class="st2" d="M686.2,612h-4.7v-4.5h13.9v4.5h-4.7v25.1h-4.5V612z"/>
	</g>
	<g>
		<g class="st3">
			<path class="st2" d="M141.9,664.1h2.9c2,0,3.5,0.7,3.5,2.8c0,2-1.5,2.9-3.4,2.9h-1.2v3.2h-1.8V664.1z M144.7,668.4
				c1.2,0,1.8-0.5,1.8-1.5c0-1-0.6-1.4-1.9-1.4h-1v2.9H144.7z"/>
			<path class="st2" d="M153.4,670.7h-2.9l-0.6,2.3h-1.8l2.8-8.9h2.1l2.9,8.9H154L153.4,670.7z M153,669.3l-0.3-1
				c-0.3-0.9-0.5-1.9-0.8-2.9h0c-0.2,1-0.5,2-0.8,2.9l-0.3,1H153z"/>
			<path class="st2" d="M156.3,671.9l1-1.2c0.6,0.6,1.5,1,2.3,1c0.9,0,1.4-0.4,1.4-1c0-0.7-0.5-0.9-1.3-1.2l-1.2-0.5
				c-0.9-0.4-1.8-1.1-1.8-2.4c0-1.5,1.3-2.6,3.1-2.6c1,0,2.1,0.4,2.8,1.1l-0.9,1.1c-0.6-0.5-1.2-0.7-1.9-0.7c-0.8,0-1.3,0.3-1.3,0.9
				c0,0.6,0.6,0.9,1.4,1.2l1.2,0.5c1.1,0.4,1.8,1.1,1.8,2.4c0,1.5-1.2,2.7-3.3,2.7C158.4,673.2,157.2,672.7,156.3,671.9z"/>
			<path class="st2" d="M163.6,671.9l1-1.2c0.6,0.6,1.5,1,2.3,1c0.9,0,1.4-0.4,1.4-1c0-0.7-0.5-0.9-1.3-1.2l-1.2-0.5
				c-0.9-0.4-1.8-1.1-1.8-2.4c0-1.5,1.3-2.6,3.1-2.6c1,0,2.1,0.4,2.8,1.1l-0.9,1.1c-0.6-0.5-1.2-0.7-1.9-0.7c-0.8,0-1.3,0.3-1.3,0.9
				c0,0.6,0.6,0.9,1.4,1.2l1.2,0.5c1.1,0.4,1.8,1.1,1.8,2.4c0,1.5-1.2,2.7-3.3,2.7C165.6,673.2,164.4,672.7,163.6,671.9z"/>
			<path class="st2" d="M171.7,664.1h2.9c2,0,3.5,0.7,3.5,2.8c0,2-1.5,2.9-3.4,2.9h-1.2v3.2h-1.8V664.1z M174.5,668.4
				c1.2,0,1.8-0.5,1.8-1.5c0-1-0.6-1.4-1.9-1.4h-1v2.9H174.5z"/>
			<path class="st2" d="M179.2,668.5c0-2.9,1.6-4.6,4-4.6c2.4,0,4,1.7,4,4.6c0,2.9-1.6,4.6-4,4.6
				C180.8,673.2,179.2,671.4,179.2,668.5z M185.3,668.5c0-1.9-0.8-3-2.2-3c-1.3,0-2.2,1.1-2.2,3c0,1.9,0.8,3.1,2.2,3.1
				C184.5,671.6,185.3,670.4,185.3,668.5z"/>
			<path class="st2" d="M193.7,673l-1.8-3.4h-1.2v3.4h-1.8v-8.9h3.1c1.9,0,3.3,0.6,3.3,2.7c0,1.3-0.7,2.2-1.7,2.6l2.1,3.6H193.7z
				 M190.7,668.2h1.2c1.1,0,1.8-0.5,1.8-1.4c0-1-0.6-1.3-1.8-1.3h-1.2V668.2z"/>
			<path class="st2" d="M198.6,665.6h-2.5v-1.5h6.8v1.5h-2.5v7.4h-1.8V665.6z"/>
		</g>
		<g class="st3">
			<path class="st2" d="M343.5,665.6H341v-1.5h6.8v1.5h-2.5v7.4h-1.8V665.6z"/>
			<path class="st2" d="M350.5,669.8l-2.7-5.6h1.9l0.9,2.2c0.3,0.7,0.5,1.3,0.8,2h0c0.3-0.7,0.5-1.3,0.8-2l0.9-2.2h1.8l-2.7,5.6v3.2
				h-1.8V669.8z"/>
			<path class="st2" d="M356,664.1h2.9c2,0,3.5,0.7,3.5,2.8c0,2-1.5,2.9-3.4,2.9h-1.2v3.2H356V664.1z M358.8,668.4
				c1.2,0,1.8-0.5,1.8-1.5c0-1-0.6-1.4-1.9-1.4h-1v2.9H358.8z"/>
			<path class="st2" d="M364,664.1h5.4v1.5h-3.7v2.1h3.1v1.5h-3.1v2.4h3.8v1.5H364V664.1z"/>
		</g>
		<g class="st3">
			<path d="M343,683.7h4.4c3,0,5.2,1,5.2,4.2c0,3-2.3,4.4-5.1,4.4h-1.8v4.7H343V683.7z M347.3,690.2c1.8,0,2.7-0.8,2.7-2.3
				c0-1.5-1-2.1-2.8-2.1h-1.5v4.4H347.3z"/>
			<path d="M355.1,683.7h3l2.3,6.2c0.3,0.8,0.5,1.7,0.8,2.6h0.1c0.3-0.9,0.5-1.7,0.8-2.6l2.2-6.2h3V697h-2.4v-5.6
				c0-1.3,0.2-3.1,0.3-4.4H365l-1.1,3.1l-2.1,5.6h-1.5l-2.1-5.6l-1.1-3.1h-0.1c0.1,1.3,0.3,3.1,0.3,4.4v5.6h-2.4V683.7z"/>
		</g>
		<g class="st3">
			<path class="st2" d="M511.9,664.1h1.8v8.9h-1.8V664.1z"/>
			<path class="st2" d="M515.3,671.9l1-1.2c0.6,0.6,1.5,1,2.3,1c0.9,0,1.4-0.4,1.4-1c0-0.7-0.5-0.9-1.3-1.2l-1.2-0.5
				c-0.9-0.4-1.8-1.1-1.8-2.4c0-1.5,1.3-2.6,3.1-2.6c1,0,2.1,0.4,2.8,1.1l-0.9,1.1c-0.6-0.5-1.2-0.7-1.9-0.7c-0.8,0-1.3,0.3-1.3,0.9
				c0,0.6,0.6,0.9,1.4,1.2l1.2,0.5c1.1,0.4,1.8,1.1,1.8,2.4c0,1.5-1.2,2.7-3.3,2.7C517.3,673.2,516.1,672.7,515.3,671.9z"/>
			<path class="st2" d="M522.5,671.9l1-1.2c0.6,0.6,1.5,1,2.3,1c0.9,0,1.4-0.4,1.4-1c0-0.7-0.5-0.9-1.3-1.2l-1.2-0.5
				c-0.9-0.4-1.8-1.1-1.8-2.4c0-1.5,1.3-2.6,3.1-2.6c1,0,2.1,0.4,2.8,1.1l-0.9,1.1c-0.6-0.5-1.2-0.7-1.9-0.7c-0.8,0-1.3,0.3-1.3,0.9
				c0,0.6,0.6,0.9,1.4,1.2l1.2,0.5c1.1,0.4,1.8,1.1,1.8,2.4c0,1.5-1.2,2.7-3.3,2.7C524.6,673.2,523.4,672.7,522.5,671.9z"/>
			<path class="st2" d="M530.6,669v-4.9h1.8v5c0,1.8,0.6,2.5,1.7,2.5c1.1,0,1.7-0.6,1.7-2.5v-5h1.7v4.9c0,3-1.3,4.2-3.4,4.2
				C531.9,673.2,530.6,672,530.6,669z"/>
			<path class="st2" d="M539.6,664.1h1.8v8.9h-1.8V664.1z"/>
			<path class="st2" d="M543.5,664.1h1.8l2.6,4.7l0.9,1.9h0.1c-0.1-0.9-0.2-2.1-0.2-3.1v-3.5h1.7v8.9h-1.8l-2.6-4.7l-0.9-1.9H545
				c0.1,1,0.2,2.1,0.2,3.1v3.6h-1.7V664.1z"/>
			<path class="st2" d="M552.1,668.6c0-2.9,1.9-4.6,4.3-4.6c1.3,0,2.2,0.6,2.7,1.1l-0.9,1.1c-0.4-0.4-0.9-0.7-1.7-0.7
				c-1.5,0-2.5,1.2-2.5,3.1c0,1.9,0.9,3.1,2.6,3.1c0.4,0,0.9-0.1,1.1-0.3v-1.8h-1.6v-1.5h3.2v4c-0.6,0.6-1.6,1.1-2.9,1.1
				C553.9,673.2,552.1,671.6,552.1,668.6z"/>
			<path class="st2" d="M563.4,668.6c0-2.9,1.9-4.6,4.1-4.6c1.1,0,2,0.5,2.6,1.1l-0.9,1.1c-0.4-0.4-1-0.7-1.6-0.7
				c-1.3,0-2.4,1.2-2.4,3.1c0,1.9,0.9,3.1,2.3,3.1c0.8,0,1.4-0.4,1.8-0.9l0.9,1.1c-0.7,0.9-1.7,1.3-2.8,1.3
				C565.2,673.2,563.4,671.6,563.4,668.6z"/>
			<path class="st2" d="M570.8,668.5c0-2.9,1.6-4.6,4-4.6s4,1.7,4,4.6c0,2.9-1.6,4.6-4,4.6S570.8,671.4,570.8,668.5z M577,668.5
				c0-1.9-0.8-3-2.2-3s-2.2,1.1-2.2,3c0,1.9,0.8,3.1,2.2,3.1S577,670.4,577,668.5z"/>
			<path class="st2" d="M580.5,669v-4.9h1.8v5c0,1.8,0.6,2.5,1.7,2.5c1.1,0,1.7-0.6,1.7-2.5v-5h1.7v4.9c0,3-1.3,4.2-3.4,4.2
				C581.8,673.2,580.5,672,580.5,669z"/>
			<path class="st2" d="M589.5,664.1h1.8l2.6,4.7l0.9,1.9h0.1c-0.1-0.9-0.2-2.1-0.2-3.1v-3.5h1.7v8.9h-1.8l-2.6-4.7l-0.9-1.9H591
				c0.1,1,0.2,2.1,0.2,3.1v3.6h-1.7V664.1z"/>
			<path class="st2" d="M600.2,665.6h-2.5v-1.5h6.8v1.5H602v7.4h-1.8V665.6z"/>
			<path class="st2" d="M610.8,673l-1.8-3.4h-1.2v3.4H606v-8.9h3.1c1.9,0,3.3,0.6,3.3,2.7c0,1.3-0.7,2.2-1.7,2.6l2.1,3.6H610.8z
				 M607.8,668.2h1.2c1.1,0,1.8-0.5,1.8-1.4c0-1-0.6-1.3-1.8-1.3h-1.2V668.2z"/>
			<path class="st2" d="M615.5,669.8l-2.7-5.6h1.9l0.9,2.2c0.3,0.7,0.5,1.3,0.8,2h0c0.3-0.7,0.5-1.3,0.8-2l0.9-2.2h1.8l-2.7,5.6v3.2
				h-1.8V669.8z"/>
		</g>
		<g class="st3">
			<path d="M540,683.7h2.7l1.1,6.5c0.2,1.4,0.4,2.8,0.6,4.2h0.1c0.3-1.4,0.6-2.9,0.8-4.2l1.5-6.5h2.3l1.5,6.5
				c0.3,1.4,0.6,2.8,0.8,4.2h0.1c0.2-1.4,0.4-2.9,0.6-4.2l1-6.5h2.5l-2.5,13.3H550l-1.5-6.6c-0.2-1-0.4-2.1-0.6-3.1h-0.1
				c-0.2,1-0.4,2-0.6,3.1l-1.5,6.6h-3.3L540,683.7z"/>
			<path d="M556.4,683.7h2.7l1.1,6.5c0.2,1.4,0.4,2.8,0.6,4.2h0.1c0.3-1.4,0.6-2.9,0.8-4.2l1.5-6.5h2.3l1.5,6.5
				c0.3,1.4,0.6,2.8,0.8,4.2h0.1c0.2-1.4,0.4-2.9,0.6-4.2l1-6.5h2.5l-2.5,13.3h-3.3l-1.5-6.6c-0.2-1-0.4-2.1-0.6-3.1h-0.1
				c-0.2,1-0.4,2-0.6,3.1l-1.5,6.6H559L556.4,683.7z"/>
			<path d="M572.9,683.7h2.7l1.1,6.5c0.2,1.4,0.4,2.8,0.6,4.2h0.1c0.3-1.4,0.6-2.9,0.8-4.2l1.5-6.5h2.3l1.5,6.5
				c0.3,1.4,0.6,2.8,0.8,4.2h0.1c0.2-1.4,0.4-2.9,0.6-4.2l1-6.5h2.5l-2.5,13.3h-3.3l-1.5-6.6c-0.2-1-0.4-2.1-0.6-3.1h-0.1
				c-0.2,1-0.4,2-0.6,3.1l-1.5,6.6h-3.3L572.9,683.7z"/>
		</g>
		<g>
			<g class="st3">
				<path class="st2" d="M790.9,664.1h2.9c2,0,3.5,0.7,3.5,2.8c0,2-1.5,2.9-3.4,2.9h-1.2v3.2h-1.8V664.1z M793.8,668.4
					c1.2,0,1.8-0.5,1.8-1.5c0-1-0.6-1.4-1.9-1.4h-1v2.9H793.8z"/>
				<path class="st2" d="M802.4,670.7h-2.9l-0.6,2.3h-1.8l2.8-8.9h2.1l2.9,8.9h-1.9L802.4,670.7z M802.1,669.3l-0.3-1
					c-0.3-0.9-0.5-1.9-0.8-2.9h0c-0.2,1-0.5,2-0.8,2.9l-0.3,1H802.1z"/>
				<path class="st2" d="M805.4,671.9l1-1.2c0.6,0.6,1.5,1,2.3,1c0.9,0,1.4-0.4,1.4-1c0-0.7-0.5-0.9-1.3-1.2l-1.2-0.5
					c-0.9-0.4-1.8-1.1-1.8-2.4c0-1.5,1.3-2.6,3.1-2.6c1,0,2.1,0.4,2.8,1.1l-0.9,1.1c-0.6-0.5-1.2-0.7-1.9-0.7
					c-0.8,0-1.3,0.3-1.3,0.9c0,0.6,0.6,0.9,1.4,1.2l1.2,0.5c1.1,0.4,1.8,1.1,1.8,2.4c0,1.5-1.2,2.7-3.3,2.7
					C807.4,673.2,806.2,672.7,805.4,671.9z"/>
				<path class="st2" d="M812.6,671.9l1-1.2c0.6,0.6,1.5,1,2.3,1c0.9,0,1.4-0.4,1.4-1c0-0.7-0.5-0.9-1.3-1.2l-1.2-0.5
					c-0.9-0.4-1.8-1.1-1.8-2.4c0-1.5,1.3-2.6,3.1-2.6c1,0,2.1,0.4,2.8,1.1l-0.9,1.1c-0.6-0.5-1.2-0.7-1.9-0.7
					c-0.8,0-1.3,0.3-1.3,0.9c0,0.6,0.6,0.9,1.4,1.2l1.2,0.5c1.1,0.4,1.8,1.1,1.8,2.4c0,1.5-1.2,2.7-3.3,2.7
					C814.7,673.2,813.5,672.7,812.6,671.9z"/>
				<path class="st2" d="M820.7,664.1h2.9c2,0,3.5,0.7,3.5,2.8c0,2-1.5,2.9-3.4,2.9h-1.2v3.2h-1.8V664.1z M823.6,668.4
					c1.2,0,1.8-0.5,1.8-1.5c0-1-0.6-1.4-1.9-1.4h-1v2.9H823.6z"/>
				<path class="st2" d="M828.3,668.5c0-2.9,1.6-4.6,4-4.6s4,1.7,4,4.6c0,2.9-1.6,4.6-4,4.6S828.3,671.4,828.3,668.5z M834.4,668.5
					c0-1.9-0.8-3-2.2-3s-2.2,1.1-2.2,3c0,1.9,0.8,3.1,2.2,3.1S834.4,670.4,834.4,668.5z"/>
				<path class="st2" d="M842.8,673l-1.8-3.4h-1.2v3.4H838v-8.9h3.1c1.9,0,3.3,0.6,3.3,2.7c0,1.3-0.7,2.2-1.7,2.6l2.1,3.6H842.8z
					 M839.7,668.2h1.2c1.1,0,1.8-0.5,1.8-1.4c0-1-0.6-1.3-1.8-1.3h-1.2V668.2z"/>
				<path class="st2" d="M847.7,665.6h-2.5v-1.5h6.8v1.5h-2.5v7.4h-1.8V665.6z"/>
				<path class="st2" d="M856.1,664.1h1.8l2.6,4.7l0.9,1.9h0.1c-0.1-0.9-0.2-2.1-0.2-3.1v-3.5h1.7v8.9h-1.8l-2.6-4.7l-0.9-1.9h-0.1
					c0.1,1,0.2,2.1,0.2,3.1v3.6h-1.7V664.1z"/>
				<path class="st2" d="M864.7,668.5c0-2.9,1.6-4.6,4-4.6c2.4,0,4,1.7,4,4.6c0,2.9-1.6,4.6-4,4.6
					C866.3,673.2,864.7,671.4,864.7,668.5z M870.8,668.5c0-1.9-0.8-3-2.2-3c-1.3,0-2.2,1.1-2.2,3c0,1.9,0.8,3.1,2.2,3.1
					C870,671.6,870.8,670.4,870.8,668.5z"/>
				<path class="st2" d="M874.1,672c0-0.6,0.5-1.2,1.1-1.2c0.6,0,1.1,0.5,1.1,1.2s-0.5,1.2-1.1,1.2
					C874.6,673.2,874.1,672.7,874.1,672z"/>
			</g>
			<g class="st3">
				<path d="M777.5,693.6h-4.3l-0.9,3.4h-2.7l4.3-13.3h3.1l4.3,13.3h-2.8L777.5,693.6z M776.9,691.5l-0.4-1.5
					c-0.4-1.4-0.8-2.9-1.2-4.4h-0.1c-0.3,1.5-0.7,3-1.1,4.4l-0.4,1.5H776.9z"/>
				<path d="M788.9,693.6h-4.3l-0.9,3.4H781l4.3-13.3h3.1l4.3,13.3h-2.8L788.9,693.6z M788.4,691.5L788,690
					c-0.4-1.4-0.8-2.9-1.2-4.4h-0.1c-0.3,1.5-0.7,3-1.1,4.4l-0.4,1.5H788.4z"/>
				<path d="M794.1,694.9h2.9v-8.4h-2.4v-1.6c1.3-0.3,2.2-0.6,3.1-1.1h2v11.2h2.5v2.1h-8V694.9z"/>
				<path d="M804,695.5c3.6-3.2,5.8-5.7,5.8-7.8c0-1.3-0.7-2.2-2-2.2c-1,0-1.8,0.6-2.4,1.4l-1.4-1.4c1.2-1.3,2.4-2,4.2-2
					c2.5,0,4.2,1.6,4.2,4.1c0,2.4-2,5-4.4,7.4c0.7-0.1,1.5-0.1,2.2-0.1h2.9v2.2H804V695.5z"/>
				<path d="M814.3,695.4l1.2-1.7c0.8,0.8,1.8,1.4,3,1.4c1.4,0,2.3-0.7,2.3-1.9c0-1.3-0.8-2.1-3.7-2.1v-1.9c2.4,0,3.2-0.8,3.2-2
					c0-1-0.6-1.7-1.8-1.7c-1,0-1.7,0.5-2.5,1.2l-1.4-1.6c1.2-1,2.4-1.6,4-1.6c2.6,0,4.3,1.3,4.3,3.5c0,1.4-0.8,2.5-2.2,3v0.1
					c1.5,0.4,2.7,1.5,2.7,3.3c0,2.4-2.1,3.9-4.7,3.9C816.6,697.3,815.2,696.5,814.3,695.4z"/>
				<path d="M834.5,693.5h-1.6v3.5h-2.5v-3.5h-5.7v-1.8l5-8.1h3.2v7.9h1.6V693.5z M830.4,691.5v-2.7c0-0.8,0.1-2,0.1-2.8h-0.1
					c-0.3,0.7-0.7,1.4-1.1,2.2l-2.1,3.3H830.4z"/>
				<path d="M835.5,695.4l1.2-1.7c0.8,0.7,1.7,1.4,2.9,1.4c1.4,0,2.4-0.9,2.4-2.4c0-1.5-0.9-2.4-2.2-2.4c-0.8,0-1.2,0.2-2,0.7
					l-1.2-0.8l0.4-6.5h7.1v2.2h-4.8l-0.3,2.8c0.5-0.3,1-0.4,1.6-0.4c2.2,0,4.1,1.3,4.1,4.2c0,3-2.2,4.7-4.7,4.7
					C837.9,697.3,836.5,696.4,835.5,695.4z"/>
				<path d="M853.9,686.5c-0.5-0.5-1.3-1-2.1-1c-1.5,0-2.8,1.2-2.9,4.5c0.7-0.9,1.9-1.4,2.7-1.4c2.2,0,3.8,1.3,3.8,4.2
					c0,2.7-1.9,4.4-4.2,4.4c-2.5,0-4.8-2-4.8-6.7c0-5,2.5-7.1,5.1-7.1c1.6,0,2.8,0.7,3.6,1.5L853.9,686.5z M853,692.8
					c0-1.6-0.7-2.3-1.9-2.3c-0.7,0-1.5,0.4-2.2,1.4c0.3,2.4,1.2,3.4,2.3,3.4C852.2,695.3,853,694.4,853,692.8z"/>
				<path d="M863.1,685.9h-6v-2.2h8.9v1.6c-3.1,3.8-3.5,6.5-3.7,11.7h-2.7C859.8,692.4,860.6,689.4,863.1,685.9z"/>
				<path d="M867.7,693.7c0-1.7,1-2.8,2.3-3.5v-0.1c-1-0.7-1.8-1.7-1.8-3.2c0-2.1,1.7-3.5,4-3.5c2.4,0,3.9,1.4,3.9,3.5
					c0,1.3-0.8,2.4-1.7,3v0.1c1.2,0.7,2.2,1.7,2.2,3.6c0,2-1.8,3.6-4.5,3.6C869.6,697.3,867.7,695.8,867.7,693.7z M874.1,693.6
					c0-1.4-1.2-2-3-2.7c-0.7,0.6-1.2,1.5-1.2,2.5c0,1.2,1,2,2.2,2C873.3,695.4,874.1,694.7,874.1,693.6z M873.9,687.2
					c0-1.1-0.6-1.9-1.8-1.9c-0.9,0-1.6,0.6-1.6,1.7c0,1.3,1,1.9,2.4,2.4C873.6,688.7,873.9,687.9,873.9,687.2z"/>
				<path d="M879.7,694.2c0.5,0.5,1.3,0.9,2.1,0.9c1.5,0,2.7-1.1,2.8-4.5c-0.7,0.9-1.8,1.5-2.7,1.5c-2.2,0-3.8-1.4-3.8-4.2
					c0-2.7,1.9-4.4,4.2-4.4c2.5,0,4.8,2,4.8,6.6c0,5-2.5,7.2-5.1,7.2c-1.7,0-2.9-0.7-3.7-1.5L879.7,694.2z M884.6,688.8
					c-0.2-2.4-1.2-3.3-2.3-3.3c-1,0-1.8,0.8-1.8,2.4c0,1.6,0.7,2.3,1.9,2.3C883.2,690.2,884,689.8,884.6,688.8z"/>
				<path d="M888.8,690.3c0-4.6,1.8-6.9,4.5-6.9c2.7,0,4.5,2.3,4.5,6.9c0,4.6-1.8,7-4.5,7C890.6,697.3,888.8,694.9,888.8,690.3z
					 M895.3,690.3c0-3.7-0.9-4.8-2-4.8c-1.2,0-2,1.1-2,4.8c0,3.7,0.9,4.9,2,4.9C894.5,695.2,895.3,694,895.3,690.3z"/>
			</g>
		</g>
	</g>
	<g>
		<path class="st2" d="M50.6,1032.1v2.7l-7.2,3l7.2,3v2.6l-10.5-4.5v-2.3L50.6,1032.1z"/>
		<path class="st2" d="M63.2,1032.1v2.7l-7.2,3l7.2,3v2.6l-10.5-4.5v-2.3L63.2,1032.1z"/>
		<path class="st2" d="M70.4,1027.1c1.5,0,2.8,0.5,3.7,1.5c0.9,0.9,1.3,2.1,1.3,3.5v3c0,1.4-0.5,2.6-1.4,3.5c-1,1-2.1,1.5-3.5,1.5
			h-1.8v7.9h-3.2v-21L70.4,1027.1L70.4,1027.1z M72.3,1032.2c0-0.6-0.2-1-0.5-1.3s-0.8-0.5-1.3-0.5h-1.9v6.7h1.9
			c0.5,0,0.9-0.2,1.3-0.5s0.5-0.8,0.5-1.3V1032.2z"/>
		<path class="st2" d="M77.5,1032.1l10.5,4.5v2.3l-10.5,4.5v-2.6l7.2-3l-7.2-3V1032.1z"/>
		<path class="st2" d="M90.2,1032.1l10.5,4.5v2.3l-10.5,4.5v-2.6l7.2-3l-7.2-3V1032.1z"/>
		<path class="st2" d="M102.8,1032.1l10.5,4.5v2.3l-10.5,4.5v-2.6l7.2-3l-7.2-3V1032.1z"/>
		<path class="st2" d="M124.2,1026.1h2.6l-8.7,22.9h-2.6L124.2,1026.1z"/>
		<path class="st2" d="M139.5,1032.1v2.7l-7.2,3l7.2,3v2.6l-10.5-4.5v-2.3L139.5,1032.1z"/>
		<path class="st2" d="M152.1,1032.1v2.7l-7.2,3l7.2,3v2.6l-10.5-4.5v-2.3L152.1,1032.1z"/>
		<path class="st2" d="M157.5,1039.2v8.9h-3.2v-21h3.2v8.9h3.8v-8.9h3.2v21h-3.2v-8.9H157.5z"/>
		<path class="st2" d="M172.2,1026.9c1.4,0,2.6,0.5,3.6,1.5s1.5,2.2,1.5,3.6v11.4c0,1.4-0.5,2.6-1.5,3.6s-2.2,1.5-3.6,1.5
			s-2.6-0.5-3.5-1.5c-1-1-1.5-2.2-1.5-3.6V1032c0-1.4,0.5-2.6,1.5-3.6S170.9,1026.9,172.2,1026.9z M174,1031.8
			c0-0.5-0.2-0.9-0.5-1.3c-0.3-0.3-0.8-0.5-1.3-0.5s-0.9,0.2-1.3,0.5c-0.4,0.3-0.5,0.8-0.5,1.3v11.5c0,0.5,0.2,0.9,0.5,1.3
			c0.4,0.4,0.8,0.5,1.3,0.5s0.9-0.2,1.3-0.5c0.3-0.4,0.5-0.8,0.5-1.3V1031.8z"/>
		<path class="st2" d="M183.6,1027.1l4.2,14.1v-14.1h3.2v21h-3.4l-4.4-13.4v13.4H180v-21H183.6z"/>
		<path class="st2" d="M198.7,1048.4c-1.4,0-2.6-0.5-3.6-1.5s-1.5-2.2-1.5-3.5v-11.5c0-1.4,0.5-2.6,1.5-3.5c1-1,2.2-1.5,3.5-1.5
			c1.4,0,2.6,0.5,3.5,1.5c1,1,1.5,2.2,1.5,3.5v2.4h-3.3v-2.4c0-0.5-0.2-0.9-0.5-1.3s-0.8-0.5-1.3-0.5s-0.9,0.2-1.3,0.5
			c-0.4,0.4-0.5,0.8-0.5,1.3v11.5c0,0.5,0.2,0.9,0.5,1.3c0.4,0.4,0.8,0.5,1.3,0.5s0.9-0.2,1.3-0.5s0.5-0.8,0.5-1.3v-4.1h-1.8v-3.2h5
			v7.3c0,1.4-0.5,2.6-1.5,3.5C201.3,1047.9,200.1,1048.4,198.7,1048.4z"/>
		<path class="st2" d="M216.4,1032.1v2.7l-7.2,3l7.2,3v2.6l-10.5-4.5v-2.3L216.4,1032.1z"/>
		<path class="st2" d="M229,1032.1v2.7l-7.2,3l7.2,3v2.6l-10.5-4.5v-2.3L229,1032.1z"/>
		<path class="st2" d="M236.2,1048.4c-1.4,0-2.6-0.5-3.6-1.5s-1.5-2.2-1.5-3.5v-11.5c0-1.4,0.5-2.6,1.5-3.5c1-1,2.2-1.5,3.5-1.5
			c1.4,0,2.6,0.5,3.5,1.5c1,1,1.5,2.2,1.5,3.5v2.4h-3.3v-2.4c0-0.5-0.2-0.9-0.5-1.3s-0.8-0.5-1.3-0.5s-0.9,0.2-1.3,0.5
			c-0.4,0.4-0.5,0.8-0.5,1.3v11.5c0,0.5,0.2,0.9,0.5,1.3c0.4,0.4,0.8,0.5,1.3,0.5s0.9-0.2,1.3-0.5s0.5-0.8,0.5-1.3v-4.1H236v-3.2h5
			v7.3c0,1.4-0.5,2.6-1.5,3.5C238.8,1047.9,237.6,1048.4,236.2,1048.4z"/>
		<path class="st2" d="M247.1,1048.1H244v-21h3.2L247.1,1048.1L247.1,1048.1z"/>
		<path class="st2" d="M258.6,1048.1H250v-21h3.2v17.8h5.5v3.2H258.6z"/>
		<path class="st2" d="M270.7,1043.1c0,1.4-0.5,2.6-1.5,3.5c-1,1-2.1,1.5-3.5,1.5h-5v-21h5c1.4,0,2.6,0.5,3.5,1.5
			c1,1,1.4,2.2,1.4,3.5v11H270.7z M263.9,1045h1.9c0.5,0,0.9-0.2,1.3-0.5c0.3-0.4,0.5-0.8,0.5-1.3v-11c0-0.5-0.2-0.9-0.5-1.3
			s-0.8-0.5-1.3-0.5h-1.9V1045z"/>
		<path class="st2" d="M278.4,1026.9c1.4,0,2.6,0.5,3.6,1.5s1.5,2.2,1.5,3.6v11.4c0,1.4-0.5,2.6-1.5,3.6s-2.2,1.5-3.6,1.5
			s-2.6-0.5-3.5-1.5c-1-1-1.5-2.2-1.5-3.6V1032c0-1.4,0.5-2.6,1.5-3.6C275.8,1027.4,277,1026.9,278.4,1026.9z M280.1,1031.8
			c0-0.5-0.2-0.9-0.5-1.3c-0.3-0.3-0.8-0.5-1.3-0.5s-0.9,0.2-1.3,0.5s-0.5,0.8-0.5,1.3v11.5c0,0.5,0.2,0.9,0.5,1.3
			c0.4,0.4,0.8,0.5,1.3,0.5s0.9-0.2,1.3-0.5c0.3-0.4,0.5-0.8,0.5-1.3V1031.8z"/>
		<path class="st2" d="M289.7,1027.1l4.2,14.1v-14.1h3.2v21h-3.4l-4.4-13.4v13.4h-3.2v-21H289.7z"/>
		<path class="st2" d="M304.9,1048.4c-1.4,0-2.6-0.5-3.6-1.5s-1.5-2.2-1.5-3.5v-11.5c0-1.4,0.5-2.6,1.5-3.5c1-1,2.2-1.5,3.5-1.5
			c1.4,0,2.6,0.5,3.5,1.5c1,1,1.5,2.2,1.5,3.5v2.4h-3.3v-2.4c0-0.5-0.2-0.9-0.5-1.3s-0.8-0.5-1.3-0.5s-0.9,0.2-1.3,0.5
			c-0.4,0.4-0.5,0.8-0.5,1.3v11.5c0,0.5,0.2,0.9,0.5,1.3c0.4,0.4,0.8,0.5,1.3,0.5s0.9-0.2,1.3-0.5s0.5-0.8,0.5-1.3v-4.1h-1.8v-3.2h5
			v7.3c0,1.4-0.5,2.6-1.5,3.5C307.4,1047.9,306.2,1048.4,304.9,1048.4z"/>
		<path class="st2" d="M322.5,1032.1v2.7l-7.2,3l7.2,3v2.6l-10.5-4.5v-2.3L322.5,1032.1z"/>
		<path class="st2" d="M335.2,1032.1v2.7l-7.2,3l7.2,3v2.6l-10.5-4.5v-2.3L335.2,1032.1z"/>
		<path class="st2" d="M347.8,1032.1v2.7l-7.2,3l7.2,3v2.6l-10.5-4.5v-2.3L347.8,1032.1z"/>
		<path class="st2" d="M360.5,1032.1v2.7l-7.2,3l7.2,3v2.6l-10.5-4.5v-2.3L360.5,1032.1z"/>
		<path class="st2" d="M373.1,1032.1v2.7l-7.2,3l7.2,3v2.6l-10.5-4.5v-2.3L373.1,1032.1z"/>
		<path class="st2" d="M385.8,1032.1v2.7l-7.2,3l7.2,3v2.6l-10.5-4.5v-2.3L385.8,1032.1z"/>
		<path class="st2" d="M398.5,1032.1v2.7l-7.2,3l7.2,3v2.6l-10.5-4.5v-2.3L398.5,1032.1z"/>
		<path class="st2" d="M411.1,1032.1v2.7l-7.2,3l7.2,3v2.6l-10.5-4.5v-2.3L411.1,1032.1z"/>
		<path class="st2" d="M423.8,1032.1v2.7l-7.2,3l7.2,3v2.6l-10.5-4.5v-2.3L423.8,1032.1z"/>
		<path class="st2" d="M436.4,1032.1v2.7l-7.2,3l7.2,3v2.6l-10.5-4.5v-2.3L436.4,1032.1z"/>
		<path class="st2" d="M449.1,1032.1v2.7l-7.2,3l7.2,3v2.6l-10.5-4.5v-2.3L449.1,1032.1z"/>
		<path class="st2" d="M461.8,1032.1v2.7l-7.2,3l7.2,3v2.6l-10.5-4.5v-2.3L461.8,1032.1z"/>
		<path class="st2" d="M474.4,1032.1v2.7l-7.2,3l7.2,3v2.6l-10.5-4.5v-2.3L474.4,1032.1z"/>
		<path class="st2" d="M487.1,1032.1v2.7l-7.2,3l7.2,3v2.6l-10.5-4.5v-2.3L487.1,1032.1z"/>
		<path class="st2" d="M499.7,1032.1v2.7l-7.2,3l7.2,3v2.6l-10.5-4.5v-2.3L499.7,1032.1z"/>
		<path class="st2" d="M512.4,1032.1v2.7l-7.2,3l7.2,3v2.6l-10.5-4.5v-2.3L512.4,1032.1z"/>
		<path class="st2" d="M525.1,1032.1v2.7l-7.2,3l7.2,3v2.6l-10.5-4.5v-2.3L525.1,1032.1z"/>
		<path class="st2" d="M537.7,1032.1v2.7l-7.2,3l7.2,3v2.6l-10.5-4.5v-2.3L537.7,1032.1z"/>
		<path class="st2" d="M550.4,1032.1v2.7l-7.2,3l7.2,3v2.6l-10.5-4.5v-2.3L550.4,1032.1z"/>
		<path class="st2" d="M563,1032.1v2.7l-7.2,3l7.2,3v2.6l-10.5-4.5v-2.3L563,1032.1z"/>
		<path class="st2" d="M575.7,1032.1v2.7l-7.2,3l7.2,3v2.6l-10.5-4.5v-2.3L575.7,1032.1z"/>
		<path class="st2" d="M588.3,1032.1v2.7l-7.2,3l7.2,3v2.6l-10.5-4.5v-2.3L588.3,1032.1z"/>
		<path class="st2" d="M601,1032.1v2.7l-7.2,3l7.2,3v2.6l-10.5-4.5v-2.3L601,1032.1z"/>
		<path class="st2" d="M613.7,1032.1v2.7l-7.2,3l7.2,3v2.6l-10.5-4.5v-2.3L613.7,1032.1z"/>
		<path class="st2" d="M626.3,1032.1v2.7l-7.2,3l7.2,3v2.6l-10.5-4.5v-2.3L626.3,1032.1z"/>
		<path class="st2" d="M639,1032.1v2.7l-7.2,3l7.2,3v2.6l-10.5-4.5v-2.3L639,1032.1z"/>
		<path class="st2" d="M651.6,1032.1v2.7l-7.2,3l7.2,3v2.6l-10.5-4.5v-2.3L651.6,1032.1z"/>
		<path class="st2" d="M664.3,1032.1v2.7l-7.2,3l7.2,3v2.6l-10.5-4.5v-2.3L664.3,1032.1z"/>
		<path class="st2" d="M677,1032.1v2.7l-7.2,3l7.2,3v2.6l-10.5-4.5v-2.3L677,1032.1z"/>
		<path class="st2" d="M689.6,1032.1v2.7l-7.2,3l7.2,3v2.6l-10.5-4.5v-2.3L689.6,1032.1z"/>
		<path class="st2" d="M702.3,1032.1v2.7l-7.2,3l7.2,3v2.6l-10.5-4.5v-2.3L702.3,1032.1z"/>
		<path class="st2" d="M714.9,1032.1v2.7l-7.2,3l7.2,3v2.6l-10.5-4.5v-2.3L714.9,1032.1z"/>
		<path class="st2" d="M727.6,1032.1v2.7l-7.2,3l7.2,3v2.6l-10.5-4.5v-2.3L727.6,1032.1z"/>
		<path class="st2" d="M740.2,1032.1v2.7l-7.2,3l7.2,3v2.6l-10.5-4.5v-2.3L740.2,1032.1z"/>
		<path class="st2" d="M752.9,1032.1v2.7l-7.2,3l7.2,3v2.6l-10.5-4.5v-2.3L752.9,1032.1z"/>
		<path class="st2" d="M765.6,1032.1v2.7l-7.2,3l7.2,3v2.6l-10.5-4.5v-2.3L765.6,1032.1z"/>
		<path class="st2" d="M778.2,1032.1v2.7l-7.2,3l7.2,3v2.6l-10.5-4.5v-2.3L778.2,1032.1z"/>
		<path class="st2" d="M790.9,1032.1v2.7l-7.2,3l7.2,3v2.6l-10.5-4.5v-2.3L790.9,1032.1z"/>
		<path class="st2" d="M803.5,1032.1v2.7l-7.2,3l7.2,3v2.6l-10.5-4.5v-2.3L803.5,1032.1z"/>
		<path class="st2" d="M816.2,1032.1v2.7l-7.2,3l7.2,3v2.6l-10.5-4.5v-2.3L816.2,1032.1z"/>
		<path class="st2" d="M828.9,1032.1v2.7l-7.2,3l7.2,3v2.6l-10.5-4.5v-2.3L828.9,1032.1z"/>
		<path class="st2" d="M841.5,1032.1v2.7l-7.2,3l7.2,3v2.6l-10.5-4.5v-2.3L841.5,1032.1z"/>
		<path class="st2" d="M854.2,1032.1v2.7l-7.2,3l7.2,3v2.6l-10.5-4.5v-2.3L854.2,1032.1z"/>
		<path class="st2" d="M866.8,1032.1v2.7l-7.2,3l7.2,3v2.6l-10.5-4.5v-2.3L866.8,1032.1z"/>
		<path class="st2" d="M879.5,1032.1v2.7l-7.2,3l7.2,3v2.6l-10.5-4.5v-2.3L879.5,1032.1z"/>
		<path class="st2" d="M892.2,1032.1v2.7l-7.2,3l7.2,3v2.6l-10.5-4.5v-2.3L892.2,1032.1z"/>
		<path class="st2" d="M904.8,1032.1v2.7l-7.2,3l7.2,3v2.6l-10.5-4.5v-2.3L904.8,1032.1z"/>
		<path class="st2" d="M917.5,1032.1v2.7l-7.2,3l7.2,3v2.6l-10.5-4.5v-2.3L917.5,1032.1z"/>
		<path class="st2" d="M930.1,1032.1v2.7l-7.2,3l7.2,3v2.6l-10.5-4.5v-2.3L930.1,1032.1z"/>
		<path class="st2" d="M942.8,1032.1v2.7l-7.2,3l7.2,3v2.6l-10.5-4.5v-2.3L942.8,1032.1z"/>
		<path class="st2" d="M955.4,1032.1v2.7l-7.2,3l7.2,3v2.6l-10.5-4.5v-2.3L955.4,1032.1z"/>
		<path class="st2" d="M968.1,1032.1v2.7l-7.2,3l7.2,3v2.6l-10.5-4.5v-2.3L968.1,1032.1z"/>
		<path class="st2" d="M980.8,1032.1v2.7l-7.2,3l7.2,3v2.6l-10.5-4.5v-2.3L980.8,1032.1z"/>
		<path class="st2" d="M993.4,1032.1v2.7l-7.2,3l7.2,3v2.6l-10.5-4.5v-2.3L993.4,1032.1z"/>
		<path class="st2" d="M44.2,1071.5l-0.8,4.8h-3.3l3.6-21H48l3.5,21h-3.3l-0.7-4.8H44.2z M45.8,1060.2l-1.2,8.3H47L45.8,1060.2z"/>
		<path class="st2" d="M54.2,1076.3v-16.1h-2.7v-2.2c0.8-0.1,1.5-0.4,2.2-0.9s1.2-1.1,1.5-1.8h2.2v21H54.2z"/>
		<path class="st2" d="M60,1061c0-2,0.5-3.5,1.6-4.6c0.9-0.9,2.1-1.4,3.6-1.4c1.4,0,2.6,0.5,3.5,1.6c1,1,1.5,2.2,1.5,3.6
			c0,1.6-0.3,3.1-1,4.4c-0.3,0.7-1.2,2-2.4,3.8c-0.3,0.5-0.9,1.3-1.5,2.3l-0.6,0.9c-0.4,0.6-0.6,1-0.8,1.3c-0.1,0.2-0.1,0.3-0.1,0.3
			H70v3.1H60v-2.9c0-0.1,0.2-0.5,0.7-1.1c0.2-0.3,0.4-0.7,0.7-1.1l0.8-1.2c0.5-0.7,1.2-1.7,2.3-3.2c1-1.4,1.7-2.6,2.2-3.7
			c0.4-0.9,0.6-1.8,0.6-2.8c0-0.6-0.2-1.2-0.5-1.6c-0.4-0.5-0.9-0.7-1.5-0.7c-0.9,0-1.5,0.5-1.9,1.5c-0.1,0.3-0.2,0.7-0.2,1.2v0.8
			H60V1061z"/>
		<path class="st2" d="M77.4,1073.4c1.4,0,2.2-0.7,2.2-2v-1.3c0-2.2-1.1-3.2-3.4-3.2v-2.7c1.2,0,2.1-0.3,2.7-1
			c0.5-0.6,0.8-1.5,0.8-2.6v-0.5c0-1.4-0.6-2.1-1.8-2.1c-0.7,0-1.2,0.3-1.5,0.8c-0.2,0.4-0.3,0.9-0.3,1.5v0.6H73v-0.5
			c0-1.5,0.4-2.7,1.1-3.6c0.9-1.1,2.1-1.6,3.6-1.6s2.7,0.5,3.6,1.5c0.8,0.9,1.2,2,1.2,3.4v0.9c0,1.3-0.4,2.4-1.2,3.4
			c-0.3,0.4-0.7,0.7-1.2,1c0.9,0.5,1.7,1.3,2.2,2.4c0.3,0.5,0.4,1.2,0.4,2v1.7c0,1.5-0.5,2.8-1.6,3.8c-1,1-2.2,1.4-3.7,1.4
			c-1.4,0-2.6-0.5-3.5-1.5c-1-1-1.5-2.2-1.5-3.5v-0.5l3-0.2l0.1,0.7c0,0.5,0.2,0.9,0.6,1.3C76.4,1073.2,76.9,1073.4,77.4,1073.4z"/>
		<path class="st2" d="M84.9,1068.6l5.6-13.3h3.2v13.3h2v3.2h-2v4.5h-3.2v-4.5h-5.6V1068.6z M90.5,1068.6v-6.5l-2.6,6.5H90.5z"/>
		<path class="st2" d="M101.7,1058.5v4.6c0.3-0.4,0.7-0.8,1.3-1c0.3-0.1,0.7-0.2,1.1-0.2c1.4,0,2.4,0.5,3.1,1.5
			c0.6,0.8,0.9,2,0.9,3.5v4.5c0,1.5-0.5,2.8-1.5,3.8c-0.9,1-2.1,1.4-3.5,1.4s-2.5-0.5-3.4-1.5s-1.3-2.1-1.3-3.5v-0.5l3-0.2l0.1,0.7
			c0.1,0.8,0.4,1.4,1,1.7c0.2,0.1,0.4,0.1,0.6,0.1c1.3,0,1.9-0.7,1.9-2v-5.1c0-0.6-0.2-1.1-0.7-1.5c-0.2-0.2-0.5-0.3-0.9-0.3
			c-0.6,0-1,0.2-1.2,0.7c-0.2,0.4-0.3,0.8-0.3,1.2v0.6h-3.2v-11.5h9.3v3.2h-6.3V1058.5z"/>
		<path class="st2" d="M116.8,1060.6v-0.5c0-0.5-0.1-0.9-0.4-1.3s-0.7-0.5-1.2-0.5s-0.9,0.2-1.2,0.5s-0.4,0.8-0.4,1.3v4.2
			c0.7-0.6,1.5-1,2.4-1c1.4,0,2.4,0.5,3.1,1.4c0.6,0.9,0.9,2,0.9,3.5v3.6l0,0c-0.1,1.3-0.6,2.5-1.4,3.4c-0.9,0.9-2,1.4-3.3,1.4
			c-1.4,0-2.5-0.5-3.4-1.5s-1.3-2.1-1.3-3.5v-11.5c0-1,0.2-2,0.7-2.8s1.2-1.4,2.1-1.8c0.6-0.3,1.2-0.4,1.9-0.4
			c1.4,0,2.5,0.5,3.4,1.5s1.3,2.1,1.3,3.5v0.4h-3.2V1060.6z M113.7,1071.6c0,0.5,0.1,0.9,0.4,1.3s0.7,0.6,1.2,0.6s0.9-0.2,1.2-0.6
			c0.3-0.3,0.4-0.8,0.4-1.3v-3.9c0-0.6-0.2-1.1-0.7-1.5c-0.2-0.2-0.5-0.3-0.9-0.3c-0.5,0-1,0.2-1.2,0.6s-0.3,0.8-0.3,1.2
			L113.7,1071.6L113.7,1071.6z"/>
		<path class="st2" d="M131.8,1055.4v3.2l-4.4,17.8h-3.1l4.4-17.8h-6.4v-3.2H131.8z"/>
		<path class="st2" d="M144.3,1071.6c0,1.4-0.5,2.6-1.5,3.5c-1,1-2.2,1.5-3.6,1.5H139c-1.4,0-2.6-0.5-3.5-1.5c-1-1-1.5-2.2-1.5-3.5
			v-2c0-1.3,0.4-2.4,1.3-3.4c0.4-0.4,0.8-0.8,1.3-1c-0.9-0.4-1.5-1.2-2-2.2c-0.2-0.5-0.4-1.2-0.4-2v-1.1c0-1.4,0.4-2.5,1.2-3.4
			c0.9-1,2.1-1.5,3.5-1.5h0.3c1.5,0,2.7,0.5,3.6,1.5c0.8,0.9,1.2,2,1.2,3.4v1.1c0,1.3-0.4,2.4-1.2,3.3c-0.3,0.4-0.7,0.7-1.1,0.9
			c0.9,0.5,1.7,1.3,2.2,2.4c0.3,0.5,0.4,1.2,0.4,2V1071.6z M141.2,1060.8c0-1.4-0.5-2.3-1.3-2.7c-0.2-0.1-0.4-0.1-0.7-0.1
			c-0.5,0-1,0.2-1.3,0.5c-0.3,0.2-0.5,0.6-0.6,0.9c-0.1,0.4-0.2,0.9-0.1,1.4c0,0.9,0.2,1.6,0.4,2c0.3,0.5,0.9,0.8,1.6,0.8
			s1.3-0.3,1.7-0.9C141.1,1062.3,141.2,1061.6,141.2,1060.8z M141.1,1070.1c0-1.2-0.3-2.1-0.9-2.5c-0.3-0.2-0.6-0.3-1.1-0.3
			c-0.8,0-1.4,0.4-1.7,1.1c-0.2,0.4-0.3,1-0.3,1.7v1c0,0.7,0.2,1.2,0.6,1.7c0.4,0.4,0.8,0.6,1.3,0.6c0.9,0,1.5-0.5,1.8-1.3
			c0.1-0.3,0.2-0.6,0.2-1L141.1,1070.1L141.1,1070.1z"/>
		<path class="st2" d="M151.6,1055.1c1.4,0,2.5,0.5,3.4,1.5s1.3,2.1,1.3,3.5v11.5c0,1.4-0.5,2.6-1.4,3.5c-0.9,1-2,1.5-3.4,1.5
			s-2.5-0.5-3.4-1.5s-1.3-2.1-1.3-3.5v-0.4h3.3v0.5c0,0.5,0.1,0.9,0.4,1.3c0.3,0.3,0.7,0.5,1.2,0.5s0.9-0.2,1.2-0.5s0.4-0.8,0.4-1.3
			v-4.2c-0.7,0.7-1.5,1-2.4,1c-1.4,0-2.4-0.5-3.1-1.5c-0.6-0.9-0.9-2-0.9-3.5v-3.6l0,0c0-1,0.3-1.8,0.8-2.6c0.5-0.8,1.2-1.3,2.1-1.7
			C150.4,1055.2,151,1055.1,151.6,1055.1z M153.3,1060.2c0-0.5-0.1-0.9-0.4-1.3s-0.7-0.5-1.2-0.5s-0.9,0.2-1.2,0.5
			c-0.3,0.4-0.4,0.8-0.4,1.3v3.9c0,0.6,0.2,1.1,0.7,1.5c0.2,0.2,0.5,0.3,0.9,0.3c0.8,0,1.3-0.4,1.5-1.3c0.1-0.3,0.1-0.4,0.1-0.6
			L153.3,1060.2L153.3,1060.2z"/>
		<path class="st2" d="M162.6,1071.5l-0.8,4.8h-3.3l3.6-21h4.4l3.5,21h-3.3l-0.7-4.8H162.6z M164.3,1060.2l-1.2,8.3h2.3
			L164.3,1060.2z"/>
		<path class="st2" d="M176.2,1071.5l-0.8,4.8h-3.3l3.6-21h4.4l3.5,21h-3.3l-0.7-4.8H176.2z M177.9,1060.2l-1.2,8.3h2.3
			L177.9,1060.2z"/>
		<path class="st2" d="M186.3,1076.3v-16.1h-2.7v-2.2c0.8-0.1,1.5-0.4,2.2-0.9s1.2-1.1,1.5-1.8h2.2v21H186.3z"/>
		<path class="st2" d="M192.1,1061c0-2,0.5-3.5,1.6-4.6c0.9-0.9,2.1-1.4,3.6-1.4c1.4,0,2.6,0.5,3.5,1.6c1,1,1.5,2.2,1.5,3.6
			c0,1.6-0.3,3.1-1,4.4c-0.3,0.7-1.2,2-2.4,3.8c-0.3,0.5-0.9,1.3-1.5,2.3l-0.6,0.9c-0.4,0.6-0.6,1-0.8,1.3c-0.1,0.2-0.1,0.3-0.1,0.3
			h6.2v3.1h-10v-2.9c0-0.1,0.2-0.5,0.7-1.1c0.2-0.3,0.4-0.7,0.7-1.1l0.8-1.2c0.5-0.7,1.2-1.7,2.3-3.2c1-1.4,1.7-2.6,2.2-3.7
			c0.4-0.9,0.6-1.8,0.6-2.8c0-0.6-0.2-1.2-0.5-1.6c-0.4-0.5-0.9-0.7-1.5-0.7c-0.9,0-1.5,0.5-1.9,1.5c-0.1,0.3-0.2,0.7-0.2,1.2v0.8
			h-3.1v-0.5H192.1z"/>
		<path class="st2" d="M209.5,1073.4c1.4,0,2.2-0.7,2.2-2v-1.3c0-2.2-1.1-3.2-3.4-3.2v-2.7c1.2,0,2.1-0.3,2.7-1
			c0.5-0.6,0.8-1.5,0.8-2.6v-0.5c0-1.4-0.6-2.1-1.8-2.1c-0.7,0-1.2,0.3-1.5,0.8c-0.2,0.4-0.3,0.9-0.3,1.5v0.6H205v-0.5
			c0-1.5,0.4-2.7,1.1-3.6c0.9-1.1,2.1-1.6,3.6-1.6s2.7,0.5,3.6,1.5c0.8,0.9,1.2,2,1.2,3.4v0.9c0,1.3-0.4,2.4-1.2,3.4
			c-0.3,0.4-0.7,0.7-1.2,1c0.9,0.5,1.7,1.3,2.2,2.4c0.3,0.5,0.4,1.2,0.4,2v1.7c0,1.5-0.5,2.8-1.6,3.8c-1,1-2.2,1.4-3.7,1.4
			c-1.4,0-2.6-0.5-3.5-1.5c-1-1-1.5-2.2-1.5-3.5v-0.5l3-0.2l0.1,0.7c0,0.5,0.2,0.9,0.6,1.3C208.5,1073.2,209,1073.4,209.5,1073.4z"
			/>
		<path class="st2" d="M217,1068.6l5.6-13.3h3.2v13.3h2v3.2h-2v4.5h-3.2v-4.5H217V1068.6z M222.6,1068.6v-6.5l-2.6,6.5H222.6z"/>
		<path class="st2" d="M233.8,1058.5v4.6c0.3-0.4,0.7-0.8,1.3-1c0.3-0.1,0.7-0.2,1.1-0.2c1.4,0,2.4,0.5,3.1,1.5
			c0.6,0.8,0.9,2,0.9,3.5v4.5c0,1.5-0.5,2.8-1.5,3.8c-0.9,1-2.1,1.4-3.5,1.4s-2.5-0.5-3.4-1.5s-1.3-2.1-1.3-3.5v-0.5l3-0.2l0.1,0.7
			c0.1,0.8,0.4,1.4,1,1.7c0.2,0.1,0.4,0.1,0.6,0.1c1.3,0,1.9-0.7,1.9-2v-5.1c0-0.6-0.2-1.1-0.7-1.5c-0.2-0.2-0.5-0.3-0.9-0.3
			c-0.6,0-1,0.2-1.2,0.7c-0.2,0.4-0.3,0.8-0.3,1.2v0.6h-3.2v-11.5h9.3v3.2h-6.3V1058.5z"/>
		<path class="st2" d="M248.9,1060.6v-0.5c0-0.5-0.1-0.9-0.4-1.3s-0.7-0.5-1.2-0.5s-0.9,0.2-1.2,0.5s-0.4,0.8-0.4,1.3v4.2
			c0.7-0.6,1.5-1,2.4-1c1.4,0,2.4,0.5,3.1,1.4c0.6,0.9,0.9,2,0.9,3.5v3.6l0,0c-0.1,1.3-0.6,2.5-1.4,3.4c-0.9,0.9-2,1.4-3.3,1.4
			c-1.4,0-2.5-0.5-3.4-1.5s-1.3-2.1-1.3-3.5v-11.5c0-1,0.2-2,0.7-2.8s1.2-1.4,2.1-1.8c0.6-0.3,1.2-0.4,1.9-0.4
			c1.4,0,2.5,0.5,3.4,1.5s1.3,2.1,1.3,3.5v0.4h-3.2V1060.6z M245.8,1071.6c0,0.5,0.1,0.9,0.4,1.3c0.3,0.4,0.7,0.6,1.2,0.6
			s0.9-0.2,1.2-0.6c0.3-0.3,0.4-0.8,0.4-1.3v-3.9c0-0.6-0.2-1.1-0.7-1.5c-0.2-0.2-0.5-0.3-0.9-0.3c-0.5,0-1,0.2-1.2,0.6
			s-0.3,0.8-0.3,1.2L245.8,1071.6L245.8,1071.6z"/>
		<path class="st2" d="M263.9,1055.4v3.2l-4.4,17.8h-3.1l4.4-17.8h-6.4v-3.2H263.9z"/>
		<path class="st2" d="M276.4,1071.6c0,1.4-0.5,2.6-1.5,3.5c-1,1-2.2,1.5-3.6,1.5H271c-1.4,0-2.6-0.5-3.5-1.5c-1-1-1.5-2.2-1.5-3.5
			v-2c0-1.3,0.4-2.4,1.3-3.4c0.4-0.4,0.8-0.8,1.3-1c-0.9-0.4-1.5-1.2-2-2.2c-0.2-0.5-0.4-1.2-0.4-2v-1.1c0-1.4,0.4-2.5,1.2-3.4
			c0.9-1,2.1-1.5,3.5-1.5h0.3c1.5,0,2.7,0.5,3.6,1.5c0.8,0.9,1.2,2,1.2,3.4v1.1c0,1.3-0.4,2.4-1.2,3.3c-0.3,0.4-0.7,0.7-1.1,0.9
			c0.9,0.5,1.7,1.3,2.2,2.4c0.3,0.5,0.4,1.2,0.4,2v2H276.4z M273.3,1060.8c0-1.4-0.5-2.3-1.3-2.7c-0.2-0.1-0.4-0.1-0.7-0.1
			c-0.5,0-1,0.2-1.3,0.5c-0.3,0.2-0.5,0.6-0.6,0.9c-0.1,0.4-0.2,0.9-0.1,1.4c0,0.9,0.2,1.6,0.4,2c0.3,0.5,0.9,0.8,1.6,0.8
			s1.3-0.3,1.7-0.9C273.2,1062.3,273.3,1061.6,273.3,1060.8z M273.2,1070.1c0-1.2-0.3-2.1-0.9-2.5c-0.3-0.2-0.6-0.3-1.1-0.3
			c-0.8,0-1.4,0.4-1.7,1.1c-0.2,0.4-0.3,1-0.3,1.7v1c0,0.7,0.2,1.2,0.6,1.7c0.4,0.4,0.8,0.6,1.3,0.6c0.9,0,1.5-0.5,1.8-1.3
			c0.1-0.3,0.2-0.6,0.2-1v-1H273.2z"/>
		<path class="st2" d="M283.7,1055.1c1.4,0,2.5,0.5,3.4,1.5s1.3,2.1,1.3,3.5v11.5c0,1.4-0.5,2.6-1.4,3.5c-0.9,1-2,1.5-3.4,1.5
			s-2.5-0.5-3.4-1.5s-1.3-2.1-1.3-3.5v-0.4h3.3v0.5c0,0.5,0.1,0.9,0.4,1.3c0.3,0.3,0.7,0.5,1.2,0.5s0.9-0.2,1.2-0.5
			c0.3-0.3,0.4-0.8,0.4-1.3v-4.2c-0.7,0.7-1.5,1-2.4,1c-1.4,0-2.4-0.5-3.1-1.5c-0.6-0.9-0.9-2-0.9-3.5v-3.6l0,0c0-1,0.3-1.8,0.8-2.6
			c0.5-0.8,1.2-1.3,2.1-1.7C282.4,1055.2,283.1,1055.1,283.7,1055.1z M285.4,1060.2c0-0.5-0.1-0.9-0.4-1.3s-0.7-0.5-1.2-0.5
			s-0.9,0.2-1.2,0.5c-0.3,0.4-0.4,0.8-0.4,1.3v3.9c0,0.6,0.2,1.1,0.7,1.5c0.2,0.2,0.5,0.3,0.9,0.3c0.8,0,1.3-0.4,1.5-1.3
			c0.1-0.3,0.1-0.4,0.1-0.6V1060.2z"/>
		<path class="st2" d="M301.3,1071.6c0,1.4-0.5,2.6-1.5,3.5c-1,1-2.2,1.5-3.5,1.5c-1.4,0-2.6-0.5-3.6-1.5s-1.5-2.2-1.5-3.5v-11.5
			c0-1.4,0.5-2.6,1.5-3.6s2.2-1.5,3.5-1.5c1.4,0,2.6,0.5,3.5,1.5c1,1,1.5,2.2,1.5,3.5v11.6H301.3z M298,1060.1
			c0-0.5-0.2-0.9-0.5-1.3s-0.8-0.5-1.3-0.5s-0.9,0.2-1.3,0.5c-0.4,0.4-0.5,0.8-0.5,1.3v11.5c0,0.5,0.2,0.9,0.5,1.3
			c0.4,0.4,0.8,0.5,1.3,0.5s0.9-0.2,1.3-0.5s0.5-0.8,0.5-1.3V1060.1z"/>
		<path class="st2" d="M307.5,1071.5l-0.8,4.8h-3.3l3.6-21h4.4l3.5,21h-3.3l-0.7-4.8H307.5z M309.1,1060.2l-1.2,8.3h2.3
			L309.1,1060.2z"/>
		<path class="st2" d="M321.1,1071.5l-0.8,4.8H317l3.6-21h4.4l3.5,21h-3.3l-0.7-4.8H321.1z M322.7,1060.2l-1.2,8.3h2.3L322.7,1060.2
			z"/>
		<path class="st2" d="M334.7,1071.5l-0.8,4.8h-3.3l3.6-21h4.4l3.5,21h-3.3l-0.7-4.8H334.7z M336.3,1060.2l-1.2,8.3h2.3
			L336.3,1060.2z"/>
		<path class="st2" d="M354.7,1060.4v2.7l-7.2,3l7.2,3v2.6l-10.5-4.5v-2.3L354.7,1060.4z"/>
		<path class="st2" d="M367.4,1060.4v2.7l-7.2,3l7.2,3v2.6l-10.5-4.5v-2.3L367.4,1060.4z"/>
		<path class="st2" d="M380,1060.4v2.7l-7.2,3l7.2,3v2.6l-10.5-4.5v-2.3L380,1060.4z"/>
		<path class="st2" d="M392.7,1060.4v2.7l-7.2,3l7.2,3v2.6l-10.5-4.5v-2.3L392.7,1060.4z"/>
		<path class="st2" d="M405.4,1060.4v2.7l-7.2,3l7.2,3v2.6l-10.5-4.5v-2.3L405.4,1060.4z"/>
		<path class="st2" d="M418,1060.4v2.7l-7.2,3l7.2,3v2.6l-10.5-4.5v-2.3L418,1060.4z"/>
		<path class="st2" d="M430.7,1060.4v2.7l-7.2,3l7.2,3v2.6l-10.5-4.5v-2.3L430.7,1060.4z"/>
		<path class="st2" d="M443.3,1060.4v2.7l-7.2,3l7.2,3v2.6l-10.5-4.5v-2.3L443.3,1060.4z"/>
		<path class="st2" d="M456,1060.4v2.7l-7.2,3l7.2,3v2.6l-10.5-4.5v-2.3L456,1060.4z"/>
		<path class="st2" d="M468.6,1060.4v2.7l-7.2,3l7.2,3v2.6l-10.5-4.5v-2.3L468.6,1060.4z"/>
		<path class="st2" d="M481.3,1060.4v2.7l-7.2,3l7.2,3v2.6l-10.5-4.5v-2.3L481.3,1060.4z"/>
		<path class="st2" d="M494,1060.4v2.7l-7.2,3l7.2,3v2.6l-10.5-4.5v-2.3L494,1060.4z"/>
		<path class="st2" d="M506.6,1060.4v2.7l-7.2,3l7.2,3v2.6l-10.5-4.5v-2.3L506.6,1060.4z"/>
		<path class="st2" d="M519.3,1060.4v2.7l-7.2,3l7.2,3v2.6l-10.5-4.5v-2.3L519.3,1060.4z"/>
		<path class="st2" d="M531.9,1060.4v2.7l-7.2,3l7.2,3v2.6l-10.5-4.5v-2.3L531.9,1060.4z"/>
		<path class="st2" d="M544.6,1060.4v2.7l-7.2,3l7.2,3v2.6l-10.5-4.5v-2.3L544.6,1060.4z"/>
		<path class="st2" d="M557.3,1060.4v2.7l-7.2,3l7.2,3v2.6l-10.5-4.5v-2.3L557.3,1060.4z"/>
		<path class="st2" d="M569.9,1060.4v2.7l-7.2,3l7.2,3v2.6l-10.5-4.5v-2.3L569.9,1060.4z"/>
		<path class="st2" d="M582.6,1060.4v2.7l-7.2,3l7.2,3v2.6l-10.5-4.5v-2.3L582.6,1060.4z"/>
		<path class="st2" d="M595.2,1060.4v2.7l-7.2,3l7.2,3v2.6l-10.5-4.5v-2.3L595.2,1060.4z"/>
		<path class="st2" d="M607.9,1060.4v2.7l-7.2,3l7.2,3v2.6l-10.5-4.5v-2.3L607.9,1060.4z"/>
		<path class="st2" d="M620.5,1060.4v2.7l-7.2,3l7.2,3v2.6l-10.5-4.5v-2.3L620.5,1060.4z"/>
		<path class="st2" d="M633.2,1060.4v2.7l-7.2,3l7.2,3v2.6l-10.5-4.5v-2.3L633.2,1060.4z"/>
		<path class="st2" d="M645.9,1060.4v2.7l-7.2,3l7.2,3v2.6l-10.5-4.5v-2.3L645.9,1060.4z"/>
		<path class="st2" d="M658.5,1060.4v2.7l-7.2,3l7.2,3v2.6l-10.5-4.5v-2.3L658.5,1060.4z"/>
		<path class="st2" d="M671.2,1060.4v2.7l-7.2,3l7.2,3v2.6l-10.5-4.5v-2.3L671.2,1060.4z"/>
		<path class="st2" d="M683.8,1060.4v2.7l-7.2,3l7.2,3v2.6l-10.5-4.5v-2.3L683.8,1060.4z"/>
		<path class="st2" d="M696.5,1060.4v2.7l-7.2,3l7.2,3v2.6l-10.5-4.5v-2.3L696.5,1060.4z"/>
		<path class="st2" d="M709.2,1060.4v2.7l-7.2,3l7.2,3v2.6l-10.5-4.5v-2.3L709.2,1060.4z"/>
		<path class="st2" d="M721.8,1060.4v2.7l-7.2,3l7.2,3v2.6l-10.5-4.5v-2.3L721.8,1060.4z"/>
		<path class="st2" d="M734.5,1060.4v2.7l-7.2,3l7.2,3v2.6l-10.5-4.5v-2.3L734.5,1060.4z"/>
		<path class="st2" d="M747.1,1060.4v2.7l-7.2,3l7.2,3v2.6l-10.5-4.5v-2.3L747.1,1060.4z"/>
		<path class="st2" d="M759.8,1060.4v2.7l-7.2,3l7.2,3v2.6l-10.5-4.5v-2.3L759.8,1060.4z"/>
		<path class="st2" d="M772.5,1060.4v2.7l-7.2,3l7.2,3v2.6l-10.5-4.5v-2.3L772.5,1060.4z"/>
		<path class="st2" d="M785.1,1060.4v2.7l-7.2,3l7.2,3v2.6l-10.5-4.5v-2.3L785.1,1060.4z"/>
		<path class="st2" d="M797.8,1060.4v2.7l-7.2,3l7.2,3v2.6l-10.5-4.5v-2.3L797.8,1060.4z"/>
		<path class="st2" d="M810.4,1060.4v2.7l-7.2,3l7.2,3v2.6l-10.5-4.5v-2.3L810.4,1060.4z"/>
		<path class="st2" d="M823.1,1060.4v2.7l-7.2,3l7.2,3v2.6l-10.5-4.5v-2.3L823.1,1060.4z"/>
		<path class="st2" d="M835.7,1060.4v2.7l-7.2,3l7.2,3v2.6l-10.5-4.5v-2.3L835.7,1060.4z"/>
		<path class="st2" d="M848.4,1060.4v2.7l-7.2,3l7.2,3v2.6l-10.5-4.5v-2.3L848.4,1060.4z"/>
		<path class="st2" d="M861.1,1060.4v2.7l-7.2,3l7.2,3v2.6l-10.5-4.5v-2.3L861.1,1060.4z"/>
		<path class="st2" d="M873.7,1060.4v2.7l-7.2,3l7.2,3v2.6l-10.5-4.5v-2.3L873.7,1060.4z"/>
		<path class="st2" d="M886.4,1060.4v2.7l-7.2,3l7.2,3v2.6l-10.5-4.5v-2.3L886.4,1060.4z"/>
		<path class="st2" d="M899,1060.4v2.7l-7.2,3l7.2,3v2.6l-10.5-4.5v-2.3L899,1060.4z"/>
		<path class="st2" d="M911.7,1060.4v2.7l-7.2,3l7.2,3v2.6l-10.5-4.5v-2.3L911.7,1060.4z"/>
		<path class="st2" d="M924.4,1060.4v2.7l-7.2,3l7.2,3v2.6l-10.5-4.5v-2.3L924.4,1060.4z"/>
		<path class="st2" d="M937,1060.4v2.7l-7.2,3l7.2,3v2.6l-10.5-4.5v-2.3L937,1060.4z"/>
		<path class="st2" d="M949.7,1060.4v2.7l-7.2,3l7.2,3v2.6l-10.5-4.5v-2.3L949.7,1060.4z"/>
		<path class="st2" d="M962.3,1060.4v2.7l-7.2,3l7.2,3v2.6l-10.5-4.5v-2.3L962.3,1060.4z"/>
		<path class="st2" d="M975,1060.4v2.7l-7.2,3l7.2,3v2.6l-10.5-4.5v-2.3L975,1060.4z"/>
		<path class="st2" d="M987.2,1071.6c0,1.4-0.5,2.6-1.5,3.5c-1,1-2.2,1.5-3.5,1.5c-1.4,0-2.6-0.5-3.6-1.5s-1.5-2.2-1.5-3.5v-11.5
			c0-1.4,0.5-2.6,1.5-3.6s2.2-1.5,3.5-1.5c1.4,0,2.6,0.5,3.5,1.5c1,1,1.5,2.2,1.5,3.5L987.2,1071.6L987.2,1071.6z M983.9,1060.1
			c0-0.5-0.2-0.9-0.5-1.3s-0.8-0.5-1.3-0.5s-0.9,0.2-1.3,0.5s-0.5,0.8-0.5,1.3v11.5c0,0.5,0.2,0.9,0.5,1.3s0.8,0.5,1.3,0.5
			s0.9-0.2,1.3-0.5s0.5-0.8,0.5-1.3V1060.1z"/>
		<path class="st2" d="M999.9,1071.6c0,1.4-0.5,2.6-1.5,3.5c-1,1-2.2,1.5-3.5,1.5c-1.4,0-2.6-0.5-3.6-1.5s-1.5-2.2-1.5-3.5v-11.5
			c0-1.4,0.5-2.6,1.5-3.6s2.2-1.5,3.5-1.5c1.4,0,2.6,0.5,3.5,1.5c1,1,1.5,2.2,1.5,3.5L999.9,1071.6L999.9,1071.6z M996.6,1060.1
			c0-0.5-0.2-0.9-0.5-1.3s-0.8-0.5-1.3-0.5s-0.9,0.2-1.3,0.5s-0.5,0.8-0.5,1.3v11.5c0,0.5,0.2,0.9,0.5,1.3s0.8,0.5,1.3,0.5
			s0.9-0.2,1.3-0.5s0.5-0.8,0.5-1.3V1060.1z"/>
	</g>
	<g>
		<g class="st3">
			<path class="st2" d="M309.6,729.4l1-1.2c0.6,0.6,1.5,1,2.3,1c0.9,0,1.4-0.4,1.4-1c0-0.7-0.5-0.9-1.3-1.2l-1.2-0.5
				c-0.9-0.4-1.8-1.1-1.8-2.4c0-1.5,1.3-2.6,3.1-2.6c1,0,2.1,0.4,2.8,1.1l-0.9,1.1c-0.6-0.5-1.2-0.7-1.9-0.7c-0.8,0-1.3,0.3-1.3,0.9
				c0,0.6,0.6,0.9,1.4,1.2l1.2,0.5c1.1,0.4,1.8,1.1,1.8,2.4c0,1.5-1.2,2.7-3.3,2.7C311.7,730.7,310.5,730.3,309.6,729.4z"/>
			<path class="st2" d="M317.6,726.6v-4.9h1.8v5c0,1.8,0.6,2.5,1.7,2.5c1.1,0,1.7-0.6,1.7-2.5v-5h1.7v4.9c0,3-1.3,4.2-3.4,4.2
				C318.9,730.7,317.6,729.5,317.6,726.6z"/>
			<path class="st2" d="M331.5,730.6l-1.8-3.4h-1.2v3.4h-1.8v-8.9h3.1c1.9,0,3.3,0.6,3.3,2.7c0,1.3-0.7,2.2-1.7,2.6l2.1,3.6H331.5z
				 M328.4,725.8h1.2c1.1,0,1.8-0.5,1.8-1.4c0-1-0.6-1.3-1.8-1.3h-1.2V725.8z"/>
			<path class="st2" d="M334.8,721.7h1.8l2.6,4.7l0.9,1.9h0.1c-0.1-0.9-0.2-2.1-0.2-3.1v-3.5h1.7v8.9h-1.8l-2.6-4.7l-0.9-1.9h-0.1
				c0.1,1,0.2,2.1,0.2,3.1v3.6h-1.7V721.7z"/>
			<path class="st2" d="M348,728.3h-2.9l-0.6,2.3h-1.8l2.8-8.9h2.1l2.9,8.9h-1.9L348,728.3z M347.6,726.9l-0.3-1
				c-0.3-0.9-0.5-1.9-0.8-2.9h0c-0.2,1-0.5,2-0.8,2.9l-0.3,1H347.6z"/>
			<path class="st2" d="M351.5,721.7h2l1.5,4.1c0.2,0.6,0.4,1.1,0.5,1.7h0.1c0.2-0.6,0.3-1.2,0.5-1.7l1.5-4.1h2v8.9H358v-3.7
				c0-0.8,0.1-2.1,0.2-2.9h0l-0.7,2.1l-1.4,3.7h-1l-1.4-3.7l-0.7-2.1h0c0.1,0.8,0.2,2.1,0.2,2.9v3.7h-1.6V721.7z"/>
			<path class="st2" d="M361.8,721.7h5.4v1.5h-3.7v2.1h3.1v1.5h-3.1v2.4h3.8v1.5h-5.6V721.7z"/>
		</g>
		<g class="st3">
			<path d="M310.7,737.2h2.7v5.2h5v-5.2h2.6v13.3h-2.6v-5.8h-5v5.8h-2.7V737.2z"/>
			<path d="M323.7,743.8c0-4.3,2.4-6.9,6-6.9c3.5,0,6,2.5,6,6.9s-2.4,7-6,7C326.1,750.8,323.7,748.2,323.7,743.8z M332.9,743.8
				c0-2.9-1.3-4.6-3.2-4.6s-3.2,1.7-3.2,4.6c0,2.8,1.3,4.7,3.2,4.7S332.9,746.7,332.9,743.8z"/>
			<path d="M338.2,737.2h2.7l3.9,7.1l1.3,2.9h0.1c-0.1-1.4-0.3-3.2-0.3-4.7v-5.3h2.5v13.3h-2.7l-3.9-7.1l-1.4-2.9h-0.1
				c0.1,1.4,0.3,3.1,0.3,4.6v5.3h-2.5V737.2z"/>
			<path d="M351,744c0-4.4,2.8-7,6.4-7c1.9,0,3.3,0.8,4.1,1.7l-1.4,1.7c-0.6-0.6-1.4-1.1-2.6-1.1c-2.2,0-3.8,1.7-3.8,4.6
				c0,2.9,1.3,4.6,3.9,4.6c0.6,0,1.3-0.2,1.7-0.5v-2.6H357v-2.2h4.7v6c-0.9,0.9-2.5,1.6-4.3,1.6C353.8,750.8,351,748.4,351,744z"/>
		</g>
	</g>
	<g>
		<g class="st3">
			<path class="st2" d="M309.7,769.2c0-2.9,1.9-4.6,4.3-4.6c1.3,0,2.2,0.6,2.7,1.1l-0.9,1.1c-0.4-0.4-0.9-0.7-1.7-0.7
				c-1.5,0-2.5,1.2-2.5,3.1c0,1.9,0.9,3.1,2.6,3.1c0.4,0,0.9-0.1,1.1-0.3v-1.8h-1.6v-1.5h3.2v4c-0.6,0.6-1.6,1.1-2.9,1.1
				C311.6,773.7,309.7,772.1,309.7,769.2z"/>
			<path class="st2" d="M318.8,764.7h1.8v8.9h-1.8V764.7z"/>
			<path class="st2" d="M321.6,764.7h1.9l1.2,4.3c0.3,1,0.5,1.9,0.7,2.9h0.1c0.3-1,0.5-1.9,0.8-2.9l1.2-4.3h1.8l-2.7,8.9h-2.1
				L321.6,764.7z"/>
			<path class="st2" d="M330.2,764.7h5.4v1.5h-3.7v2.1h3.1v1.5h-3.1v2.4h3.8v1.5h-5.6V764.7z"/>
			<path class="st2" d="M337.5,764.7h1.8l2.6,4.7l0.9,1.9h0.1c-0.1-0.9-0.2-2.1-0.2-3.1v-3.5h1.7v8.9h-1.8l-2.6-4.7l-0.9-1.9H339
				c0.1,1,0.2,2.1,0.2,3.1v3.6h-1.7V764.7z"/>
			<path class="st2" d="M349.3,764.7h1.8l2.6,4.7l0.9,1.9h0.1c-0.1-0.9-0.2-2.1-0.2-3.1v-3.5h1.7v8.9h-1.8l-2.6-4.7l-0.9-1.9h-0.1
				c0.1,1,0.2,2.1,0.2,3.1v3.6h-1.7V764.7z"/>
			<path class="st2" d="M362.4,771.3h-2.9l-0.6,2.3h-1.8l2.8-8.9h2.1l2.9,8.9H363L362.4,771.3z M362,769.9l-0.3-1
				c-0.3-0.9-0.5-1.9-0.8-2.9h0c-0.2,1-0.5,2-0.8,2.9l-0.3,1H362z"/>
			<path class="st2" d="M365.9,764.7h2l1.5,4.1c0.2,0.6,0.4,1.1,0.5,1.7h0.1c0.2-0.6,0.3-1.2,0.5-1.7l1.5-4.1h2v8.9h-1.6v-3.7
				c0-0.8,0.1-2.1,0.2-2.9h0l-0.7,2.1l-1.4,3.7h-1l-1.4-3.7l-0.7-2.1h0c0.1,0.8,0.2,2.1,0.2,2.9v3.7h-1.6V764.7z"/>
			<path class="st2" d="M376.2,764.7h5.4v1.5H378v2.1h3.1v1.5H378v2.4h3.8v1.5h-5.6V764.7z"/>
		</g>
		<g class="st3">
			<path d="M310.1,787c0-4.4,2.8-7,6.4-7c1.9,0,3.3,0.8,4.1,1.7l-1.4,1.7c-0.6-0.6-1.4-1.1-2.6-1.1c-2.2,0-3.8,1.7-3.8,4.6
				c0,2.9,1.3,4.6,3.9,4.6c0.6,0,1.3-0.2,1.7-0.5v-2.6H316v-2.2h4.7v6c-0.9,0.9-2.5,1.6-4.3,1.6C312.8,793.8,310.1,791.4,310.1,787z
				"/>
			<path d="M323.6,780.2h2.7v13.3h-2.7V780.2z"/>
			<path d="M329.6,780.2h2.7v11.1h5.4v2.2h-8.1V780.2z"/>
			<path d="M340,780.2h3.7c4.1,0,6.6,2.1,6.6,6.6c0,4.5-2.5,6.7-6.4,6.7H340V780.2z M343.5,791.4c2.5,0,4-1.3,4-4.6
				c0-3.3-1.5-4.5-4-4.5h-0.8v9.1H343.5z"/>
			<path d="M352.2,786.8c0-4.3,2.4-6.9,6-6.9c3.5,0,6,2.5,6,6.9s-2.4,7-6,7C354.6,793.8,352.2,791.2,352.2,786.8z M361.4,786.8
				c0-2.9-1.3-4.6-3.2-4.6s-3.2,1.7-3.2,4.6c0,2.8,1.3,4.7,3.2,4.7S361.4,789.7,361.4,786.8z"/>
			<path d="M366.7,780.2h2.7l3.9,7.1l1.3,2.9h0.1c-0.1-1.4-0.3-3.2-0.3-4.7v-5.3h2.5v13.3h-2.7l-3.9-7.1l-1.4-2.9h-0.1
				c0.1,1.4,0.3,3.1,0.3,4.6v5.3h-2.5V780.2z"/>
			<path d="M379.5,787c0-4.4,2.8-7,6.4-7c1.9,0,3.3,0.8,4.1,1.7l-1.4,1.7c-0.6-0.6-1.4-1.1-2.6-1.1c-2.2,0-3.8,1.7-3.8,4.6
				c0,2.9,1.3,4.6,3.9,4.6c0.6,0,1.3-0.2,1.7-0.5v-2.6h-2.4v-2.2h4.7v6c-0.9,0.9-2.5,1.6-4.3,1.6C382.2,793.8,379.5,791.4,379.5,787
				z"/>
		</g>
	</g>
	<g>
		<g class="st3">
			<path class="st2" d="M310.2,807.7h1.8l2.6,4.7l0.9,1.9h0.1c-0.1-0.9-0.2-2.1-0.2-3.1v-3.5h1.7v8.9h-1.8l-2.6-4.7l-0.9-1.9h-0.1
				c0.1,1,0.2,2.1,0.2,3.1v3.6h-1.7V807.7z"/>
			<path class="st2" d="M323.3,814.3h-2.9l-0.6,2.3H318l2.8-8.9h2.1l2.9,8.9H324L323.3,814.3z M323,812.9l-0.3-1
				c-0.3-0.9-0.5-1.9-0.8-2.9h0c-0.2,1-0.5,2-0.8,2.9l-0.3,1H323z"/>
			<path class="st2" d="M327.7,809.2h-2.5v-1.5h6.8v1.5h-2.5v7.4h-1.8V809.2z"/>
			<path class="st2" d="M333.4,807.7h1.8v8.9h-1.8V807.7z"/>
			<path class="st2" d="M337,812.1c0-2.9,1.6-4.6,4-4.6c2.4,0,4,1.7,4,4.6c0,2.9-1.6,4.6-4,4.6C338.6,816.7,337,815,337,812.1z
				 M343.1,812.1c0-1.9-0.8-3-2.2-3c-1.3,0-2.2,1.1-2.2,3c0,1.9,0.8,3.1,2.2,3.1C342.3,815.2,343.1,814,343.1,812.1z"/>
			<path class="st2" d="M346.6,807.7h1.8l2.6,4.7l0.9,1.9h0.1c-0.1-0.9-0.2-2.1-0.2-3.1v-3.5h1.7v8.9h-1.8l-2.6-4.7l-0.9-1.9h-0.1
				c0.1,1,0.2,2.1,0.2,3.1v3.6h-1.7V807.7z"/>
			<path class="st2" d="M359.8,814.3h-2.9l-0.6,2.3h-1.8l2.8-8.9h2.1l2.9,8.9h-1.9L359.8,814.3z M359.4,812.9l-0.3-1
				c-0.3-0.9-0.5-1.9-0.8-2.9h0c-0.2,1-0.5,2-0.8,2.9l-0.3,1H359.4z"/>
			<path class="st2" d="M363.3,807.7h1.8v7.4h3.6v1.5h-5.4V807.7z"/>
			<path class="st2" d="M370.2,807.7h1.8v8.9h-1.8V807.7z"/>
			<path class="st2" d="M376,809.2h-2.5v-1.5h6.8v1.5h-2.5v7.4H376V809.2z"/>
			<path class="st2" d="M383,813.3l-2.7-5.6h1.9l0.9,2.2c0.3,0.7,0.5,1.3,0.8,2h0c0.3-0.7,0.5-1.3,0.8-2l0.9-2.2h1.8l-2.7,5.6v3.2
				H383V813.3z"/>
		</g>
		<g class="st3">
			<path d="M310.7,823.2h2.7v5.8h0.1l4.4-5.8h2.9l-4.1,5.2l4.8,8.1h-2.9l-3.4-6l-1.7,2.2v3.7h-2.7V823.2z"/>
			<path d="M321.9,829.8c0-4.3,2.4-6.9,6-6.9c3.5,0,6,2.5,6,6.9s-2.4,7-6,7C324.3,836.8,321.9,834.2,321.9,829.8z M331.1,829.8
				c0-2.9-1.3-4.6-3.2-4.6s-3.2,1.7-3.2,4.6c0,2.8,1.3,4.7,3.2,4.7S331.1,832.7,331.1,829.8z"/>
			<path d="M343.7,836.6l-2.7-5h-1.9v5h-2.7v-13.3h4.6c2.8,0,5,1,5,4c0,2-1,3.2-2.5,3.8l3.1,5.5H343.7z M339.1,829.4h1.7
				c1.7,0,2.6-0.7,2.6-2.1c0-1.4-0.9-1.9-2.6-1.9h-1.7V829.4z"/>
			<path d="M348.7,823.2h8.2v2.2h-5.5v3.1h4.7v2.2h-4.7v3.6h5.7v2.2h-8.4V823.2z"/>
			<path d="M366,833.1h-4.3l-0.9,3.4h-2.7l4.3-13.3h3.1l4.3,13.3H367L366,833.1z M365.4,831.1l-0.4-1.5c-0.4-1.4-0.8-2.9-1.2-4.4
				h-0.1c-0.3,1.5-0.7,3-1.1,4.4l-0.4,1.5H365.4z"/>
			<path d="M370.6,839c1.4-0.5,2.2-1.4,2.2-2.5c-0.1,0-0.1,0-0.2,0c-0.9,0-1.7-0.6-1.7-1.6c0-1,0.8-1.6,1.7-1.6c1.2,0,1.9,1,1.9,2.6
				c0,2.1-1.2,3.7-3.4,4.4L370.6,839z"/>
			<path d="M388.5,836.6l-2.7-5h-1.9v5h-2.7v-13.3h4.6c2.8,0,5,1,5,4c0,2-1,3.2-2.5,3.8l3.1,5.5H388.5z M383.9,829.4h1.7
				c1.7,0,2.6-0.7,2.6-2.1c0-1.4-0.9-1.9-2.6-1.9h-1.7V829.4z"/>
			<path d="M393.5,823.2h8.2v2.2h-5.5v3.1h4.7v2.2h-4.7v3.6h5.7v2.2h-8.4V823.2z"/>
			<path d="M404.6,823.2h4.4c3,0,5.2,1,5.2,4.2c0,3-2.3,4.4-5.1,4.4h-1.8v4.7h-2.7V823.2z M408.9,829.7c1.8,0,2.7-0.8,2.7-2.3
				c0-1.5-1-2.1-2.8-2.1h-1.5v4.4H408.9z"/>
			<path d="M416.5,830.6v-7.3h2.7v7.6c0,2.8,1,3.7,2.5,3.7c1.6,0,2.6-0.9,2.6-3.7v-7.6h2.6v7.3c0,4.4-1.9,6.2-5.1,6.2
				C418.5,836.8,416.5,835,416.5,830.6z"/>
			<path d="M430.1,823.2h4.4c2.7,0,4.8,0.8,4.8,3.3c0,1.2-0.7,2.5-1.8,2.9v0.1c1.4,0.3,2.5,1.4,2.5,3.2c0,2.7-2.2,3.9-5.2,3.9h-4.8
				V823.2z M434.3,828.7c1.7,0,2.4-0.7,2.4-1.7c0-1.2-0.8-1.6-2.4-1.6h-1.6v3.4H434.3z M434.6,834.5c1.8,0,2.8-0.6,2.8-2
				c0-1.3-1-1.8-2.8-1.8h-1.9v3.9H434.6z"/>
			<path d="M442.3,823.2h2.7v11.1h5.4v2.2h-8.1V823.2z"/>
			<path d="M452.7,823.2h2.7v13.3h-2.7V823.2z"/>
			<path d="M458,830c0-4.4,2.8-7,6.2-7c1.7,0,3,0.8,3.9,1.7l-1.4,1.7c-0.7-0.6-1.4-1.1-2.4-1.1c-2,0-3.5,1.7-3.5,4.6
				c0,2.9,1.4,4.6,3.5,4.6c1.1,0,2-0.5,2.8-1.3l1.4,1.7c-1.1,1.3-2.5,2-4.2,2C460.7,836.8,458,834.4,458,830z"/>
			<path d="M473.9,829.8c0-4.3,2.4-6.9,6-6.9c3.5,0,6,2.5,6,6.9s-2.4,7-6,7C476.3,836.8,473.9,834.2,473.9,829.8z M483.1,829.8
				c0-2.9-1.3-4.6-3.2-4.6s-3.2,1.7-3.2,4.6c0,2.8,1.3,4.7,3.2,4.7S483.1,832.7,483.1,829.8z"/>
			<path d="M488.4,823.2h8.2v2.2h-5.5v3.5h4.7v2.2h-4.7v5.4h-2.7V823.2z"/>
		</g>
	</g>
	<g>
		<g class="st3">
			<path class="st2" d="M310.2,850.7h2.4c2.7,0,4.4,1.4,4.4,4.4c0,3-1.7,4.5-4.3,4.5h-2.5V850.7z M312.5,858.1c1.7,0,2.7-0.9,2.7-3
				c0-2.2-1-3-2.7-3H312v6H312.5z"/>
			<path class="st2" d="M322.8,857.3h-2.9l-0.6,2.3h-1.8l2.8-8.9h2.1l2.9,8.9h-1.9L322.8,857.3z M322.4,855.9l-0.3-1
				c-0.3-0.9-0.5-1.9-0.8-2.9h0c-0.2,1-0.5,2-0.8,2.9l-0.3,1H322.4z"/>
			<path class="st2" d="M327.1,852.2h-2.5v-1.5h6.8v1.5h-2.5v7.4h-1.8V852.2z"/>
			<path class="st2" d="M332.9,850.7h5.4v1.5h-3.7v2.1h3.1v1.5h-3.1v2.4h3.8v1.5h-5.6V850.7z"/>
			<path class="st2" d="M342.5,855.1c0-2.9,1.6-4.6,4-4.6c2.4,0,4,1.7,4,4.6c0,2.9-1.6,4.6-4,4.6C344.2,859.7,342.5,858,342.5,855.1
				z M348.7,855.1c0-1.9-0.8-3-2.2-3c-1.3,0-2.2,1.1-2.2,3c0,1.9,0.8,3.1,2.2,3.1C347.8,858.2,348.7,857,348.7,855.1z"/>
			<path class="st2" d="M352.2,850.7h5.5v1.5H354v2.3h3.2v1.5H354v3.6h-1.8V850.7z"/>
			<path class="st2" d="M362,850.7h2.9c1.8,0,3.2,0.5,3.2,2.2c0,0.8-0.5,1.7-1.2,1.9v0.1c1,0.2,1.7,0.9,1.7,2.1
				c0,1.8-1.5,2.6-3.4,2.6H362V850.7z M364.8,854.3c1.1,0,1.6-0.5,1.6-1.2c0-0.8-0.5-1.1-1.6-1.1h-1.1v2.3H364.8z M365,858.2
				c1.2,0,1.9-0.4,1.9-1.4c0-0.9-0.6-1.2-1.9-1.2h-1.2v2.6H365z"/>
			<path class="st2" d="M370.1,850.7h1.8v8.9h-1.8V850.7z"/>
			<path class="st2" d="M378.9,859.6l-1.8-3.4h-1.2v3.4h-1.8v-8.9h3.1c1.9,0,3.3,0.6,3.3,2.7c0,1.3-0.7,2.2-1.7,2.6l2.1,3.6H378.9z
				 M375.9,854.8h1.2c1.1,0,1.8-0.5,1.8-1.4c0-1-0.6-1.3-1.8-1.3h-1.2V854.8z"/>
			<path class="st2" d="M383.8,852.2h-2.5v-1.5h6.8v1.5h-2.5v7.4h-1.8V852.2z"/>
			<path class="st2" d="M389.6,850.7h1.8v3.5h3.4v-3.5h1.8v8.9h-1.8v-3.8h-3.4v3.8h-1.8V850.7z"/>
		</g>
		<g class="st3">
			<path d="M310.7,866.2h3.7c4.1,0,6.6,2.1,6.6,6.6c0,4.5-2.5,6.7-6.4,6.7h-3.8V866.2z M314.2,877.4c2.5,0,4-1.3,4-4.6
				c0-3.3-1.5-4.5-4-4.5h-0.8v9.1H314.2z"/>
			<path d="M323.6,866.2h3.7c4.1,0,6.6,2.1,6.6,6.6c0,4.5-2.5,6.7-6.4,6.7h-3.8V866.2z M327.1,877.4c2.5,0,4-1.3,4-4.6
				c0-3.3-1.5-4.5-4-4.5h-0.8v9.1H327.1z"/>
			<path d="M340.5,866.2h3l2.3,6.2c0.3,0.8,0.5,1.7,0.8,2.6h0.1c0.3-0.9,0.5-1.7,0.8-2.6l2.2-6.2h3v13.3h-2.4V874
				c0-1.3,0.2-3.1,0.3-4.4h-0.1l-1.1,3.1l-2.1,5.6h-1.5l-2.1-5.6l-1.1-3.1h-0.1c0.1,1.3,0.3,3.1,0.3,4.4v5.6h-2.4V866.2z"/>
			<path d="M355.9,866.2h3l2.3,6.2c0.3,0.8,0.5,1.7,0.8,2.6h0.1c0.3-0.9,0.5-1.7,0.8-2.6l2.2-6.2h3v13.3h-2.4V874
				c0-1.3,0.2-3.1,0.3-4.4h-0.1l-1.1,3.1l-2.1,5.6h-1.5l-2.1-5.6l-1.1-3.1h-0.1c0.1,1.3,0.3,3.1,0.3,4.4v5.6h-2.4V866.2z"/>
			<path d="M377.6,874.7l-4-8.4h2.8l1.3,3.2c0.4,1,0.7,1.9,1.2,3h0.1c0.4-1,0.8-2,1.2-3l1.3-3.2h2.8l-4,8.4v4.9h-2.7V874.7z"/>
			<path d="M388.1,874.7l-4-8.4h2.8l1.3,3.2c0.4,1,0.7,1.9,1.2,3h0.1c0.4-1,0.8-2,1.2-3l1.3-3.2h2.8l-4,8.4v4.9h-2.7V874.7z"/>
			<path d="M398.5,874.7l-4-8.4h2.8l1.3,3.2c0.4,1,0.7,1.9,1.2,3h0.1c0.4-1,0.8-2,1.2-3l1.3-3.2h2.8l-4,8.4v4.9h-2.7V874.7z"/>
			<path d="M409,874.7l-4-8.4h2.8l1.3,3.2c0.4,1,0.7,1.9,1.2,3h0.1c0.4-1,0.8-2,1.2-3l1.3-3.2h2.8l-4,8.4v4.9H409V874.7z"/>
		</g>
	</g>
	<g>
		<g class="st3">
			<path class="st2" d="M309.6,901.4l1-1.2c0.6,0.6,1.5,1,2.3,1c0.9,0,1.4-0.4,1.4-1c0-0.7-0.5-0.9-1.3-1.2l-1.2-0.5
				c-0.9-0.4-1.8-1.1-1.8-2.4c0-1.5,1.3-2.6,3.1-2.6c1,0,2.1,0.4,2.8,1.1l-0.9,1.1c-0.6-0.5-1.2-0.7-1.9-0.7c-0.8,0-1.3,0.3-1.3,0.9
				c0,0.6,0.6,0.9,1.4,1.2l1.2,0.5c1.1,0.4,1.8,1.1,1.8,2.4c0,1.5-1.2,2.7-3.3,2.7C311.7,902.7,310.5,902.3,309.6,901.4z"/>
			<path class="st2" d="M317.7,893.7h5.4v1.5h-3.7v2.1h3.1v1.5h-3.1v2.4h3.8v1.5h-5.6V893.7z"/>
			<path class="st2" d="M326.6,898l-2.3-4.3h2l0.9,1.8c0.2,0.4,0.4,0.9,0.7,1.4h0.1c0.2-0.6,0.4-1,0.6-1.4l0.8-1.8h1.9l-2.3,4.4
				l2.5,4.5h-2l-1-2c-0.2-0.5-0.4-0.9-0.7-1.5h0c-0.2,0.5-0.4,1-0.6,1.5l-0.9,2h-1.9L326.6,898z"/>
		</g>
		<g class="st3">
			<path d="M310.7,909.2h3l2.3,6.2c0.3,0.8,0.5,1.7,0.8,2.6h0.1c0.3-0.9,0.5-1.7,0.8-2.6l2.2-6.2h3v13.3h-2.4V917
				c0-1.3,0.2-3.1,0.3-4.4h-0.1l-1.1,3.1l-2.1,5.6H316l-2.1-5.6l-1.1-3.1h-0.1c0.1,1.3,0.3,3.1,0.3,4.4v5.6h-2.4V909.2z"/>
		</g>
	</g>
	<g class="st3">
		<path class="st2" d="M936.2,900.3h-2.9l-0.6,2.3h-1.8l2.8-8.9h2.1l2.9,8.9h-1.9L936.2,900.3z M935.8,898.9l-0.3-1
			c-0.3-0.9-0.5-1.9-0.8-2.9h0c-0.2,1-0.5,2-0.8,2.9l-0.3,1H935.8z"/>
		<path class="st2" d="M939.5,898.6v-4.9h1.8v5c0,1.8,0.6,2.5,1.7,2.5c1.1,0,1.7-0.6,1.7-2.5v-5h1.7v4.9c0,3-1.3,4.2-3.4,4.2
			C940.8,902.7,939.5,901.5,939.5,898.6z"/>
		<path class="st2" d="M950.3,895.2h-2.5v-1.5h6.8v1.5h-2.5v7.4h-1.8V895.2z"/>
		<path class="st2" d="M956,893.7h1.8v3.5h3.4v-3.5h1.8v8.9h-1.8v-3.8h-3.4v3.8H956V893.7z"/>
		<path class="st2" d="M964.7,898.1c0-2.9,1.6-4.6,4-4.6s4,1.7,4,4.6c0,2.9-1.6,4.6-4,4.6S964.7,901,964.7,898.1z M970.8,898.1
			c0-1.9-0.8-3-2.2-3s-2.2,1.1-2.2,3c0,1.9,0.8,3.1,2.2,3.1S970.8,900,970.8,898.1z"/>
		<path class="st2" d="M979.2,902.6l-1.8-3.4h-1.2v3.4h-1.8v-8.9h3.1c1.9,0,3.3,0.6,3.3,2.7c0,1.3-0.7,2.2-1.7,2.6l2.1,3.6H979.2z
			 M976.1,897.8h1.2c1.1,0,1.8-0.5,1.8-1.4c0-1-0.6-1.3-1.8-1.3h-1.2V897.8z"/>
		<path class="st2" d="M982.5,893.7h1.8v8.9h-1.8V893.7z"/>
		<path class="st2" d="M988.3,895.2h-2.5v-1.5h6.8v1.5H990v7.4h-1.8V895.2z"/>
		<path class="st2" d="M995.3,899.3l-2.7-5.6h1.9l0.9,2.2c0.3,0.7,0.5,1.3,0.8,2h0c0.3-0.7,0.5-1.3,0.8-2l0.9-2.2h1.8l-2.7,5.6v3.2
			h-1.8V899.3z"/>
	</g>
	<g>
		<g class="st3">
			<path class="st2" d="M640.9,893.7h2.9c2,0,3.5,0.7,3.5,2.8c0,2-1.5,2.9-3.4,2.9h-1.2v3.2h-1.8V893.7z M643.8,898
				c1.2,0,1.8-0.5,1.8-1.5c0-1-0.6-1.4-1.9-1.4h-1v2.9H643.8z"/>
			<path class="st2" d="M648.9,893.7h1.8v7.4h3.6v1.5h-5.4V893.7z"/>
			<path class="st2" d="M660,900.3h-2.9l-0.6,2.3h-1.8l2.8-8.9h2.1l2.9,8.9h-1.9L660,900.3z M659.6,898.9l-0.3-1
				c-0.3-0.9-0.5-1.9-0.8-2.9h0c-0.2,1-0.5,2-0.8,2.9l-0.3,1H659.6z"/>
			<path class="st2" d="M662.9,898.2c0-2.9,1.9-4.6,4.1-4.6c1.1,0,2,0.5,2.6,1.1l-0.9,1.1c-0.4-0.4-1-0.7-1.6-0.7
				c-1.3,0-2.4,1.2-2.4,3.1c0,1.9,0.9,3.1,2.3,3.1c0.8,0,1.4-0.4,1.8-0.9l0.9,1.1c-0.7,0.9-1.7,1.3-2.8,1.3
				C664.7,902.7,662.9,901.1,662.9,898.2z"/>
			<path class="st2" d="M671.2,893.7h5.4v1.5H673v2.1h3.1v1.5H673v2.4h3.8v1.5h-5.6V893.7z"/>
			<path class="st2" d="M680.9,898.1c0-2.9,1.6-4.6,4-4.6s4,1.7,4,4.6c0,2.9-1.6,4.6-4,4.6S680.9,901,680.9,898.1z M687,898.1
				c0-1.9-0.8-3-2.2-3s-2.2,1.1-2.2,3c0,1.9,0.8,3.1,2.2,3.1S687,900,687,898.1z"/>
			<path class="st2" d="M690.6,893.7h5.5v1.5h-3.7v2.3h3.2v1.5h-3.2v3.6h-1.8V893.7z"/>
			<path class="st2" d="M700.3,893.7h2.9c1.8,0,3.2,0.5,3.2,2.2c0,0.8-0.5,1.7-1.2,1.9v0.1c1,0.2,1.7,0.9,1.7,2.1
				c0,1.8-1.5,2.6-3.4,2.6h-3.2V893.7z M703.1,897.3c1.1,0,1.6-0.5,1.6-1.2c0-0.8-0.5-1.1-1.6-1.1h-1.1v2.3H703.1z M703.3,901.2
				c1.2,0,1.9-0.4,1.9-1.4c0-0.9-0.6-1.2-1.9-1.2h-1.2v2.6H703.3z"/>
			<path class="st2" d="M708.5,893.7h1.8v8.9h-1.8V893.7z"/>
			<path class="st2" d="M717.3,902.6l-1.8-3.4h-1.2v3.4h-1.8v-8.9h3.1c1.9,0,3.3,0.6,3.3,2.7c0,1.3-0.7,2.2-1.7,2.6l2.1,3.6H717.3z
				 M714.2,897.8h1.2c1.1,0,1.8-0.5,1.8-1.4c0-1-0.6-1.3-1.8-1.3h-1.2V897.8z"/>
			<path class="st2" d="M722.2,895.2h-2.5v-1.5h6.8v1.5H724v7.4h-1.8V895.2z"/>
			<path class="st2" d="M727.9,893.7h1.8v3.5h3.4v-3.5h1.8v8.9h-1.8v-3.8h-3.4v3.8h-1.8V893.7z"/>
		</g>
		<g class="st3">
			<path d="M595.4,909.2h2.7v5.8h0.1l4.4-5.8h2.9l-4.1,5.2l4.8,8.1h-2.9l-3.4-6l-1.7,2.2v3.7h-2.7V909.2z"/>
			<path d="M606.5,915.8c0-4.3,2.4-6.9,6-6.9c3.5,0,6,2.5,6,6.9s-2.4,7-6,7C609,922.8,606.5,920.2,606.5,915.8z M615.7,915.8
				c0-2.9-1.3-4.6-3.2-4.6s-3.2,1.7-3.2,4.6c0,2.8,1.3,4.7,3.2,4.7S615.7,918.7,615.7,915.8z"/>
			<path d="M628.3,922.6l-2.7-5h-1.9v5h-2.7v-13.3h4.6c2.8,0,5,1,5,4c0,2-1,3.2-2.5,3.8l3.1,5.5H628.3z M623.7,915.4h1.7
				c1.7,0,2.6-0.7,2.6-2.1c0-1.4-0.9-1.9-2.6-1.9h-1.7V915.4z"/>
			<path d="M633.3,909.2h8.2v2.2H636v3.1h4.7v2.2H636v3.6h5.7v2.2h-8.4V909.2z"/>
			<path d="M650.7,919.1h-4.3l-0.9,3.4h-2.7l4.3-13.3h3.1l4.3,13.3h-2.8L650.7,919.1z M650.1,917.1l-0.4-1.5
				c-0.4-1.4-0.8-2.9-1.2-4.4h-0.1c-0.3,1.5-0.7,3-1.1,4.4l-0.4,1.5H650.1z"/>
			<path d="M655.3,925c1.4-0.5,2.2-1.4,2.2-2.5c-0.1,0-0.1,0-0.2,0c-0.9,0-1.7-0.6-1.7-1.6c0-1,0.8-1.6,1.7-1.6c1.2,0,1.9,1,1.9,2.6
				c0,2.1-1.2,3.7-3.4,4.4L655.3,925z"/>
			<path d="M673.1,922.6l-2.7-5h-1.9v5h-2.7v-13.3h4.6c2.8,0,5,1,5,4c0,2-1,3.2-2.5,3.8l3.1,5.5H673.1z M668.5,915.4h1.7
				c1.7,0,2.6-0.7,2.6-2.1c0-1.4-0.9-1.9-2.6-1.9h-1.7V915.4z"/>
			<path d="M678.2,909.2h8.2v2.2h-5.5v3.1h4.7v2.2h-4.7v3.6h5.7v2.2h-8.4V909.2z"/>
			<path d="M689.2,909.2h4.4c3,0,5.2,1,5.2,4.2c0,3-2.3,4.4-5.1,4.4h-1.8v4.7h-2.7V909.2z M693.5,915.7c1.8,0,2.7-0.8,2.7-2.3
				c0-1.5-1-2.1-2.8-2.1h-1.5v4.4H693.5z"/>
			<path d="M701.2,916.6v-7.3h2.7v7.6c0,2.8,1,3.7,2.5,3.7c1.6,0,2.6-0.9,2.6-3.7v-7.6h2.6v7.3c0,4.4-1.9,6.2-5.1,6.2
				C703.1,922.8,701.2,921,701.2,916.6z"/>
			<path d="M714.7,909.2h4.4c2.7,0,4.8,0.8,4.8,3.3c0,1.2-0.7,2.5-1.8,2.9v0.1c1.4,0.3,2.5,1.4,2.5,3.2c0,2.7-2.2,3.9-5.2,3.9h-4.8
				V909.2z M718.9,914.7c1.7,0,2.4-0.7,2.4-1.7c0-1.2-0.8-1.6-2.4-1.6h-1.6v3.4H718.9z M719.2,920.5c1.8,0,2.8-0.6,2.8-2
				c0-1.3-1-1.8-2.8-1.8h-1.9v3.9H719.2z"/>
			<path d="M727,909.2h2.7v11.1h5.4v2.2H727V909.2z"/>
			<path d="M737.3,909.2h2.7v13.3h-2.7V909.2z"/>
			<path d="M742.6,916c0-4.4,2.8-7,6.2-7c1.7,0,3,0.8,3.9,1.7l-1.4,1.7c-0.7-0.6-1.4-1.1-2.4-1.1c-2,0-3.5,1.7-3.5,4.6
				c0,2.9,1.4,4.6,3.5,4.6c1.1,0,2-0.5,2.8-1.3l1.4,1.7c-1.1,1.3-2.5,2-4.2,2C745.3,922.8,742.6,920.4,742.6,916z"/>
			<path d="M758.5,915.8c0-4.3,2.4-6.9,6-6.9s6,2.5,6,6.9s-2.4,7-6,7S758.5,920.2,758.5,915.8z M767.7,915.8c0-2.9-1.3-4.6-3.2-4.6
				s-3.2,1.7-3.2,4.6c0,2.8,1.3,4.7,3.2,4.7S767.7,918.7,767.7,915.8z"/>
			<path d="M773,909.2h8.2v2.2h-5.5v3.5h4.7v2.2h-4.7v5.4H773V909.2z"/>
		</g>
	</g>
	<g>
		<g class="st3">
			<path class="st2" d="M932.1,964.4l1-1.2c0.6,0.6,1.5,1,2.3,1c0.9,0,1.4-0.4,1.4-1c0-0.7-0.5-0.9-1.3-1.2l-1.2-0.5
				c-0.9-0.4-1.8-1.1-1.8-2.4c0-1.5,1.3-2.6,3.1-2.6c1,0,2.1,0.4,2.8,1.1l-0.9,1.1c-0.6-0.5-1.2-0.7-1.9-0.7c-0.8,0-1.3,0.3-1.3,0.9
				c0,0.6,0.6,0.9,1.4,1.2l1.2,0.5c1.1,0.4,1.8,1.1,1.8,2.4c0,1.5-1.2,2.7-3.3,2.7C934.2,965.7,933,965.3,932.1,964.4z"/>
			<path class="st2" d="M940.2,956.7h1.8v8.9h-1.8V956.7z"/>
			<path class="st2" d="M943.7,961.2c0-2.9,1.9-4.6,4.3-4.6c1.3,0,2.2,0.6,2.7,1.1l-0.9,1.1c-0.4-0.4-0.9-0.7-1.7-0.7
				c-1.5,0-2.5,1.2-2.5,3.1c0,1.9,0.9,3.1,2.6,3.1c0.4,0,0.9-0.1,1.1-0.3v-1.8h-1.6v-1.5h3.2v4c-0.6,0.6-1.6,1.1-2.9,1.1
				C945.5,965.7,943.7,964.1,943.7,961.2z"/>
			<path class="st2" d="M952.8,956.7h1.8l2.6,4.7l0.9,1.9h0.1c-0.1-0.9-0.2-2.1-0.2-3.1v-3.5h1.7v8.9h-1.8l-2.6-4.7l-0.9-1.9h-0.1
				c0.1,1,0.2,2.1,0.2,3.1v3.6h-1.7V956.7z"/>
			<path class="st2" d="M965.9,963.3H963l-0.6,2.3h-1.8l2.8-8.9h2.1l2.9,8.9h-1.9L965.9,963.3z M965.5,961.9l-0.3-1
				c-0.3-0.9-0.5-1.9-0.8-2.9h0c-0.2,1-0.5,2-0.8,2.9l-0.3,1H965.5z"/>
			<path class="st2" d="M970.3,958.2h-2.5v-1.5h6.8v1.5H972v7.4h-1.8V958.2z"/>
			<path class="st2" d="M976,961.6v-4.9h1.8v5c0,1.8,0.6,2.5,1.7,2.5c1.1,0,1.7-0.6,1.7-2.5v-5h1.7v4.9c0,3-1.3,4.2-3.4,4.2
				C977.3,965.7,976,964.5,976,961.6z"/>
			<path class="st2" d="M989.8,965.6l-1.8-3.4h-1.2v3.4H985v-8.9h3.1c1.9,0,3.3,0.6,3.3,2.7c0,1.3-0.7,2.2-1.7,2.6l2.1,3.6H989.8z
				 M986.8,960.8h1.2c1.1,0,1.8-0.5,1.8-1.4c0-1-0.6-1.3-1.8-1.3h-1.2V960.8z"/>
			<path class="st2" d="M993.2,956.7h5.4v1.5h-3.7v2.1h3.1v1.5h-3.1v2.4h3.8v1.5h-5.6V956.7z"/>
		</g>
		<g class="st3">
			<path d="M860.6,979c0-4.4,2.8-7,6.4-7c1.9,0,3.3,0.8,4.1,1.7l-1.4,1.7c-0.6-0.6-1.4-1.1-2.6-1.1c-2.2,0-3.8,1.7-3.8,4.6
				c0,2.9,1.3,4.6,3.9,4.6c0.6,0,1.3-0.2,1.7-0.5v-2.6h-2.4v-2.2h4.7v6c-0.9,0.9-2.5,1.6-4.3,1.6C863.4,985.8,860.6,983.4,860.6,979
				z"/>
			<path d="M874.2,972.2h2.7v13.3h-2.7V972.2z"/>
			<path d="M880.1,972.2h2.7v11.1h5.4v2.2h-8.1V972.2z"/>
			<path d="M890.5,972.2h3.7c4.1,0,6.6,2.1,6.6,6.6c0,4.5-2.5,6.7-6.4,6.7h-3.8V972.2z M894,983.4c2.5,0,4-1.3,4-4.6
				c0-3.3-1.5-4.5-4-4.5h-0.8v9.1H894z"/>
			<path d="M902.7,978.8c0-4.3,2.4-6.9,6-6.9s6,2.5,6,6.9s-2.4,7-6,7S902.7,983.2,902.7,978.8z M911.9,978.8c0-2.9-1.3-4.6-3.2-4.6
				s-3.2,1.7-3.2,4.6c0,2.8,1.3,4.7,3.2,4.7S911.9,981.7,911.9,978.8z"/>
			<path d="M917.2,972.2h2.7l3.9,7.1l1.3,2.9h0.1c-0.1-1.4-0.3-3.2-0.3-4.7v-5.3h2.5v13.3h-2.7l-3.9-7.1l-1.3-2.9h-0.1
				c0.1,1.4,0.3,3.1,0.3,4.6v5.3h-2.5V972.2z"/>
			<path d="M930,979c0-4.4,2.8-7,6.4-7c1.9,0,3.3,0.8,4.1,1.7l-1.4,1.7c-0.6-0.6-1.4-1.1-2.6-1.1c-2.2,0-3.8,1.7-3.8,4.6
				c0,2.9,1.3,4.6,3.9,4.6c0.6,0,1.3-0.2,1.7-0.5v-2.6H936v-2.2h4.7v6c-0.9,0.9-2.5,1.6-4.3,1.6C932.8,985.8,930,983.4,930,979z"/>
			<path d="M947.7,972.2h2.7v5.2h5v-5.2h2.6v13.3h-2.6v-5.8h-5v5.8h-2.7V972.2z"/>
			<path d="M960.6,978.8c0-4.3,2.4-6.9,6-6.9s6,2.5,6,6.9s-2.4,7-6,7S960.6,983.2,960.6,978.8z M969.8,978.8c0-2.9-1.3-4.6-3.2-4.6
				s-3.2,1.7-3.2,4.6c0,2.8,1.3,4.7,3.2,4.7S969.8,981.7,969.8,978.8z"/>
			<path d="M975.2,972.2h2.7l3.9,7.1l1.3,2.9h0.1c-0.1-1.4-0.3-3.2-0.3-4.7v-5.3h2.5v13.3h-2.7l-3.9-7.1l-1.3-2.9h-0.1
				c0.1,1.4,0.3,3.1,0.3,4.6v5.3h-2.5V972.2z"/>
			<path d="M988,979c0-4.4,2.8-7,6.4-7c1.9,0,3.3,0.8,4.1,1.7l-1.4,1.7c-0.6-0.6-1.4-1.1-2.6-1.1c-2.2,0-3.8,1.7-3.8,4.6
				c0,2.9,1.3,4.6,3.9,4.6c0.6,0,1.3-0.2,1.7-0.5v-2.6H994v-2.2h4.7v6c-0.9,0.9-2.5,1.6-4.3,1.6C990.7,985.8,988,983.4,988,979z"/>
		</g>
	</g>
	<g class="st3">
		<path class="st2" d="M310.2,937.7h2.4c2.7,0,4.4,1.4,4.4,4.4c0,3-1.7,4.5-4.3,4.5h-2.5V937.7z M312.5,945.1c1.7,0,2.7-0.9,2.7-3
			c0-2.2-1-3-2.7-3H312v6H312.5z"/>
		<path class="st2" d="M322.8,944.3h-2.9l-0.6,2.3h-1.8l2.8-8.9h2.1l2.9,8.9h-1.9L322.8,944.3z M322.4,942.9l-0.3-1
			c-0.3-0.9-0.5-1.9-0.8-2.9h0c-0.2,1-0.5,2-0.8,2.9l-0.3,1H322.4z"/>
		<path class="st2" d="M327.1,939.2h-2.5v-1.5h6.8v1.5h-2.5v7.4h-1.8V939.2z"/>
		<path class="st2" d="M332.9,937.7h5.4v1.5h-3.7v2.1h3.1v1.5h-3.1v2.4h3.8v1.5h-5.6V937.7z"/>
		<path class="st2" d="M342.5,942.1c0-2.9,1.6-4.6,4-4.6c2.4,0,4,1.7,4,4.6c0,2.9-1.6,4.6-4,4.6C344.2,946.7,342.5,945,342.5,942.1z
			 M348.7,942.1c0-1.9-0.8-3-2.2-3c-1.3,0-2.2,1.1-2.2,3c0,1.9,0.8,3.1,2.2,3.1C347.8,945.2,348.7,944,348.7,942.1z"/>
		<path class="st2" d="M352.2,937.7h5.5v1.5H354v2.3h3.2v1.5H354v3.6h-1.8V937.7z"/>
		<path class="st2" d="M362,937.7h1.8v8.9H362V937.7z"/>
		<path class="st2" d="M365.3,945.4l1-1.2c0.6,0.6,1.5,1,2.3,1c0.9,0,1.4-0.4,1.4-1c0-0.7-0.5-0.9-1.3-1.2l-1.2-0.5
			c-0.9-0.4-1.8-1.1-1.8-2.4c0-1.5,1.3-2.6,3.1-2.6c1,0,2.1,0.4,2.8,1.1l-0.9,1.1c-0.6-0.5-1.2-0.7-1.9-0.7c-0.8,0-1.3,0.3-1.3,0.9
			c0,0.6,0.6,0.9,1.4,1.2l1.2,0.5c1.1,0.4,1.8,1.1,1.8,2.4c0,1.5-1.2,2.7-3.3,2.7C367.4,946.7,366.2,946.3,365.3,945.4z"/>
		<path class="st2" d="M372.6,945.4l1-1.2c0.6,0.6,1.5,1,2.3,1c0.9,0,1.4-0.4,1.4-1c0-0.7-0.5-0.9-1.3-1.2l-1.2-0.5
			c-0.9-0.4-1.8-1.1-1.8-2.4c0-1.5,1.3-2.6,3.1-2.6c1,0,2.1,0.4,2.8,1.1l-0.9,1.1c-0.6-0.5-1.2-0.7-1.9-0.7c-0.8,0-1.3,0.3-1.3,0.9
			c0,0.6,0.6,0.9,1.4,1.2l1.2,0.5c1.1,0.4,1.8,1.1,1.8,2.4c0,1.5-1.2,2.7-3.3,2.7C374.7,946.7,373.5,946.3,372.6,945.4z"/>
		<path class="st2" d="M380.6,942.6v-4.9h1.8v5c0,1.8,0.6,2.5,1.7,2.5c1.1,0,1.7-0.6,1.7-2.5v-5h1.7v4.9c0,3-1.3,4.2-3.4,4.2
			C381.9,946.7,380.6,945.5,380.6,942.6z"/>
		<path class="st2" d="M389.7,937.7h5.4v1.5h-3.7v2.1h3.1v1.5h-3.1v2.4h3.8v1.5h-5.6V937.7z"/>
	</g>
	<g class="st3">
		<path class="st2" d="M310.2,956.7h2.4c2.7,0,4.4,1.4,4.4,4.4c0,3-1.7,4.5-4.3,4.5h-2.5V956.7z M312.5,964.1c1.7,0,2.7-0.9,2.7-3
			c0-2.2-1-3-2.7-3H312v6H312.5z"/>
		<path class="st2" d="M322.8,963.3h-2.9l-0.6,2.3h-1.8l2.8-8.9h2.1l2.9,8.9h-1.9L322.8,963.3z M322.4,961.9l-0.3-1
			c-0.3-0.9-0.5-1.9-0.8-2.9h0c-0.2,1-0.5,2-0.8,2.9l-0.3,1H322.4z"/>
		<path class="st2" d="M327.1,958.2h-2.5v-1.5h6.8v1.5h-2.5v7.4h-1.8V958.2z"/>
		<path class="st2" d="M332.9,956.7h5.4v1.5h-3.7v2.1h3.1v1.5h-3.1v2.4h3.8v1.5h-5.6V956.7z"/>
		<path class="st2" d="M342.5,961.1c0-2.9,1.6-4.6,4-4.6c2.4,0,4,1.7,4,4.6c0,2.9-1.6,4.6-4,4.6C344.2,965.7,342.5,964,342.5,961.1z
			 M348.7,961.1c0-1.9-0.8-3-2.2-3c-1.3,0-2.2,1.1-2.2,3c0,1.9,0.8,3.1,2.2,3.1C347.8,964.2,348.7,963,348.7,961.1z"/>
		<path class="st2" d="M352.2,956.7h5.5v1.5H354v2.3h3.2v1.5H354v3.6h-1.8V956.7z"/>
		<path class="st2" d="M362,956.7h5.4v1.5h-3.7v2.1h3.1v1.5h-3.1v2.4h3.8v1.5H362V956.7z"/>
		<path class="st2" d="M370.9,961l-2.3-4.3h2l0.9,1.8c0.2,0.4,0.4,0.9,0.7,1.4h0.1c0.2-0.6,0.4-1,0.6-1.4l0.8-1.8h1.9l-2.3,4.4
			l2.5,4.5h-2l-1-2c-0.2-0.5-0.4-0.9-0.7-1.5h0c-0.2,0.5-0.4,1-0.6,1.5l-0.9,2h-1.9L370.9,961z"/>
		<path class="st2" d="M376.9,956.7h2.9c2,0,3.5,0.7,3.5,2.8c0,2-1.5,2.9-3.4,2.9h-1.2v3.2h-1.8V956.7z M379.7,961
			c1.2,0,1.8-0.5,1.8-1.5c0-1-0.6-1.4-1.9-1.4h-1v2.9H379.7z"/>
		<path class="st2" d="M384.9,956.7h1.8v8.9h-1.8V956.7z"/>
		<path class="st2" d="M393.7,965.6l-1.8-3.4h-1.2v3.4h-1.8v-8.9h3.1c1.9,0,3.3,0.6,3.3,2.7c0,1.3-0.7,2.2-1.7,2.6l2.1,3.6H393.7z
			 M390.6,960.8h1.2c1.1,0,1.8-0.5,1.8-1.4c0-1-0.6-1.3-1.8-1.3h-1.2V960.8z"/>
		<path class="st2" d="M398.4,962.3l-2.7-5.6h1.9l0.9,2.2c0.3,0.7,0.5,1.3,0.8,2h0c0.3-0.7,0.5-1.3,0.8-2l0.9-2.2h1.8l-2.7,5.6v3.2
			h-1.8V962.3z"/>
	</g>
	<g>
		<rect x="55" y="720" class="st4" width="230" height="270"/>
	</g>
	<g>
		<g>
			<defs>
				<rect id="SVGID_1_" x="55" y="720" width="230" height="270"/>
			</defs>
			<clipPath id="SVGID_2_">
				<use xlink:href="#SVGID_1_"  style="overflow:visible;"/>
			</clipPath>
			<g class="st5">
				<path class="st6" d="M300,1028v-54.7c0-27.7-31.9-41-59.2-50.1l-27.3-9.1l-13.7-18.2v-23.7"/>
				<path class="st6" d="M45,1028v-54.7c0-27.7,31.9-41,59.2-50.1l27.3-9.1l13.7-18.2v-22.5"/>
				<path class="st6" d="M210.6,804.9v42.4c0,17.7-14.1,35.3-38.8,35.3S133,864.9,133,847.3v-49.4"/>
				<polyline class="st6" points="199.8,908.5 172.5,935.8 145.2,908.5 				"/>
				<line class="st6" x1="172.5" y1="945.2" x2="172.5" y2="954.4"/>
				<circle class="st7" cx="189.5" cy="816.2" r="3.6"/>
				<circle class="st7" cx="154.2" cy="816.2" r="3.6"/>
				<line class="st6" x1="171.8" y1="805.4" x2="171.8" y2="830.1"/>
				<path class="st6" d="M165.5,850.2c3.5,3.5,9.1,3.5,12.5,0"/>
				<rect x="205.5" y="955.5" class="st6" width="47" height="10"/>
				<rect x="205.5" y="965.5" class="st6" width="47" height="36"/>
				<g>
					<path class="st6" d="M210.6,815.9v20.9c5.6-0.2,10.1-4.8,10.1-10.4C220.7,820.7,216.2,816.1,210.6,815.9z"/>
					<path class="st6" d="M214.1,830.2c2.1-2.1,2.1-5.6,0-7.7"/>
				</g>
				<g>
					<path class="st6" d="M133.1,815.9v20.9c-5.6-0.2-10.1-4.8-10.1-10.4C123,820.7,127.5,816.1,133.1,815.9z"/>
					<path class="st6" d="M129.6,830.2c-2.1-2.1-2.1-5.6,0-7.7"/>
				</g>
				<path class="st6" d="M195.3,807.8c-3.3-3.3-8.7-3.3-12.1,0"/>
				<path class="st6" d="M160.4,807.8c-3.3-3.3-8.7-3.3-12.1,0"/>
				<path class="st8" d="M133,790.8v-17.7l-7.1-7.1l-7.6-7.1h78.2c7.8,0,14.1,6.3,14.1,14.1v48.2H206l-3.7-26.8l-9.4-3.8h-35.3
					h-14.1H133V790.8z"/>
			</g>
		</g>
	</g>
</g>
<path class="st9" d="M984.6,537.1h-49.4c-11,0-20-9-20-20V123.6c0-11,9-20,20-20h49.4c11,0,20,9,20,20v393.5
	C1004.6,528.1,995.6,537.1,984.6,537.1z"/>
<path class="st9" d="M747.7,697.8v-32c0-11,9-20,20-20h136.7c11,0,20,9,20,20v32c0,11-9,20-20,20H767.7
	C756.7,717.8,747.7,708.8,747.7,697.8z"/>
<path class="st9" d="M33,1077v-21c0-5.5,4.5-10,10-10h954.8c5.5,0,10,4.5,10,10v21c0,5.5-4.5,10-10,10H43
	C37.5,1087,33,1082.5,33,1077z"/>
</svg>
