<?xml version="1.0" encoding="utf-8"?>
<!-- Generator: Adobe Illustrator 22.1.0, SVG Export Plug-In . SVG Version: 6.00 Build 0)  -->
<svg version="1.1" id="레이어_1" xmlns="http://www.w3.org/2000/svg" xmlns:xlink="http://www.w3.org/1999/xlink" x="0px"
	 y="0px" viewBox="0 0 1000 1000" style="enable-background:new 0 0 1000 1000;" xml:space="preserve">
<style type="text/css">
	.st0{fill:#FFFFFF;}
	.st1{fill:#91C433;}
	.st2{font-family:'NotoSansKR-Regular-KSCpc-EUC-H';}
	.st3{font-size:16px;}
	.st4{font-size:12px;}
	.st5{fill:#A0A0A0;}
	.st6{enable-background:new    ;}
	.st7{fill:none;stroke:#91C433;stroke-miterlimit:10;}
</style>
<g>
	<g>
		<circle class="st0" cx="8" cy="81.8" r="7.5"/>
		<path class="st1" d="M8,74.8c3.9,0,7,3.1,7,7s-3.1,7-7,7s-7-3.1-7-7S4.1,74.8,8,74.8 M8,73.8c-4.4,0-8,3.6-8,8s3.6,8,8,8
			s8-3.6,8-8S12.4,73.8,8,73.8L8,73.8z"/>
	</g>
	<text transform="matrix(1 0 0 1 0 59.7866)" class="st2 st3">2018 Q2</text>
	<text transform="matrix(1 0 0 1 0 121.7866)" class="st2 st4">토큰발행, 세일</text>
	<text transform="matrix(1 0 0 1 0 143.7866)" class="st5 st2 st4">- ERC-20</text>
	<g>
		<circle class="st0" cx="345.4" cy="81.8" r="7.5"/>
		<path class="st1" d="M345.4,74.8c3.9,0,7,3.1,7,7s-3.1,7-7,7s-7-3.1-7-7S341.5,74.8,345.4,74.8 M345.4,73.8c-4.4,0-8,3.6-8,8
			s3.6,8,8,8s8-3.6,8-8S349.8,73.8,345.4,73.8L345.4,73.8z"/>
	</g>
	<text transform="matrix(1 0 0 1 315.4494 59.7866)" class="st2 st3">2018 Q2</text>
	<g>
		<circle class="st0" cx="654.6" cy="81.8" r="7.5"/>
		<path class="st1" d="M654.6,74.8c3.9,0,7,3.1,7,7s-3.1,7-7,7s-7-3.1-7-7S650.8,74.8,654.6,74.8 M654.6,73.8c-4.4,0-8,3.6-8,8
			s3.6,8,8,8s8-3.6,8-8S659,73.8,654.6,73.8L654.6,73.8z"/>
	</g>
	<text transform="matrix(1 0 0 1 624.6949 59.7866)" class="st2 st3">2018 Q2</text>
	<g>
		<text transform="matrix(1 0 0 1 557.5991 175.7866)" class="st6"><tspan x="0" y="0" class="st5 st2 st4">- PUBLYTO External 플러그인:</tspan><tspan x="0" y="14.4" class="st5 st2 st4">광고거래, 후원금용 플러그인</tspan></text>
		<text transform="matrix(1 0 0 1 557.5991 216.7866)" class="st6"><tspan x="0" y="0" class="st5 st2 st4">- 고평판자 대상 옴부즈맨 권한부여:</tspan><tspan x="0" y="14.4" class="st5 st2 st4">콘텐츠 신고권한, 콘텐츠 편집권한,</tspan><tspan x="0" y="28.8" class="st5 st2 st4">콘텐츠 포탈 내 Editor’s Picks</tspan></text>
		<text transform="matrix(1 0 0 1 557.5989 121.7866)" class="st6"><tspan x="0" y="0" class="st2 st4">PUBLYTO 콘텐츠포탈</tspan><tspan x="0" y="14.4" class="st2 st4">(PUBLYTO.com)</tspan><tspan x="0" y="28.8" class="st2 st4">Official Launch</tspan></text>
		<text transform="matrix(1 0 0 1 557.5991 322.6816)" class="st5 st2 st4">- 고평판자용 이메일 마케팅 Tool</text>
		<text transform="matrix(1 0 0 1 557.5991 347.7866)" class="st5 st2 st4">- 고평판자용 다이렉트 메세지 Tool </text>
		<text transform="matrix(1 0 0 1 557.5989 296.7866)" class="st2 st4">Admin &amp; Dashboard #2</text>
		<text transform="matrix(1 0 0 1 557.5991 424.6816)" class="st5 st2 st4">- Robots.txt &amp; Sitemap.xml</text>
		<text transform="matrix(1 0 0 1 557.5991 449.7866)" class="st5 st2 st4">- 이미지 태그 및 최적화</text>
		<text transform="matrix(1 0 0 1 557.5991 475.7866)" class="st6"><tspan x="0" y="0" class="st5 st2 st4">- 타이틀 &amp; 메타디스크립션 태그</tspan><tspan x="0" y="14.4" class="st5 st2 st4">  (검색엔진최적화 메타태그 + 기타 태그)</tspan></text>
		<text transform="matrix(1 0 0 1 557.5991 515.7866)" class="st5 st2 st4">- 모바일웹 친화성 테스트</text>
		<text transform="matrix(1 0 0 1 557.5982 398.7866)" class="st2 st4">SEO</text>
	</g>
	<g>
		<circle class="st0" cx="992" cy="81.8" r="7.5"/>
		<path class="st1" d="M992,74.8c3.9,0,7,3.1,7,7s-3.1,7-7,7s-7-3.1-7-7S988.1,74.8,992,74.8 M992,73.8c-4.4,0-8,3.6-8,8s3.6,8,8,8
			s8-3.6,8-8S996.4,73.8,992,73.8L992,73.8z"/>
	</g>
	<text transform="matrix(1 0 0 1 940.1445 59.7866)" class="st2 st3">2018 Q2</text>
	<g>
		<g>
			<text transform="matrix(1 0 0 1 835.4102 121.7866)" class="st6"><tspan x="0" y="0" class="st2 st4">PUBLYTO 콘텐츠포탈 모바일</tspan><tspan x="0" y="14.4" class="st2 st4"> Official Launch</tspan></text>
			<text transform="matrix(1 0 0 1 835.4102 160.0266)" class="st6"><tspan x="0" y="0" class="st5 st2 st4">- iOS, Android ‘List of all the</tspan><tspan x="0" y="14.4" class="st5 st2 st4">  countries in the store’</tspan></text>
		</g>
		<g>
			<text transform="matrix(1 0 0 1 835.4099 225.1199)" class="st6"><tspan x="0" y="0" class="st2 st4">PUBLYTO 콘텐츠포탈</tspan><tspan x="0" y="14.4" class="st2 st4">(PUBLYTO.com)</tspan><tspan x="0" y="28.8" class="st2 st4">Improvement #1</tspan></text>
			<text transform="matrix(1 0 0 1 835.4099 279.3599)" class="st6"><tspan x="0" y="0" class="st5 st2 st4">- 소셜미디어 콘텐츠 재발</tspan><tspan x="0" y="14.4" class="st5 st2 st4">  (Import &amp; Re-publish) 기능: </tspan><tspan x="0" y="28.8" class="st5 st2 st4">  Facebook, Instagram, Reddit</tspan></text>
		</g>
		<g>
			<text transform="matrix(1 0 0 1 835.4099 361.1199)" class="st6"><tspan x="0" y="0" class="st2 st4">PUBLYTO 콘텐츠포탈</tspan><tspan x="0" y="14.4" class="st2 st4">(PUBLYTO.com)</tspan><tspan x="0" y="28.8" class="st2 st4">Improvement #2</tspan></text>
			<text transform="matrix(1 0 0 1 835.4099 415.3599)" class="st6"><tspan x="0" y="0" class="st5 st2 st4">- 오리지널 콘텐츠 발행 기능:</tspan><tspan x="0" y="14.4" class="st5 st2 st4">  블로그형, 동영상형, 사진형 </tspan></text>
		</g>
		<g>
			<text transform="matrix(1 0 0 1 835.4099 480.4532)" class="st6"><tspan x="0" y="0" class="st2 st4">PUBLYTO 콘텐츠포탈</tspan><tspan x="0" y="14.4" class="st2 st4">(PUBLYTO.com)</tspan><tspan x="0" y="28.8" class="st2 st4">Grand Launch </tspan></text>
			<text transform="matrix(1 0 0 1 835.4099 534.6932)" class="st6"><tspan x="0" y="0" class="st5 st2 st4">- Expand Client Base:</tspan><tspan x="0" y="14.4" class="st5 st2 st4">  기업형 플러그인 API Launch</tspan></text>
		</g>
	</g>
	<text transform="matrix(1 0 0 1 0 169.2266)" class="st5 st2 st4">- Truffle Suit</text>
	<g>
		<text transform="matrix(1 0 0 1 219.7827 121.7866)" class="st2 st4">PUBLYTO 토큰 에어드랍(EOS) </text>
		<text transform="matrix(1 0 0 1 219.7827 171.7866)" class="st2 st4">PUBLYTO 스마트 컨트렉트</text>
		<text transform="matrix(1 0 0 1 225.291 193.7866)" class="st5 st2 st4">- 토큰 이코노미 시스템: 수익, 평판, 예금 및 위약금,</text>
		<text transform="matrix(1 0 0 1 225.291 208.1866)" class="st5 st2 st4">   인플레이션 및 디플레이션, 감쇠율, dApp 수수료</text>
		<text transform="matrix(1 0 0 1 225.2908 234.2266)" class="st5 st2 st4">- 계정: 개인/조직, 화이트리스트,</text>
		<text transform="matrix(1 0 0 1 225.2908 248.6266)" class="st5 st2 st4">   Envicase 계정통합 (마이그레이션) </text>
		<text transform="matrix(1 0 0 1 219.7827 297.7866)" class="st2 st4">PUBLYTO API #1(+ Envicase Client)</text>
		<text transform="matrix(1 0 0 1 225.291 319.7866)" class="st5 st2 st4">- 이메일 인증</text>
		<text transform="matrix(1 0 0 1 225.2908 344.1816)" class="st5 st2 st4">- Google Vision API</text>
		<text transform="matrix(1 0 0 1 225.2908 368.5762)" class="st5 st2 st4">- PUBLYTO Native 플러그인:</text>
		<text transform="matrix(1 0 0 1 225.2908 382.9761)" class="st5 st2 st4">  Envicase 콘텐츠 보상용</text>
		<text transform="matrix(1 0 0 1 225.2908 407.3711)" class="st5 st2 st4">- Envicase DB 스키마 변경</text>
		<text transform="matrix(1 0 0 1 225.2908 431.7656)" class="st6"><tspan x="0" y="0" class="st5 st2 st4">- Envicase dApps:</tspan><tspan x="0" y="14.4" class="st5 st2 st4">   iOS, Android, Web</tspan></text>
		<text transform="matrix(1 0 0 1 225.2908 470.5599)" class="st5 st2 st4">- Envicase Referral Program </text>
		<text transform="matrix(1 0 0 1 219.7827 519.7866)" class="st2 st4">Admin &amp; Dashboard #1</text>
		<text transform="matrix(1 0 0 1 225.291 541.7866)" class="st5 st2 st4">- 수익, 평판, 예금, 잉크 조회</text>
		<text transform="matrix(1 0 0 1 225.2908 566.1816)" class="st5 st2 st4">- 예금인출</text>
		<text transform="matrix(1 0 0 1 225.2908 590.5762)" class="st5 st2 st4">- 토큰거래 전용 Notification</text>
		<text transform="matrix(1 0 0 1 225.2908 614.7044)" class="st5 st2 st4">- 탈퇴</text>
		<text transform="matrix(1 0 0 1 219.7827 664.4533)" class="st2 st4">블록체인 + 웹서버 이벤트 소싱 </text>
		<text transform="matrix(1 0 0 1 219.7827 941.7169)" class="st2 st4">외부콘텐츠 데이터 수집환경</text>
		<text transform="matrix(1 0 0 1 219.7827 714.9123)" class="st6"><tspan x="0" y="0" class="st2 st4">PUBLYTO 콘텐츠포탈(PUBLYTO.com)</tspan><tspan x="0" y="14.4" class="st2 st4">Beta(+PUBLYTO API #2)</tspan></text>
		<text transform="matrix(1 0 0 1 225.291 755.1758)" class="st5 st2 st4">- 사인업/사인인</text>
		<text transform="matrix(1 0 0 1 225.2908 779.5597)" class="st5 st2 st4">- MFA 인증</text>
		<text transform="matrix(1 0 0 1 225.2908 803.9431)" class="st6"><tspan x="0" y="0" class="st5 st2 st4">- 플러그인 삽입형식: Script, Embeded link,</tspan><tspan x="0" y="14.4" class="st5 st2 st4">   Hyperlink, Url </tspan></text>
		<text transform="matrix(1 0 0 1 225.2908 844.3268)" class="st5 st2 st4">- PUBLYTO External 플러그인: 콘텐츠보상</text>
		<text transform="matrix(1 0 0 1 225.2908 868.7102)" class="st5 st2 st4">- 외부콘텐츠 및 메타데이터 소환: Recall 기능</text>
		<text transform="matrix(1 0 0 1 225.2908 893.0936)" class="st5 st2 st4">- 보안 프로토콜</text>
	</g>
	<line class="st7" x1="16" y1="81.8" x2="337.4" y2="81.8"/>
	<line class="st7" x1="352.4" y1="81.8" x2="647.1" y2="81.8"/>
	<line class="st7" x1="662.6" y1="81.8" x2="984.5" y2="81.8"/>
</g>
</svg>
