<?xml version="1.0" encoding="utf-8"?>
<!-- Generator: Adobe Illustrator 22.1.0, SVG Export Plug-In . SVG Version: 6.00 Build 0)  -->
<svg version="1.1" id="레이어_1" xmlns="http://www.w3.org/2000/svg" xmlns:xlink="http://www.w3.org/1999/xlink" x="0px"
	 y="0px" viewBox="0 0 100 100" style="enable-background:new 0 0 100 100;" xml:space="preserve">
<style type="text/css">
	.st0{fill:none;stroke:#242626;stroke-linecap:round;stroke-linejoin:round;stroke-miterlimit:10;}
	.st1{fill:#242626;}
	.st2{fill:none;stroke:#91C433;stroke-miterlimit:10;}
	.st3{fill:none;stroke:#222829;stroke-miterlimit:10;}
</style>
<g>
	<g>
		<g>
			<g>
				<g>
					<path class="st0" d="M42.3,23v-3.8l-1.5-1.5v-1.5h15.4c1.7,0,3.1,1.4,3.1,3.1v5.4L55.4,23h-7.7l-2.3-1.5L44.6,23H42.3z"/>
					<path class="st0" d="M59.2,29.2c0,5.4-4.6,7.7-4.6,7.7l-1.5-3.1h-4.6l-1.5,3.1c0,0-4.6-2.3-4.6-7.7"/>
					<path class="st0" d="M59.2,26.1v9.2c0,3.8-3.1,7.7-8.5,7.7s-8.5-3.8-8.5-7.7V24.5"/>
					<circle class="st0" cx="46.9" cy="28.4" r="2.3"/>
					<circle class="st0" cx="54.6" cy="28.4" r="2.3"/>
					<line class="st0" x1="44.6" y1="28.4" x2="42.3" y2="28.4"/>
					<line class="st0" x1="56.9" y1="28.4" x2="59.2" y2="28.4"/>
					<line class="st0" x1="49.2" y1="28.4" x2="52.3" y2="28.4"/>
				</g>
			</g>
		</g>
	</g>
	<circle class="st1" cx="54.6" cy="29.5" r="0.8"/>
	<circle class="st1" cx="46.9" cy="29.5" r="0.8"/>
	<line class="st0" x1="50.8" y1="28.4" x2="50.8" y2="33.8"/>
	<path class="st0" d="M52.1,35.9c-0.8-0.8-2-0.8-2.7,0"/>
</g>
<g>
	<circle class="st2" cx="50.8" cy="60.8" r="10.3"/>
	<g>
		<path class="st2" d="M52.9,58.7c0-1.2-1-2.2-2.2-2.2c-1.2,0-2.2,1-2.2,2.2s1.1,1.6,2.2,2.2c1.1,0.5,2.2,1,2.2,2.2s-1,2.2-2.2,2.2
			c-1.2,0-2.2-1-2.2-2.2"/>
		<line class="st2" x1="50.8" y1="56.5" x2="50.8" y2="54.9"/>
		<line class="st2" x1="50.8" y1="65.1" x2="50.8" y2="66.8"/>
	</g>
	<g>
		<path class="st3" d="M41.1,74.3l-3.8-3.8V70c0-0.9,0.7-1.6,1.6-1.6h0.5l5.4,5.4c1.1,1.1,1.1,2.7,1.1,2.7v4.3H40v-1.1
			c0,0,0-1.1-1.1-2.2l-3.8-3.8C34,72.7,34,71.6,34,71.6V63c0-0.9,0.7-1.6,1.6-1.6c0.9,0,1.6,0.7,1.6,1.6v4.3"/>
		<path class="st3" d="M60.5,74.3l3.8-3.8V70c0-0.9-0.7-1.6-1.6-1.6h-0.5l-5.4,5.4c-1.1,1.1-1.1,2.7-1.1,2.7v4.3h5.9v-1.1
			c0,0,0-1.1,1.1-2.2l3.8-3.8c1.1-1.1,1.1-2.2,1.1-2.2V63c0-0.9-0.7-1.6-1.6-1.6c-0.9,0-1.6,0.7-1.6,1.6v4.3"/>
		<path class="st3" d="M54.5,84.6v-3.2c0-0.3,0.2-0.5,0.5-0.5h7c0.3,0,0.5,0.2,0.5,0.5v3.2"/>
		<path class="st3" d="M38.9,84.6v-3.2c0-0.3,0.2-0.5,0.5-0.5h7c0.3,0,0.5,0.2,0.5,0.5v3.2"/>
	</g>
	<line class="st2" x1="45.4" y1="60.8" x2="46.5" y2="60.8"/>
	<line class="st2" x1="55.1" y1="60.8" x2="56.2" y2="60.8"/>
	<circle class="st2" cx="50.8" cy="60.8" r="8.1"/>
</g>
</svg>
