<?xml version="1.0" encoding="utf-8"?>
<!-- Generator: Adobe Illustrator 22.1.0, SVG Export Plug-In . SVG Version: 6.00 Build 0)  -->
<svg version="1.1" id="레이어_1" xmlns="http://www.w3.org/2000/svg" xmlns:xlink="http://www.w3.org/1999/xlink" x="0px"
	 y="0px" viewBox="0 0 100 100" style="enable-background:new 0 0 100 100;" xml:space="preserve">
<style type="text/css">
	.st0{fill:none;stroke:#222829;stroke-miterlimit:10;}
	.st1{fill:none;stroke:#91C433;stroke-linecap:round;stroke-linejoin:round;stroke-miterlimit:10;}
</style>
<g>
	<g>
		<path class="st0" d="M93.7,44.7V52c0,0.7,0.6,1.3,1.3,1.3c0.7,0,1.3-0.6,1.3-1.3v-9.3"/>
		<path class="st0" d="M76.5,42.7v-0.7c0-1.1,0.9-2,2-2h7.9c2.6,0,4.6,2.1,4.6,4.6v9.9c0,0.7,0.6,1.3,1.3,1.3h5.3
			c0.7,0,1.3-0.6,1.3-1.3V44c0-0.7-0.6-1.3-1.3-1.3H93"/>
		<line class="st0" x1="72.5" y1="51.3" x2="72.5" y2="50"/>
		<line class="st0" x1="72.5" y1="48.7" x2="72.5" y2="47.4"/>
		<line class="st0" x1="72.5" y1="54" x2="72.5" y2="52.6"/>
		<g>
			<path class="st0" d="M82.4,42.7h-9.3c-4.4,0-6,3.6-6,7.9s1.6,7.9,6,7.9h11.9"/>
			<path class="st0" d="M88.4,55.3c0,1.8-1.5,3.3-3.3,3.3"/>
		</g>
	</g>
	<g>
		<path class="st0" d="M6.3,44.7V52c0,0.7-0.6,1.3-1.3,1.3c-0.7,0-1.3-0.6-1.3-1.3v-9.3"/>
		<path class="st0" d="M23.5,42.7v-0.7c0-1.1-0.9-2-2-2h-7.9c-2.6,0-4.6,2.1-4.6,4.6v9.9c0,0.7-0.6,1.3-1.3,1.3H2.3
			C1.6,56,1,55.4,1,54.6V44c0-0.7,0.6-1.3,1.3-1.3H7"/>
		<line class="st0" x1="27.5" y1="51.3" x2="27.5" y2="50"/>
		<line class="st0" x1="27.5" y1="48.7" x2="27.5" y2="47.4"/>
		<line class="st0" x1="27.5" y1="54" x2="27.5" y2="52.6"/>
		<g>
			<path class="st0" d="M17.6,42.7h9.3c4.4,0,6,3.6,6,7.9s-1.6,7.9-6,7.9H14.9"/>
			<path class="st0" d="M11.6,55.3c0,1.8,1.5,3.3,3.3,3.3"/>
		</g>
	</g>
	<polygon class="st1" points="50,43.7 53.9,38 53.7,44.9 60.2,42.6 56,48.1 62.6,50 56,51.9 60.2,57.4 53.7,55.1 53.9,62 50,56.3 
		46.1,62 46.3,55.1 39.8,57.4 44,51.9 37.4,50 44,48.1 39.8,42.6 46.3,44.9 46.1,38 	"/>
</g>
</svg>
