<?xml version="1.0" encoding="utf-8"?>
<!-- Generator: Adobe Illustrator 22.1.0, SVG Export Plug-In . SVG Version: 6.00 Build 0)  -->
<svg version="1.1" id="레이어_1" xmlns="http://www.w3.org/2000/svg" xmlns:xlink="http://www.w3.org/1999/xlink" x="0px"
	 y="0px" viewBox="0 0 100 100" style="enable-background:new 0 0 100 100;" xml:space="preserve">
<style type="text/css">
	.st0{fill:none;stroke:#222829;stroke-linejoin:round;stroke-miterlimit:10;}
	.st1{fill:none;stroke:#91C433;stroke-linecap:round;stroke-linejoin:round;stroke-miterlimit:10;}
</style>
<g>
	<g>
		<g>
			<polyline class="st0" points="32.8,73.7 35.9,78.6 39.5,80.8 40.4,87 42.1,87 42.1,80.4 39,76.4 			"/>
			<polyline class="st0" points="31.5,71.5 28.4,74.6 29.2,79.9 30.6,79.9 30.6,75.5 33.7,73.3 			"/>
			<polyline class="st0" points="34.1,69.3 36.8,67.5 37.7,63 39,63 39,68.4 36.4,71 38.6,74.1 43.5,73.3 49.7,76.8 48.8,78.6 
				43,75.9 39.5,77.3 			"/>
			<circle class="st0" cx="31" cy="68.4" r="1.8"/>
		</g>
		<path class="st0" d="M43.5,86.1c3.4,0,6.2-2.8,6.2-6.2"/>
		<path class="st0" d="M43.5,84.4c1.5,0,2.7-1.2,2.7-2.7"/>
		<line class="st0" x1="45.7" y1="80.4" x2="46.6" y2="80.4"/>
		<path class="st0" d="M26.6,78.6c0,2.5,2,4.4,4.4,4.4"/>
		<line class="st0" x1="31.9" y1="83" x2="32.8" y2="83"/>
	</g>
	<path class="st0" d="M69,87H56.2V29.7c0-3.5,2.9-6.4,6.4-6.4h0c3.5,0,6.4,2.9,6.4,6.4V87z"/>
	<g>
		<line class="st1" x1="66.4" y1="19.1" x2="70.1" y2="15.3"/>
		<line class="st1" x1="62.6" y1="13" x2="62.6" y2="18.6"/>
		<line class="st1" x1="73.4" y1="21.9" x2="67.8" y2="21.9"/>
		<line class="st1" x1="58.9" y1="19.1" x2="55.1" y2="15.3"/>
		<line class="st1" x1="51.8" y1="21.9" x2="57.4" y2="21.9"/>
	</g>
</g>
</svg>
