<?xml version="1.0" encoding="utf-8"?>
<!-- Generator: Adobe Illustrator 22.1.0, SVG Export Plug-In . SVG Version: 6.00 Build 0)  -->
<svg version="1.1" id="레이어_1" xmlns="http://www.w3.org/2000/svg" xmlns:xlink="http://www.w3.org/1999/xlink" x="0px"
	 y="0px" viewBox="0 0 100 100" style="enable-background:new 0 0 100 100;" xml:space="preserve">
<style type="text/css">
	.st0{fill:none;stroke:#222829;stroke-miterlimit:10;}
	.st1{fill:none;stroke:#91C433;stroke-linecap:round;stroke-linejoin:round;stroke-miterlimit:10;}
</style>
<g>
	<g>
		<path class="st0" d="M67.7,55.6c1.4,0,2.5,1.1,2.5,2.5v3.8H31.4v-3.8c0-1.4,1.1-2.5,2.5-2.5H67.7z"/>
		<line class="st0" x1="31.4" y1="59.4" x2="70.2" y2="59.4"/>
		<circle class="st1" cx="50.5" cy="49.7" r="2.8"/>
		<g>
			<g>
				<g>
					<g>
						<path class="st0" d="M38.3,65"/>
						<path class="st0" d="M33.3,65h5.6l6.9,2.5h5.6c1,0,1.9,0.8,1.9,1.9c0,1.1-0.8,1.9-1.8,1.9h-6.9c-1,0-1.9,0.8-1.9,1.9"/>
						<path class="st0" d="M52.7,70.6l10-3.1c1,0,1.9,0.8,1.9,1.9c0,0.6-0.6,1.3-0.6,1.3l-15.6,8.1h-1.3L36.5,75h-3.1"/>
						<line class="st0" x1="31.4" y1="73.8" x2="30.2" y2="73.8"/>
						<line class="st0" x1="28.9" y1="73.8" x2="27.7" y2="73.8"/>
						<path class="st0" d="M25.2,63.8h7.5c0.3,0,0.6,0.3,0.6,0.6v11.3c0,0.3-0.3,0.6-0.6,0.6h-7.5"/>
					</g>
				</g>
			</g>
		</g>
	</g>
	<g>
		<g>
			<path d="M29.2,30.2l0.6-0.7c0.5,0.5,1.2,1,2.2,1c1,0,1.8-0.6,1.8-1.6c0-1.1-0.7-1.8-2.7-1.8v-0.8c1.8,0,2.4-0.7,2.4-1.7
				c0-0.9-0.6-1.4-1.5-1.4c-0.7,0-1.3,0.4-1.8,0.9l-0.6-0.7c0.7-0.6,1.4-1.1,2.5-1.1c1.5,0,2.6,0.8,2.6,2.2c0,1.1-0.6,1.8-1.6,2.1v0
				c1,0.2,1.9,1,1.9,2.2c0,1.6-1.3,2.5-2.8,2.5C30.7,31.4,29.8,30.8,29.2,30.2z"/>
			<path d="M40.6,24.2c-0.5-0.5-0.9-0.8-1.6-0.8c-0.8,0-1.4,0.5-1.4,1.3c0,2,3.8,1.4,3.8,4.3c0,1.3-0.8,2.1-2.1,2.3v1.4h-0.8v-1.3
				c-0.9-0.1-1.7-0.5-2.3-1l0.5-0.7c0.6,0.5,1.2,0.9,2.1,0.9c1,0,1.5-0.5,1.5-1.4c0-2.2-3.8-1.7-3.8-4.3c0-1.2,0.8-2.1,2-2.2v-1.4
				h0.8v1.3c0.9,0.1,1.4,0.5,1.9,1L40.6,24.2z"/>
		</g>
		<g>
			<path d="M47.1,25.9h0.5l-2.1,6.9H45L47.1,25.9z"/>
			<path d="M49.9,27.7h0.5l0.1,0.6h0c0.3-0.4,0.7-0.7,1.2-0.7c0.6,0,0.9,0.3,1.1,0.7c0.4-0.4,0.8-0.7,1.3-0.7c0.8,0,1.2,0.5,1.2,1.5
				v2.4h-0.6v-2.3c0-0.7-0.2-1-0.7-1c-0.3,0-0.6,0.2-1,0.6v2.8h-0.6v-2.3c0-0.7-0.2-1-0.7-1c-0.3,0-0.6,0.2-1,0.6v2.8h-0.6V27.7z"/>
			<path d="M56.2,29.6c0-1.3,0.8-2,1.8-2c0.9,0,1.8,0.7,1.8,2c0,1.3-0.8,2-1.8,2C57,31.6,56.2,30.8,56.2,29.6z M59.1,29.6
				c0-0.9-0.5-1.5-1.1-1.5c-0.7,0-1.1,0.6-1.1,1.5c0,0.9,0.4,1.5,1.1,1.5C58.6,31,59.1,30.5,59.1,29.6z"/>
			<path d="M60.7,27.7h0.5l0.1,0.5h0c0.4-0.4,0.8-0.6,1.3-0.6c0.8,0,1.2,0.5,1.2,1.5v2.4h-0.6v-2.3c0-0.7-0.2-1-0.7-1
				c-0.4,0-0.7,0.2-1.1,0.6v2.8h-0.6V27.7z"/>
			<path d="M65.2,30.3v-2.1h-0.6v-0.5l0.6,0l0.1-1.1h0.5v1.1h1v0.5h-1v2.1c0,0.5,0.1,0.7,0.6,0.7c0.1,0,0.3,0,0.4-0.1l0.1,0.5
				c-0.2,0.1-0.5,0.1-0.7,0.1C65.4,31.6,65.2,31.1,65.2,30.3z"/>
			<path d="M67.7,25.9h0.6v1.5l0,0.8c0.4-0.4,0.7-0.6,1.3-0.6c0.8,0,1.2,0.5,1.2,1.5v2.4h-0.6v-2.3c0-0.7-0.2-1-0.7-1
				c-0.4,0-0.7,0.2-1.1,0.6v2.8h-0.6V25.9z"/>
		</g>
	</g>
</g>
</svg>
