<?xml version="1.0" encoding="utf-8"?>
<!-- Generator: Adobe Illustrator 22.1.0, SVG Export Plug-In . SVG Version: 6.00 Build 0)  -->
<svg version="1.1" id="Layer_1" xmlns="http://www.w3.org/2000/svg" xmlns:xlink="http://www.w3.org/1999/xlink" x="0px" y="0px"
	 viewBox="0 0 32 32" style="enable-background:new 0 0 32 32;" xml:space="preserve">
<style type="text/css">
	.st0{fill:#A0A0A0;}
	.st1{fill:#EAEAEA;}
	.st2{fill:#D1D1D1;}
	.st3{fill:#FFFFFF;}
</style>
<title>facebook</title>
<desc>Created with Sketch.</desc>
<path id="Fill-5" class="st0" d="M16,0c8.8,0,16,7.2,16,16s-7.2,16-16,16S0,24.8,0,16S7.2,0,16,0"/>
<g>
	<path class="st1" d="M12.9,22.2c-0.5,0-0.4-0.2-0.6-0.7l-1.5-4.8L22.2,10"/>
	<path class="st2" d="M12.9,22.2c0.4,0,0.6-0.2,0.8-0.4l2.1-2l-2.6-1.5"/>
	<path class="st3" d="M13.2,18.3l6.2,4.6c0.7,0.4,1.2,0.2,1.4-0.7l2.5-11.9c0.3-1-0.4-1.5-1.1-1.2L7.4,14.8c-1,0.4-1,1-0.2,1.2
		l3.8,1.2l8.8-5.6c0.4-0.3,0.8-0.1,0.5,0.2"/>
</g>
</svg>
