<?xml version="1.0" encoding="utf-8"?>
<!-- Generator: Adobe Illustrator 22.1.0, SVG Export Plug-In . SVG Version: 6.00 Build 0)  -->
<svg version="1.1" id="Layer_1" xmlns="http://www.w3.org/2000/svg" xmlns:xlink="http://www.w3.org/1999/xlink" x="0px" y="0px"
	 viewBox="0 0 468.2 412.7" style="enable-background:new 0 0 468.2 412.7;" xml:space="preserve">
<style type="text/css">
	.st0{opacity:0.5;fill:#BACC6D;enable-background:new    ;}
	.st1{fill:#6D8700;}
	.st2{fill:#E4EFC2;}
	.st3{fill:#BACC6D;}
	.st4{fill:#99B71C;}
	.st5{fill:#97A541;}
	.st6{fill:#FFFFFF;}
</style>
<g>
	<rect x="212.5" y="52.9" class="st0" width="195.2" height="120.7"/>
	<path class="st1" d="M124,124l-10.8,123.6C45,241.6-5.5,181.5,0.5,113.2c2.6-30,14.5-55.6,35.9-76.9L124,124z"/>
	<path class="st2" d="M124,124l114.2,48.5c-21.4,50.4-70.4,79.9-125,75.1L124,124z"/>
	<path class="st3" d="M124,124l101.6-71.1c25.1,35.9,29.7,79.2,12.6,119.6L124,124z"/>
	<path class="st4" d="M124,124L36.3,36.3c48.4-48.4,127-48.4,175.4,0c5.8,5.8,9.2,9.8,13.9,16.6L124,124z"/>
	<g>
		<g>
			<g>
				<path d="M21.8,293l-2.6-8.1h1.1l1.3,4c0.3,1.1,0.6,2.1,0.9,3l0,0c0.2-0.9,0.6-2,0.9-3l1.4-4h1.1L23,293H21.8z"/>
				<path d="M29.5,293l-0.1-0.7l0,0c-0.3,0.5-0.9,0.9-1.8,0.9c-1.2,0-1.8-0.8-1.8-1.7c0-1.4,1.2-2.2,3.5-2.2v-0.1
					c0-0.5-0.1-1.3-1.3-1.3c-0.5,0-1.1,0.2-1.5,0.4l-0.2-0.7c0.5-0.3,1.2-0.5,1.9-0.5c1.8,0,2.2,1.2,2.2,2.4v2.2c0,0.5,0,1,0.1,1.4
					L29.5,293L29.5,293z M29.4,290c-1.2,0-2.5,0.2-2.5,1.3c0,0.7,0.5,1,1,1c0.8,0,1.2-0.5,1.4-1c0-0.1,0.1-0.2,0.1-0.3V290z"/>
				<path d="M32.1,289c0-0.7,0-1.3,0-1.8H33v1.1l0,0c0.3-0.8,0.9-1.3,1.6-1.3c0.1,0,0.2,0,0.3,0v1c-0.1,0-0.2,0-0.4,0
					c-0.7,0-1.3,0.6-1.4,1.4c0,0.1,0,0.3,0,0.5v3.1h-1V289z"/>
				<path d="M37.2,285.6c0,0.4-0.3,0.6-0.7,0.6c-0.4,0-0.6-0.3-0.6-0.6c0-0.4,0.3-0.7,0.7-0.7C37,284.9,37.2,285.2,37.2,285.6z
					 M36.1,293v-5.8h1.1v5.8H36.1z"/>
				<path d="M42.1,293l-0.1-0.7l0,0c-0.3,0.5-0.9,0.9-1.8,0.9c-1.2,0-1.8-0.8-1.8-1.7c0-1.4,1.2-2.2,3.5-2.2v-0.1
					c0-0.5-0.1-1.3-1.3-1.3c-0.5,0-1.1,0.2-1.5,0.4l-0.2-0.7c0.5-0.3,1.2-0.5,1.9-0.5c1.8,0,2.2,1.2,2.2,2.4v2.2c0,0.5,0,1,0.1,1.4
					L42.1,293L42.1,293z M41.9,290c-1.2,0-2.5,0.2-2.5,1.3c0,0.7,0.5,1,1,1c0.8,0,1.2-0.5,1.4-1c0-0.1,0.1-0.2,0.1-0.3V290z"/>
				<path d="M44.6,293c0-0.4,0-1,0-1.5v-7h1v3.6l0,0c0.4-0.6,1-1.1,2-1.1c1.4,0,2.5,1.2,2.4,3c0,2.1-1.3,3.1-2.6,3.1
					c-0.8,0-1.5-0.3-1.9-1.1l0,0v1H44.6z M45.7,290.7c0,0.1,0,0.3,0,0.4c0.2,0.7,0.8,1.2,1.6,1.2c1.1,0,1.8-0.9,1.8-2.2
					c0-1.2-0.6-2.2-1.7-2.2c-0.7,0-1.4,0.5-1.6,1.3c0,0.1-0.1,0.3-0.1,0.4L45.7,290.7L45.7,290.7z"/>
				<path d="M51.5,284.5h1.1v8.5h-1.1V284.5z"/>
				<path d="M54.9,290.3c0,1.4,0.9,2,2,2c0.8,0,1.2-0.1,1.6-0.3l0.2,0.8c-0.4,0.2-1,0.4-1.9,0.4c-1.8,0-2.9-1.2-2.9-2.9
					s1-3.1,2.7-3.1c1.9,0,2.4,1.7,2.4,2.7c0,0.2,0,0.4,0,0.5h-4.1V290.3z M58,289.5c0-0.7-0.3-1.7-1.5-1.7c-1.1,0-1.5,1-1.6,1.7H58z
					"/>
				<path d="M62.9,285c0.5-0.1,1.3-0.2,2-0.2c1.1,0,1.8,0.2,2.3,0.7c0.4,0.4,0.6,0.9,0.6,1.5c0,1.1-0.7,1.8-1.5,2.1l0,0
					c0.6,0.2,1,0.8,1.2,1.6c0.3,1.1,0.5,1.9,0.6,2.2H67c-0.1-0.2-0.3-0.9-0.5-1.9c-0.2-1.1-0.7-1.5-1.6-1.6h-1v3.5h-1V285z
					 M64,288.7h1.1c1.1,0,1.8-0.6,1.8-1.5c0-1-0.8-1.5-1.9-1.5c-0.5,0-0.9,0-1,0.1V288.7z"/>
				<path d="M70,290.3c0,1.4,0.9,2,2,2c0.8,0,1.2-0.1,1.6-0.3l0.2,0.8c-0.4,0.2-1,0.4-1.9,0.4c-1.8,0-2.9-1.2-2.9-2.9s1-3.1,2.7-3.1
					c1.9,0,2.4,1.7,2.4,2.7c0,0.2,0,0.4,0,0.5H70V290.3z M73.1,289.5c0-0.7-0.3-1.7-1.5-1.7c-1.1,0-1.5,1-1.6,1.7H73.1z"/>
				<path d="M75.8,287.2l0.8,3c0.2,0.6,0.3,1.2,0.4,1.8l0,0c0.1-0.6,0.3-1.2,0.5-1.8l0.9-3h0.9l0.9,2.9c0.2,0.7,0.4,1.3,0.5,1.9l0,0
					c0.1-0.6,0.3-1.2,0.4-1.9l0.8-2.9h1L81,293h-1l-0.9-2.8c-0.2-0.6-0.4-1.2-0.5-1.9l0,0c-0.1,0.7-0.3,1.3-0.5,1.9l-0.9,2.8h-1
					l-1.8-5.8H75.8z"/>
				<path d="M87.4,293l-0.1-0.7l0,0c-0.3,0.5-0.9,0.9-1.8,0.9c-1.2,0-1.8-0.8-1.8-1.7c0-1.4,1.2-2.2,3.5-2.2v-0.1
					c0-0.5-0.1-1.3-1.3-1.3c-0.5,0-1.1,0.2-1.5,0.4l-0.2-0.7c0.5-0.3,1.2-0.5,1.9-0.5c1.8,0,2.2,1.2,2.2,2.4v2.2c0,0.5,0,1,0.1,1.4
					L87.4,293L87.4,293z M87.2,290c-1.2,0-2.5,0.2-2.5,1.3c0,0.7,0.5,1,1,1c0.8,0,1.2-0.5,1.4-1c0-0.1,0.1-0.2,0.1-0.3V290z"/>
				<path d="M90,289c0-0.7,0-1.3,0-1.8h0.9v1.1l0,0c0.3-0.8,0.9-1.3,1.6-1.3c0.1,0,0.2,0,0.3,0v1c-0.1,0-0.2,0-0.4,0
					c-0.7,0-1.3,0.6-1.4,1.4c0,0.1,0,0.3,0,0.5v3.1h-1V289z"/>
				<path d="M98.8,284.5v7c0,0.5,0,1.1,0,1.5h-0.9v-1l0,0c-0.3,0.6-1,1.1-2,1.1c-1.4,0-2.5-1.2-2.5-3c0-1.9,1.2-3.1,2.6-3.1
					c0.9,0,1.5,0.4,1.8,0.9l0,0v-3.5h1V284.5z M97.7,289.6c0-0.1,0-0.3,0-0.4c-0.2-0.7-0.7-1.2-1.5-1.2c-1.1,0-1.7,1-1.7,2.2
					s0.6,2.1,1.7,2.1c0.7,0,1.4-0.5,1.5-1.3c0-0.1,0-0.3,0-0.5V289.6z"/>
				<path d="M100.4,291.9c0.3,0.2,0.9,0.4,1.4,0.4c0.8,0,1.1-0.4,1.1-0.9s-0.3-0.8-1.1-1.1c-1-0.4-1.5-0.9-1.5-1.6
					c0-0.9,0.8-1.7,2-1.7c0.6,0,1.1,0.2,1.4,0.4l-0.3,0.8c-0.2-0.1-0.6-0.3-1.2-0.3s-1,0.4-1,0.8c0,0.5,0.3,0.7,1.1,1
					c1,0.4,1.5,0.9,1.5,1.8c0,1-0.8,1.7-2.2,1.7c-0.6,0-1.2-0.2-1.6-0.4L100.4,291.9z"/>
				<path d="M112.9,293c-0.2-0.2-0.4-0.5-0.8-0.8c-0.7,0.6-1.5,0.9-2.4,0.9c-1.6,0-2.5-1.1-2.5-2.3c0-1.1,0.7-1.9,1.6-2.4l0,0
					c-0.4-0.5-0.7-1.1-0.7-1.7c0-1,0.7-2,2.1-2c1,0,1.8,0.7,1.8,1.7c0,0.9-0.5,1.5-1.8,2.2l0,0c0.7,0.8,1.5,1.7,2,2.3
					c0.4-0.6,0.6-1.3,0.8-2.4h1c-0.2,1.3-0.6,2.3-1.2,3c0.4,0.5,0.9,0.9,1.3,1.4L112.9,293L112.9,293z M111.7,291.6
					c-0.5-0.5-1.4-1.5-2.3-2.5c-0.4,0.3-1,0.8-1,1.6c0,0.9,0.7,1.6,1.7,1.6C110.7,292.3,111.3,292,111.7,291.6z M109.2,286.7
					c0,0.6,0.3,1,0.6,1.5c0.8-0.5,1.3-0.9,1.3-1.6c0-0.5-0.3-1-0.9-1C109.5,285.5,109.2,286.1,109.2,286.7z"/>
				<path d="M17.3,303.6h-3.1v2.9h3.5v0.9h-4.5v-8.1h4.4v0.9h-3.3v2.6h3.1v0.8H17.3z"/>
				<path d="M19.5,301.6l0.8,1.2c0.2,0.3,0.4,0.6,0.6,0.9l0,0c0.2-0.3,0.4-0.6,0.6-1l0.8-1.2h1.1l-2,2.8l2,3h-1.2l-0.9-1.3
					c-0.2-0.3-0.4-0.7-0.6-1l0,0c-0.2,0.3-0.4,0.7-0.6,1l-0.8,1.3h-1.2l2.1-3l-2-2.8h1.3V301.6z"/>
				<path d="M24.5,303.5c0-0.7,0-1.3,0-1.9h0.9v1l0,0c0.4-0.7,1.1-1.1,2.1-1.1c1.4,0,2.5,1.2,2.5,2.9c0,2.1-1.3,3.1-2.6,3.1
					c-0.8,0-1.4-0.3-1.8-0.9l0,0v3.2h-1v-6.3H24.5z M25.6,305c0,0.2,0,0.3,0,0.4c0.2,0.7,0.8,1.2,1.6,1.2c1.1,0,1.8-0.9,1.8-2.2
					c0-1.2-0.6-2.2-1.7-2.2c-0.7,0-1.4,0.5-1.6,1.3c0,0.1-0.1,0.3-0.1,0.4L25.6,305L25.6,305z"/>
				<path d="M34.6,307.4l-0.1-0.7l0,0c-0.3,0.5-0.9,0.9-1.8,0.9c-1.2,0-1.8-0.8-1.8-1.7c0-1.4,1.2-2.2,3.5-2.2v-0.1
					c0-0.5-0.1-1.3-1.3-1.3c-0.5,0-1.1,0.2-1.5,0.4l-0.2-0.7c0.5-0.3,1.2-0.5,1.9-0.5c1.8,0,2.2,1.2,2.2,2.4v2.2c0,0.5,0,1,0.1,1.4
					L34.6,307.4L34.6,307.4z M34.4,304.4c-1.2,0-2.5,0.2-2.5,1.3c0,0.7,0.5,1,1,1c0.8,0,1.2-0.5,1.4-1c0-0.1,0.1-0.2,0.1-0.3V304.4z
					"/>
				<path d="M37.1,303.2c0-0.6,0-1.1,0-1.6H38l0.1,1l0,0c0.3-0.6,1-1.1,1.9-1.1c0.8,0,2.1,0.5,2.1,2.5v3.5H41v-3.3
					c0-0.9-0.3-1.7-1.3-1.7c-0.7,0-1.2,0.5-1.4,1.1c0,0.1-0.1,0.3-0.1,0.5v3.5h-1.1V303.2z"/>
				<path d="M48.8,298.9v7c0,0.5,0,1.1,0,1.5h-0.9v-1l0,0c-0.3,0.6-1,1.1-2,1.1c-1.4,0-2.5-1.2-2.5-3c0-1.9,1.2-3.1,2.6-3.1
					c0.9,0,1.5,0.4,1.8,0.9l0,0v-3.5h1V298.9z M47.8,304c0-0.1,0-0.3,0-0.4c-0.2-0.7-0.7-1.2-1.5-1.2c-1.1,0-1.7,1-1.7,2.2
					s0.6,2.1,1.7,2.1c0.7,0,1.4-0.5,1.5-1.3c0-0.1,0-0.3,0-0.5V304z"/>
				<path d="M51.7,300c0,0.4-0.3,0.6-0.7,0.6c-0.4,0-0.6-0.3-0.6-0.6c0-0.4,0.3-0.7,0.7-0.7C51.5,299.3,51.7,299.6,51.7,300z
					 M50.6,307.4v-5.8h1.1v5.8H50.6z"/>
				<path d="M53.4,303.2c0-0.6,0-1.1,0-1.6h0.9l0.1,1l0,0c0.3-0.6,1-1.1,1.9-1.1c0.8,0,2.1,0.5,2.1,2.5v3.5h-1.1v-3.3
					c0-0.9-0.3-1.7-1.3-1.7c-0.7,0-1.2,0.5-1.4,1.1c0,0.1-0.1,0.3-0.1,0.5v3.5h-1.1V303.2z"/>
				<path d="M65,301.6c0,0.4,0,0.9,0,1.6v3.4c0,1.3-0.3,2.1-0.8,2.7c-0.6,0.5-1.4,0.7-2.1,0.7s-1.5-0.2-1.9-0.5l0.3-0.8
					c0.4,0.2,1,0.5,1.7,0.5c1.1,0,1.9-0.6,1.9-2v-0.6l0,0c-0.3,0.5-0.9,1-1.8,1c-1.4,0-2.5-1.2-2.5-2.8c0-2,1.3-3.1,2.6-3.1
					c1,0,1.6,0.5,1.8,1l0,0v-0.9H65V301.6z M63.9,303.9c0-0.2,0-0.3-0.1-0.5c-0.2-0.6-0.7-1.1-1.5-1.1c-1,0-1.7,0.9-1.7,2.2
					c0,1.1,0.6,2.1,1.7,2.1c0.6,0,1.2-0.4,1.5-1.1c0.1-0.2,0.1-0.4,0.1-0.6V303.9z"/>
				<path d="M73.5,303.6h-3.1v2.9h3.5v0.9h-4.5v-8.1h4.4v0.9h-3.4v2.6h3.1V303.6z"/>
				<path d="M79.3,307.2c-0.3,0.1-0.9,0.3-1.7,0.3c-1.8,0-2.9-1.2-2.9-3s1.2-3.1,3.1-3.1c0.6,0,1.2,0.2,1.5,0.3l-0.2,0.8
					c-0.3-0.1-0.6-0.3-1.2-0.3c-1.3,0-2.1,1-2.1,2.2c0,1.3,0.9,2.2,2,2.2c0.6,0,1-0.2,1.3-0.3L79.3,307.2z"/>
				<path d="M85.7,304.5c0,2.1-1.5,3.1-2.9,3.1c-1.6,0-2.8-1.2-2.8-3c0-1.9,1.3-3.1,2.9-3.1C84.6,301.5,85.7,302.7,85.7,304.5z
					 M81.1,304.5c0,1.3,0.7,2.2,1.8,2.2c1,0,1.8-0.9,1.8-2.3c0-1-0.5-2.2-1.7-2.2C81.6,302.3,81.1,303.4,81.1,304.5z"/>
				<path d="M86.9,306.3c0.3,0.2,0.9,0.4,1.4,0.4c0.8,0,1.1-0.4,1.1-0.9s-0.3-0.8-1.1-1.1c-1-0.4-1.5-0.9-1.5-1.6
					c0-0.9,0.8-1.7,2-1.7c0.6,0,1.1,0.2,1.4,0.4l-0.3,0.8c-0.2-0.1-0.6-0.3-1.2-0.3s-1,0.4-1,0.8c0,0.5,0.3,0.7,1.1,1
					c1,0.4,1.5,0.9,1.5,1.8c0,1-0.8,1.7-2.2,1.7c-0.6,0-1.2-0.2-1.6-0.4L86.9,306.3z"/>
				<path d="M92.2,301.6l1.3,3.4c0.1,0.4,0.3,0.8,0.4,1.2l0,0c0.1-0.3,0.2-0.8,0.4-1.2l1.2-3.4h1.1l-1.6,4.1c-0.8,2-1.3,3-2,3.6
					c-0.5,0.5-1,0.6-1.3,0.7l-0.3-0.9c0.3-0.1,0.6-0.3,0.9-0.5s0.6-0.6,0.9-1.2c0-0.1,0.1-0.2,0.1-0.3c0-0.1,0-0.1-0.1-0.3l-2.1-5.3
					L92.2,301.6L92.2,301.6z"/>
				<path d="M97.2,306.3c0.3,0.2,0.9,0.4,1.4,0.4c0.8,0,1.1-0.4,1.1-0.9s-0.3-0.8-1.1-1.1c-1-0.4-1.5-0.9-1.5-1.6
					c0-0.9,0.8-1.7,2-1.7c0.6,0,1.1,0.2,1.4,0.4l-0.3,0.8c-0.2-0.1-0.6-0.3-1.2-0.3s-1,0.4-1,0.8c0,0.5,0.3,0.7,1.1,1
					c1,0.4,1.5,0.9,1.5,1.8c0,1-0.8,1.7-2.2,1.7c-0.6,0-1.2-0.2-1.6-0.4L97.2,306.3z"/>
				<path d="M103.4,299.9v1.7h1.5v0.8h-1.5v3.1c0,0.7,0.2,1.1,0.8,1.1c0.3,0,0.5,0,0.6-0.1v0.8c-0.2,0.1-0.5,0.1-0.9,0.1
					c-0.5,0-0.9-0.2-1.1-0.4c-0.3-0.3-0.4-0.8-0.4-1.5v-3.2h-0.9v-0.8h0.9v-1.4L103.4,299.9z"/>
				<path d="M106.6,304.7c0,1.4,0.9,2,2,2c0.8,0,1.2-0.1,1.6-0.3l0.2,0.8c-0.4,0.2-1,0.4-1.9,0.4c-1.8,0-2.9-1.2-2.9-2.9
					c0-1.8,1-3.1,2.7-3.1c1.9,0,2.4,1.7,2.4,2.7c0,0.2,0,0.4,0,0.5h-4.1V304.7z M109.7,303.9c0-0.7-0.3-1.7-1.5-1.7
					c-1.1,0-1.5,1-1.6,1.7H109.7z"/>
				<path d="M112,303.2c0-0.6,0-1.1,0-1.6h0.9v0.9l0,0c0.3-0.6,0.9-1.1,1.8-1.1c0.8,0,1.4,0.5,1.6,1.2l0,0c0.2-0.3,0.4-0.6,0.6-0.8
					c0.3-0.3,0.7-0.4,1.3-0.4c0.8,0,1.9,0.5,1.9,2.5v3.4h-1V304c0-1.1-0.4-1.8-1.3-1.8c-0.6,0-1.1,0.4-1.2,1c0,0.1-0.1,0.3-0.1,0.5
					v3.6h-1v-3.5c0-0.9-0.4-1.6-1.2-1.6c-0.7,0-1.1,0.5-1.3,1.1c-0.1,0.2-0.1,0.3-0.1,0.5v3.5h-1v-4.1H112z"/>
			</g>
			<circle class="st1" cx="66.7" cy="270.5" r="4.5"/>
		</g>
		<g>
			<g>
				<path d="M45.4,350.7c0.5,0.3,1.2,0.5,1.9,0.5c1.1,0,1.7-0.6,1.7-1.4s-0.4-1.2-1.5-1.6c-1.3-0.5-2.1-1.2-2.1-2.3
					c0-1.3,1-2.2,2.6-2.2c0.8,0,1.4,0.2,1.8,0.4l-0.3,0.9c-0.3-0.1-0.8-0.4-1.5-0.4c-1.1,0-1.5,0.7-1.5,1.2c0,0.8,0.5,1.1,1.6,1.6
					c1.4,0.5,2.1,1.2,2.1,2.4c0,1.2-0.9,2.3-2.8,2.3c-0.8,0-1.6-0.2-2.1-0.5L45.4,350.7z"/>
				<path d="M52.6,344.5v1.7h1.5v0.8h-1.5v3.1c0,0.7,0.2,1.1,0.8,1.1c0.3,0,0.5,0,0.6-0.1v0.8c-0.2,0.1-0.5,0.1-0.9,0.1
					c-0.5,0-0.9-0.2-1.1-0.4c-0.3-0.3-0.4-0.8-0.4-1.5v-3.2h-0.9v-0.8h0.9v-1.4L52.6,344.5z"/>
				<path d="M55.3,348c0-0.7,0-1.3,0-1.8h0.9v1.1l0,0c0.3-0.8,0.9-1.3,1.6-1.3c0.1,0,0.2,0,0.3,0v1c-0.1,0-0.2,0-0.4,0
					c-0.7,0-1.3,0.6-1.4,1.4c0,0.1,0,0.3,0,0.5v3.1h-1V348z"/>
				<path d="M62.4,352l-0.1-0.7l0,0c-0.3,0.5-0.9,0.9-1.8,0.9c-1.2,0-1.8-0.8-1.8-1.7c0-1.4,1.2-2.2,3.5-2.2v-0.1
					c0-0.5-0.1-1.3-1.3-1.3c-0.5,0-1.1,0.2-1.5,0.4l-0.2-0.7c0.5-0.3,1.2-0.5,1.9-0.5c1.8,0,2.2,1.2,2.2,2.4v2.2c0,0.5,0,1,0.1,1.4
					L62.4,352L62.4,352z M62.2,349c-1.2,0-2.5,0.2-2.5,1.3c0,0.7,0.5,1,1,1c0.8,0,1.2-0.5,1.4-1c0-0.1,0.1-0.2,0.1-0.3V349z"/>
				<path d="M66.2,344.5v1.7h1.5v0.8h-1.5v3.1c0,0.7,0.2,1.1,0.8,1.1c0.3,0,0.5,0,0.6-0.1v0.8c-0.2,0.1-0.5,0.1-0.9,0.1
					c-0.5,0-0.9-0.2-1.1-0.4c-0.3-0.3-0.4-0.8-0.4-1.5v-3.2h-0.9v-0.8h0.9v-1.4L66.2,344.5z"/>
				<path d="M69.4,349.3c0,1.4,0.9,2,2,2c0.8,0,1.2-0.1,1.6-0.3l0.2,0.8c-0.4,0.2-1,0.4-1.9,0.4c-1.8,0-2.9-1.2-2.9-2.9
					s1-3.1,2.7-3.1c1.9,0,2.4,1.7,2.4,2.7c0,0.2,0,0.4,0,0.5h-4.1V349.3z M72.5,348.5c0-0.7-0.3-1.7-1.5-1.7c-1.1,0-1.5,1-1.6,1.7
					H72.5z"/>
				<path d="M79.8,346.2c0,0.4,0,0.9,0,1.6v3.4c0,1.3-0.3,2.1-0.8,2.7c-0.6,0.5-1.4,0.7-2.1,0.7s-1.5-0.2-1.9-0.5l0.3-0.8
					c0.4,0.2,1,0.5,1.7,0.5c1.1,0,1.9-0.6,1.9-2v-0.6l0,0c-0.3,0.5-0.9,1-1.8,1c-1.4,0-2.5-1.2-2.5-2.8c0-2,1.3-3.1,2.6-3.1
					c1,0,1.6,0.5,1.8,1l0,0v-0.9h0.8V346.2z M78.7,348.5c0-0.2,0-0.3-0.1-0.5c-0.2-0.6-0.7-1.1-1.5-1.1c-1,0-1.7,0.9-1.7,2.2
					c0,1.1,0.6,2.1,1.7,2.1c0.6,0,1.2-0.4,1.5-1.1c0.1-0.2,0.1-0.4,0.1-0.6V348.5z"/>
				<path d="M82.6,344.6c0,0.4-0.3,0.6-0.7,0.6c-0.4,0-0.6-0.3-0.6-0.6c0-0.4,0.3-0.7,0.7-0.7C82.4,343.9,82.6,344.2,82.6,344.6z
					 M81.5,352v-5.8h1.1v5.8H81.5z"/>
				<path d="M88.4,351.8c-0.3,0.1-0.9,0.3-1.7,0.3c-1.8,0-2.9-1.2-2.9-3s1.2-3.1,3.1-3.1c0.6,0,1.2,0.2,1.5,0.3l-0.2,0.8
					c-0.3-0.1-0.6-0.3-1.2-0.3c-1.3,0-2.1,1-2.1,2.2c0,1.3,0.9,2.2,2,2.2c0.6,0,1-0.2,1.3-0.3L88.4,351.8z"/>
				<path d="M40.4,358.3v8.1h-1v-8.1H40.4z"/>
				<path d="M42.3,362.2c0-0.6,0-1.1,0-1.6h0.9l0.1,1l0,0c0.3-0.6,1-1.1,1.9-1.1c0.8,0,2.1,0.5,2.1,2.5v3.5h-1.1v-3.3
					c0-0.9-0.3-1.7-1.3-1.7c-0.7,0-1.2,0.5-1.4,1.1c0,0.1-0.1,0.3-0.1,0.5v3.5h-1.1V362.2z"/>
				<path d="M49.2,360.6l1.1,3.3c0.2,0.5,0.3,1,0.5,1.5l0,0c0.1-0.5,0.3-1,0.5-1.5l1.1-3.3h1.1l-2.3,5.8h-1l-2.2-5.8H49.2z"/>
				<path d="M55,363.7c0,1.4,0.9,2,2,2c0.8,0,1.2-0.1,1.6-0.3l0.2,0.8c-0.4,0.2-1,0.4-1.9,0.4c-1.8,0-2.9-1.2-2.9-2.9
					c0-1.8,1-3.1,2.7-3.1c1.9,0,2.4,1.7,2.4,2.7c0,0.2,0,0.4,0,0.5H55V363.7z M58.1,362.9c0-0.7-0.3-1.7-1.5-1.7
					c-1.1,0-1.5,1-1.6,1.7H58.1z"/>
				<path d="M60.3,365.3c0.3,0.2,0.9,0.4,1.4,0.4c0.8,0,1.1-0.4,1.1-0.9s-0.3-0.8-1.1-1.1c-1-0.4-1.5-0.9-1.5-1.6
					c0-0.9,0.8-1.7,2-1.7c0.6,0,1.1,0.2,1.4,0.4l-0.3,0.8c-0.2-0.1-0.6-0.3-1.2-0.3s-1,0.4-1,0.8c0,0.5,0.3,0.7,1.1,1
					c1,0.4,1.5,0.9,1.5,1.8c0,1-0.8,1.7-2.2,1.7c-0.6,0-1.2-0.2-1.6-0.4L60.3,365.3z"/>
				<path d="M66.5,358.9v1.7H68v0.8h-1.5v3.1c0,0.7,0.2,1.1,0.8,1.1c0.3,0,0.5,0,0.6-0.1v0.8c-0.2,0.1-0.5,0.1-0.9,0.1
					c-0.5,0-0.9-0.2-1.1-0.4c-0.3-0.3-0.4-0.8-0.4-1.5v-3.2h-0.9v-0.8h0.9v-1.4L66.5,358.9z"/>
				<path d="M69.2,362.2c0-0.6,0-1.1,0-1.6h0.9v0.9l0,0c0.3-0.6,0.9-1.1,1.8-1.1c0.8,0,1.4,0.5,1.6,1.2l0,0c0.2-0.3,0.4-0.6,0.6-0.8
					c0.3-0.3,0.7-0.4,1.3-0.4c0.8,0,1.9,0.5,1.9,2.5v3.4h-1V363c0-1.1-0.4-1.8-1.3-1.8c-0.6,0-1.1,0.4-1.2,1c0,0.1-0.1,0.3-0.1,0.5
					v3.6h-1v-3.5c0-0.9-0.4-1.6-1.2-1.6c-0.7,0-1.1,0.5-1.3,1.1c-0.1,0.2-0.1,0.3-0.1,0.5v3.5h-1v-4.1H69.2z"/>
				<path d="M79.8,363.7c0,1.4,0.9,2,2,2c0.8,0,1.2-0.1,1.6-0.3l0.2,0.8c-0.4,0.2-1,0.4-1.9,0.4c-1.8,0-2.9-1.2-2.9-2.9
					c0-1.8,1-3.1,2.7-3.1c1.9,0,2.4,1.7,2.4,2.7c0,0.2,0,0.4,0,0.5h-4.1V363.7z M82.9,362.9c0-0.7-0.3-1.7-1.5-1.7
					c-1.1,0-1.5,1-1.6,1.7H82.9z"/>
				<path d="M85.2,362.2c0-0.6,0-1.1,0-1.6h0.9l0.1,1l0,0c0.3-0.6,1-1.1,1.9-1.1c0.8,0,2.1,0.5,2.1,2.5v3.5h-1.1v-3.3
					c0-0.9-0.3-1.7-1.3-1.7c-0.7,0-1.2,0.5-1.4,1.1c0,0.1-0.1,0.3-0.1,0.5v3.5h-1.1V362.2z"/>
				<path d="M93.1,358.9v1.7h1.5v0.8h-1.5v3.1c0,0.7,0.2,1.1,0.8,1.1c0.3,0,0.5,0,0.6-0.1v0.8c-0.2,0.1-0.5,0.1-0.9,0.1
					c-0.5,0-0.9-0.2-1.1-0.4c-0.3-0.3-0.4-0.8-0.4-1.5v-3.2h-0.9v-0.8h0.9v-1.4L93.1,358.9z"/>
			</g>
			<circle class="st3" cx="66.7" cy="329.5" r="4.5"/>
		</g>
		<g>
			<g>
				<path d="M168.8,285.8h-2.4v-0.9h6v0.9h-2.5v7.2h-1.1V285.8z"/>
				<path d="M177.6,290c0,2.1-1.5,3.1-2.9,3.1c-1.6,0-2.8-1.2-2.8-3c0-1.9,1.3-3.1,2.9-3.1C176.5,287.1,177.6,288.3,177.6,290z
					 M173,290.1c0,1.3,0.7,2.2,1.8,2.2c1,0,1.8-0.9,1.8-2.3c0-1-0.5-2.2-1.7-2.2C173.6,287.9,173,289,173,290.1z"/>
				<path d="M180,289.9L180,289.9c0.2-0.2,0.4-0.5,0.5-0.7l1.7-2h1.3l-2.2,2.4l2.6,3.4h-1.3l-2-2.8l-0.5,0.6v2.2h-1v-8.5h1v5.4H180z
					"/>
				<path d="M185.2,290.3c0,1.4,0.9,2,2,2c0.8,0,1.2-0.1,1.6-0.3l0.2,0.8c-0.4,0.2-1,0.4-1.9,0.4c-1.8,0-2.9-1.2-2.9-2.9
					s1-3.1,2.7-3.1c1.9,0,2.4,1.7,2.4,2.7c0,0.2,0,0.4,0,0.5h-4.1V290.3z M188.3,289.5c0-0.7-0.3-1.7-1.5-1.7c-1.1,0-1.5,1-1.6,1.7
					H188.3z"/>
				<path d="M190.6,288.8c0-0.6,0-1.1,0-1.6h0.9l0.1,1l0,0c0.3-0.6,1-1.1,1.9-1.1c0.8,0,2.1,0.5,2.1,2.5v3.5h-1.1v-3.4
					c0-0.9-0.3-1.7-1.3-1.7c-0.7,0-1.2,0.5-1.4,1.1c0,0.1-0.1,0.3-0.1,0.5v3.5h-1.1V288.8z"/>
				<path d="M171.9,306.1c0.5,0.3,1.2,0.5,1.9,0.5c1.1,0,1.7-0.6,1.7-1.4s-0.4-1.2-1.5-1.6c-1.3-0.5-2.1-1.2-2.1-2.3
					c0-1.3,1-2.2,2.6-2.2c0.8,0,1.4,0.2,1.8,0.4l-0.3,0.9c-0.3-0.1-0.8-0.4-1.5-0.4c-1.1,0-1.5,0.7-1.5,1.2c0,0.8,0.5,1.1,1.6,1.6
					c1.4,0.5,2.1,1.2,2.1,2.4c0,1.2-0.9,2.3-2.8,2.3c-0.8,0-1.6-0.2-2.1-0.5L171.9,306.1z"/>
				<path d="M181.2,307.4l-0.1-0.7l0,0c-0.3,0.5-0.9,0.9-1.8,0.9c-1.2,0-1.8-0.8-1.8-1.7c0-1.4,1.2-2.2,3.5-2.2v-0.1
					c0-0.5-0.1-1.3-1.3-1.3c-0.5,0-1.1,0.2-1.5,0.4L178,302c0.5-0.3,1.2-0.5,1.9-0.5c1.8,0,2.2,1.2,2.2,2.4v2.2c0,0.5,0,1,0.1,1.4
					L181.2,307.4L181.2,307.4z M181,304.4c-1.2,0-2.5,0.2-2.5,1.3c0,0.7,0.5,1,1,1c0.8,0,1.2-0.5,1.4-1c0-0.1,0.1-0.2,0.1-0.3V304.4
					z"/>
				<path d="M183.7,298.9h1.1v8.5h-1.1V298.9z"/>
				<path d="M187.1,304.7c0,1.4,0.9,2,2,2c0.8,0,1.2-0.1,1.6-0.3l0.2,0.8c-0.4,0.2-1,0.4-1.9,0.4c-1.8,0-2.9-1.2-2.9-2.9
					c0-1.8,1-3.1,2.7-3.1c1.9,0,2.4,1.7,2.4,2.7c0,0.2,0,0.4,0,0.5h-4.1V304.7z M190.2,303.9c0-0.7-0.3-1.7-1.5-1.7
					c-1.1,0-1.5,1-1.6,1.7H190.2z"/>
			</g>
			<circle class="st4" cx="181.4" cy="270.5" r="4.5"/>
		</g>
		<g>
			<g>
				<path d="M142.4,343.9h4.4v0.9h-3.3v2.7h3.1v0.9h-3.1v3.7h-1v-8.2H142.4z"/>
				<path d="M153.1,349c0,2.1-1.5,3.1-2.9,3.1c-1.6,0-2.8-1.2-2.8-3c0-1.9,1.3-3.1,2.9-3.1C152,346.1,153.1,347.3,153.1,349z
					 M148.5,349.1c0,1.3,0.7,2.2,1.8,2.2c1,0,1.8-0.9,1.8-2.3c0-1-0.5-2.2-1.7-2.2S148.5,348,148.5,349.1z"/>
				<path d="M159.3,350.4c0,0.6,0,1.1,0,1.6h-0.9l-0.1-0.9l0,0c-0.3,0.5-0.9,1.1-1.9,1.1c-0.9,0-2-0.5-2-2.5v-3.4h1.1v3.2
					c0,1.1,0.3,1.8,1.3,1.8c0.7,0,1.2-0.5,1.4-1c0.1-0.2,0.1-0.3,0.1-0.5v-3.6h1.1v4.2H159.3z"/>
				<path d="M161.1,347.8c0-0.6,0-1.1,0-1.6h0.9l0.1,1l0,0c0.3-0.6,1-1.1,1.9-1.1c0.8,0,2.1,0.5,2.1,2.5v3.5H165v-3.4
					c0-0.9-0.3-1.7-1.3-1.7c-0.7,0-1.2,0.5-1.4,1.1c0,0.1-0.1,0.3-0.1,0.5v3.5h-1.1V347.8z"/>
				<path d="M172.8,343.5v7c0,0.5,0,1.1,0,1.5h-0.9v-1l0,0c-0.3,0.6-1,1.1-2,1.1c-1.4,0-2.5-1.2-2.5-3c0-1.9,1.2-3.1,2.6-3.1
					c0.9,0,1.5,0.4,1.8,0.9l0,0v-3.5h1V343.5z M171.7,348.6c0-0.1,0-0.3,0-0.4c-0.2-0.7-0.7-1.2-1.5-1.2c-1.1,0-1.7,1-1.7,2.2
					s0.6,2.1,1.7,2.1c0.7,0,1.4-0.5,1.5-1.3c0-0.1,0-0.3,0-0.5V348.6z"/>
				<path d="M175.7,344.6c0,0.4-0.3,0.6-0.7,0.6c-0.4,0-0.6-0.3-0.6-0.6c0-0.4,0.3-0.7,0.7-0.7C175.4,343.9,175.7,344.2,175.7,344.6
					z M174.5,352v-5.8h1.1v5.8H174.5z"/>
				<path d="M177.3,347.8c0-0.6,0-1.1,0-1.6h0.9l0.1,1l0,0c0.3-0.6,1-1.1,1.9-1.1c0.8,0,2.1,0.5,2.1,2.5v3.5h-1.1v-3.4
					c0-0.9-0.3-1.7-1.3-1.7c-0.7,0-1.2,0.5-1.4,1.1c0,0.1-0.1,0.3-0.1,0.5v3.5h-1.1V347.8z"/>
				<path d="M189,346.2c0,0.4,0,0.9,0,1.6v3.4c0,1.3-0.3,2.1-0.8,2.7c-0.6,0.5-1.4,0.7-2.1,0.7s-1.5-0.2-1.9-0.5l0.3-0.8
					c0.4,0.2,1,0.5,1.7,0.5c1.1,0,1.9-0.6,1.9-2v-0.6l0,0c-0.3,0.5-0.9,1-1.8,1c-1.4,0-2.5-1.2-2.5-2.8c0-2,1.3-3.1,2.6-3.1
					c1,0,1.6,0.5,1.8,1l0,0v-0.9h0.8V346.2z M187.9,348.5c0-0.2,0-0.3-0.1-0.5c-0.2-0.6-0.7-1.1-1.5-1.1c-1,0-1.7,0.9-1.7,2.2
					c0,1.1,0.6,2.1,1.7,2.1c0.6,0,1.2-0.4,1.5-1.1c0.1-0.2,0.1-0.4,0.1-0.6V348.5z"/>
				<path d="M194.3,344.8h-2.5v-0.9h6v0.9h-2.4v7.2h-1.1V344.8z"/>
				<path d="M198.4,349.3c0,1.4,0.9,2,2,2c0.8,0,1.2-0.1,1.6-0.3l0.2,0.8c-0.4,0.2-1,0.4-1.9,0.4c-1.8,0-2.9-1.2-2.9-2.9
					s1-3.1,2.7-3.1c1.9,0,2.4,1.7,2.4,2.7c0,0.2,0,0.4,0,0.5h-4.1V349.3z M201.5,348.5c0-0.7-0.3-1.7-1.5-1.7c-1.1,0-1.5,1-1.6,1.7
					H201.5z"/>
				<path d="M207.1,352l-0.1-0.7l0,0c-0.3,0.5-0.9,0.9-1.8,0.9c-1.2,0-1.8-0.8-1.8-1.7c0-1.4,1.2-2.2,3.5-2.2v-0.1
					c0-0.5-0.1-1.3-1.3-1.3c-0.5,0-1.1,0.2-1.5,0.4l-0.2-0.7c0.5-0.3,1.2-0.5,1.9-0.5c1.8,0,2.2,1.2,2.2,2.4v2.2c0,0.5,0,1,0.1,1.4
					L207.1,352L207.1,352z M206.9,349c-1.2,0-2.5,0.2-2.5,1.3c0,0.7,0.5,1,1,1c0.8,0,1.2-0.5,1.4-1c0-0.1,0.1-0.2,0.1-0.3V349z"/>
				<path d="M209.6,347.8c0-0.6,0-1.1,0-1.6h0.9v0.9l0,0c0.3-0.6,0.9-1.1,1.8-1.1c0.8,0,1.4,0.5,1.6,1.2l0,0
					c0.2-0.3,0.4-0.6,0.6-0.8c0.3-0.3,0.7-0.4,1.3-0.4c0.8,0,1.9,0.5,1.9,2.5v3.4h-1v-3.2c0-1.1-0.4-1.8-1.3-1.8
					c-0.6,0-1.1,0.4-1.2,1c0,0.1-0.1,0.3-0.1,0.5v3.6h-1v-3.5c0-0.9-0.4-1.6-1.2-1.6c-0.7,0-1.1,0.5-1.3,1.1
					c-0.1,0.2-0.1,0.3-0.1,0.5v3.5h-1v-4.2H209.6z"/>
				<path d="M219,353.5c0.3-0.7,0.6-2,0.7-2.9l1.2-0.1c-0.3,1-0.8,2.3-1.1,2.9L219,353.5z"/>
				<path d="M159.3,362.6h-3.1v2.9h3.5v0.9h-4.5v-8.1h4.4v0.9h-3.3v2.6h3.1v0.8H159.3z"/>
				<path d="M161,362.2c0-0.6,0-1.1,0-1.6h0.9v0.9l0,0c0.3-0.6,0.9-1.1,1.8-1.1c0.8,0,1.4,0.5,1.6,1.2l0,0c0.2-0.3,0.4-0.6,0.6-0.8
					c0.3-0.3,0.7-0.4,1.3-0.4c0.8,0,1.9,0.5,1.9,2.5v3.4h-1V363c0-1.1-0.4-1.8-1.3-1.8c-0.6,0-1.1,0.4-1.2,1c0,0.1-0.1,0.3-0.1,0.5
					v3.6h-1v-3.5c0-0.9-0.4-1.6-1.2-1.6c-0.7,0-1.1,0.5-1.3,1.1c-0.1,0.2-0.1,0.3-0.1,0.5v3.5h-1v-4.1H161z"/>
				<path d="M171,362.5c0-0.7,0-1.3,0-1.9h0.9v1l0,0c0.4-0.7,1.1-1.1,2.1-1.1c1.4,0,2.5,1.2,2.5,2.9c0,2.1-1.3,3.1-2.6,3.1
					c-0.8,0-1.4-0.3-1.8-0.9l0,0v3.2h-1v-6.3H171z M172,364c0,0.2,0,0.3,0,0.4c0.2,0.7,0.8,1.2,1.6,1.2c1.1,0,1.8-0.9,1.8-2.2
					c0-1.2-0.6-2.2-1.7-2.2c-0.7,0-1.4,0.5-1.6,1.3c0,0.1-0.1,0.3-0.1,0.4L172,364L172,364z"/>
				<path d="M177.8,357.9h1.1v8.5h-1.1V357.9z"/>
				<path d="M185.9,363.5c0,2.1-1.5,3.1-2.9,3.1c-1.6,0-2.8-1.2-2.8-3c0-1.9,1.3-3.1,2.9-3.1C184.8,360.5,185.9,361.7,185.9,363.5z
					 M181.3,363.5c0,1.3,0.7,2.2,1.8,2.2c1,0,1.8-0.9,1.8-2.3c0-1-0.5-2.2-1.7-2.2S181.3,362.4,181.3,363.5z"/>
				<path d="M187.5,360.6l1.3,3.4c0.1,0.4,0.3,0.8,0.4,1.2l0,0c0.1-0.3,0.2-0.8,0.4-1.2l1.2-3.4h1.1l-1.6,4.1c-0.8,2-1.3,3-2,3.6
					c-0.5,0.5-1,0.6-1.3,0.7l-0.3-0.9c0.3-0.1,0.6-0.3,0.9-0.5s0.6-0.6,0.9-1.2c0-0.1,0.1-0.2,0.1-0.3c0-0.1,0-0.1-0.1-0.3l-2.1-5.3
					L187.5,360.6L187.5,360.6z"/>
				<path d="M193.3,363.7c0,1.4,0.9,2,2,2c0.8,0,1.2-0.1,1.6-0.3l0.2,0.8c-0.4,0.2-1,0.4-1.9,0.4c-1.8,0-2.9-1.2-2.9-2.9
					c0-1.8,1-3.1,2.7-3.1c1.9,0,2.4,1.7,2.4,2.7c0,0.2,0,0.4,0,0.5h-4.1V363.7z M196.4,362.9c0-0.7-0.3-1.7-1.5-1.7
					c-1.1,0-1.5,1-1.6,1.7H196.4z"/>
				<path d="M199.3,363.7c0,1.4,0.9,2,2,2c0.8,0,1.2-0.1,1.6-0.3l0.2,0.8c-0.4,0.2-1,0.4-1.9,0.4c-1.8,0-2.9-1.2-2.9-2.9
					c0-1.8,1-3.1,2.7-3.1c1.9,0,2.4,1.7,2.4,2.7c0,0.2,0,0.4,0,0.5h-4.1V363.7z M202.4,362.9c0-0.7-0.3-1.7-1.5-1.7
					c-1.1,0-1.5,1-1.6,1.7H202.4z"/>
				<path d="M204.6,365.3c0.3,0.2,0.9,0.4,1.4,0.4c0.8,0,1.1-0.4,1.1-0.9s-0.3-0.8-1.1-1.1c-1-0.4-1.5-0.9-1.5-1.6
					c0-0.9,0.8-1.7,2-1.7c0.6,0,1.1,0.2,1.4,0.4l-0.3,0.8c-0.2-0.1-0.6-0.3-1.2-0.3s-1,0.4-1,0.8c0,0.5,0.3,0.7,1.1,1
					c1,0.4,1.5,0.9,1.5,1.8c0,1-0.8,1.7-2.2,1.7c-0.6,0-1.2-0.2-1.6-0.4L204.6,365.3z"/>
			</g>
			<circle class="st2" cx="181.4" cy="329.5" r="4.5"/>
		</g>
	</g>
	<g>
		<g>
			<g>
				<path d="M381.6,223.2h-3.2v2.9h3.5v0.9h-4.5v-8.1h4.4v0.9h-3.4v2.6h3.1v0.8H381.6z"/>
				<path d="M386.5,227l-0.1-0.7l0,0c-0.3,0.5-0.9,0.9-1.8,0.9c-1.2,0-1.8-0.8-1.8-1.7c0-1.4,1.2-2.2,3.5-2.2v-0.1
					c0-0.5-0.1-1.3-1.3-1.3c-0.5,0-1.1,0.2-1.5,0.4l-0.2-0.7c0.5-0.3,1.2-0.5,1.9-0.5c1.8,0,2.2,1.2,2.2,2.4v2.2c0,0.5,0,1,0.1,1.4
					L386.5,227L386.5,227z M386.3,224c-1.2,0-2.5,0.2-2.5,1.3c0,0.7,0.5,1,1,1c0.8,0,1.2-0.5,1.4-1c0-0.1,0.1-0.2,0.1-0.3V224z"/>
				<path d="M389,223c0-0.7,0-1.3,0-1.8h0.9v1.1l0,0c0.3-0.8,0.9-1.3,1.6-1.3c0.1,0,0.2,0,0.3,0v1c-0.1,0-0.2,0-0.4,0
					c-0.7,0-1.3,0.6-1.4,1.4c0,0.1,0,0.3,0,0.5v3.1h-1L389,223L389,223z"/>
				<path d="M393,218.5h1.1v8.5H393V218.5z"/>
				<path d="M396.2,221.2l1.3,3.4c0.1,0.4,0.3,0.8,0.4,1.2l0,0c0.1-0.3,0.2-0.8,0.4-1.2l1.2-3.4h1.1l-1.6,4.1c-0.8,2-1.3,3-2,3.6
					c-0.5,0.5-1,0.6-1.3,0.7l-0.3-0.9c0.3-0.1,0.6-0.3,0.9-0.5c0.3-0.2,0.6-0.6,0.9-1.2c0-0.1,0.1-0.2,0.1-0.3s0-0.1-0.1-0.3
					l-2.1-5.3L396.2,221.2L396.2,221.2z"/>
				<path d="M405.1,218.9v8.1h-1v-8.1H405.1z"/>
				<path d="M407,222.8c0-0.6,0-1.1,0-1.6h0.9l0.1,1l0,0c0.3-0.6,1-1.1,1.9-1.1c0.8,0,2.1,0.5,2.1,2.5v3.5h-1.1v-3.4
					c0-0.9-0.3-1.7-1.3-1.7c-0.7,0-1.2,0.5-1.4,1.1c0,0.1-0.1,0.3-0.1,0.5v3.5H407L407,222.8L407,222.8z"/>
				<path d="M413.9,221.2l1.1,3.3c0.2,0.5,0.3,1,0.5,1.5l0,0c0.1-0.5,0.3-1,0.5-1.5l1.1-3.3h1.1l-2.3,5.8h-1l-2.2-5.8H413.9z"/>
				<path d="M419.8,224.3c0,1.4,0.9,2,2,2c0.8,0,1.2-0.1,1.6-0.3l0.2,0.8c-0.4,0.2-1,0.4-1.9,0.4c-1.8,0-2.9-1.2-2.9-2.9
					s1-3.1,2.7-3.1c1.9,0,2.4,1.7,2.4,2.7c0,0.2,0,0.4,0,0.5h-4.1V224.3z M422.9,223.5c0-0.7-0.3-1.7-1.5-1.7c-1.1,0-1.5,1-1.6,1.7
					H422.9z"/>
				<path d="M425,225.9c0.3,0.2,0.9,0.4,1.4,0.4c0.8,0,1.1-0.4,1.1-0.9s-0.3-0.8-1.1-1.1c-1-0.4-1.5-0.9-1.5-1.6
					c0-0.9,0.8-1.7,2-1.7c0.6,0,1.1,0.2,1.4,0.4l-0.3,0.8c-0.2-0.1-0.6-0.3-1.2-0.3c-0.6,0-1,0.4-1,0.8c0,0.5,0.3,0.7,1.1,1
					c1,0.4,1.5,0.9,1.5,1.8c0,1-0.8,1.7-2.2,1.7c-0.6,0-1.2-0.2-1.6-0.4L425,225.9z"/>
				<path d="M431.2,219.5v1.7h1.5v0.8h-1.5v3.1c0,0.7,0.2,1.1,0.8,1.1c0.3,0,0.5,0,0.6-0.1v0.8c-0.2,0.1-0.5,0.1-0.9,0.1
					c-0.5,0-0.9-0.2-1.1-0.4c-0.3-0.3-0.4-0.8-0.4-1.5v-3.2h-0.9v-0.8h0.9v-1.4L431.2,219.5z"/>
				<path d="M439.1,224c0,2.1-1.5,3.1-2.9,3.1c-1.6,0-2.8-1.2-2.8-3c0-1.9,1.3-3.1,2.9-3.1C438,221.1,439.1,222.3,439.1,224z
					 M434.5,224.1c0,1.3,0.7,2.2,1.8,2.2c1,0,1.8-0.9,1.8-2.3c0-1-0.5-2.2-1.7-2.2C435,221.9,434.5,223,434.5,224.1z"/>
				<path d="M440.4,223c0-0.7,0-1.3,0-1.8h0.9v1.1l0,0c0.3-0.8,0.9-1.3,1.6-1.3c0.1,0,0.2,0,0.3,0v1c-0.1,0-0.2,0-0.4,0
					c-0.7,0-1.3,0.6-1.4,1.4c0,0.1,0,0.3,0,0.5v3.1h-1L440.4,223L440.4,223z"/>
				<path d="M443,228.5c0.3-0.7,0.6-2,0.7-2.9l1.2-0.1c-0.3,1-0.8,2.3-1.1,2.9L443,228.5z"/>
				<path d="M394.2,238.9l-0.8,2.5h-1.1l2.7-8.1h1.3l2.8,8.1H398l-0.9-2.5H394.2z M396.9,238l-0.8-2.3c-0.2-0.5-0.3-1-0.4-1.5l0,0
					c-0.1,0.5-0.3,1-0.4,1.5l-0.8,2.3H396.9z"/>
				<path d="M405.1,232.9v7c0,0.5,0,1.1,0,1.5h-0.9v-1l0,0c-0.3,0.6-1,1.1-2,1.1c-1.4,0-2.5-1.2-2.5-3c0-1.9,1.2-3.1,2.6-3.1
					c0.9,0,1.5,0.4,1.8,0.9l0,0v-3.5h1V232.9z M404,238c0-0.1,0-0.3,0-0.4c-0.2-0.7-0.7-1.2-1.5-1.2c-1.1,0-1.7,1-1.7,2.2
					s0.6,2.1,1.7,2.1c0.7,0,1.4-0.5,1.5-1.3c0-0.1,0-0.3,0-0.5V238z"/>
				<path d="M407.2,235.6l1.1,3.3c0.2,0.5,0.3,1,0.5,1.5l0,0c0.1-0.5,0.3-1,0.5-1.5l1.1-3.3h1.1l-2.3,5.8h-1l-2.2-5.8H407.2z"/>
				<path d="M413.8,234c0,0.4-0.3,0.6-0.7,0.6s-0.6-0.3-0.6-0.6c0-0.4,0.3-0.7,0.7-0.7C413.5,233.3,413.8,233.6,413.8,234z
					 M412.6,241.4v-5.8h1.1v5.8H412.6z"/>
				<path d="M415.3,240.3c0.3,0.2,0.9,0.4,1.4,0.4c0.8,0,1.1-0.4,1.1-0.9s-0.3-0.8-1.1-1.1c-1-0.4-1.5-0.9-1.5-1.6
					c0-0.9,0.8-1.7,2-1.7c0.6,0,1.1,0.2,1.4,0.4l-0.3,0.8c-0.2-0.1-0.6-0.3-1.2-0.3c-0.6,0-1,0.4-1,0.8c0,0.5,0.3,0.7,1.1,1
					c1,0.4,1.5,0.9,1.5,1.8c0,1-0.8,1.7-2.2,1.7c-0.6,0-1.2-0.2-1.6-0.4L415.3,240.3z"/>
				<path d="M425.4,238.5c0,2.1-1.5,3.1-2.9,3.1c-1.6,0-2.8-1.2-2.8-3c0-1.9,1.3-3.1,2.9-3.1C424.3,235.5,425.4,236.7,425.4,238.5z
					 M420.8,238.5c0,1.3,0.7,2.2,1.8,2.2c1,0,1.8-0.9,1.8-2.3c0-1-0.5-2.2-1.7-2.2S420.8,237.4,420.8,238.5z"/>
				<path d="M426.8,237.4c0-0.7,0-1.3,0-1.8h0.9v1.1l0,0c0.3-0.8,0.9-1.3,1.6-1.3c0.1,0,0.2,0,0.3,0v1c-0.1,0-0.2,0-0.4,0
					c-0.7,0-1.3,0.6-1.4,1.4c0,0.1,0,0.3,0,0.5v3.1h-1L426.8,237.4L426.8,237.4z"/>
			</g>
			<circle class="st3" cx="410.9" cy="204.5" r="4.5"/>
		</g>
		<g>
			<g>
				<path d="M358.6,278c0.5-0.1,1.2-0.2,1.9-0.2c1,0,1.7,0.2,2.2,0.6c0.4,0.3,0.7,0.8,0.7,1.4c0,0.8-0.5,1.5-1.4,1.8l0,0
					c0.8,0.2,1.7,0.8,1.7,2c0,0.7-0.3,1.2-0.7,1.6c-0.6,0.5-1.5,0.8-2.8,0.8c-0.7,0-1.3,0-1.6-0.1L358.6,278L358.6,278z
					 M359.7,281.3h0.9c1.1,0,1.8-0.6,1.8-1.4c0-0.9-0.7-1.3-1.8-1.3c-0.5,0-0.8,0-0.9,0.1V281.3z M359.7,285.2c0.2,0,0.5,0,0.9,0
					c1.1,0,2.1-0.4,2.1-1.6c0-1.1-0.9-1.6-2.1-1.6h-0.9V285.2z"/>
				<path d="M370.4,283c0,2.1-1.5,3.1-2.9,3.1c-1.6,0-2.8-1.2-2.8-3c0-1.9,1.3-3.1,2.9-3.1C369.3,280.1,370.4,281.3,370.4,283z
					 M365.8,283.1c0,1.3,0.7,2.2,1.8,2.2c1,0,1.8-0.9,1.8-2.3c0-1-0.5-2.2-1.7-2.2S365.8,282,365.8,283.1z"/>
				<path d="M376.6,284.4c0,0.6,0,1.1,0,1.6h-0.9l-0.1-0.9l0,0c-0.3,0.5-0.9,1.1-1.9,1.1c-0.9,0-2-0.5-2-2.5v-3.4h1.1v3.2
					c0,1.1,0.3,1.8,1.3,1.8c0.7,0,1.2-0.5,1.4-1c0.1-0.2,0.1-0.3,0.1-0.5v-3.6h1.1L376.6,284.4L376.6,284.4z"/>
				<path d="M378.4,281.8c0-0.6,0-1.1,0-1.6h0.9l0.1,1l0,0c0.3-0.6,1-1.1,1.9-1.1c0.8,0,2.1,0.5,2.1,2.5v3.5h-1.1v-3.4
					c0-0.9-0.3-1.7-1.3-1.7c-0.7,0-1.2,0.5-1.4,1.1c0,0.1-0.1,0.3-0.1,0.5v3.5h-1.1V281.8z"/>
				<path d="M386.2,278.5v1.7h1.5v0.8h-1.5v3.1c0,0.7,0.2,1.1,0.8,1.1c0.3,0,0.5,0,0.6-0.1v0.8c-0.2,0.1-0.5,0.1-0.9,0.1
					c-0.5,0-0.9-0.2-1.1-0.4c-0.3-0.3-0.4-0.8-0.4-1.5v-3.2h-0.9v-0.8h0.9v-1.4L386.2,278.5z"/>
				<path d="M389.4,280.2l1.3,3.4c0.1,0.4,0.3,0.8,0.4,1.2l0,0c0.1-0.3,0.2-0.8,0.4-1.2l1.2-3.4h1.1l-1.6,4.1c-0.8,2-1.3,3-2,3.6
					c-0.5,0.5-1,0.6-1.3,0.7l-0.3-0.9c0.3-0.1,0.6-0.3,0.9-0.5c0.3-0.2,0.6-0.6,0.9-1.2c0-0.1,0.1-0.2,0.1-0.3s0-0.1-0.1-0.3
					l-2.1-5.3L389.4,280.2L389.4,280.2z"/>
				<path d="M393.5,287.5c0.3-0.7,0.6-2,0.7-2.9l1.2-0.1c-0.3,1-0.8,2.3-1.1,2.9L393.5,287.5z"/>
				<path d="M406.2,281.9c0,2.8-1.7,4.3-3.8,4.3s-3.6-1.7-3.6-4.1c0-2.6,1.6-4.2,3.8-4.2C404.8,277.8,406.2,279.5,406.2,281.9z
					 M399.9,282c0,1.7,0.9,3.3,2.6,3.3c1.7,0,2.6-1.5,2.6-3.4c0-1.6-0.8-3.3-2.6-3.3C400.8,278.6,399.9,280.2,399.9,282z"/>
				<path d="M407.5,281.8c0-0.6,0-1.1,0-1.6h0.9v0.9l0,0c0.3-0.6,0.9-1.1,1.8-1.1c0.8,0,1.4,0.5,1.6,1.2l0,0
					c0.2-0.3,0.4-0.6,0.6-0.8c0.3-0.3,0.7-0.4,1.3-0.4c0.8,0,1.9,0.5,1.9,2.5v3.4h-1v-3.2c0-1.1-0.4-1.8-1.3-1.8
					c-0.6,0-1.1,0.4-1.2,1c0,0.1-0.1,0.3-0.1,0.5v3.6h-1v-3.5c0-0.9-0.4-1.6-1.2-1.6c-0.7,0-1.1,0.5-1.3,1.1
					c-0.1,0.2-0.1,0.3-0.1,0.5v3.5h-1L407.5,281.8L407.5,281.8z"/>
				<path d="M417.5,286c0-0.4,0-1,0-1.5v-7h1v3.6l0,0c0.4-0.6,1-1.1,2-1.1c1.4,0,2.5,1.2,2.4,3c0,2.1-1.3,3.1-2.6,3.1
					c-0.8,0-1.5-0.3-1.9-1.1l0,0v1H417.5z M418.6,283.7c0,0.1,0,0.3,0,0.4c0.2,0.7,0.8,1.2,1.6,1.2c1.1,0,1.8-0.9,1.8-2.2
					c0-1.2-0.6-2.2-1.7-2.2c-0.7,0-1.4,0.5-1.6,1.3c0,0.1-0.1,0.3-0.1,0.4V283.7z"/>
				<path d="M429.2,284.4c0,0.6,0,1.1,0,1.6h-0.9l-0.1-0.9l0,0c-0.3,0.5-0.9,1.1-1.9,1.1c-0.9,0-2-0.5-2-2.5v-3.4h1.1v3.2
					c0,1.1,0.3,1.8,1.3,1.8c0.7,0,1.2-0.5,1.4-1c0.1-0.2,0.1-0.3,0.1-0.5v-3.6h1.1L429.2,284.4L429.2,284.4z"/>
				<path d="M436,277.5v7c0,0.5,0,1.1,0,1.5h-0.9v-1l0,0c-0.3,0.6-1,1.1-2,1.1c-1.4,0-2.5-1.2-2.5-3c0-1.9,1.2-3.1,2.6-3.1
					c0.9,0,1.5,0.4,1.8,0.9l0,0v-3.5h1V277.5z M434.9,282.6c0-0.1,0-0.3,0-0.4c-0.2-0.7-0.7-1.2-1.5-1.2c-1.1,0-1.7,1-1.7,2.2
					s0.6,2.1,1.7,2.1c0.7,0,1.4-0.5,1.5-1.3c0-0.1,0-0.3,0-0.5V282.6z"/>
				<path d="M437.6,284.9c0.3,0.2,0.9,0.4,1.4,0.4c0.8,0,1.1-0.4,1.1-0.9s-0.3-0.8-1.1-1.1c-1-0.4-1.5-0.9-1.5-1.6
					c0-0.9,0.8-1.7,2-1.7c0.6,0,1.1,0.2,1.4,0.4l-0.3,0.8c-0.2-0.1-0.6-0.3-1.2-0.3c-0.6,0-1,0.4-1,0.8c0,0.5,0.3,0.7,1.1,1
					c1,0.4,1.5,0.9,1.5,1.8c0,1-0.8,1.7-2.2,1.7c-0.6,0-1.2-0.2-1.6-0.4L437.6,284.9z"/>
				<path d="M442.5,281.8c0-0.6,0-1.1,0-1.6h0.9v0.9l0,0c0.3-0.6,0.9-1.1,1.8-1.1c0.8,0,1.4,0.5,1.6,1.2l0,0
					c0.2-0.3,0.4-0.6,0.6-0.8c0.3-0.3,0.7-0.4,1.3-0.4c0.8,0,1.9,0.5,1.9,2.5v3.4h-1v-3.2c0-1.1-0.4-1.8-1.3-1.8
					c-0.6,0-1.1,0.4-1.2,1c0,0.1-0.1,0.3-0.1,0.5v3.6h-1v-3.5c0-0.9-0.4-1.6-1.2-1.6c-0.7,0-1.1,0.5-1.3,1.1
					c-0.1,0.2-0.1,0.3-0.1,0.5v3.5h-1L442.5,281.8L442.5,281.8z"/>
				<path d="M455.7,286l-0.1-0.7l0,0c-0.3,0.5-0.9,0.9-1.8,0.9c-1.2,0-1.8-0.8-1.8-1.7c0-1.4,1.2-2.2,3.5-2.2v-0.1
					c0-0.5-0.1-1.3-1.3-1.3c-0.5,0-1.1,0.2-1.5,0.4l-0.2-0.7c0.5-0.3,1.2-0.5,1.9-0.5c1.8,0,2.2,1.2,2.2,2.4v2.2c0,0.5,0,1,0.1,1.4
					L455.7,286L455.7,286z M455.6,283c-1.2,0-2.5,0.2-2.5,1.3c0,0.7,0.5,1,1,1c0.8,0,1.2-0.5,1.4-1c0-0.1,0.1-0.2,0.1-0.3V283z"/>
				<path d="M458.3,281.8c0-0.6,0-1.1,0-1.6h0.9l0.1,1l0,0c0.3-0.6,1-1.1,1.9-1.1c0.8,0,2.1,0.5,2.1,2.5v3.5h-1.1v-3.4
					c0-0.9-0.3-1.7-1.3-1.7c-0.7,0-1.2,0.5-1.4,1.1c0,0.1-0.1,0.3-0.1,0.5v3.5h-1.1L458.3,281.8L458.3,281.8z"/>
			</g>
			<circle class="st5" cx="410.9" cy="263.5" r="4.5"/>
		</g>
	</g>
	<g>
		<path class="st6" d="M51.2,144.2c0.6,0,1.1,0.1,1.5,0.2c0.5,0.2,0.8,0.4,1.2,0.7c0.3,0.3,0.6,0.6,0.7,1c0.2,0.4,0.3,0.8,0.3,1.3
			c0,0.4,0,0.7-0.1,1s-0.2,0.6-0.4,0.8c-0.2,0.2-0.4,0.4-0.6,0.6s-0.5,0.3-0.8,0.4c0.7,0.2,1.3,0.6,1.7,1.1c0.4,0.5,0.5,1.1,0.5,1.8
			c0,0.6-0.1,1.2-0.3,1.6c-0.2,0.5-0.5,0.9-0.9,1.2s-0.8,0.6-1.3,0.7c-0.5,0.2-1,0.2-1.6,0.2s-1.2-0.1-1.6-0.2s-0.9-0.4-1.2-0.6
			c-0.3-0.3-0.6-0.6-0.9-1c-0.2-0.4-0.4-0.9-0.6-1.4l0.9-0.4c0.2-0.1,0.3-0.1,0.5-0.1c0.1,0,0.3,0,0.4,0.1s0.2,0.2,0.3,0.3
			c0.1,0.2,0.2,0.4,0.3,0.6c0.1,0.2,0.3,0.4,0.4,0.5c0.2,0.2,0.4,0.3,0.6,0.4c0.2,0.1,0.5,0.1,0.8,0.1c0.4,0,0.7-0.1,0.9-0.2
			c0.3-0.1,0.5-0.3,0.7-0.5s0.3-0.4,0.4-0.6c0.1-0.2,0.1-0.5,0.1-0.7c0-0.3,0-0.6-0.1-0.8s-0.2-0.4-0.4-0.6
			c-0.2-0.2-0.5-0.3-0.9-0.4c-0.4-0.1-0.9-0.1-1.5-0.1v-1.5c0.5,0,0.9,0,1.3-0.1c0.3-0.1,0.6-0.2,0.8-0.4c0.2-0.2,0.3-0.4,0.4-0.6
			c0.1-0.2,0.1-0.5,0.1-0.8c0-0.6-0.2-1-0.5-1.3s-0.8-0.4-1.3-0.4s-0.9,0.1-1.2,0.4c-0.3,0.3-0.6,0.6-0.7,1
			c-0.1,0.2-0.2,0.4-0.3,0.5c-0.1,0.1-0.3,0.1-0.5,0.1c-0.1,0-0.2,0-0.3,0l-1.1-0.2c0.1-0.6,0.2-1.1,0.5-1.6
			c0.2-0.4,0.5-0.8,0.9-1.1s0.8-0.5,1.3-0.7S50.7,144.2,51.2,144.2z"/>
		<path class="st6" d="M61.5,149c0.5,0,0.9,0.1,1.4,0.2c0.4,0.2,0.8,0.4,1.2,0.7c0.3,0.3,0.6,0.7,0.8,1.2s0.3,1,0.3,1.6
			s-0.1,1.1-0.3,1.6c-0.2,0.5-0.5,0.9-0.9,1.3s-0.8,0.7-1.4,0.9s-1.1,0.3-1.8,0.3c-0.7,0-1.3-0.1-1.8-0.3s-1-0.5-1.3-0.9
			s-0.7-0.8-0.8-1.4c-0.2-0.5-0.3-1.1-0.3-1.8c0-0.6,0.1-1.2,0.4-1.8c0.2-0.6,0.6-1.2,1.1-1.9l2.9-3.9c0.1-0.1,0.3-0.3,0.4-0.3
			c0.2-0.1,0.4-0.1,0.7-0.1H64l-3.7,4.5c-0.1,0.1-0.2,0.2-0.2,0.3c-0.1,0.1-0.1,0.2-0.2,0.3c0.2-0.1,0.5-0.2,0.8-0.3
			C60.9,149,61.2,149,61.5,149z M58.5,152.8c0,0.3,0,0.7,0.1,0.9c0.1,0.3,0.2,0.5,0.4,0.7c0.2,0.2,0.4,0.4,0.7,0.5s0.6,0.2,0.9,0.2
			s0.6-0.1,0.9-0.2s0.5-0.3,0.7-0.5s0.4-0.4,0.5-0.7s0.2-0.6,0.2-0.9c0-0.4-0.1-0.7-0.2-1s-0.3-0.5-0.5-0.7s-0.4-0.3-0.7-0.4
			c-0.3-0.1-0.6-0.2-0.9-0.2s-0.6,0.1-0.9,0.2c-0.3,0.1-0.5,0.3-0.7,0.5s-0.3,0.4-0.5,0.7C58.6,152.2,58.5,152.5,58.5,152.8z"/>
		<path class="st6" d="M71.9,147.3c0,0.5-0.1,0.9-0.2,1.3c-0.2,0.4-0.4,0.7-0.6,1c-0.3,0.3-0.6,0.5-0.9,0.6s-0.7,0.2-1.1,0.2
			s-0.8-0.1-1.1-0.2s-0.6-0.3-0.9-0.6s-0.5-0.6-0.6-1s-0.2-0.8-0.2-1.3s0.1-0.9,0.2-1.3s0.3-0.7,0.6-1s0.6-0.5,0.9-0.6
			s0.7-0.2,1.1-0.2s0.8,0.1,1.1,0.2s0.7,0.4,0.9,0.6s0.5,0.6,0.6,1S71.9,146.8,71.9,147.3z M76,144.7c0.1-0.1,0.2-0.2,0.3-0.2
			c0.1-0.1,0.2-0.1,0.4-0.1h1.5l-9.2,12c-0.1,0.1-0.2,0.2-0.3,0.2c-0.1,0.1-0.2,0.1-0.4,0.1h-1.6L76,144.7z M70.2,147.3
			c0-0.3,0-0.6-0.1-0.8s-0.1-0.4-0.3-0.5c-0.1-0.1-0.2-0.2-0.4-0.3c-0.2-0.1-0.3-0.1-0.5-0.1s-0.3,0-0.5,0.1
			c-0.1,0.1-0.3,0.2-0.4,0.3s-0.2,0.3-0.3,0.5s-0.1,0.5-0.1,0.8s0,0.6,0.1,0.8s0.1,0.4,0.3,0.5s0.2,0.2,0.4,0.3
			c0.1,0.1,0.3,0.1,0.5,0.1s0.3,0,0.5-0.1s0.3-0.2,0.4-0.3s0.2-0.3,0.3-0.5C70.2,147.9,70.2,147.6,70.2,147.3z M78.8,153.8
			c0,0.5-0.1,0.9-0.2,1.3c-0.2,0.4-0.4,0.7-0.6,1c-0.3,0.3-0.6,0.5-0.9,0.6s-0.7,0.2-1.1,0.2s-0.8-0.1-1.1-0.2s-0.6-0.3-0.9-0.6
			s-0.5-0.6-0.6-1s-0.2-0.8-0.2-1.3s0.1-0.9,0.2-1.3s0.3-0.7,0.6-1s0.6-0.5,0.9-0.6s0.7-0.2,1.1-0.2s0.8,0.1,1.1,0.2
			s0.7,0.4,0.9,0.6c0.3,0.3,0.5,0.6,0.6,1S78.8,153.3,78.8,153.8z M77.2,153.8c0-0.3,0-0.6-0.1-0.8s-0.2-0.4-0.3-0.5
			c-0.1-0.1-0.2-0.2-0.4-0.3c-0.2-0.1-0.3-0.1-0.5-0.1s-0.3,0-0.5,0.1c-0.1,0.1-0.3,0.2-0.4,0.3s-0.2,0.3-0.3,0.5
			c-0.1,0.2-0.1,0.5-0.1,0.8s0,0.6,0.1,0.8s0.1,0.4,0.3,0.5c0.1,0.1,0.2,0.2,0.4,0.3c0.1,0.1,0.3,0.1,0.5,0.1s0.3,0,0.5-0.1
			s0.3-0.2,0.4-0.3s0.2-0.3,0.3-0.5C77.2,154.4,77.2,154.1,77.2,153.8z"/>
	</g>
	<g>
		<path class="st6" d="M119.3,49.5c0.6,0,1.1,0.1,1.6,0.3c0.5,0.2,0.9,0.4,1.2,0.7c0.3,0.3,0.6,0.7,0.8,1.1c0.2,0.4,0.3,0.9,0.3,1.4
			s-0.1,0.9-0.2,1.3s-0.3,0.8-0.5,1.1s-0.5,0.7-0.8,1s-0.6,0.7-0.9,1l-2.8,2.8c0.3-0.1,0.5-0.1,0.8-0.2c0.3,0,0.5-0.1,0.8-0.1h3.2
			c0.2,0,0.4,0.1,0.5,0.2s0.2,0.3,0.2,0.5v1.3H115v-0.7c0-0.1,0-0.3,0.1-0.4s0.2-0.3,0.3-0.4l3.7-3.8c0.3-0.3,0.6-0.6,0.8-0.9
			c0.2-0.3,0.5-0.6,0.6-0.9c0.2-0.3,0.3-0.6,0.4-0.9s0.1-0.6,0.1-0.9s0-0.6-0.1-0.8s-0.2-0.4-0.4-0.6s-0.3-0.3-0.6-0.3
			s-0.5-0.1-0.7-0.1c-0.5,0-0.9,0.1-1.2,0.4c-0.3,0.3-0.6,0.6-0.7,1c-0.1,0.2-0.2,0.4-0.3,0.5s-0.3,0.1-0.5,0.1c-0.1,0-0.2,0-0.3,0
			l-1.1-0.2c0.1-0.6,0.2-1.1,0.5-1.6c0.2-0.4,0.5-0.8,0.9-1.1s0.8-0.5,1.3-0.7C118.2,49.6,118.8,49.5,119.3,49.5z"/>
		<path class="st6" d="M129,62.2c-0.6,0-1.2-0.1-1.7-0.3c-0.5-0.2-1-0.4-1.4-0.7c-0.4-0.3-0.7-0.7-0.9-1.1s-0.3-0.9-0.3-1.5
			c0-0.7,0.2-1.3,0.5-1.8s0.9-0.9,1.7-1.1c-0.6-0.2-1.1-0.6-1.4-1.1s-0.4-1-0.4-1.7c0-0.5,0.1-0.9,0.3-1.3c0.2-0.4,0.5-0.8,0.8-1.1
			c0.3-0.3,0.7-0.5,1.2-0.7s1-0.3,1.6-0.3s1.1,0.1,1.6,0.3c0.5,0.2,0.9,0.4,1.2,0.7c0.3,0.3,0.6,0.6,0.8,1.1
			c0.2,0.4,0.3,0.8,0.3,1.3c0,0.6-0.2,1.2-0.5,1.7s-0.8,0.8-1.3,1.1c0.8,0.2,1.3,0.6,1.7,1.1c0.4,0.5,0.5,1.1,0.5,1.8
			c0,0.5-0.1,1-0.3,1.5s-0.5,0.8-0.9,1.1c-0.4,0.3-0.8,0.6-1.4,0.7C130.2,62.1,129.6,62.2,129,62.2z M129,60.5c0.3,0,0.7,0,0.9-0.1
			s0.5-0.2,0.7-0.4c0.2-0.2,0.3-0.4,0.4-0.6s0.1-0.5,0.1-0.8c0-0.7-0.2-1.2-0.6-1.5s-0.9-0.5-1.6-0.5s-1.2,0.2-1.6,0.5
			s-0.6,0.9-0.6,1.5c0,0.3,0,0.5,0.1,0.8c0.1,0.2,0.2,0.5,0.4,0.6s0.4,0.3,0.7,0.4C128.3,60.5,128.7,60.5,129,60.5z M129,54.8
			c0.3,0,0.6-0.1,0.9-0.2c0.2-0.1,0.4-0.3,0.6-0.4c0.1-0.2,0.2-0.4,0.3-0.6c0.1-0.2,0.1-0.5,0.1-0.7s0-0.5-0.1-0.7s-0.2-0.4-0.3-0.6
			s-0.3-0.3-0.6-0.4c-0.2-0.1-0.5-0.1-0.8-0.1s-0.6,0-0.8,0.1c-0.2,0.1-0.4,0.2-0.6,0.4c-0.2,0.2-0.3,0.3-0.3,0.6
			c-0.1,0.2-0.1,0.4-0.1,0.7c0,0.2,0,0.5,0.1,0.7s0.2,0.4,0.3,0.6c0.1,0.2,0.3,0.3,0.6,0.4C128.6,54.7,128.7,54.8,129,54.8z"/>
		<path class="st6" d="M140.2,52.7c0,0.5-0.1,0.9-0.2,1.3c-0.2,0.4-0.4,0.7-0.6,1c-0.3,0.3-0.6,0.5-0.9,0.6s-0.7,0.2-1.1,0.2
			s-0.8-0.1-1.1-0.2s-0.6-0.3-0.9-0.6c-0.3-0.3-0.5-0.6-0.6-1s-0.2-0.8-0.2-1.3s0.1-0.9,0.2-1.3s0.3-0.7,0.6-1s0.6-0.5,0.9-0.6
			s0.7-0.2,1.1-0.2s0.8,0.1,1.1,0.2s0.7,0.4,0.9,0.6s0.5,0.6,0.6,1S140.2,52.2,140.2,52.7z M144.3,50c0.1-0.1,0.2-0.2,0.3-0.2
			c0.1-0.1,0.2-0.1,0.4-0.1h1.5l-9.2,12c-0.1,0.1-0.2,0.2-0.3,0.2c-0.1,0.1-0.2,0.1-0.4,0.1H135L144.3,50z M138.5,52.7
			c0-0.3,0-0.6-0.1-0.8s-0.1-0.4-0.3-0.5c-0.1-0.1-0.2-0.2-0.4-0.3c-0.2-0.1-0.3-0.1-0.5-0.1s-0.3,0-0.5,0.1
			c-0.1,0.1-0.3,0.2-0.4,0.3c-0.1,0.1-0.2,0.3-0.3,0.5s-0.1,0.5-0.1,0.8s0,0.6,0.1,0.8c0.1,0.2,0.1,0.4,0.3,0.5s0.2,0.2,0.4,0.3
			c0.1,0.1,0.3,0.1,0.5,0.1s0.3,0,0.5-0.1s0.3-0.2,0.4-0.3s0.2-0.3,0.3-0.5C138.5,53.3,138.5,53,138.5,52.7z M147.1,59.1
			c0,0.5-0.1,0.9-0.2,1.3c-0.2,0.4-0.4,0.7-0.6,1c-0.3,0.3-0.6,0.5-0.9,0.6s-0.7,0.2-1.1,0.2s-0.8-0.1-1.1-0.2s-0.6-0.3-0.9-0.6
			c-0.3-0.3-0.5-0.6-0.6-1s-0.2-0.8-0.2-1.3s0.1-0.9,0.2-1.3s0.3-0.7,0.6-1s0.6-0.5,0.9-0.6s0.7-0.2,1.1-0.2s0.8,0.1,1.1,0.2
			s0.7,0.4,0.9,0.6c0.3,0.3,0.5,0.6,0.6,1S147.1,58.6,147.1,59.1z M145.5,59.1c0-0.3,0-0.6-0.1-0.8c-0.1-0.2-0.2-0.4-0.3-0.5
			c-0.1-0.1-0.2-0.2-0.4-0.3c-0.2-0.1-0.3-0.1-0.5-0.1s-0.3,0-0.5,0.1c-0.1,0.1-0.3,0.2-0.4,0.3c-0.1,0.1-0.2,0.3-0.3,0.5
			c-0.1,0.2-0.1,0.5-0.1,0.8s0,0.6,0.1,0.8c0.1,0.2,0.1,0.4,0.3,0.5c0.1,0.1,0.2,0.2,0.4,0.3c0.1,0.1,0.3,0.1,0.5,0.1s0.3,0,0.5-0.1
			s0.3-0.2,0.4-0.3s0.2-0.3,0.3-0.5C145.5,59.7,145.5,59.4,145.5,59.1z"/>
	</g>
	<g>
		<path class="st6" d="M180,122.5h2.5v-7.2c0-0.3,0-0.6,0-0.9l-1.8,1.5c-0.1,0.1-0.1,0.1-0.2,0.1s-0.2,0-0.2,0c-0.1,0-0.2,0-0.3-0.1
			s-0.2-0.1-0.2-0.2l-0.7-0.9l3.8-3.2h1.7v10.8h2.2v1.6H180V122.5z"/>
		<path class="st6" d="M193.3,116.3c0.5,0,0.9,0.1,1.4,0.2c0.4,0.2,0.8,0.4,1.2,0.7c0.3,0.3,0.6,0.7,0.8,1.2s0.3,1,0.3,1.6
			s-0.1,1.1-0.3,1.6c-0.2,0.5-0.5,0.9-0.9,1.3s-0.8,0.7-1.4,0.9s-1.1,0.3-1.8,0.3c-0.7,0-1.3-0.1-1.8-0.3s-1-0.5-1.3-0.9
			s-0.7-0.8-0.8-1.4c-0.2-0.5-0.3-1.1-0.3-1.8c0-0.6,0.1-1.2,0.4-1.8c0.2-0.6,0.6-1.2,1.1-1.9l2.9-3.9c0.1-0.1,0.3-0.3,0.4-0.3
			c0.2-0.1,0.4-0.1,0.7-0.1h1.9l-3.7,4.5c-0.1,0.1-0.2,0.2-0.2,0.3c-0.1,0.1-0.1,0.2-0.2,0.3c0.2-0.1,0.5-0.2,0.8-0.3
			C192.7,116.4,193,116.3,193.3,116.3z M190.3,120.2c0,0.3,0,0.7,0.1,0.9c0.1,0.3,0.2,0.5,0.4,0.7c0.2,0.2,0.4,0.4,0.7,0.5
			s0.6,0.2,0.9,0.2s0.6-0.1,0.9-0.2s0.5-0.3,0.7-0.5s0.4-0.4,0.5-0.7s0.2-0.6,0.2-0.9c0-0.4-0.1-0.7-0.2-1s-0.3-0.5-0.5-0.7
			s-0.4-0.3-0.7-0.4c-0.3-0.1-0.6-0.2-0.9-0.2s-0.6,0.1-0.9,0.2c-0.3,0.1-0.5,0.3-0.7,0.5s-0.3,0.4-0.5,0.7
			C190.4,119.5,190.3,119.8,190.3,120.2z"/>
		<path class="st6" d="M203.7,114.7c0,0.5-0.1,0.9-0.2,1.3c-0.2,0.4-0.4,0.7-0.6,1c-0.3,0.3-0.6,0.5-0.9,0.6s-0.7,0.2-1.1,0.2
			s-0.8-0.1-1.1-0.2s-0.6-0.3-0.9-0.6s-0.5-0.6-0.6-1s-0.2-0.8-0.2-1.3s0.1-0.9,0.2-1.3s0.3-0.7,0.6-1s0.6-0.5,0.9-0.6
			s0.7-0.2,1.1-0.2s0.8,0.1,1.1,0.2s0.7,0.4,0.9,0.6s0.5,0.6,0.6,1S203.7,114.2,203.7,114.7z M207.8,112c0.1-0.1,0.2-0.2,0.3-0.2
			c0.1-0.1,0.2-0.1,0.4-0.1h1.5l-9.2,12c-0.1,0.1-0.2,0.2-0.3,0.2c-0.1,0.1-0.2,0.1-0.4,0.1h-1.6L207.8,112z M202,114.7
			c0-0.3,0-0.6-0.1-0.8s-0.1-0.4-0.3-0.5c-0.1-0.1-0.2-0.2-0.4-0.3c-0.2-0.1-0.3-0.1-0.5-0.1s-0.3,0-0.5,0.1
			c-0.1,0.1-0.3,0.2-0.4,0.3s-0.2,0.3-0.3,0.5s-0.1,0.5-0.1,0.8s0,0.6,0.1,0.8s0.1,0.4,0.3,0.5s0.2,0.2,0.4,0.3
			c0.1,0.1,0.3,0.1,0.5,0.1s0.3,0,0.5-0.1s0.3-0.2,0.4-0.3s0.2-0.3,0.3-0.5C202,115.3,202,115,202,114.7z M210.6,121.1
			c0,0.5-0.1,0.9-0.2,1.3c-0.2,0.4-0.4,0.7-0.6,1c-0.3,0.3-0.6,0.5-0.9,0.6s-0.7,0.2-1.1,0.2s-0.8-0.1-1.1-0.2s-0.6-0.3-0.9-0.6
			s-0.5-0.6-0.6-1s-0.2-0.8-0.2-1.3s0.1-0.9,0.2-1.3s0.3-0.7,0.6-1s0.6-0.5,0.9-0.6s0.7-0.2,1.1-0.2s0.8,0.1,1.1,0.2
			s0.7,0.4,0.9,0.6c0.3,0.3,0.5,0.6,0.6,1S210.6,120.7,210.6,121.1z M209,121.1c0-0.3,0-0.6-0.1-0.8s-0.2-0.4-0.3-0.5
			c-0.1-0.1-0.2-0.2-0.4-0.3c-0.2-0.1-0.3-0.1-0.5-0.1s-0.3,0-0.5,0.1c-0.1,0.1-0.3,0.2-0.4,0.3s-0.2,0.3-0.3,0.5
			c-0.1,0.2-0.1,0.5-0.1,0.8s0,0.6,0.1,0.8s0.1,0.4,0.3,0.5c0.1,0.1,0.2,0.2,0.4,0.3c0.1,0.1,0.3,0.1,0.5,0.1s0.3,0,0.5-0.1
			s0.3-0.2,0.4-0.3s0.2-0.3,0.3-0.5C209,121.7,209,121.4,209,121.1z"/>
	</g>
	<g>
		<path class="st6" d="M149.4,177.6c0.6,0,1.1,0.1,1.6,0.3s0.9,0.4,1.2,0.7c0.3,0.3,0.6,0.7,0.8,1.1c0.2,0.4,0.3,0.9,0.3,1.4
			s-0.1,0.9-0.2,1.3c-0.1,0.4-0.3,0.8-0.5,1.1s-0.5,0.7-0.8,1s-0.6,0.7-0.9,1l-2.8,2.8c0.3-0.1,0.5-0.1,0.8-0.2
			c0.3,0,0.5-0.1,0.8-0.1h3.2c0.2,0,0.4,0.1,0.5,0.2c0.1,0.1,0.2,0.3,0.2,0.5v1.3h-8.5v-0.7c0-0.1,0-0.3,0.1-0.4s0.2-0.3,0.3-0.4
			l3.7-3.8c0.3-0.3,0.6-0.6,0.8-0.9c0.2-0.3,0.5-0.6,0.6-0.9c0.2-0.3,0.3-0.6,0.4-0.9c0.1-0.3,0.1-0.6,0.1-0.9c0-0.3,0-0.6-0.1-0.8
			s-0.2-0.4-0.4-0.6s-0.3-0.3-0.6-0.3c-0.2-0.1-0.5-0.1-0.7-0.1c-0.5,0-0.9,0.1-1.2,0.4c-0.3,0.3-0.6,0.6-0.7,1
			c-0.1,0.2-0.2,0.4-0.3,0.5s-0.3,0.1-0.5,0.1c-0.1,0-0.2,0-0.3,0l-1.1-0.2c0.1-0.6,0.2-1.1,0.5-1.6c0.2-0.4,0.5-0.8,0.9-1.1
			s0.8-0.5,1.3-0.7C148.4,177.7,148.9,177.6,149.4,177.6z"/>
		<path class="st6" d="M163.6,183.9c0,1.1-0.1,2-0.3,2.8c-0.2,0.8-0.5,1.4-1,2c-0.4,0.5-0.9,0.9-1.4,1.2s-1.2,0.4-1.8,0.4
			c-0.6,0-1.2-0.1-1.8-0.4c-0.5-0.3-1-0.6-1.4-1.2c-0.4-0.5-0.7-1.2-0.9-2c-0.2-0.8-0.3-1.7-0.3-2.8s0.1-2,0.3-2.8
			c0.2-0.8,0.5-1.4,0.9-2c0.4-0.5,0.9-0.9,1.4-1.2s1.1-0.4,1.8-0.4c0.6,0,1.2,0.1,1.8,0.4s1,0.6,1.4,1.2c0.4,0.5,0.7,1.2,1,2
			C163.5,181.9,163.6,182.8,163.6,183.9z M161.5,183.9c0-0.9-0.1-1.6-0.2-2.2c-0.1-0.6-0.3-1.1-0.5-1.4s-0.5-0.6-0.8-0.7
			c-0.3-0.1-0.6-0.2-0.9-0.2s-0.6,0.1-0.9,0.2c-0.3,0.1-0.5,0.4-0.7,0.7s-0.4,0.8-0.5,1.4c-0.1,0.6-0.2,1.3-0.2,2.2s0.1,1.6,0.2,2.2
			c0.1,0.6,0.3,1.1,0.5,1.4c0.2,0.3,0.5,0.6,0.7,0.7s0.6,0.2,0.9,0.2s0.6-0.1,0.9-0.2s0.5-0.4,0.8-0.7c0.2-0.3,0.4-0.8,0.5-1.4
			S161.5,184.8,161.5,183.9z"/>
		<path class="st6" d="M170.3,180.7c0,0.5-0.1,0.9-0.2,1.3s-0.4,0.7-0.6,1c-0.3,0.3-0.6,0.5-0.9,0.6s-0.7,0.2-1.1,0.2
			s-0.8-0.1-1.1-0.2c-0.3-0.1-0.6-0.3-0.9-0.6s-0.5-0.6-0.6-1s-0.2-0.8-0.2-1.3s0.1-0.9,0.2-1.3s0.3-0.7,0.6-1s0.6-0.5,0.9-0.6
			s0.7-0.2,1.1-0.2s0.8,0.1,1.1,0.2s0.7,0.4,0.9,0.6s0.5,0.6,0.6,1S170.3,180.2,170.3,180.7z M174.4,178.1c0.1-0.1,0.2-0.2,0.3-0.2
			c0.1-0.1,0.2-0.1,0.4-0.1h1.5l-9.2,12c-0.1,0.1-0.2,0.2-0.3,0.2c-0.1,0.1-0.2,0.1-0.4,0.1h-1.6L174.4,178.1z M168.7,180.7
			c0-0.3,0-0.6-0.1-0.8s-0.1-0.4-0.3-0.5s-0.2-0.2-0.4-0.3c-0.2-0.1-0.3-0.1-0.5-0.1s-0.3,0-0.5,0.1c-0.1,0.1-0.3,0.2-0.4,0.3
			s-0.2,0.3-0.3,0.5s-0.1,0.5-0.1,0.8s0,0.6,0.1,0.8s0.1,0.4,0.3,0.5s0.2,0.2,0.4,0.3s0.3,0.1,0.5,0.1s0.3,0,0.5-0.1
			s0.3-0.2,0.4-0.3s0.2-0.3,0.3-0.5C168.6,181.3,168.7,181,168.7,180.7z M177.2,187.2c0,0.5-0.1,0.9-0.2,1.3s-0.4,0.7-0.6,1
			c-0.3,0.3-0.6,0.5-0.9,0.6s-0.7,0.2-1.1,0.2s-0.8-0.1-1.1-0.2c-0.3-0.1-0.6-0.3-0.9-0.6s-0.5-0.6-0.6-1s-0.2-0.8-0.2-1.3
			s0.1-0.9,0.2-1.3c0.1-0.4,0.3-0.7,0.6-1c0.3-0.3,0.6-0.5,0.9-0.6s0.7-0.2,1.1-0.2s0.8,0.1,1.1,0.2c0.3,0.1,0.7,0.4,0.9,0.6
			c0.3,0.3,0.5,0.6,0.6,1C177.2,186.2,177.2,186.7,177.2,187.2z M175.6,187.2c0-0.3,0-0.6-0.1-0.8s-0.2-0.4-0.3-0.5
			c-0.1-0.1-0.2-0.2-0.4-0.3c-0.2-0.1-0.3-0.1-0.5-0.1s-0.3,0-0.5,0.1c-0.1,0.1-0.3,0.2-0.4,0.3s-0.2,0.3-0.3,0.5
			c-0.1,0.2-0.1,0.5-0.1,0.8s0,0.6,0.1,0.8s0.1,0.4,0.3,0.5c0.1,0.1,0.2,0.2,0.4,0.3c0.1,0.1,0.3,0.1,0.5,0.1s0.3,0,0.5-0.1
			s0.3-0.2,0.4-0.3s0.2-0.3,0.3-0.5C175.6,187.7,175.6,187.5,175.6,187.2z"/>
	</g>
	<path class="st5" d="M407.8,113.2l-56-22.6c9.4-23.2,31-37.7,56-37.7V113.2z"/>
	<path class="st3" d="M407.8,113.2V52.9c33.3,0,60.4,27,60.4,60.4s-27,60.4-60.4,60.4c-33.3,0-60.4-27-60.4-60.4
		c0-8.3,1.3-14.9,4.4-22.6L407.8,113.2z"/>
	<g>
		<path class="st6" d="M401.4,139.3h2.5v-7.2c0-0.3,0-0.6,0-0.9l-1.8,1.5c-0.1,0.1-0.1,0.1-0.2,0.1c-0.1,0-0.2,0-0.2,0
			c-0.1,0-0.2,0-0.3-0.1c-0.1,0-0.2-0.1-0.2-0.2l-0.7-0.9l3.8-3.2h1.7v10.8h2.2v1.6h-6.8V139.3z"/>
		<path class="st6" d="M414.3,128.4c0.6,0,1.1,0.1,1.5,0.2c0.5,0.2,0.8,0.4,1.2,0.7s0.6,0.6,0.7,1c0.2,0.4,0.3,0.8,0.3,1.3
			c0,0.4,0,0.7-0.1,1s-0.2,0.6-0.4,0.8s-0.4,0.4-0.6,0.6c-0.2,0.2-0.5,0.3-0.8,0.4c0.7,0.2,1.3,0.6,1.7,1.1s0.5,1.1,0.5,1.8
			c0,0.6-0.1,1.2-0.3,1.6c-0.2,0.5-0.5,0.9-0.9,1.2s-0.8,0.6-1.3,0.7c-0.5,0.2-1,0.2-1.6,0.2s-1.2-0.1-1.6-0.2s-0.9-0.4-1.2-0.6
			c-0.3-0.3-0.6-0.6-0.9-1c-0.2-0.4-0.4-0.9-0.6-1.4l0.9-0.4c0.2-0.1,0.3-0.1,0.5-0.1c0.1,0,0.3,0,0.4,0.1c0.1,0.1,0.2,0.2,0.3,0.3
			c0.1,0.2,0.2,0.4,0.3,0.6s0.3,0.4,0.4,0.5c0.2,0.2,0.4,0.3,0.6,0.4s0.5,0.1,0.8,0.1c0.4,0,0.7-0.1,0.9-0.2
			c0.3-0.1,0.5-0.3,0.7-0.5s0.3-0.4,0.4-0.6c0.1-0.2,0.1-0.5,0.1-0.7c0-0.3,0-0.6-0.1-0.8s-0.2-0.4-0.4-0.6
			c-0.2-0.2-0.5-0.3-0.9-0.4s-0.9-0.1-1.5-0.1v-1.5c0.5,0,0.9,0,1.3-0.1s0.6-0.2,0.8-0.4s0.3-0.4,0.4-0.6c0.1-0.2,0.1-0.5,0.1-0.8
			c0-0.6-0.2-1-0.5-1.3s-0.8-0.4-1.3-0.4s-0.9,0.1-1.2,0.4c-0.3,0.3-0.6,0.6-0.7,1c-0.1,0.2-0.2,0.4-0.3,0.5s-0.3,0.1-0.5,0.1
			c-0.1,0-0.2,0-0.3,0l-1.1-0.2c0.1-0.6,0.3-1.1,0.5-1.6s0.5-0.8,0.9-1.1s0.8-0.5,1.3-0.7S413.7,128.4,414.3,128.4z"/>
		<path class="st6" d="M425.1,131.6c0,0.5-0.1,0.9-0.2,1.3c-0.2,0.4-0.4,0.7-0.6,1c-0.3,0.3-0.6,0.5-0.9,0.6s-0.7,0.2-1.1,0.2
			c-0.4,0-0.8-0.1-1.1-0.2s-0.6-0.3-0.9-0.6c-0.3-0.3-0.5-0.6-0.6-1s-0.2-0.8-0.2-1.3s0.1-0.9,0.2-1.3c0.1-0.4,0.3-0.7,0.6-1
			s0.6-0.5,0.9-0.6s0.7-0.2,1.1-0.2s0.8,0.1,1.1,0.2c0.3,0.1,0.7,0.4,0.9,0.6s0.5,0.6,0.6,1C425,130.6,425.1,131.1,425.1,131.6z
			 M429.2,128.9c0.1-0.1,0.2-0.2,0.3-0.2s0.2-0.1,0.4-0.1h1.5l-9.2,12c-0.1,0.1-0.2,0.2-0.3,0.2c-0.1,0.1-0.2,0.1-0.4,0.1h-1.6
			L429.2,128.9z M423.4,131.6c0-0.3,0-0.6-0.1-0.8s-0.1-0.4-0.3-0.5c-0.1-0.1-0.2-0.2-0.4-0.3s-0.3-0.1-0.5-0.1s-0.3,0-0.5,0.1
			c-0.1,0.1-0.3,0.2-0.4,0.3c-0.1,0.1-0.2,0.3-0.3,0.5s-0.1,0.5-0.1,0.8s0,0.6,0.1,0.8s0.1,0.4,0.3,0.5s0.2,0.2,0.4,0.3
			c0.1,0.1,0.3,0.1,0.5,0.1s0.3,0,0.5-0.1s0.3-0.2,0.4-0.3c0.1-0.1,0.2-0.3,0.3-0.5C423.4,132.1,423.4,131.9,423.4,131.6z M432,138
			c0,0.5-0.1,0.9-0.2,1.3c-0.2,0.4-0.4,0.7-0.6,1c-0.3,0.3-0.6,0.5-0.9,0.6s-0.7,0.2-1.1,0.2c-0.4,0-0.8-0.1-1.1-0.2
			s-0.6-0.3-0.9-0.6c-0.3-0.3-0.5-0.6-0.6-1s-0.2-0.8-0.2-1.3s0.1-0.9,0.2-1.3c0.1-0.4,0.3-0.7,0.6-1s0.6-0.5,0.9-0.6
			s0.7-0.2,1.1-0.2s0.8,0.1,1.1,0.2s0.7,0.4,0.9,0.6s0.5,0.6,0.6,1C431.9,137.1,432,137.5,432,138z M430.4,138c0-0.3,0-0.6-0.1-0.8
			s-0.2-0.4-0.3-0.5s-0.2-0.2-0.4-0.3s-0.3-0.1-0.5-0.1s-0.3,0-0.5,0.1c-0.1,0.1-0.3,0.2-0.4,0.3c-0.1,0.1-0.2,0.3-0.3,0.5
			s-0.1,0.5-0.1,0.8s0,0.6,0.1,0.8s0.1,0.4,0.3,0.5c0.1,0.1,0.2,0.2,0.4,0.3c0.1,0.1,0.3,0.1,0.5,0.1s0.3,0,0.5-0.1s0.3-0.2,0.4-0.3
			c0.1-0.1,0.2-0.3,0.3-0.5C430.4,138.6,430.4,138.3,430.4,138z"/>
	</g>
	<g>
		<path class="st6" d="M379.6,77.4c0.6,0,1.1,0.1,1.5,0.2c0.5,0.2,0.8,0.4,1.2,0.7s0.6,0.6,0.7,1c0.2,0.4,0.3,0.8,0.3,1.3
			c0,0.4,0,0.7-0.1,1s-0.2,0.6-0.4,0.8s-0.4,0.4-0.6,0.6c-0.2,0.2-0.5,0.3-0.8,0.4c0.7,0.2,1.3,0.6,1.7,1.1s0.5,1.1,0.5,1.8
			c0,0.6-0.1,1.2-0.3,1.6c-0.2,0.5-0.5,0.9-0.9,1.2s-0.8,0.6-1.3,0.7c-0.5,0.2-1,0.2-1.6,0.2s-1.2-0.1-1.6-0.2s-0.9-0.4-1.2-0.6
			c-0.3-0.3-0.6-0.6-0.9-1c-0.2-0.4-0.4-0.9-0.6-1.4l0.9-0.4c0.2-0.1,0.3-0.1,0.5-0.1c0.1,0,0.3,0,0.4,0.1c0.1,0.1,0.2,0.2,0.3,0.3
			c0.1,0.2,0.2,0.4,0.3,0.6s0.3,0.4,0.4,0.5c0.2,0.2,0.4,0.3,0.6,0.4s0.5,0.1,0.8,0.1c0.4,0,0.7-0.1,0.9-0.2
			c0.3-0.1,0.5-0.3,0.7-0.5s0.3-0.4,0.4-0.6c0.1-0.2,0.1-0.5,0.1-0.7c0-0.3,0-0.6-0.1-0.8c-0.1-0.2-0.2-0.4-0.4-0.6
			s-0.5-0.3-0.9-0.4s-0.9-0.1-1.5-0.1v-1.5c0.5,0,0.9,0,1.3-0.1s0.6-0.2,0.8-0.4c0.2-0.2,0.3-0.4,0.4-0.6c0.1-0.2,0.1-0.5,0.1-0.8
			c0-0.6-0.2-1-0.5-1.3s-0.8-0.4-1.3-0.4s-0.9,0.1-1.2,0.4s-0.6,0.6-0.7,1c-0.1,0.2-0.2,0.4-0.3,0.5s-0.3,0.1-0.5,0.1
			c-0.1,0-0.2,0-0.3,0l-1.1-0.2c0.1-0.6,0.3-1.1,0.5-1.6s0.5-0.8,0.9-1.1c0.4-0.3,0.8-0.5,1.3-0.7S379,77.4,379.6,77.4z"/>
		<path class="st6" d="M390.3,80.6c0,0.5-0.1,0.9-0.2,1.3c-0.2,0.4-0.4,0.7-0.6,1c-0.3,0.3-0.6,0.5-0.9,0.6s-0.7,0.2-1.1,0.2
			c-0.4,0-0.8-0.1-1.1-0.2s-0.6-0.3-0.9-0.6c-0.3-0.3-0.5-0.6-0.6-1s-0.2-0.8-0.2-1.3s0.1-0.9,0.2-1.3c0.1-0.4,0.3-0.7,0.6-1
			s0.6-0.5,0.9-0.6s0.7-0.2,1.1-0.2s0.8,0.1,1.1,0.2s0.7,0.4,0.9,0.6s0.5,0.6,0.6,1C390.3,79.6,390.3,80.1,390.3,80.6z M394.4,77.9
			c0.1-0.1,0.2-0.2,0.3-0.2s0.2-0.1,0.4-0.1h1.5l-9.2,12c-0.1,0.1-0.2,0.2-0.3,0.2c-0.1,0.1-0.2,0.1-0.4,0.1h-1.6L394.4,77.9z
			 M388.7,80.6c0-0.3,0-0.6-0.1-0.8s-0.1-0.4-0.3-0.5c-0.1-0.1-0.2-0.2-0.4-0.3c-0.2-0.1-0.3-0.1-0.5-0.1s-0.3,0-0.5,0.1
			c-0.1,0.1-0.3,0.2-0.4,0.3c-0.1,0.1-0.2,0.3-0.3,0.5s-0.1,0.5-0.1,0.8s0,0.6,0.1,0.8c0.1,0.2,0.1,0.4,0.3,0.5s0.2,0.2,0.4,0.3
			c0.1,0.1,0.3,0.1,0.5,0.1s0.3,0,0.5-0.1s0.3-0.2,0.4-0.3c0.1-0.1,0.2-0.3,0.3-0.5C388.7,81.1,388.7,80.9,388.7,80.6z M397.3,87
			c0,0.5-0.1,0.9-0.2,1.3c-0.2,0.4-0.4,0.7-0.6,1c-0.3,0.3-0.6,0.5-0.9,0.6s-0.7,0.2-1.1,0.2c-0.4,0-0.8-0.1-1.1-0.2
			s-0.6-0.3-0.9-0.6c-0.3-0.3-0.5-0.6-0.6-1s-0.2-0.8-0.2-1.3s0.1-0.9,0.2-1.3c0.1-0.4,0.3-0.7,0.6-1s0.6-0.5,0.9-0.6
			s0.7-0.2,1.1-0.2s0.8,0.1,1.1,0.2s0.7,0.4,0.9,0.6s0.5,0.6,0.6,1S397.3,86.5,397.3,87z M395.7,87c0-0.3,0-0.6-0.1-0.8
			s-0.2-0.4-0.3-0.5s-0.2-0.2-0.4-0.3c-0.2-0.1-0.3-0.1-0.5-0.1s-0.3,0-0.5,0.1c-0.1,0.1-0.3,0.2-0.4,0.3c-0.1,0.1-0.2,0.3-0.3,0.5
			s-0.1,0.5-0.1,0.8s0,0.6,0.1,0.8c0.1,0.2,0.1,0.4,0.3,0.5c0.1,0.1,0.2,0.2,0.4,0.3c0.1,0.1,0.3,0.1,0.5,0.1s0.3,0,0.5-0.1
			s0.3-0.2,0.4-0.3c0.1-0.1,0.2-0.3,0.3-0.5C395.6,87.6,395.7,87.3,395.7,87z"/>
	</g>
</g>
</svg>
