<?xml version="1.0" encoding="utf-8"?>
<!-- Generator: Adobe Illustrator 22.1.0, SVG Export Plug-In . SVG Version: 6.00 Build 0)  -->
<svg version="1.1" id="Layer_1" xmlns="http://www.w3.org/2000/svg" xmlns:xlink="http://www.w3.org/1999/xlink" x="0px" y="0px"
	 viewBox="0 0 360 1053.6" style="enable-background:new 0 0 360 1053.6;" xml:space="preserve">
<style type="text/css">
	.st0{opacity:0.5;fill:#BACC6D;enable-background:new    ;}
	.st1{fill:#6D8700;}
	.st2{fill:#BACC6D;}
	.st3{fill:#99B71C;}
	.st4{fill:#E4EFC2;}
	.st5{fill:#97A541;}
	.st6{fill:#FFFFFF;}
</style>
<rect x="92.5" y="425.7" class="st0" width="175" height="283"/>
<g>
	<g>
		<g>
			<path d="M41.9,39.1l-3.8-11.7h1.6l1.9,5.8c0.4,1.6,0.9,3,1.3,4.3l0,0c0.3-1.3,0.9-2.9,1.3-4.3l2-5.8h1.6l-4.2,11.7H41.9z"/>
			<path d="M53.1,39.1l-0.1-1l0,0c-0.4,0.7-1.3,1.3-2.6,1.3c-1.7,0-2.6-1.2-2.6-2.5c0-2,1.7-3.2,5.1-3.2v-0.1c0-0.7-0.1-1.9-1.9-1.9
				c-0.7,0-1.6,0.3-2.2,0.6l-0.3-1c0.7-0.4,1.7-0.7,2.8-0.7c2.6,0,3.2,1.7,3.2,3.5v3.2c0,0.7,0,1.4,0.1,2L53.1,39.1L53.1,39.1z
				 M52.9,34.8c-1.7,0-3.6,0.3-3.6,1.9c0,1,0.7,1.4,1.4,1.4c1.2,0,1.7-0.7,2-1.4c0-0.1,0.1-0.3,0.1-0.4V34.8z"/>
			<path d="M56.8,33.3c0-1,0-1.9,0-2.6h1.3v1.6l0,0c0.4-1.2,1.3-1.9,2.3-1.9c0.1,0,0.3,0,0.4,0v1.4c-0.1,0-0.3,0-0.6,0
				c-1,0-1.9,0.9-2,2c0,0.1,0,0.4,0,0.7v4.5h-1.4C56.8,39.1,56.8,33.3,56.8,33.3z"/>
			<path d="M64.2,28.4c0,0.6-0.4,0.9-1,0.9s-0.9-0.4-0.9-0.9c0-0.6,0.4-1,1-1C63.9,27.4,64.2,27.8,64.2,28.4z M62.6,39.1v-8.4h1.6
				v8.4H62.6z"/>
			<path d="M71.3,39.1l-0.1-1l0,0c-0.4,0.7-1.3,1.3-2.6,1.3c-1.7,0-2.6-1.2-2.6-2.5c0-2,1.7-3.2,5.1-3.2v-0.1c0-0.7-0.1-1.9-1.9-1.9
				c-0.7,0-1.6,0.3-2.2,0.6l-0.3-1c0.7-0.4,1.7-0.7,2.8-0.7c2.6,0,3.2,1.7,3.2,3.5v3.2c0,0.7,0,1.4,0.1,2L71.3,39.1L71.3,39.1z
				 M71,34.8c-1.7,0-3.6,0.3-3.6,1.9c0,1,0.7,1.4,1.4,1.4c1.2,0,1.7-0.7,2-1.4c0-0.1,0.1-0.3,0.1-0.4V34.8z"/>
			<path d="M75,39.1c0-0.6,0-1.4,0-2.2V26.8h1.4V32l0,0c0.6-0.9,1.4-1.6,2.9-1.6c2,0,3.6,1.7,3.5,4.3c0,3-1.9,4.5-3.8,4.5
				c-1.2,0-2.2-0.4-2.8-1.6l0,0v1.4H75z M76.6,35.8c0,0.1,0,0.4,0,0.6c0.3,1,1.2,1.7,2.3,1.7c1.6,0,2.6-1.3,2.6-3.2
				c0-1.7-0.9-3.2-2.5-3.2c-1,0-2,0.7-2.3,1.9c0,0.1-0.1,0.4-0.1,0.6V35.8L76.6,35.8z"/>
			<path d="M85,26.8h1.6v12.3H85V26.8z"/>
			<path d="M89.9,35.2c0,2,1.3,2.9,2.9,2.9c1.2,0,1.7-0.1,2.3-0.4l0.3,1.2c-0.6,0.3-1.4,0.6-2.8,0.6c-2.6,0-4.2-1.7-4.2-4.2
				c0-2.5,1.4-4.5,3.9-4.5c2.8,0,3.5,2.5,3.5,3.9c0,0.3,0,0.6,0,0.7h-5.9V35.2z M94.4,34.1c0-1-0.4-2.5-2.2-2.5
				c-1.6,0-2.2,1.4-2.3,2.5H94.4z"/>
			<path d="M101.5,27.5c0.7-0.1,1.9-0.3,2.9-0.3c1.6,0,2.6,0.3,3.3,1c0.6,0.6,0.9,1.3,0.9,2.2c0,1.6-1,2.6-2.2,3l0,0
				c0.9,0.3,1.4,1.2,1.7,2.3c0.4,1.6,0.7,2.8,0.9,3.2h-1.6c-0.1-0.3-0.4-1.3-0.7-2.8c-0.3-1.6-1-2.2-2.3-2.3h-1.4V39h-1.4V27.5z
				 M103.1,32.9h1.6c1.6,0,2.6-0.9,2.6-2.2c0-1.4-1.2-2.2-2.8-2.2c-0.7,0-1.3,0-1.4,0.1V32.9z"/>
			<path d="M111.8,35.2c0,2,1.3,2.9,2.9,2.9c1.2,0,1.7-0.1,2.3-0.4l0.3,1.2c-0.6,0.3-1.4,0.6-2.8,0.6c-2.6,0-4.2-1.7-4.2-4.2
				c0-2.5,1.4-4.5,3.9-4.5c2.8,0,3.5,2.5,3.5,3.9c0,0.3,0,0.6,0,0.7h-5.9V35.2z M116.3,34.1c0-1-0.4-2.5-2.2-2.5
				c-1.6,0-2.2,1.4-2.3,2.5H116.3z"/>
			<path d="M120.2,30.7l1.2,4.3c0.3,0.9,0.4,1.7,0.6,2.6l0,0c0.1-0.9,0.4-1.7,0.7-2.6l1.3-4.3h1.3l1.3,4.2c0.3,1,0.6,1.9,0.7,2.8
				l0,0c0.1-0.9,0.4-1.7,0.6-2.8l1.2-4.2h1.4l-2.8,8.4h-1.4l-1.3-4.1c-0.3-0.9-0.6-1.7-0.7-2.8l0,0c-0.1,1-0.4,1.9-0.7,2.8l-1.3,4.1
				h-1.4l-2.6-8.4H120.2z"/>
			<path d="M137,39.1l-0.1-1l0,0c-0.4,0.7-1.3,1.3-2.6,1.3c-1.7,0-2.6-1.2-2.6-2.5c0-2,1.7-3.2,5.1-3.2v-0.1c0-0.7-0.1-1.9-1.9-1.9
				c-0.7,0-1.6,0.3-2.2,0.6l-0.3-1c0.7-0.4,1.7-0.7,2.8-0.7c2.6,0,3.2,1.7,3.2,3.5v3.2c0,0.7,0,1.4,0.1,2L137,39.1L137,39.1z
				 M136.7,34.8c-1.7,0-3.6,0.3-3.6,1.9c0,1,0.7,1.4,1.4,1.4c1.2,0,1.7-0.7,2-1.4c0-0.1,0.1-0.3,0.1-0.4V34.8z"/>
			<path d="M140.8,33.3c0-1,0-1.9,0-2.6h1.3v1.6l0,0c0.4-1.2,1.3-1.9,2.3-1.9c0.1,0,0.3,0,0.4,0v1.4c-0.1,0-0.3,0-0.6,0
				c-1,0-1.9,0.9-2,2c0,0.1,0,0.4,0,0.7v4.5h-1.4V33.3z"/>
			<path d="M153.5,26.8V37c0,0.7,0,1.6,0,2.2h-1.3v-1.4l0,0c-0.4,0.9-1.4,1.6-2.9,1.6c-2,0-3.6-1.7-3.6-4.3c0-2.8,1.7-4.5,3.8-4.5
				c1.3,0,2.2,0.6,2.6,1.3l0,0v-5.1h1.4V26.8z M151.9,34.2c0-0.1,0-0.4,0-0.6c-0.3-1-1-1.7-2.2-1.7c-1.6,0-2.5,1.4-2.5,3.2
				c0,1.7,0.9,3,2.5,3c1,0,2-0.7,2.2-1.9c0-0.1,0-0.4,0-0.7V34.2z"/>
			<path d="M155.9,37.6c0.4,0.3,1.3,0.6,2,0.6c1.2,0,1.6-0.6,1.6-1.3c0-0.7-0.4-1.2-1.6-1.6c-1.4-0.6-2.2-1.3-2.2-2.3
				c0-1.3,1.2-2.5,2.9-2.5c0.9,0,1.6,0.3,2,0.6l-0.4,1.2c-0.3-0.1-0.9-0.4-1.7-0.4s-1.4,0.6-1.4,1.2c0,0.7,0.4,1,1.6,1.4
				c1.4,0.6,2.2,1.3,2.2,2.6c0,1.4-1.2,2.5-3.2,2.5c-0.9,0-1.7-0.3-2.3-0.6L155.9,37.6z"/>
			<path d="M174,39.1c-0.3-0.3-0.6-0.7-1.2-1.2c-1,0.9-2.2,1.3-3.5,1.3c-2.3,0-3.6-1.6-3.6-3.3c0-1.6,1-2.8,2.3-3.5l0,0
				c-0.6-0.7-1-1.6-1-2.5c0-1.4,1-2.9,3-2.9c1.4,0,2.6,1,2.6,2.5c0,1.3-0.7,2.2-2.6,3.2l0,0c1,1.2,2.2,2.5,2.9,3.3
				c0.6-0.9,0.9-1.9,1.2-3.5h1.4c-0.3,1.9-0.9,3.3-1.7,4.3c0.6,0.7,1.3,1.3,1.9,2L174,39.1L174,39.1z M172.2,37.1
				c-0.7-0.7-2-2.2-3.3-3.6c-0.6,0.4-1.4,1.2-1.4,2.3c0,1.3,1,2.3,2.5,2.3C170.8,38.1,171.7,37.7,172.2,37.1z M168.6,30
				c0,0.9,0.4,1.4,0.9,2.2c1.2-0.7,1.9-1.3,1.9-2.3c0-0.7-0.4-1.4-1.3-1.4C169.1,28.3,168.6,29.1,168.6,30z"/>
			<path d="M35.4,54.5h-4.5v4.2H36V60h-6.5V48.3h6.4v1.3H31v3.8h4.5v1.2L35.4,54.5L35.4,54.5z"/>
			<path d="M38.6,51.6l1.2,1.7c0.3,0.4,0.6,0.9,0.9,1.3l0,0c0.3-0.4,0.6-0.9,0.9-1.4l1.2-1.7h1.6l-2.9,4.1l2.9,4.3h-1.7L41.2,58
				c-0.3-0.4-0.6-1-0.9-1.4l0,0c-0.3,0.4-0.6,1-0.9,1.4l-1.2,1.9h-1.7l3-4.3l-2.9-4.1h1.9C38.6,51.5,38.6,51.6,38.6,51.6z"/>
			<path d="M45.8,54.4c0-1,0-1.9,0-2.8h1.3v1.4l0,0c0.6-1,1.6-1.6,3-1.6c2,0,3.6,1.7,3.6,4.2c0,3-1.9,4.5-3.8,4.5
				c-1.2,0-2-0.4-2.6-1.3l0,0v4.6H46v-9.1L45.8,54.4L45.8,54.4z M47.4,56.5c0,0.3,0,0.4,0,0.6c0.3,1,1.2,1.7,2.3,1.7
				c1.6,0,2.6-1.3,2.6-3.2c0-1.7-0.9-3.2-2.5-3.2c-1,0-2,0.7-2.3,1.9c0,0.1-0.1,0.4-0.1,0.6L47.4,56.5L47.4,56.5z"/>
			<path d="M60.5,60l-0.1-1l0,0c-0.4,0.7-1.3,1.3-2.6,1.3c-1.7,0-2.6-1.2-2.6-2.5c0-2,1.7-3.2,5.1-3.2v-0.1c0-0.7-0.1-1.9-1.9-1.9
				c-0.7,0-1.6,0.3-2.2,0.6l-0.3-1c0.7-0.4,1.7-0.7,2.8-0.7c2.6,0,3.2,1.7,3.2,3.5v3.2c0,0.7,0,1.4,0.1,2L60.5,60L60.5,60z
				 M60.2,55.7c-1.7,0-3.6,0.3-3.6,1.9c0,1,0.7,1.4,1.4,1.4c1.2,0,1.7-0.7,2-1.4c0-0.1,0.1-0.3,0.1-0.4V55.7z"/>
			<path d="M64.1,53.9c0-0.9,0-1.6,0-2.3h1.3l0.1,1.4l0,0c0.4-0.9,1.4-1.6,2.8-1.6c1.2,0,3,0.7,3,3.6v5.1h-1.6v-4.8
				c0-1.3-0.4-2.5-1.9-2.5c-1,0-1.7,0.7-2,1.6c0,0.1-0.1,0.4-0.1,0.7v5.1h-1.6C64.1,60.3,64.1,53.9,64.1,53.9z"/>
			<path d="M81,47.7v10.1c0,0.7,0,1.6,0,2.2h-1.3v-1.4l0,0c-0.4,0.9-1.4,1.6-2.9,1.6c-2,0-3.6-1.7-3.6-4.3c0-2.8,1.7-4.5,3.8-4.5
				c1.3,0,2.2,0.6,2.6,1.3l0,0v-5.1H81C81,47.6,81,47.7,81,47.7z M79.6,55.1c0-0.1,0-0.4,0-0.6c-0.3-1-1-1.7-2.2-1.7
				c-1.6,0-2.5,1.4-2.5,3.2c0,1.7,0.9,3,2.5,3c1,0,2-0.7,2.2-1.9c0-0.1,0-0.4,0-0.7V55.1z"/>
			<path d="M85.3,49.3c0,0.6-0.4,0.9-1,0.9s-0.9-0.4-0.9-0.9c0-0.6,0.4-1,1-1C85,48.3,85.3,48.7,85.3,49.3z M83.7,60v-8.4h1.6V60
				H83.7z"/>
			<path d="M87.7,53.9c0-0.9,0-1.6,0-2.3H89l0.1,1.4l0,0c0.4-0.9,1.4-1.6,2.8-1.6c1.2,0,3,0.7,3,3.6v5.1h-1.6v-4.8
				c0-1.3-0.4-2.5-1.9-2.5c-1,0-1.7,0.7-2,1.6c0,0.1-0.1,0.4-0.1,0.7v5.1h-1.6C87.7,60.3,87.7,53.9,87.7,53.9z"/>
			<path d="M104.5,51.6c0,0.6,0,1.3,0,2.3v4.9c0,1.9-0.4,3-1.2,3.9c-0.9,0.7-2,1-3,1s-2.2-0.3-2.8-0.7l0.4-1.2
				c0.6,0.3,1.4,0.7,2.5,0.7c1.6,0,2.8-0.9,2.8-2.9v-0.9l0,0c-0.4,0.7-1.3,1.4-2.6,1.4c-2,0-3.6-1.7-3.6-4.1c0-2.9,1.9-4.5,3.8-4.5
				c1.4,0,2.3,0.7,2.6,1.4l0,0v-1.3h1.2V51.6z M102.9,54.9c0-0.3,0-0.4-0.1-0.7c-0.3-0.9-1-1.6-2.2-1.6c-1.4,0-2.5,1.3-2.5,3.2
				c0,1.6,0.9,3,2.5,3c0.9,0,1.7-0.6,2.2-1.6c0.1-0.3,0.1-0.6,0.1-0.9V54.9z"/>
			<path d="M116.9,54.5h-4.5v4.2h5.1V60h-6.5V48.3h6.4v1.3h-4.9v3.8h4.5V54.5z"/>
			<path d="M125.3,59.7c-0.4,0.1-1.3,0.4-2.5,0.4c-2.6,0-4.2-1.7-4.2-4.3s1.7-4.5,4.5-4.5c0.9,0,1.7,0.3,2.2,0.4l-0.3,1.2
				c-0.4-0.1-0.9-0.4-1.7-0.4c-1.9,0-3,1.4-3,3.2c0,1.9,1.3,3.2,2.9,3.2c0.9,0,1.4-0.3,1.9-0.4L125.3,59.7z"/>
			<path d="M134.5,55.8c0,3-2.2,4.5-4.2,4.5c-2.3,0-4.1-1.7-4.1-4.3c0-2.8,1.9-4.5,4.2-4.5C133,51.5,134.5,53.2,134.5,55.8z
				 M127.9,55.8c0,1.9,1,3.2,2.6,3.2c1.4,0,2.6-1.3,2.6-3.3c0-1.4-0.7-3.2-2.5-3.2C128.6,52.6,127.9,54.2,127.9,55.8z"/>
			<path d="M136.3,58.4c0.4,0.3,1.3,0.6,2,0.6c1.2,0,1.6-0.6,1.6-1.3c0-0.7-0.4-1.2-1.6-1.6c-1.4-0.6-2.2-1.3-2.2-2.3
				c0-1.3,1.2-2.5,2.9-2.5c0.9,0,1.6,0.3,2,0.6l-0.4,1.2c-0.3-0.1-0.9-0.4-1.7-0.4c-0.9,0-1.4,0.6-1.4,1.2c0,0.7,0.4,1,1.6,1.4
				c1.4,0.6,2.2,1.3,2.2,2.6c0,1.4-1.2,2.5-3.2,2.5c-0.9,0-1.7-0.3-2.3-0.6L136.3,58.4z"/>
			<path d="M144,51.6l1.9,4.9c0.1,0.6,0.4,1.2,0.6,1.7l0,0c0.1-0.4,0.3-1.2,0.6-1.7l1.7-4.9h1.6l-2.3,5.9c-1.2,2.9-1.9,4.3-2.9,5.2
				c-0.7,0.7-1.4,0.9-1.9,1l-0.4-1.3c0.4-0.1,0.9-0.4,1.3-0.7c0.4-0.3,0.9-0.9,1.3-1.7c0-0.1,0.1-0.3,0.1-0.4c0-0.1,0-0.1-0.1-0.4
				l-3-7.7L144,51.6L144,51.6z"/>
			<path d="M151.2,58.4c0.4,0.3,1.3,0.6,2,0.6c1.2,0,1.6-0.6,1.6-1.3c0-0.7-0.4-1.2-1.6-1.6c-1.4-0.6-2.2-1.3-2.2-2.3
				c0-1.3,1.2-2.5,2.9-2.5c0.9,0,1.6,0.3,2,0.6l-0.4,1.2c-0.3-0.1-0.9-0.4-1.7-0.4s-1.4,0.6-1.4,1.2c0,0.7,0.4,1,1.6,1.4
				c1.4,0.6,2.2,1.3,2.2,2.6c0,1.4-1.2,2.5-3.2,2.5c-0.9,0-1.7-0.3-2.3-0.6L151.2,58.4z"/>
			<path d="M160.2,49.2v2.5h2.2v1.2h-2.2v4.5c0,1,0.3,1.6,1.2,1.6c0.4,0,0.7,0,0.9-0.1v1.2c-0.3,0.1-0.7,0.1-1.3,0.1
				c-0.7,0-1.3-0.3-1.6-0.6c-0.4-0.4-0.6-1.2-0.6-2.2v-4.6h-1.3v-1.2h1.3v-2L160.2,49.2z"/>
			<path d="M164.8,56.1c0,2,1.3,2.9,2.9,2.9c1.2,0,1.7-0.1,2.3-0.4l0.3,1.2c-0.6,0.3-1.4,0.6-2.8,0.6c-2.6,0-4.2-1.7-4.2-4.2
				c0-2.6,1.4-4.5,3.9-4.5c2.8,0,3.5,2.5,3.5,3.9c0,0.3,0,0.6,0,0.7h-5.9C164.8,56.3,164.8,56.1,164.8,56.1z M169.3,54.9
				c0-1-0.4-2.5-2.2-2.5c-1.6,0-2.2,1.4-2.3,2.5H169.3z"/>
			<path d="M172.7,53.9c0-0.9,0-1.6,0-2.3h1.3v1.3l0,0c0.4-0.9,1.3-1.6,2.6-1.6c1.2,0,2,0.7,2.3,1.7l0,0c0.3-0.4,0.6-0.9,0.9-1.2
				c0.4-0.4,1-0.6,1.9-0.6c1.2,0,2.8,0.7,2.8,3.6v4.9H183v-4.8c0-1.6-0.6-2.6-1.9-2.6c-0.9,0-1.6,0.6-1.7,1.4c0,0.1-0.1,0.4-0.1,0.7
				v5.2h-1.4v-5.1c0-1.3-0.6-2.3-1.7-2.3c-1,0-1.6,0.7-1.9,1.6c-0.1,0.3-0.1,0.4-0.1,0.7v5.1h-1.4v-5.9H172.7z"/>
		</g>
		<circle class="st1" cx="107" cy="6.5" r="6.5"/>
	</g>
	<g>
		<g>
			<path d="M76.1,122.8c0.7,0.4,1.7,0.7,2.8,0.7c1.6,0,2.5-0.9,2.5-2s-0.6-1.7-2.2-2.3c-1.9-0.7-3-1.7-3-3.3c0-1.9,1.4-3.2,3.8-3.2
				c1.2,0,2,0.3,2.6,0.6l-0.4,1.3c-0.4-0.1-1.2-0.6-2.2-0.6c-1.6,0-2.2,1-2.2,1.7c0,1.2,0.7,1.6,2.3,2.3c2,0.7,3,1.7,3,3.5
				c0,1.7-1.3,3.3-4.1,3.3c-1.2,0-2.3-0.3-3-0.7L76.1,122.8z"/>
			<path d="M86.6,113.8v2.5h2.2v1.2h-2.2v4.5c0,1,0.3,1.6,1.2,1.6c0.4,0,0.7,0,0.9-0.1v1.2c-0.3,0.1-0.7,0.1-1.3,0.1
				c-0.7,0-1.3-0.3-1.6-0.6c-0.4-0.4-0.6-1.2-0.6-2.2v-4.6h-1.3v-1.2h1.3v-2L86.6,113.8z"/>
			<path d="M90.5,118.9c0-1,0-1.9,0-2.6h1.3v1.6l0,0c0.4-1.2,1.3-1.9,2.3-1.9c0.1,0,0.3,0,0.4,0v1.4c-0.1,0-0.3,0-0.6,0
				c-1,0-1.9,0.9-2,2c0,0.1,0,0.4,0,0.7v4.5h-1.4C90.5,124.7,90.5,118.9,90.5,118.9z"/>
			<path d="M100.8,124.7l-0.1-1l0,0c-0.4,0.7-1.3,1.3-2.6,1.3c-1.7,0-2.6-1.2-2.6-2.5c0-2,1.7-3.2,5.1-3.2v-0.1
				c0-0.7-0.1-1.9-1.9-1.9c-0.7,0-1.6,0.3-2.2,0.6l-0.3-1c0.7-0.4,1.7-0.7,2.8-0.7c2.6,0,3.2,1.7,3.2,3.5v3.2c0,0.7,0,1.4,0.1,2
				L100.8,124.7L100.8,124.7z M100.5,120.3c-1.7,0-3.6,0.3-3.6,1.9c0,1,0.7,1.4,1.4,1.4c1.2,0,1.7-0.7,2-1.4c0-0.1,0.1-0.3,0.1-0.4
				V120.3z"/>
			<path d="M106.3,113.8v2.5h2.2v1.2h-2.2v4.5c0,1,0.3,1.6,1.2,1.6c0.4,0,0.7,0,0.9-0.1v1.2c-0.3,0.1-0.7,0.1-1.3,0.1
				c-0.7,0-1.3-0.3-1.6-0.6c-0.4-0.4-0.6-1.2-0.6-2.2v-4.6h-1.3v-1.2h1.3v-2L106.3,113.8z"/>
			<path d="M110.9,120.8c0,2,1.3,2.9,2.9,2.9c1.2,0,1.7-0.1,2.3-0.4l0.3,1.2c-0.6,0.3-1.4,0.6-2.8,0.6c-2.6,0-4.2-1.7-4.2-4.2
				s1.4-4.5,3.9-4.5c2.8,0,3.5,2.5,3.5,3.9c0,0.3,0,0.6,0,0.7h-5.9C110.9,120.9,110.9,120.8,110.9,120.8z M115.4,119.6
				c0-1-0.4-2.5-2.2-2.5c-1.6,0-2.2,1.4-2.3,2.5H115.4z"/>
			<path d="M126,116.3c0,0.6,0,1.3,0,2.3v4.9c0,1.9-0.4,3-1.2,3.9c-0.9,0.7-2,1-3,1s-2.2-0.3-2.8-0.7l0.4-1.2
				c0.6,0.3,1.4,0.7,2.5,0.7c1.6,0,2.8-0.9,2.8-2.9v-0.9l0,0c-0.4,0.7-1.3,1.4-2.6,1.4c-2,0-3.6-1.7-3.6-4.1c0-2.9,1.9-4.5,3.8-4.5
				c1.4,0,2.3,0.7,2.6,1.4l0,0v-1.3h1.2V116.3z M124.4,119.6c0-0.3,0-0.4-0.1-0.7c-0.3-0.9-1-1.6-2.2-1.6c-1.4,0-2.5,1.3-2.5,3.2
				c0,1.6,0.9,3,2.5,3c0.9,0,1.7-0.6,2.2-1.6c0.1-0.3,0.1-0.6,0.1-0.9V119.6z"/>
			<path d="M130.1,114c0,0.6-0.4,0.9-1,0.9c-0.6,0-0.9-0.4-0.9-0.9c0-0.6,0.4-1,1-1C129.8,112.9,130.1,113.4,130.1,114z
				 M128.5,124.7v-8.4h1.6v8.4H128.5z"/>
			<path d="M138.5,124.4c-0.4,0.1-1.3,0.4-2.5,0.4c-2.6,0-4.2-1.7-4.2-4.3c0-2.6,1.7-4.5,4.5-4.5c0.9,0,1.7,0.3,2.2,0.4l-0.3,1.2
				c-0.4-0.1-0.9-0.4-1.7-0.4c-1.9,0-3,1.4-3,3.2c0,1.9,1.3,3.2,2.9,3.2c0.9,0,1.4-0.3,1.9-0.4L138.5,124.4z"/>
			<path d="M68.9,133.8v11.7h-1.4v-11.7H68.9z"/>
			<path d="M71.6,139.5c0-0.9,0-1.6,0-2.3h1.3l0.1,1.4l0,0c0.4-0.9,1.4-1.6,2.8-1.6c1.2,0,3,0.7,3,3.6v5.1h-1.6v-4.8
				c0-1.3-0.4-2.5-1.9-2.5c-1,0-1.7,0.7-2,1.6c0,0.1-0.1,0.4-0.1,0.7v5.1h-1.6C71.6,145.9,71.6,139.5,71.6,139.5z"/>
			<path d="M81.6,137.2l1.6,4.8c0.3,0.7,0.4,1.4,0.7,2.2l0,0c0.1-0.7,0.4-1.4,0.7-2.2l1.6-4.8h1.6l-3.3,8.4h-1.4l-3.2-8.4H81.6z"/>
			<path d="M90,141.7c0,2,1.3,2.9,2.9,2.9c1.2,0,1.7-0.1,2.3-0.4l0.3,1.2c-0.6,0.3-1.4,0.6-2.8,0.6c-2.6,0-4.2-1.7-4.2-4.2
				c0-2.6,1.4-4.5,3.9-4.5c2.8,0,3.5,2.5,3.5,3.9c0,0.3,0,0.6,0,0.7H90V141.7z M94.5,140.5c0-1-0.4-2.5-2.2-2.5
				c-1.6,0-2.2,1.4-2.3,2.5H94.5z"/>
			<path d="M97.7,144c0.4,0.3,1.3,0.6,2,0.6c1.2,0,1.6-0.6,1.6-1.3c0-0.7-0.4-1.2-1.6-1.6c-1.4-0.6-2.2-1.3-2.2-2.3
				c0-1.3,1.2-2.5,2.9-2.5c0.9,0,1.6,0.3,2,0.6l-0.4,1.2c-0.3-0.1-0.9-0.4-1.7-0.4c-0.9,0-1.4,0.6-1.4,1.2c0,0.7,0.4,1,1.6,1.4
				c1.4,0.6,2.2,1.3,2.2,2.6c0,1.4-1.2,2.5-3.2,2.5c-0.9,0-1.7-0.3-2.3-0.6L97.7,144z"/>
			<path d="M106.7,134.7v2.5h2.2v1.2h-2.2v4.5c0,1,0.3,1.6,1.2,1.6c0.4,0,0.7,0,0.9-0.1v1.2c-0.3,0.1-0.7,0.1-1.3,0.1
				c-0.7,0-1.3-0.3-1.6-0.6c-0.4-0.4-0.6-1.2-0.6-2.2v-4.6H104V137h1.3v-2L106.7,134.7z"/>
			<path d="M110.6,139.5c0-0.9,0-1.6,0-2.3h1.3v1.3l0,0c0.4-0.9,1.3-1.6,2.6-1.6c1.2,0,2,0.7,2.3,1.7l0,0c0.3-0.4,0.6-0.9,0.9-1.2
				c0.4-0.4,1-0.6,1.9-0.6c1.2,0,2.8,0.7,2.8,3.6v4.9h-1.4v-4.8c0-1.6-0.6-2.6-1.9-2.6c-0.9,0-1.6,0.6-1.7,1.4
				c0,0.1-0.1,0.4-0.1,0.7v5.2h-1.4v-5.1c0-1.3-0.6-2.3-1.7-2.3c-1,0-1.6,0.7-1.9,1.6c-0.1,0.3-0.1,0.4-0.1,0.7v5.1h-1.4v-5.9H110.6
				z"/>
			<path d="M126,141.7c0,2,1.3,2.9,2.9,2.9c1.2,0,1.7-0.1,2.3-0.4l0.3,1.2c-0.6,0.3-1.4,0.6-2.8,0.6c-2.6,0-4.2-1.7-4.2-4.2
				c0-2.6,1.4-4.5,3.9-4.5c2.8,0,3.5,2.5,3.5,3.9c0,0.3,0,0.6,0,0.7H126C126,141.8,126,141.7,126,141.7z M130.5,140.5
				c0-1-0.4-2.5-2.2-2.5c-1.6,0-2.2,1.4-2.3,2.5H130.5z"/>
			<path d="M133.8,139.5c0-0.9,0-1.6,0-2.3h1.3l0.1,1.4l0,0c0.4-0.9,1.4-1.6,2.8-1.6c1.2,0,3,0.7,3,3.6v5.1h-1.6v-4.8
				c0-1.3-0.4-2.5-1.9-2.5c-1,0-1.7,0.7-2,1.6c0,0.1-0.1,0.4-0.1,0.7v5.1h-1.6V139.5z"/>
			<path d="M145.3,134.7v2.5h2.2v1.2h-2.2v4.5c0,1,0.3,1.6,1.2,1.6c0.4,0,0.7,0,0.9-0.1v1.2c-0.3,0.1-0.7,0.1-1.3,0.1
				c-0.7,0-1.3-0.3-1.6-0.6c-0.4-0.4-0.6-1.2-0.6-2.2v-4.6h-1.3V137h1.3v-2L145.3,134.7z"/>
		</g>
		<circle class="st2" cx="107" cy="92.1" r="6.5"/>
	</g>
	<g>
		<g>
			<path d="M255,28.7h-3.5v-1.3h8.7v1.3h-3.6v10.4H255V28.7z"/>
			<path d="M267.8,34.8c0,3-2.2,4.5-4.2,4.5c-2.3,0-4.1-1.7-4.1-4.3c0-2.8,1.9-4.5,4.2-4.5C266.2,30.6,267.8,32.3,267.8,34.8z
				 M261.1,34.9c0,1.9,1,3.2,2.6,3.2c1.4,0,2.6-1.3,2.6-3.3c0-1.4-0.7-3.2-2.5-3.2C262,31.8,261.1,33.3,261.1,34.9z"/>
			<path d="M271.3,34.7L271.3,34.7c0.3-0.3,0.6-0.7,0.7-1l2.5-2.9h1.9l-3.2,3.5l3.8,4.9H275l-2.9-4.1l-0.7,0.9v3.2H270V26.8h1.4v7.8
				H271.3z"/>
			<path d="M278.8,35.2c0,2,1.3,2.9,2.9,2.9c1.2,0,1.7-0.1,2.3-0.4l0.3,1.2c-0.6,0.3-1.4,0.6-2.8,0.6c-2.6,0-4.2-1.7-4.2-4.2
				c0-2.5,1.4-4.5,3.9-4.5c2.8,0,3.5,2.5,3.5,3.9c0,0.3,0,0.6,0,0.7h-5.9V35.2z M283.3,34.1c0-1-0.4-2.5-2.2-2.5
				c-1.6,0-2.2,1.4-2.3,2.5H283.3z"/>
			<path d="M286.6,33.1c0-0.9,0-1.6,0-2.3h1.3l0.1,1.4l0,0c0.4-0.9,1.4-1.6,2.8-1.6c1.2,0,3,0.7,3,3.6v5.1h-1.6v-4.9
				c0-1.3-0.4-2.5-1.9-2.5c-1,0-1.7,0.7-2,1.6c0,0.1-0.1,0.4-0.1,0.7v5.1h-1.6L286.6,33.1L286.6,33.1z"/>
			<path d="M259.5,58.1c0.7,0.4,1.7,0.7,2.8,0.7c1.6,0,2.5-0.9,2.5-2s-0.6-1.7-2.2-2.3c-1.9-0.7-3-1.7-3-3.3c0-1.9,1.4-3.2,3.8-3.2
				c1.2,0,2,0.3,2.6,0.6l-0.4,1.3c-0.4-0.1-1.2-0.6-2.2-0.6c-1.6,0-2.2,1-2.2,1.7c0,1.2,0.7,1.6,2.3,2.3c2,0.7,3,1.7,3,3.5
				c0,1.7-1.3,3.3-4.1,3.3c-1.2,0-2.3-0.3-3-0.7L259.5,58.1z"/>
			<path d="M273,60l-0.1-1l0,0c-0.4,0.7-1.3,1.3-2.6,1.3c-1.7,0-2.6-1.2-2.6-2.5c0-2,1.7-3.2,5.1-3.2v-0.1c0-0.7-0.1-1.9-1.9-1.9
				c-0.7,0-1.6,0.3-2.2,0.6l-0.3-1c0.7-0.4,1.7-0.7,2.8-0.7c2.6,0,3.2,1.7,3.2,3.5v3.2c0,0.7,0,1.4,0.1,2L273,60L273,60z
				 M272.7,55.7c-1.7,0-3.6,0.3-3.6,1.9c0,1,0.7,1.4,1.4,1.4c1.2,0,1.7-0.7,2-1.4c0-0.1,0.1-0.3,0.1-0.4V55.7z"/>
			<path d="M276.6,47.7h1.6V60h-1.6V47.7z"/>
			<path d="M281.6,56.1c0,2,1.3,2.9,2.9,2.9c1.2,0,1.7-0.1,2.3-0.4l0.3,1.2c-0.6,0.3-1.4,0.6-2.8,0.6c-2.6,0-4.2-1.7-4.2-4.2
				c0-2.6,1.4-4.5,3.9-4.5c2.8,0,3.5,2.5,3.5,3.9c0,0.3,0,0.6,0,0.7h-5.9V56.1z M286.1,54.9c0-1-0.4-2.5-2.2-2.5
				c-1.6,0-2.2,1.4-2.3,2.5H286.1z"/>
		</g>
		<circle class="st3" cx="273.3" cy="6.5" r="6.5"/>
	</g>
	<g>
		<g>
			<path d="M216.8,112.9h6.4v1.3h-4.8v3.9h4.5v1.3h-4.5v5.4h-1.4v-11.9H216.8z"/>
			<path d="M232.3,120.3c0,3-2.2,4.5-4.2,4.5c-2.3,0-4.1-1.7-4.1-4.3c0-2.8,1.9-4.5,4.2-4.5C230.7,116.1,232.3,117.9,232.3,120.3z
				 M225.6,120.5c0,1.9,1,3.2,2.6,3.2c1.4,0,2.6-1.3,2.6-3.3c0-1.4-0.7-3.2-2.5-3.2S225.6,118.9,225.6,120.5z"/>
			<path d="M241.3,122.4c0,0.9,0,1.6,0,2.3H240l-0.1-1.3l0,0c-0.4,0.7-1.3,1.6-2.8,1.6c-1.3,0-2.9-0.7-2.9-3.6v-4.9h1.6v4.6
				c0,1.6,0.4,2.6,1.9,2.6c1,0,1.7-0.7,2-1.4c0.1-0.3,0.1-0.4,0.1-0.7v-5.2h1.6v6.1L241.3,122.4L241.3,122.4z"/>
			<path d="M243.9,118.6c0-0.9,0-1.6,0-2.3h1.3l0.1,1.4l0,0c0.4-0.9,1.4-1.6,2.8-1.6c1.2,0,3,0.7,3,3.6v5.1h-1.6v-4.9
				c0-1.3-0.4-2.5-1.9-2.5c-1,0-1.7,0.7-2,1.6c0,0.1-0.1,0.4-0.1,0.7v5.1h-1.6L243.9,118.6L243.9,118.6z"/>
			<path d="M260.8,112.4v10.1c0,0.7,0,1.6,0,2.2h-1.3v-1.4l0,0c-0.4,0.9-1.4,1.6-2.9,1.6c-2,0-3.6-1.7-3.6-4.3
				c0-2.8,1.7-4.5,3.8-4.5c1.3,0,2.2,0.6,2.6,1.3l0,0v-5.1h1.4L260.8,112.4L260.8,112.4z M259.2,119.8c0-0.1,0-0.4,0-0.6
				c-0.3-1-1-1.7-2.2-1.7c-1.6,0-2.5,1.4-2.5,3.2c0,1.7,0.9,3,2.5,3c1,0,2-0.7,2.2-1.9c0-0.1,0-0.4,0-0.7V119.8z"/>
			<path d="M265,114c0,0.6-0.4,0.9-1,0.9s-0.9-0.4-0.9-0.9c0-0.6,0.4-1,1-1C264.6,112.9,265,113.4,265,114z M263.3,124.7v-8.4h1.6
				v8.4H263.3z"/>
			<path d="M267.4,118.6c0-0.9,0-1.6,0-2.3h1.3l0.1,1.4l0,0c0.4-0.9,1.4-1.6,2.8-1.6c1.2,0,3,0.7,3,3.6v5.1H273v-4.9
				c0-1.3-0.4-2.5-1.9-2.5c-1,0-1.7,0.7-2,1.6c0,0.1-0.1,0.4-0.1,0.7v5.1h-1.6L267.4,118.6L267.4,118.6z"/>
			<path d="M284.3,116.3c0,0.6,0,1.3,0,2.3v4.9c0,1.9-0.4,3-1.2,3.9c-0.9,0.7-2,1-3,1s-2.2-0.3-2.8-0.7l0.4-1.2
				c0.6,0.3,1.4,0.7,2.5,0.7c1.6,0,2.8-0.9,2.8-2.9v-0.9l0,0c-0.4,0.7-1.3,1.4-2.6,1.4c-2,0-3.6-1.7-3.6-4.1c0-2.9,1.9-4.5,3.8-4.5
				c1.4,0,2.3,0.7,2.6,1.4l0,0v-1.3h1.2V116.3z M282.7,119.6c0-0.3,0-0.4-0.1-0.7c-0.3-0.9-1-1.6-2.2-1.6c-1.4,0-2.5,1.3-2.5,3.2
				c0,1.6,0.9,3,2.5,3c0.9,0,1.7-0.6,2.2-1.6c0.1-0.3,0.1-0.6,0.1-0.9V119.6z"/>
			<path d="M292,114.2h-3.6v-1.3h8.7v1.3h-3.5v10.4H292V114.2z"/>
			<path d="M297.9,120.8c0,2,1.3,2.9,2.9,2.9c1.2,0,1.7-0.1,2.3-0.4l0.3,1.2c-0.6,0.3-1.4,0.6-2.8,0.6c-2.6,0-4.2-1.7-4.2-4.2
				s1.4-4.5,3.9-4.5c2.8,0,3.5,2.5,3.5,3.9c0,0.3,0,0.6,0,0.7h-5.9V120.8z M302.4,119.6c0-1-0.4-2.5-2.2-2.5c-1.6,0-2.2,1.4-2.3,2.5
				H302.4z"/>
			<path d="M310.6,124.7l-0.1-1l0,0c-0.4,0.7-1.3,1.3-2.6,1.3c-1.7,0-2.6-1.2-2.6-2.5c0-2,1.7-3.2,5.1-3.2v-0.1
				c0-0.7-0.1-1.9-1.9-1.9c-0.7,0-1.6,0.3-2.2,0.6l-0.3-1c0.7-0.4,1.7-0.7,2.8-0.7c2.6,0,3.2,1.7,3.2,3.5v3.2c0,0.7,0,1.4,0.1,2
				L310.6,124.7L310.6,124.7z M310.3,120.3c-1.7,0-3.6,0.3-3.6,1.9c0,1,0.7,1.4,1.4,1.4c1.2,0,1.7-0.7,2-1.4c0-0.1,0.1-0.3,0.1-0.4
				V120.3z"/>
			<path d="M314.2,118.6c0-0.9,0-1.6,0-2.3h1.3v1.3l0,0c0.4-0.9,1.3-1.6,2.6-1.6c1.2,0,2,0.7,2.3,1.7l0,0c0.3-0.4,0.6-0.9,0.9-1.2
				c0.4-0.4,1-0.6,1.9-0.6c1.2,0,2.8,0.7,2.8,3.6v4.9h-1.4v-4.6c0-1.6-0.6-2.6-1.9-2.6c-0.9,0-1.6,0.6-1.7,1.4
				c0,0.1-0.1,0.4-0.1,0.7v5.2h-1.4v-5.1c0-1.3-0.6-2.3-1.7-2.3c-1,0-1.6,0.7-1.9,1.6c-0.1,0.3-0.1,0.4-0.1,0.7v5.1H314v-6.1H314.2z
				"/>
			<path d="M327.8,126.9c0.4-1,0.9-2.9,1-4.2l1.7-0.1c-0.4,1.4-1.2,3.3-1.6,4.2L327.8,126.9z"/>
			<path d="M241.3,140.1h-4.5v4.2h5.1v1.3h-6.5v-11.7h6.4v1.3h-4.8v3.8h4.5v1.2L241.3,140.1L241.3,140.1z"/>
			<path d="M243.7,139.5c0-0.9,0-1.6,0-2.3h1.3v1.3l0,0c0.4-0.9,1.3-1.6,2.6-1.6c1.2,0,2,0.7,2.3,1.7l0,0c0.3-0.4,0.6-0.9,0.9-1.2
				c0.4-0.4,1-0.6,1.9-0.6c1.2,0,2.8,0.7,2.8,3.6v4.9H254v-4.8c0-1.6-0.6-2.6-1.9-2.6c-0.9,0-1.6,0.6-1.7,1.4c0,0.1-0.1,0.4-0.1,0.7
				v5.2h-1.4v-5.1c0-1.3-0.6-2.3-1.7-2.3c-1,0-1.6,0.7-1.9,1.6c-0.1,0.3-0.1,0.4-0.1,0.7v5.1h-1.4v-5.9H243.7z"/>
			<path d="M258.2,139.9c0-1,0-1.9,0-2.8h1.3v1.4l0,0c0.6-1,1.6-1.6,3-1.6c2,0,3.6,1.7,3.6,4.2c0,3-1.9,4.5-3.8,4.5
				c-1.2,0-2-0.4-2.6-1.3l0,0v4.6h-1.4v-9.1L258.2,139.9L258.2,139.9z M259.7,142.1c0,0.3,0,0.4,0,0.6c0.3,1,1.2,1.7,2.3,1.7
				c1.6,0,2.6-1.3,2.6-3.2c0-1.7-0.9-3.2-2.5-3.2c-1,0-2,0.7-2.3,1.9c0,0.1-0.1,0.4-0.1,0.6V142.1L259.7,142.1z"/>
			<path d="M268.1,133.2h1.6v12.3h-1.6V133.2z"/>
			<path d="M279.8,141.4c0,3-2.2,4.5-4.2,4.5c-2.3,0-4.1-1.7-4.1-4.3c0-2.8,1.9-4.5,4.2-4.5C278.2,137,279.8,138.8,279.8,141.4z
				 M273.2,141.4c0,1.9,1,3.2,2.6,3.2c1.4,0,2.6-1.3,2.6-3.3c0-1.4-0.7-3.2-2.5-3.2C274.2,138,273.2,139.8,273.2,141.4z"/>
			<path d="M282.1,137.2l1.9,4.9c0.1,0.6,0.4,1.2,0.6,1.7l0,0c0.1-0.4,0.3-1.2,0.6-1.7l1.7-4.9h1.6l-2.3,5.9
				c-1.2,2.9-1.9,4.3-2.9,5.2c-0.7,0.7-1.4,0.9-1.9,1L281,148c0.4-0.1,0.9-0.4,1.3-0.7c0.4-0.3,0.9-0.9,1.3-1.7
				c0-0.1,0.1-0.3,0.1-0.4c0-0.1,0-0.1-0.1-0.4l-3-7.7L282.1,137.2L282.1,137.2z"/>
			<path d="M290.6,141.7c0,2,1.3,2.9,2.9,2.9c1.2,0,1.7-0.1,2.3-0.4l0.3,1.2c-0.6,0.3-1.4,0.6-2.8,0.6c-2.6,0-4.2-1.7-4.2-4.2
				c0-2.6,1.4-4.5,3.9-4.5c2.8,0,3.5,2.5,3.5,3.9c0,0.3,0,0.6,0,0.7h-5.9V141.7z M295,140.5c0-1-0.4-2.5-2.2-2.5
				c-1.6,0-2.2,1.4-2.3,2.5H295z"/>
			<path d="M299.3,141.7c0,2,1.3,2.9,2.9,2.9c1.2,0,1.7-0.1,2.3-0.4l0.3,1.2c-0.6,0.3-1.4,0.6-2.8,0.6c-2.6,0-4.2-1.7-4.2-4.2
				c0-2.6,1.4-4.5,3.9-4.5c2.8,0,3.5,2.5,3.5,3.9c0,0.3,0,0.6,0,0.7h-5.9V141.7z M303.7,140.5c0-1-0.4-2.5-2.2-2.5
				c-1.6,0-2.2,1.4-2.3,2.5H303.7z"/>
			<path d="M306.9,144c0.4,0.3,1.3,0.6,2,0.6c1.2,0,1.6-0.6,1.6-1.3c0-0.7-0.4-1.2-1.6-1.6c-1.4-0.6-2.2-1.3-2.2-2.3
				c0-1.3,1.2-2.5,2.9-2.5c0.9,0,1.6,0.3,2,0.6l-0.4,1.2c-0.3-0.1-0.9-0.4-1.7-0.4s-1.4,0.6-1.4,1.2c0,0.7,0.4,1,1.6,1.4
				c1.4,0.6,2.2,1.3,2.2,2.6c0,1.4-1.2,2.5-3.2,2.5c-0.9,0-1.7-0.3-2.3-0.6L306.9,144z"/>
		</g>
		<circle class="st4" cx="273.3" cy="92.1" r="6.5"/>
	</g>
</g>
<g>
	<g>
		<g>
			<path d="M136.9,881.8h-4.6v4.2h5.1v1.3h-6.5v-11.7h6.4v1.3h-4.9v3.8h4.5v1.2H136.9L136.9,881.8z"/>
			<path d="M144,887.4l-0.1-1l0,0c-0.4,0.7-1.3,1.3-2.6,1.3c-1.7,0-2.6-1.2-2.6-2.5c0-2,1.7-3.2,5.1-3.2v-0.1c0-0.7-0.1-1.9-1.9-1.9
				c-0.7,0-1.6,0.3-2.2,0.6l-0.3-1c0.7-0.4,1.7-0.7,2.8-0.7c2.6,0,3.2,1.7,3.2,3.5v3.2c0,0.7,0,1.4,0.1,2L144,887.4L144,887.4z
				 M143.7,883c-1.7,0-3.6,0.3-3.6,1.9c0,1,0.7,1.4,1.4,1.4c1.2,0,1.7-0.7,2-1.4c0-0.1,0.1-0.3,0.1-0.4V883z"/>
			<path d="M147.6,881.6c0-1,0-1.9,0-2.6h1.3v1.6l0,0c0.4-1.2,1.3-1.9,2.3-1.9c0.1,0,0.3,0,0.4,0v1.4c-0.1,0-0.3,0-0.6,0
				c-1,0-1.9,0.9-2,2c0,0.1,0,0.4,0,0.7v4.5h-1.4V881.6L147.6,881.6z"/>
			<path d="M153.4,875h1.6v12.3h-1.6V875z"/>
			<path d="M158,878.9l1.9,4.9c0.1,0.6,0.4,1.2,0.6,1.7l0,0c0.1-0.4,0.3-1.2,0.6-1.7l1.7-4.9h1.6l-2.3,5.9c-1.2,2.9-1.9,4.3-2.9,5.2
				c-0.7,0.7-1.4,0.9-1.9,1l-0.4-1.3c0.4-0.1,0.9-0.4,1.3-0.7c0.4-0.3,0.9-0.9,1.3-1.7c0-0.1,0.1-0.3,0.1-0.4c0-0.1,0-0.1-0.1-0.4
				l-3-7.7L158,878.9L158,878.9z"/>
			<path d="M171,875.6v11.7h-1.4v-11.7H171z"/>
			<path d="M173.7,881.3c0-0.9,0-1.6,0-2.3h1.3l0.1,1.4l0,0c0.4-0.9,1.4-1.6,2.8-1.6c1.2,0,3,0.7,3,3.6v5.1h-1.6v-4.9
				c0-1.3-0.4-2.5-1.9-2.5c-1,0-1.7,0.7-2,1.6c0,0.1-0.1,0.4-0.1,0.7v5.1h-1.6V881.3L173.7,881.3z"/>
			<path d="M183.7,878.9l1.6,4.8c0.3,0.7,0.4,1.4,0.7,2.2l0,0c0.1-0.7,0.4-1.4,0.7-2.2l1.6-4.8h1.6l-3.3,8.4h-1.4l-3.2-8.4H183.7z"
				/>
			<path d="M192.3,883.4c0,2,1.3,2.9,2.9,2.9c1.2,0,1.7-0.1,2.3-0.4l0.3,1.2c-0.6,0.3-1.4,0.6-2.8,0.6c-2.6,0-4.2-1.7-4.2-4.2
				c0-2.5,1.4-4.5,3.9-4.5c2.8,0,3.5,2.5,3.5,3.9c0,0.3,0,0.6,0,0.7h-5.9L192.3,883.4L192.3,883.4z M196.8,882.3
				c0-1-0.4-2.5-2.2-2.5c-1.6,0-2.2,1.4-2.3,2.5H196.8z"/>
			<path d="M199.8,885.8c0.4,0.3,1.3,0.6,2,0.6c1.2,0,1.6-0.6,1.6-1.3s-0.4-1.2-1.6-1.6c-1.4-0.6-2.2-1.3-2.2-2.3
				c0-1.3,1.2-2.5,2.9-2.5c0.9,0,1.6,0.3,2,0.6l-0.4,1.2c-0.3-0.1-0.9-0.4-1.7-0.4s-1.4,0.6-1.4,1.2c0,0.7,0.4,1,1.6,1.4
				c1.4,0.6,2.2,1.3,2.2,2.6c0,1.4-1.2,2.5-3.2,2.5c-0.9,0-1.7-0.3-2.3-0.6L199.8,885.8z"/>
			<path d="M208.8,876.5v2.5h2.2v1.2h-2.2v4.5c0,1,0.3,1.6,1.2,1.6c0.4,0,0.7,0,0.9-0.1v1.2c-0.3,0.1-0.7,0.1-1.3,0.1
				c-0.7,0-1.3-0.3-1.6-0.6c-0.4-0.4-0.6-1.2-0.6-2.2V880H206v-1.2h1.3v-2L208.8,876.5z"/>
			<path d="M220.2,883c0,3-2.2,4.5-4.2,4.5c-2.3,0-4.1-1.7-4.1-4.3c0-2.8,1.9-4.5,4.2-4.5C218.7,878.8,220.2,880.5,220.2,883z
				 M213.6,883.1c0,1.9,1,3.2,2.6,3.2c1.4,0,2.6-1.3,2.6-3.3c0-1.4-0.7-3.2-2.5-3.2C214.3,880,213.6,881.6,213.6,883.1z"/>
			<path d="M222.1,881.6c0-1,0-1.9,0-2.6h1.3v1.6l0,0c0.4-1.2,1.3-1.9,2.3-1.9c0.1,0,0.3,0,0.4,0v1.4c-0.1,0-0.3,0-0.6,0
				c-1,0-1.9,0.9-2,2c0,0.1,0,0.4,0,0.7v4.5h-1.4V881.6L222.1,881.6z"/>
			<path d="M225.9,889.5c0.4-1,0.9-2.9,1-4.2l1.7-0.1c-0.4,1.4-1.2,3.3-1.6,4.2L225.9,889.5z"/>
			<path d="M155.1,904.6l-1.2,3.6h-1.6l3.9-11.7h1.9l4.1,11.7h-1.6l-1.3-3.6H155.1z M159.1,903.3l-1.2-3.3c-0.3-0.7-0.4-1.4-0.6-2.2
				l0,0c-0.1,0.7-0.4,1.4-0.6,2.2l-1.2,3.3H159.1z"/>
			<path d="M171,895.9v10.1c0,0.7,0,1.6,0,2.2h-1.3v-1.4l0,0c-0.4,0.9-1.4,1.6-2.9,1.6c-2,0-3.6-1.7-3.6-4.3c0-2.8,1.7-4.5,3.8-4.5
				c1.3,0,2.2,0.6,2.6,1.3l0,0v-5.1h1.4V895.9z M169.4,903.3c0-0.1,0-0.4,0-0.6c-0.3-1-1-1.7-2.2-1.7c-1.6,0-2.5,1.4-2.5,3.2
				s0.9,3,2.5,3c1,0,2-0.7,2.2-1.9c0-0.1,0-0.4,0-0.7V903.3z"/>
			<path d="M174,899.8l1.6,4.8c0.3,0.7,0.4,1.4,0.7,2.2l0,0c0.1-0.7,0.4-1.4,0.7-2.2l1.6-4.8h1.6l-3.3,8.4h-1.4l-3.2-8.4H174z"/>
			<path d="M183.6,897.5c0,0.6-0.4,0.9-1,0.9s-0.9-0.4-0.9-0.9c0-0.6,0.4-1,1-1C183.1,896.5,183.6,896.9,183.6,897.5z M181.8,908.2
				v-8.4h1.6v8.4H181.8z"/>
			<path d="M185.7,906.6c0.4,0.3,1.3,0.6,2,0.6c1.2,0,1.6-0.6,1.6-1.3c0-0.7-0.4-1.2-1.6-1.6c-1.4-0.6-2.2-1.3-2.2-2.3
				c0-1.3,1.2-2.5,2.9-2.5c0.9,0,1.6,0.3,2,0.6l-0.4,1.2c-0.3-0.1-0.9-0.4-1.7-0.4c-0.9,0-1.4,0.6-1.4,1.2c0,0.7,0.4,1,1.6,1.4
				c1.4,0.6,2.2,1.3,2.2,2.6c0,1.4-1.2,2.5-3.2,2.5c-0.9,0-1.7-0.3-2.3-0.6L185.7,906.6z"/>
			<path d="M200.4,904c0,3-2.2,4.5-4.2,4.5c-2.3,0-4.1-1.7-4.1-4.3c0-2.8,1.9-4.5,4.2-4.5C198.8,899.7,200.4,901.4,200.4,904z
				 M193.7,904c0,1.9,1,3.2,2.6,3.2c1.4,0,2.6-1.3,2.6-3.3c0-1.4-0.7-3.2-2.5-3.2C194.7,900.7,193.7,902.4,193.7,904z"/>
			<path d="M202.4,902.4c0-1,0-1.9,0-2.6h1.3v1.6l0,0c0.4-1.2,1.3-1.9,2.3-1.9c0.1,0,0.3,0,0.4,0v1.4c-0.1,0-0.3,0-0.6,0
				c-1,0-1.9,0.9-2,2c0,0.1,0,0.4,0,0.7v4.5h-1.4V902.4L202.4,902.4z"/>
		</g>
		<circle class="st2" cx="179.4" cy="854.7" r="6.5"/>
	</g>
	<g>
		<g>
			<path d="M103.5,961.3c0.7-0.1,1.7-0.3,2.8-0.3c1.4,0,2.5,0.3,3.2,0.9c0.6,0.4,1,1.2,1,2c0,1.2-0.7,2.2-2,2.6l0,0
				c1.2,0.3,2.5,1.2,2.5,2.9c0,1-0.4,1.7-1,2.3c-0.9,0.7-2.2,1.2-4.1,1.2c-1,0-1.9,0-2.3-0.1L103.5,961.3L103.5,961.3z M105.1,966.1
				h1.3c1.6,0,2.6-0.9,2.6-2c0-1.3-1-1.9-2.6-1.9c-0.7,0-1.2,0-1.3,0.1V966.1z M105.1,971.7c0.3,0,0.7,0,1.3,0c1.6,0,3-0.6,3-2.3
				c0-1.6-1.3-2.3-3-2.3h-1.3V971.7z"/>
			<path d="M120.6,968.5c0,3-2.2,4.5-4.2,4.5c-2.3,0-4.1-1.7-4.1-4.3c0-2.8,1.9-4.5,4.2-4.5C119,964.3,120.6,966.1,120.6,968.5z
				 M114,968.7c0,1.9,1,3.2,2.6,3.2c1.4,0,2.6-1.3,2.6-3.3c0-1.4-0.7-3.2-2.5-3.2S114,967.1,114,968.7z"/>
			<path d="M129.6,970.6c0,0.9,0,1.6,0,2.3h-1.3l-0.1-1.3l0,0c-0.4,0.7-1.3,1.6-2.8,1.6c-1.3,0-2.9-0.7-2.9-3.6v-4.9h1.6v4.6
				c0,1.6,0.4,2.6,1.9,2.6c1,0,1.7-0.7,2-1.4c0.1-0.3,0.1-0.4,0.1-0.7v-5.2h1.6L129.6,970.6L129.6,970.6z"/>
			<path d="M132.2,966.8c0-0.9,0-1.6,0-2.3h1.3l0.1,1.4l0,0c0.4-0.9,1.4-1.6,2.8-1.6c1.2,0,3,0.7,3,3.6v5.1h-1.6v-4.9
				c0-1.3-0.4-2.5-1.9-2.5c-1,0-1.7,0.7-2,1.6c0,0.1-0.1,0.4-0.1,0.7v5.1h-1.6V966.8z"/>
			<path d="M143.5,962v2.5h2.2v1.2h-2.2v4.5c0,1,0.3,1.6,1.2,1.6c0.4,0,0.7,0,0.9-0.1v1.2c-0.3,0.1-0.7,0.1-1.3,0.1
				c-0.7,0-1.3-0.3-1.6-0.6c-0.4-0.4-0.6-1.2-0.6-2.2v-4.6h-1.3v-1.2h1.3v-2L143.5,962z"/>
			<path d="M148.2,964.5l1.9,4.9c0.1,0.6,0.4,1.2,0.6,1.7l0,0c0.1-0.4,0.3-1.2,0.6-1.7l1.7-4.9h1.6l-2.3,5.9
				c-1.2,2.9-1.9,4.3-2.9,5.2c-0.7,0.7-1.4,0.9-1.9,1l-0.4-1.3c0.4-0.1,0.9-0.4,1.3-0.7c0.4-0.3,0.9-0.9,1.3-1.7
				c0-0.1,0.1-0.3,0.1-0.4c0-0.1,0-0.1-0.1-0.4l-3-7.7L148.2,964.5L148.2,964.5z"/>
			<path d="M154.1,975.1c0.4-1,0.9-2.9,1-4.2l1.7-0.1c-0.4,1.4-1.2,3.3-1.6,4.2L154.1,975.1z"/>
			<path d="M172.5,966.9c0,4.1-2.5,6.2-5.5,6.2c-3,0-5.2-2.5-5.2-5.9c0-3.8,2.3-6.1,5.5-6.1C170.5,961,172.5,963.5,172.5,966.9z
				 M163.4,967.1c0,2.5,1.3,4.8,3.8,4.8s3.8-2.2,3.8-4.9c0-2.3-1.2-4.8-3.8-4.8C164.7,962.2,163.4,964.5,163.4,967.1z"/>
			<path d="M174.4,966.8c0-0.9,0-1.6,0-2.3h1.3v1.3l0,0c0.4-0.9,1.3-1.6,2.6-1.6c1.2,0,2,0.7,2.3,1.7l0,0c0.3-0.4,0.6-0.9,0.9-1.2
				c0.4-0.4,1-0.6,1.9-0.6c1.2,0,2.8,0.7,2.8,3.6v4.9h-1.4v-4.6c0-1.6-0.6-2.6-1.9-2.6c-0.9,0-1.6,0.6-1.7,1.4
				c0,0.1-0.1,0.4-0.1,0.7v5.2h-1.4v-5.1c0-1.3-0.6-2.3-1.7-2.3c-1,0-1.6,0.7-1.9,1.6c-0.1,0.3-0.1,0.4-0.1,0.7v5.1h-1.4
				L174.4,966.8L174.4,966.8z"/>
			<path d="M188.9,972.9c0-0.6,0-1.4,0-2.2v-10.1h1.4v5.2l0,0c0.6-0.9,1.4-1.6,2.9-1.6c2,0,3.6,1.7,3.5,4.3c0,3-1.9,4.5-3.8,4.5
				c-1.2,0-2.2-0.4-2.8-1.6l0,0v1.4H188.9z M190.5,969.6c0,0.1,0,0.4,0,0.6c0.3,1,1.2,1.7,2.3,1.7c1.6,0,2.6-1.3,2.6-3.2
				c0-1.7-0.9-3.2-2.5-3.2c-1,0-2,0.7-2.3,1.9c0,0.1-0.1,0.4-0.1,0.6L190.5,969.6L190.5,969.6z"/>
			<path d="M205.9,970.6c0,0.9,0,1.6,0,2.3h-1.3l-0.1-1.3l0,0c-0.4,0.7-1.3,1.6-2.8,1.6c-1.3,0-2.9-0.7-2.9-3.6v-4.9h1.6v4.6
				c0,1.6,0.4,2.6,1.9,2.6c1,0,1.7-0.7,2-1.4c0.1-0.3,0.1-0.4,0.1-0.7v-5.2h1.6L205.9,970.6L205.9,970.6z"/>
			<path d="M215.8,960.6v10.1c0,0.7,0,1.6,0,2.2h-1.3v-1.4l0,0c-0.4,0.9-1.4,1.6-2.9,1.6c-2,0-3.6-1.7-3.6-4.3
				c0-2.8,1.7-4.5,3.8-4.5c1.3,0,2.2,0.6,2.6,1.3l0,0v-5.1h1.4V960.6z M214.2,968c0-0.1,0-0.4,0-0.6c-0.3-1-1-1.7-2.2-1.7
				c-1.6,0-2.5,1.4-2.5,3.2c0,1.7,0.9,3,2.5,3c1,0,2-0.7,2.2-1.9c0-0.1,0-0.4,0-0.7V968z"/>
			<path d="M218.1,971.3c0.4,0.3,1.3,0.6,2,0.6c1.2,0,1.6-0.6,1.6-1.3c0-0.7-0.4-1.2-1.6-1.6c-1.4-0.6-2.2-1.3-2.2-2.3
				c0-1.3,1.2-2.5,2.9-2.5c0.9,0,1.6,0.3,2,0.6l-0.4,1.2c-0.3-0.1-0.9-0.4-1.7-0.4c-0.9,0-1.4,0.6-1.4,1.2c0,0.7,0.4,1,1.6,1.4
				c1.4,0.6,2.2,1.3,2.2,2.6c0,1.4-1.2,2.5-3.2,2.5c-0.9,0-1.7-0.3-2.3-0.6L218.1,971.3z"/>
			<path d="M225.2,966.8c0-0.9,0-1.6,0-2.3h1.3v1.3l0,0c0.4-0.9,1.3-1.6,2.6-1.6c1.2,0,2,0.7,2.3,1.7l0,0c0.3-0.4,0.6-0.9,0.9-1.2
				c0.4-0.4,1-0.6,1.9-0.6c1.2,0,2.8,0.7,2.8,3.6v4.9h-1.4v-4.6c0-1.6-0.6-2.6-1.9-2.6c-0.9,0-1.6,0.6-1.7,1.4
				c0,0.1-0.1,0.4-0.1,0.7v5.2h-1.4v-5.1c0-1.3-0.6-2.3-1.7-2.3c-1,0-1.6,0.7-1.9,1.6c-0.1,0.3-0.1,0.4-0.1,0.7v5.1H225L225.2,966.8
				L225.2,966.8z"/>
			<path d="M244.3,972.9l-0.1-1l0,0c-0.4,0.7-1.3,1.3-2.6,1.3c-1.7,0-2.6-1.2-2.6-2.5c0-2,1.7-3.2,5.1-3.2v-0.1
				c0-0.7-0.1-1.9-1.9-1.9c-0.7,0-1.6,0.3-2.2,0.6l-0.3-1c0.7-0.4,1.7-0.7,2.8-0.7c2.6,0,3.2,1.7,3.2,3.5v3.2c0,0.7,0,1.4,0.1,2
				L244.3,972.9L244.3,972.9z M244.2,968.5c-1.7,0-3.6,0.3-3.6,1.9c0,1,0.7,1.4,1.4,1.4c1.2,0,1.7-0.7,2-1.4c0-0.1,0.1-0.3,0.1-0.4
				V968.5z"/>
			<path d="M248.1,966.8c0-0.9,0-1.6,0-2.3h1.3l0.1,1.4l0,0c0.4-0.9,1.4-1.6,2.8-1.6c1.2,0,3,0.7,3,3.6v5.1h-1.6v-4.9
				c0-1.3-0.4-2.5-1.9-2.5c-1,0-1.7,0.7-2,1.6c0,0.1-0.1,0.4-0.1,0.7v5.1h-1.6V966.8L248.1,966.8z"/>
		</g>
		<circle class="st5" cx="179.4" cy="940.3" r="6.5"/>
	</g>
</g>
<path class="st1" d="M179.2,350.7L2.4,317.5c18.4-97.5,112.4-161.8,210-143.4c42.9,8,78.1,28.9,105.8,62.8L179.2,350.7z"/>
<path class="st4" d="M179.2,350.7L92.8,508.6c-69.7-38.1-105.2-113-90.5-191.1L179.2,350.7z"/>
<path class="st2" d="M179.2,350.7l88,156.8c-55.4,31.1-118.5,31.5-174.4,1.1L179.2,350.7z"/>
<path class="st3" d="M179.2,350.7l139.1-114c62.9,76.8,51.6,190.2-25.1,253.1c-9.2,7.5-15.5,11.9-25.9,17.7L179.2,350.7z"/>
<g>
	<path class="st6" d="M140.7,252.8c0.9,0,1.6,0.1,2.2,0.3c0.7,0.3,1.2,0.6,1.7,1c0.4,0.4,0.9,0.9,1,1.4c0.3,0.6,0.4,1.2,0.4,1.9
		c0,0.6,0,1-0.1,1.4c-0.1,0.4-0.3,0.9-0.6,1.2c-0.3,0.3-0.6,0.6-0.9,0.9c-0.3,0.3-0.7,0.4-1.2,0.6c1,0.3,1.9,0.9,2.5,1.6
		c0.6,0.7,0.7,1.6,0.7,2.6c0,0.9-0.1,1.7-0.4,2.3c-0.3,0.7-0.7,1.3-1.3,1.7c-0.6,0.4-1.2,0.9-1.9,1c-0.7,0.3-1.4,0.3-2.3,0.3
		s-1.7-0.1-2.3-0.3c-0.6-0.1-1.3-0.6-1.7-0.9c-0.4-0.4-0.9-0.9-1.3-1.4c-0.3-0.6-0.6-1.3-0.9-2l1.3-0.6c0.3-0.1,0.4-0.1,0.7-0.1
		c0.1,0,0.4,0,0.6,0.1c0.1,0.1,0.3,0.3,0.4,0.4c0.1,0.3,0.3,0.6,0.4,0.9c0.1,0.3,0.4,0.6,0.6,0.7c0.3,0.3,0.6,0.4,0.9,0.6
		c0.3,0.1,0.7,0.1,1.2,0.1c0.6,0,1-0.1,1.3-0.3c0.4-0.1,0.7-0.4,1-0.7c0.3-0.3,0.4-0.6,0.6-0.9s0.1-0.7,0.1-1c0-0.4,0-0.9-0.1-1.2
		c-0.1-0.3-0.3-0.6-0.6-0.9c-0.3-0.3-0.7-0.4-1.3-0.6c-0.6-0.1-1.3-0.1-2.2-0.1v-2.2c0.7,0,1.3,0,1.9-0.1c0.4-0.1,0.9-0.3,1.2-0.6
		c0.3-0.3,0.4-0.6,0.6-0.9s0.1-0.7,0.1-1.2c0-0.9-0.3-1.4-0.7-1.9s-1.2-0.6-1.9-0.6s-1.3,0.1-1.7,0.6c-0.4,0.4-0.9,0.9-1,1.4
		c-0.1,0.3-0.3,0.6-0.4,0.7s-0.4,0.1-0.7,0.1c-0.1,0-0.3,0-0.4,0l-1.6-0.3c0.1-0.9,0.3-1.6,0.7-2.3c0.3-0.6,0.7-1.2,1.3-1.6
		c0.6-0.4,1.2-0.7,1.9-1C139.1,252.9,140,252.8,140.7,252.8z"/>
	<path class="st6" d="M155.7,259.7c0.7,0,1.3,0.1,2,0.3c0.6,0.3,1.2,0.6,1.7,1c0.4,0.4,0.9,1,1.2,1.7c0.3,0.7,0.4,1.4,0.4,2.3
		c0,0.9-0.1,1.6-0.4,2.3c-0.3,0.7-0.7,1.3-1.3,1.9c-0.6,0.6-1.2,1-2,1.3c-0.9,0.3-1.6,0.4-2.6,0.4s-1.9-0.1-2.6-0.4
		c-0.7-0.3-1.4-0.7-1.9-1.3c-0.4-0.6-1-1.2-1.2-2c-0.3-0.7-0.4-1.6-0.4-2.6c0-0.9,0.1-1.7,0.6-2.6c0.3-0.9,0.9-1.7,1.6-2.8l4.2-5.7
		c0.1-0.1,0.4-0.4,0.6-0.4c0.3-0.1,0.6-0.1,1-0.1h2.8l-5.4,6.5c-0.1,0.1-0.3,0.3-0.3,0.4c-0.1,0.1-0.1,0.3-0.3,0.4
		c0.3-0.1,0.7-0.3,1.2-0.4C154.8,259.7,155.2,259.7,155.7,259.7z M151.3,265.3c0,0.4,0,1,0.1,1.3c0.1,0.4,0.3,0.7,0.6,1
		s0.6,0.6,1,0.7c0.4,0.1,0.9,0.3,1.3,0.3c0.4,0,0.9-0.1,1.3-0.3c0.4-0.1,0.7-0.4,1-0.7s0.6-0.6,0.7-1c0.1-0.4,0.3-0.9,0.3-1.3
		c0-0.6-0.1-1-0.3-1.4s-0.4-0.7-0.7-1c-0.3-0.3-0.6-0.4-1-0.6c-0.4-0.1-0.9-0.3-1.3-0.3c-0.4,0-0.9,0.1-1.3,0.3
		c-0.4,0.1-0.7,0.4-1,0.7c-0.3,0.3-0.4,0.6-0.7,1C151.4,264.4,151.3,264.8,151.3,265.3z"/>
	<path class="st6" d="M170.7,257.3c0,0.7-0.1,1.3-0.3,1.9c-0.3,0.6-0.6,1-0.9,1.4c-0.4,0.4-0.9,0.7-1.3,0.9c-0.4,0.1-1,0.3-1.6,0.3
		c-0.6,0-1.2-0.1-1.6-0.3c-0.4-0.1-0.9-0.4-1.3-0.9s-0.7-0.9-0.9-1.4c-0.1-0.6-0.3-1.2-0.3-1.9c0-0.7,0.1-1.3,0.3-1.9s0.4-1,0.9-1.4
		c0.4-0.4,0.9-0.7,1.3-0.9c0.4-0.1,1-0.3,1.6-0.3c0.6,0,1.2,0.1,1.6,0.3s1,0.6,1.3,0.9c0.3,0.3,0.7,0.9,0.9,1.4
		S170.7,256.6,170.7,257.3z M176.7,253.5c0.1-0.1,0.3-0.3,0.4-0.3c0.1-0.1,0.3-0.1,0.6-0.1h2.2l-13.3,17.4c-0.1,0.1-0.3,0.3-0.4,0.3
		c-0.1,0.1-0.3,0.1-0.6,0.1h-2.3L176.7,253.5z M168.3,257.3c0-0.4,0-0.9-0.1-1.2c-0.1-0.3-0.1-0.6-0.4-0.7c-0.1-0.1-0.3-0.3-0.6-0.4
		c-0.3-0.1-0.4-0.1-0.7-0.1c-0.3,0-0.4,0-0.7,0.1c-0.1,0.1-0.4,0.3-0.6,0.4c-0.1,0.1-0.3,0.4-0.4,0.7c-0.1,0.3-0.1,0.7-0.1,1.2
		c0,0.4,0,0.9,0.1,1.2c0.1,0.3,0.1,0.6,0.4,0.7c0.3,0.1,0.3,0.3,0.6,0.4c0.1,0.1,0.4,0.1,0.7,0.1c0.3,0,0.4,0,0.7-0.1
		c0.3-0.1,0.4-0.3,0.6-0.4c0.1-0.1,0.3-0.4,0.4-0.7S168.3,257.7,168.3,257.3z M180.7,266.7c0,0.7-0.1,1.3-0.3,1.9
		c-0.3,0.6-0.6,1-0.9,1.4c-0.4,0.4-0.9,0.7-1.3,0.9s-1,0.3-1.6,0.3c-0.6,0-1.2-0.1-1.6-0.3c-0.4-0.1-0.9-0.4-1.3-0.9
		c-0.4-0.4-0.7-0.9-0.9-1.4c-0.1-0.6-0.3-1.2-0.3-1.9s0.1-1.3,0.3-1.9c0.1-0.6,0.4-1,0.9-1.4c0.4-0.4,0.9-0.7,1.3-0.9s1-0.3,1.6-0.3
		c0.6,0,1.2,0.1,1.6,0.3s1,0.6,1.3,0.9c0.4,0.4,0.7,0.9,0.9,1.4C180.6,265.4,180.7,266,180.7,266.7z M178.4,266.7
		c0-0.4,0-0.9-0.1-1.2c-0.1-0.3-0.3-0.6-0.4-0.7s-0.3-0.3-0.6-0.4c-0.3-0.1-0.4-0.1-0.7-0.1s-0.4,0-0.7,0.1
		c-0.1,0.1-0.4,0.3-0.6,0.4c-0.1,0.1-0.3,0.4-0.4,0.7c-0.1,0.3-0.1,0.7-0.1,1.2s0,0.9,0.1,1.2c0.1,0.3,0.1,0.6,0.4,0.7
		c0.1,0.1,0.3,0.3,0.6,0.4c0.1,0.1,0.4,0.1,0.7,0.1s0.4,0,0.7-0.1c0.3-0.1,0.4-0.3,0.6-0.4c0.1-0.1,0.3-0.4,0.4-0.7
		S178.4,267.1,178.4,266.7z"/>
</g>
<g>
	<path class="st6" d="M158.5,460.1h3.6v-10.4c0-0.4,0-0.9,0-1.3l-2.6,2.2c-0.1,0.1-0.1,0.1-0.3,0.1s-0.3,0-0.3,0
		c-0.1,0-0.3,0-0.4-0.1c-0.1-0.1-0.3-0.1-0.3-0.3l-1-1.3l5.5-4.6h2.5V460h3.2v2.3h-9.9V460.1z"/>
	<path class="st6" d="M177.8,451.1c0.7,0,1.3,0.1,2,0.3c0.6,0.3,1.2,0.6,1.7,1c0.4,0.4,0.9,1,1.2,1.7s0.4,1.4,0.4,2.3
		c0,0.9-0.1,1.6-0.4,2.3c-0.3,0.7-0.7,1.3-1.3,1.9s-1.2,1-2,1.3c-0.9,0.3-1.6,0.4-2.6,0.4c-1,0-1.9-0.1-2.6-0.4
		c-0.7-0.3-1.4-0.7-1.9-1.3c-0.4-0.6-1-1.2-1.2-2c-0.3-0.7-0.4-1.6-0.4-2.6c0-0.9,0.1-1.7,0.6-2.6c0.3-0.9,0.9-1.7,1.6-2.8l4.2-5.7
		c0.1-0.1,0.4-0.4,0.6-0.4c0.3-0.1,0.6-0.1,1-0.1h2.8L176,451c-0.1,0.1-0.3,0.3-0.3,0.4c-0.1,0.1-0.1,0.3-0.3,0.4
		c0.3-0.1,0.7-0.3,1.2-0.4C176.9,451.3,177.3,451.1,177.8,451.1z M173.4,456.8c0,0.4,0,1,0.1,1.3c0.1,0.4,0.3,0.7,0.6,1
		c0.3,0.3,0.6,0.6,1,0.7s0.9,0.3,1.3,0.3s0.9-0.1,1.3-0.3s0.7-0.4,1-0.7c0.3-0.3,0.6-0.6,0.7-1c0.1-0.4,0.3-0.9,0.3-1.3
		c0-0.6-0.1-1-0.3-1.4c-0.1-0.4-0.4-0.7-0.7-1c-0.3-0.3-0.6-0.4-1-0.6c-0.4-0.1-0.9-0.3-1.3-0.3s-0.9,0.1-1.3,0.3
		c-0.4,0.1-0.7,0.4-1,0.7c-0.3,0.3-0.4,0.6-0.7,1C173.5,455.8,173.4,456.2,173.4,456.8z"/>
	<path class="st6" d="M192.8,448.8c0,0.7-0.1,1.3-0.3,1.9c-0.3,0.6-0.6,1-0.9,1.4c-0.4,0.4-0.9,0.7-1.3,0.9c-0.4,0.1-1,0.3-1.6,0.3
		c-0.6,0-1.2-0.1-1.6-0.3s-0.9-0.4-1.3-0.9c-0.4-0.4-0.7-0.9-0.9-1.4c-0.1-0.6-0.3-1.2-0.3-1.9c0-0.7,0.1-1.3,0.3-1.9s0.4-1,0.9-1.4
		s0.9-0.7,1.3-0.9c0.4-0.1,1-0.3,1.6-0.3c0.6,0,1.2,0.1,1.6,0.3c0.4,0.1,1,0.6,1.3,0.9c0.3,0.3,0.7,0.9,0.9,1.4
		C192.7,447.5,192.8,448.1,192.8,448.8z M198.8,444.9c0.1-0.1,0.3-0.3,0.4-0.3c0.1-0.1,0.3-0.1,0.6-0.1h2.2l-13.3,17.4
		c-0.1,0.1-0.3,0.3-0.4,0.3c-0.1,0.1-0.3,0.1-0.6,0.1h-2.3L198.8,444.9z M190.4,448.8c0-0.4,0-0.9-0.1-1.2s-0.1-0.6-0.4-0.7
		c-0.1-0.1-0.3-0.3-0.6-0.4c-0.3-0.1-0.4-0.1-0.7-0.1c-0.3,0-0.4,0-0.7,0.1c-0.1,0.1-0.4,0.3-0.6,0.4s-0.3,0.4-0.4,0.7
		c-0.1,0.3-0.1,0.7-0.1,1.2s0,0.9,0.1,1.2c0.1,0.3,0.1,0.6,0.4,0.7c0.3,0.1,0.3,0.3,0.6,0.4c0.1,0.1,0.4,0.1,0.7,0.1
		c0.3,0,0.4,0,0.7-0.1c0.3-0.1,0.4-0.3,0.6-0.4s0.3-0.4,0.4-0.7C190.4,449.7,190.4,449.2,190.4,448.8z M202.8,458.1
		c0,0.7-0.1,1.3-0.3,1.9c-0.3,0.6-0.6,1-0.9,1.4c-0.4,0.4-0.9,0.7-1.3,0.9c-0.4,0.1-1,0.3-1.6,0.3s-1.2-0.1-1.6-0.3
		c-0.4-0.1-0.9-0.4-1.3-0.9c-0.4-0.4-0.7-0.9-0.9-1.4c-0.1-0.6-0.3-1.2-0.3-1.9c0-0.7,0.1-1.3,0.3-1.9s0.4-1,0.9-1.4
		s0.9-0.7,1.3-0.9c0.4-0.1,1-0.3,1.6-0.3s1.2,0.1,1.6,0.3c0.4,0.1,1,0.6,1.3,0.9c0.4,0.4,0.7,0.9,0.9,1.4
		C202.7,456.8,202.8,457.5,202.8,458.1z M200.5,458.1c0-0.4,0-0.9-0.1-1.2c-0.1-0.3-0.3-0.6-0.4-0.7c-0.1-0.1-0.3-0.3-0.6-0.4
		c-0.3-0.1-0.4-0.1-0.7-0.1c-0.3,0-0.4,0-0.7,0.1c-0.1,0.1-0.4,0.3-0.6,0.4s-0.3,0.4-0.4,0.7c-0.1,0.3-0.1,0.7-0.1,1.2
		s0,0.9,0.1,1.2c0.1,0.3,0.1,0.6,0.4,0.7c0.1,0.1,0.3,0.3,0.6,0.4c0.1,0.1,0.4,0.1,0.7,0.1c0.3,0,0.4,0,0.7-0.1
		c0.3-0.1,0.4-0.3,0.6-0.4s0.3-0.4,0.4-0.7C200.5,459,200.5,458.5,200.5,458.1z"/>
</g>
<g>
	<g>
		<path class="st6" d="M258,371.9c0.9,0,1.6,0.1,2.3,0.4c0.7,0.3,1.3,0.6,1.7,1s0.9,1,1.2,1.6s0.4,1.3,0.4,2c0,0.7-0.1,1.3-0.3,1.9
			c-0.1,0.6-0.4,1.2-0.7,1.6c-0.3,0.4-0.7,1-1.2,1.4c-0.4,0.4-0.9,1-1.3,1.4l-4.1,4.1c0.4-0.1,0.7-0.1,1.2-0.3
			c0.4,0,0.7-0.1,1.2-0.1h4.6c0.3,0,0.6,0.1,0.7,0.3s0.3,0.4,0.3,0.7v1.9h-12.3v-1c0-0.1,0-0.4,0.1-0.6c0.1-0.1,0.3-0.4,0.4-0.6
			l5.4-5.5c0.4-0.4,0.9-0.9,1.2-1.3s0.7-0.9,0.9-1.3c0.3-0.4,0.4-0.9,0.6-1.3c0.1-0.4,0.1-0.9,0.1-1.3s0-0.9-0.1-1.2
			s-0.3-0.6-0.6-0.9c-0.3-0.3-0.4-0.4-0.9-0.4s-0.7-0.1-1-0.1c-0.7,0-1.3,0.1-1.7,0.6c-0.4,0.4-0.9,0.9-1,1.4
			c-0.1,0.3-0.3,0.6-0.4,0.7c-0.1,0.1-0.4,0.1-0.7,0.1c-0.1,0-0.3,0-0.4,0l-1.6-0.3c0.1-0.9,0.3-1.6,0.7-2.3
			c0.3-0.6,0.7-1.2,1.3-1.6c0.6-0.4,1.2-0.7,1.9-1C256.4,372,257.2,371.9,258,371.9z"/>
		<path class="st6" d="M272,390.3c-0.9,0-1.7-0.1-2.5-0.4c-0.7-0.3-1.4-0.6-2-1s-1-1-1.3-1.6c-0.3-0.6-0.4-1.3-0.4-2.2
			c0-1,0.3-1.9,0.7-2.6c0.4-0.7,1.3-1.3,2.5-1.6c-0.9-0.3-1.6-0.9-2-1.6c-0.4-0.7-0.6-1.4-0.6-2.5c0-0.7,0.1-1.3,0.4-1.9
			s0.7-1.2,1.2-1.6c0.4-0.4,1-0.7,1.7-1c0.7-0.3,1.4-0.4,2.3-0.4s1.6,0.1,2.3,0.4c0.7,0.3,1.3,0.6,1.7,1s0.9,0.9,1.2,1.6
			c0.3,0.6,0.4,1.2,0.4,1.9c0,0.9-0.3,1.7-0.7,2.5c-0.4,0.7-1.2,1.2-1.9,1.6c1.2,0.3,1.9,0.9,2.5,1.6c0.6,0.7,0.7,1.6,0.7,2.6
			c0,0.7-0.1,1.4-0.4,2.2c-0.3,0.7-0.7,1.2-1.3,1.6s-1.2,0.9-2,1C273.8,390.2,272.9,390.3,272,390.3z M272,387.8c0.4,0,1,0,1.3-0.1
			c0.3-0.1,0.7-0.3,1-0.6c0.3-0.3,0.4-0.6,0.6-0.9c0.1-0.3,0.1-0.7,0.1-1.2c0-1-0.3-1.7-0.9-2.2c-0.6-0.4-1.3-0.7-2.3-0.7
			s-1.7,0.3-2.3,0.7c-0.6,0.4-0.9,1.3-0.9,2.2c0,0.4,0,0.7,0.1,1.2c0.1,0.3,0.3,0.7,0.6,0.9s0.6,0.4,1,0.6
			C271,387.8,271.6,387.8,272,387.8z M272,379.6c0.4,0,0.9-0.1,1.3-0.3c0.3-0.1,0.6-0.4,0.9-0.6c0.1-0.3,0.3-0.6,0.4-0.9
			s0.1-0.7,0.1-1s0-0.7-0.1-1s-0.3-0.6-0.4-0.9s-0.4-0.4-0.9-0.6c-0.3-0.1-0.7-0.1-1.2-0.1s-0.9,0-1.2,0.1c-0.3,0.1-0.6,0.3-0.9,0.6
			s-0.4,0.4-0.4,0.9c-0.1,0.3-0.1,0.6-0.1,1c0,0.3,0,0.7,0.1,1s0.3,0.6,0.4,0.9c0.1,0.3,0.4,0.4,0.9,0.6
			C271.5,379.4,271.6,379.6,272,379.6z"/>
		<path class="st6" d="M288.3,376.5c0,0.7-0.1,1.3-0.3,1.9c-0.3,0.6-0.6,1-0.9,1.4c-0.4,0.4-0.9,0.7-1.3,0.9c-0.4,0.1-1,0.3-1.6,0.3
			s-1.2-0.1-1.6-0.3c-0.4-0.1-0.9-0.4-1.3-0.9c-0.4-0.4-0.7-0.9-0.9-1.4s-0.3-1.2-0.3-1.9s0.1-1.3,0.3-1.9c0.1-0.6,0.4-1,0.9-1.4
			c0.4-0.4,0.9-0.7,1.3-0.9c0.4-0.1,1-0.3,1.6-0.3s1.2,0.1,1.6,0.3s1,0.6,1.3,0.9c0.3,0.3,0.7,0.9,0.9,1.4S288.3,375.8,288.3,376.5z
			 M294.2,372.6c0.1-0.1,0.3-0.3,0.4-0.3c0.1-0.1,0.3-0.1,0.6-0.1h2.2l-13.3,17.4c-0.1,0.1-0.3,0.3-0.4,0.3
			c-0.1,0.1-0.3,0.1-0.6,0.1h-2.3L294.2,372.6z M285.8,376.5c0-0.4,0-0.9-0.1-1.2s-0.1-0.6-0.4-0.7c-0.1-0.1-0.3-0.3-0.6-0.4
			c-0.3-0.1-0.4-0.1-0.7-0.1c-0.3,0-0.4,0-0.7,0.1c-0.1,0.1-0.4,0.3-0.6,0.4s-0.3,0.4-0.4,0.7c-0.1,0.3-0.1,0.7-0.1,1.2
			s0,0.9,0.1,1.2c0.1,0.3,0.1,0.6,0.4,0.7c0.3,0.1,0.3,0.3,0.6,0.4c0.1,0.1,0.4,0.1,0.7,0.1c0.3,0,0.4,0,0.7-0.1
			c0.3-0.1,0.4-0.3,0.6-0.4c0.1-0.1,0.3-0.4,0.4-0.7S285.8,377,285.8,376.5z M298.3,385.8c0,0.7-0.1,1.3-0.3,1.9
			c-0.3,0.6-0.6,1-0.9,1.4c-0.4,0.4-0.9,0.7-1.3,0.9s-1,0.3-1.6,0.3c-0.6,0-1.2-0.1-1.6-0.3s-0.9-0.4-1.3-0.9
			c-0.4-0.4-0.7-0.9-0.9-1.4c-0.1-0.6-0.3-1.2-0.3-1.9c0-0.7,0.1-1.3,0.3-1.9c0.1-0.6,0.4-1,0.9-1.4c0.4-0.4,0.9-0.7,1.3-0.9
			s1-0.3,1.6-0.3c0.6,0,1.2,0.1,1.6,0.3s1,0.6,1.3,0.9c0.4,0.4,0.7,0.9,0.9,1.4C298.1,384.5,298.3,385.1,298.3,385.8z M296,385.8
			c0-0.4,0-0.9-0.1-1.2s-0.3-0.6-0.4-0.7c-0.1-0.1-0.3-0.3-0.6-0.4s-0.4-0.1-0.7-0.1c-0.3,0-0.4,0-0.7,0.1c-0.1,0.1-0.4,0.3-0.6,0.4
			c-0.1,0.1-0.3,0.4-0.4,0.7c-0.1,0.3-0.1,0.7-0.1,1.2c0,0.4,0,0.9,0.1,1.2c0.1,0.3,0.1,0.6,0.4,0.7c0.1,0.1,0.3,0.3,0.6,0.4
			c0.1,0.1,0.4,0.1,0.7,0.1c0.3,0,0.4,0,0.7-0.1s0.4-0.3,0.6-0.4c0.1-0.1,0.3-0.4,0.4-0.7S296,386.2,296,385.8z"/>
	</g>
	<g>
		<path class="st6" d="M68,379.1c0.9,0,1.6,0.1,2.3,0.4c0.7,0.3,1.3,0.6,1.7,1c0.4,0.4,0.9,1,1.2,1.6c0.3,0.6,0.4,1.3,0.4,2
			c0,0.7-0.1,1.3-0.3,1.9c-0.1,0.6-0.4,1.2-0.7,1.6c-0.3,0.4-0.7,1-1.2,1.4c-0.4,0.4-0.9,1-1.3,1.4l-4.1,4.1
			c0.4-0.1,0.7-0.1,1.2-0.3c0.4,0,0.7-0.1,1.2-0.1H73c0.3,0,0.6,0.1,0.7,0.3c0.1,0.1,0.3,0.4,0.3,0.7v1.9H61.7v-1
			c0-0.1,0-0.4,0.1-0.6c0.1-0.1,0.3-0.4,0.4-0.6l5.4-5.5c0.4-0.4,0.9-0.9,1.2-1.3c0.3-0.4,0.7-0.9,0.9-1.3c0.3-0.4,0.4-0.9,0.6-1.3
			c0.1-0.4,0.1-0.9,0.1-1.3c0-0.4,0-0.9-0.1-1.2c-0.1-0.3-0.3-0.6-0.6-0.9s-0.4-0.4-0.9-0.4c-0.3-0.1-0.7-0.1-1-0.1
			c-0.7,0-1.3,0.1-1.7,0.6c-0.4,0.4-0.9,0.9-1,1.4c-0.1,0.3-0.3,0.6-0.4,0.7s-0.4,0.1-0.7,0.1c-0.1,0-0.3,0-0.4,0l-1.6-0.3
			c0.1-0.9,0.3-1.6,0.7-2.3c0.3-0.6,0.7-1.2,1.3-1.6s1.2-0.7,1.9-1C66.5,379.2,67.2,379.1,68,379.1z"/>
		<path class="st6" d="M88.5,388.2c0,1.6-0.1,2.9-0.4,4.1c-0.3,1.2-0.7,2-1.4,2.9c-0.6,0.7-1.3,1.3-2,1.7s-1.7,0.6-2.6,0.6
			c-0.9,0-1.7-0.1-2.6-0.6c-0.7-0.4-1.4-0.9-2-1.7c-0.6-0.7-1-1.7-1.3-2.9c-0.3-1.2-0.4-2.5-0.4-4.1c0-1.6,0.1-2.9,0.4-4.1
			c0.3-1.2,0.7-2,1.3-2.9c0.6-0.7,1.3-1.3,2-1.7s1.6-0.6,2.6-0.6c0.9,0,1.7,0.1,2.6,0.6s1.4,0.9,2,1.7c0.6,0.7,1,1.7,1.4,2.9
			C88.4,385.3,88.5,386.6,88.5,388.2z M85.5,388.2c0-1.3-0.1-2.3-0.3-3.2c-0.1-0.9-0.4-1.6-0.7-2c-0.3-0.4-0.7-0.9-1.2-1
			c-0.4-0.1-0.9-0.3-1.3-0.3c-0.4,0-0.9,0.1-1.3,0.3c-0.4,0.1-0.7,0.6-1,1s-0.6,1.2-0.7,2c-0.1,0.9-0.3,1.9-0.3,3.2s0.1,2.3,0.3,3.2
			c0.1,0.9,0.4,1.6,0.7,2c0.3,0.4,0.7,0.9,1,1c0.3,0.1,0.9,0.3,1.3,0.3c0.4,0,0.9-0.1,1.3-0.3c0.4-0.1,0.7-0.6,1.2-1
			c0.3-0.4,0.6-1.2,0.7-2C85.4,390.5,85.5,389.5,85.5,388.2z"/>
		<path class="st6" d="M98.3,383.6c0,0.7-0.1,1.3-0.3,1.9s-0.6,1-0.9,1.4c-0.4,0.4-0.9,0.7-1.3,0.9c-0.4,0.1-1,0.3-1.6,0.3
			c-0.6,0-1.2-0.1-1.6-0.3c-0.4-0.1-0.9-0.4-1.3-0.9s-0.7-0.9-0.9-1.4s-0.3-1.2-0.3-1.9s0.1-1.3,0.3-1.9s0.4-1,0.9-1.4
			c0.4-0.4,0.9-0.7,1.3-0.9c0.4-0.1,1-0.3,1.6-0.3c0.6,0,1.2,0.1,1.6,0.3c0.4,0.1,1,0.6,1.3,0.9c0.3,0.3,0.7,0.9,0.9,1.4
			C98.1,382.3,98.3,382.8,98.3,383.6z M104.2,379.8c0.1-0.1,0.3-0.3,0.4-0.3c0.1-0.1,0.3-0.1,0.6-0.1h2.2l-13.3,17.4
			c-0.1,0.1-0.3,0.3-0.4,0.3c-0.1,0.1-0.3,0.1-0.6,0.1h-2.3L104.2,379.8z M95.9,383.6c0-0.4,0-0.9-0.1-1.2c-0.1-0.3-0.1-0.6-0.4-0.7
			s-0.3-0.3-0.6-0.4c-0.3-0.1-0.4-0.1-0.7-0.1c-0.3,0-0.4,0-0.7,0.1c-0.1,0.1-0.4,0.3-0.6,0.4c-0.1,0.1-0.3,0.4-0.4,0.7
			c-0.1,0.3-0.1,0.7-0.1,1.2s0,0.9,0.1,1.2c0.1,0.3,0.1,0.6,0.4,0.7c0.3,0.1,0.3,0.3,0.6,0.4s0.4,0.1,0.7,0.1c0.3,0,0.4,0,0.7-0.1
			c0.3-0.1,0.4-0.3,0.6-0.4s0.3-0.4,0.4-0.7C95.8,384.4,95.9,384,95.9,383.6z M108.3,393c0,0.7-0.1,1.3-0.3,1.9
			c-0.1,0.6-0.6,1-0.9,1.4c-0.4,0.4-0.9,0.7-1.3,0.9c-0.4,0.1-1,0.3-1.6,0.3c-0.6,0-1.2-0.1-1.6-0.3c-0.4-0.1-0.9-0.4-1.3-0.9
			c-0.4-0.4-0.7-0.9-0.9-1.4c-0.1-0.6-0.3-1.2-0.3-1.9c0-0.7,0.1-1.3,0.3-1.9c0.1-0.6,0.4-1,0.9-1.4c0.4-0.4,0.9-0.7,1.3-0.9
			c0.4-0.1,1-0.3,1.6-0.3c0.6,0,1.2,0.1,1.6,0.3c0.4,0.1,1,0.6,1.3,0.9c0.4,0.4,0.7,0.9,0.9,1.4C108.3,391.5,108.3,392.3,108.3,393z
			 M105.9,393c0-0.4,0-0.9-0.1-1.2s-0.3-0.6-0.4-0.7c-0.1-0.1-0.3-0.3-0.6-0.4c-0.3-0.1-0.4-0.1-0.7-0.1s-0.4,0-0.7,0.1
			c-0.1,0.1-0.4,0.3-0.6,0.4c-0.1,0.1-0.3,0.4-0.4,0.7c-0.1,0.3-0.1,0.7-0.1,1.2c0,0.4,0,0.9,0.1,1.2c0.1,0.3,0.1,0.6,0.4,0.7
			c0.1,0.1,0.3,0.3,0.6,0.4c0.1,0.1,0.4,0.1,0.7,0.1s0.4,0,0.7-0.1c0.3-0.1,0.4-0.3,0.6-0.4c0.1-0.1,0.3-0.4,0.4-0.7
			C105.9,393.7,105.9,393.4,105.9,393z"/>
	</g>
</g>
<g>
	<path class="st5" d="M180,722.4l-81.2-32.8c13.6-33.6,44.9-54.7,81.2-54.7V722.4z"/>
	<path class="st2" d="M180,722.4v-87.4c48.3,0,87.6,39.1,87.6,87.6s-39.1,87.6-87.6,87.6c-48.3,0-87.6-39.1-87.6-87.6
		c0-12,1.9-21.6,6.4-32.8L180,722.4z"/>
	<g>
		<path class="st6" d="M170.7,760.2h3.6v-10.4c0-0.4,0-0.9,0-1.3l-2.6,2.2c-0.1,0.1-0.1,0.1-0.3,0.1c-0.1,0-0.3,0-0.3,0
			c-0.1,0-0.3,0-0.4-0.1c-0.1,0-0.3-0.1-0.3-0.3l-1-1.3l5.5-4.6h2.5v15.7h3.2v2.3h-9.9V760.2z"/>
		<path class="st6" d="M189.4,744.4c0.9,0,1.6,0.1,2.2,0.3c0.7,0.3,1.2,0.6,1.7,1c0.6,0.4,0.9,0.9,1,1.4c0.3,0.6,0.4,1.2,0.4,1.9
			c0,0.6,0,1-0.1,1.4c-0.1,0.4-0.3,0.9-0.6,1.2s-0.6,0.6-0.9,0.9s-0.7,0.4-1.2,0.6c1,0.3,1.9,0.9,2.5,1.6c0.6,0.7,0.7,1.6,0.7,2.6
			c0,0.9-0.1,1.7-0.4,2.3c-0.3,0.7-0.7,1.3-1.3,1.7c-0.6,0.4-1.2,0.9-1.9,1c-0.7,0.3-1.4,0.3-2.3,0.3c-0.9,0-1.7-0.1-2.3-0.3
			c-0.6-0.1-1.3-0.6-1.7-0.9c-0.4-0.4-0.9-0.9-1.3-1.4c-0.3-0.6-0.6-1.3-0.9-2l1.3-0.6c0.3-0.1,0.4-0.1,0.7-0.1c0.1,0,0.4,0,0.6,0.1
			c0.1,0.1,0.3,0.3,0.4,0.4c0.1,0.3,0.3,0.6,0.4,0.9c0.1,0.3,0.4,0.6,0.6,0.7c0.3,0.3,0.6,0.4,0.9,0.6s0.7,0.1,1.2,0.1
			c0.6,0,1-0.1,1.3-0.3c0.4-0.1,0.7-0.4,1-0.7c0.3-0.3,0.4-0.6,0.6-0.9c0.1-0.3,0.1-0.7,0.1-1c0-0.4,0-0.9-0.1-1.2
			c-0.1-0.3-0.3-0.6-0.6-0.9c-0.3-0.3-0.7-0.4-1.3-0.6s-1.3-0.1-2.2-0.1v-2.2c0.7,0,1.3,0,1.9-0.1c0.6-0.1,0.9-0.3,1.2-0.6
			s0.4-0.6,0.6-0.9c0.1-0.3,0.1-0.7,0.1-1.2c0-0.9-0.3-1.4-0.7-1.9c-0.4-0.4-1.2-0.6-1.9-0.6s-1.3,0.1-1.7,0.6
			c-0.4,0.4-0.9,0.9-1,1.4c-0.1,0.3-0.3,0.6-0.4,0.7c-0.1,0.1-0.4,0.1-0.7,0.1c-0.1,0-0.3,0-0.4,0l-1.6-0.3c0.1-0.9,0.4-1.6,0.7-2.3
			c0.3-0.7,0.7-1.2,1.3-1.6c0.6-0.4,1.2-0.7,1.9-1C187.8,744.5,188.6,744.4,189.4,744.4z"/>
		<path class="st6" d="M205.1,749c0,0.7-0.1,1.3-0.3,1.9c-0.3,0.6-0.6,1-0.9,1.4c-0.4,0.4-0.9,0.7-1.3,0.9c-0.4,0.1-1,0.3-1.6,0.3
			c-0.6,0-1.2-0.1-1.6-0.3c-0.4-0.1-0.9-0.4-1.3-0.9c-0.4-0.4-0.7-0.9-0.9-1.4c-0.1-0.6-0.3-1.2-0.3-1.9s0.1-1.3,0.3-1.9
			c0.1-0.6,0.4-1,0.9-1.4c0.4-0.4,0.9-0.7,1.3-0.9c0.4-0.1,1-0.3,1.6-0.3c0.6,0,1.2,0.1,1.6,0.3c0.4,0.1,1,0.6,1.3,0.9
			c0.3,0.3,0.7,0.9,0.9,1.4C204.9,747.6,205.1,748.3,205.1,749z M211,745.1c0.1-0.1,0.3-0.3,0.4-0.3c0.1,0,0.3-0.1,0.6-0.1h2.2
			l-13.3,17.4c-0.1,0.1-0.3,0.3-0.4,0.3c-0.1,0.1-0.3,0.1-0.6,0.1h-2.3L211,745.1z M202.6,749c0-0.4,0-0.9-0.1-1.2
			c-0.1-0.3-0.1-0.6-0.4-0.7c-0.1-0.1-0.3-0.3-0.6-0.4c-0.3-0.1-0.4-0.1-0.7-0.1c-0.3,0-0.4,0-0.7,0.1c-0.1,0.1-0.4,0.3-0.6,0.4
			c-0.1,0.1-0.3,0.4-0.4,0.7c-0.1,0.3-0.1,0.7-0.1,1.2s0,0.9,0.1,1.2c0.1,0.3,0.1,0.6,0.4,0.7s0.3,0.3,0.6,0.4
			c0.1,0.1,0.4,0.1,0.7,0.1c0.3,0,0.4,0,0.7-0.1c0.3-0.1,0.4-0.3,0.6-0.4c0.1-0.1,0.3-0.4,0.4-0.7
			C202.6,749.8,202.6,749.5,202.6,749z M215.1,758.3c0,0.7-0.1,1.3-0.3,1.9c-0.3,0.6-0.6,1-0.9,1.4c-0.4,0.4-0.9,0.7-1.3,0.9
			c-0.4,0.1-1,0.3-1.6,0.3c-0.6,0-1.2-0.1-1.6-0.3c-0.4-0.1-0.9-0.4-1.3-0.9c-0.4-0.4-0.7-0.9-0.9-1.4c-0.1-0.6-0.3-1.2-0.3-1.9
			s0.1-1.3,0.3-1.9c0.1-0.6,0.4-1,0.9-1.4c0.4-0.4,0.9-0.7,1.3-0.9c0.4-0.1,1-0.3,1.6-0.3c0.6,0,1.2,0.1,1.6,0.3
			c0.4,0.1,1,0.6,1.3,0.9c0.3,0.3,0.7,0.9,0.9,1.4C214.9,757,215.1,757.6,215.1,758.3z M212.8,758.3c0-0.4,0-0.9-0.1-1.2
			c-0.1-0.3-0.3-0.6-0.4-0.7c-0.1-0.1-0.3-0.3-0.6-0.4c-0.3-0.1-0.4-0.1-0.7-0.1s-0.4,0-0.7,0.1c-0.1,0.1-0.4,0.3-0.6,0.4
			s-0.3,0.4-0.4,0.7c-0.1,0.3-0.1,0.7-0.1,1.2c0,0.4,0,0.9,0.1,1.2c0.1,0.3,0.1,0.6,0.4,0.7c0.1,0.1,0.3,0.3,0.6,0.4
			c0.1,0.1,0.4,0.1,0.7,0.1s0.4,0,0.7-0.1c0.3-0.1,0.4-0.3,0.6-0.4c0.1-0.1,0.3-0.4,0.4-0.7C212.8,759.2,212.8,758.7,212.8,758.3z"
			/>
	</g>
	<g>
		<path class="st6" d="M139.1,670.5c0.9,0,1.6,0.1,2.2,0.3c0.7,0.3,1.2,0.6,1.7,1c0.6,0.4,0.9,0.9,1,1.4c0.3,0.6,0.4,1.2,0.4,1.9
			c0,0.6,0,1-0.1,1.4c-0.1,0.4-0.3,0.9-0.6,1.2s-0.6,0.6-0.9,0.9c-0.3,0.3-0.7,0.4-1.2,0.6c1,0.3,1.9,0.9,2.5,1.6
			c0.6,0.7,0.7,1.6,0.7,2.6c0,0.9-0.1,1.7-0.4,2.3c-0.3,0.7-0.7,1.3-1.3,1.7s-1.2,0.9-1.9,1c-0.7,0.3-1.4,0.3-2.3,0.3
			c-0.9,0-1.7-0.1-2.3-0.3c-0.6-0.1-1.3-0.6-1.7-0.9c-0.4-0.4-0.9-0.9-1.3-1.4c-0.3-0.6-0.6-1.3-0.9-2l1.3-0.6
			c0.3-0.1,0.4-0.1,0.7-0.1c0.1,0,0.4,0,0.6,0.1c0.1,0.1,0.3,0.3,0.4,0.4c0.1,0.3,0.3,0.6,0.4,0.9c0.1,0.3,0.4,0.6,0.6,0.7
			c0.3,0.3,0.6,0.4,0.9,0.6s0.7,0.1,1.2,0.1c0.6,0,1-0.1,1.3-0.3c0.4-0.1,0.7-0.4,1-0.7s0.4-0.6,0.6-0.9c0.1-0.3,0.1-0.7,0.1-1
			c0-0.4,0-0.9-0.1-1.2s-0.3-0.6-0.6-0.9s-0.7-0.4-1.3-0.6c-0.6-0.1-1.3-0.1-2.2-0.1v-2.2c0.7,0,1.3,0,1.9-0.1
			c0.6-0.1,0.9-0.3,1.2-0.6c0.3-0.3,0.4-0.6,0.6-0.9c0.1-0.3,0.1-0.7,0.1-1.2c0-0.9-0.3-1.4-0.7-1.9c-0.4-0.4-1.2-0.6-1.9-0.6
			c-0.7,0-1.3,0.1-1.7,0.6c-0.4,0.4-0.9,0.9-1,1.4c-0.1,0.3-0.3,0.6-0.4,0.7c-0.1,0.1-0.4,0.1-0.7,0.1c-0.1,0-0.3,0-0.4,0l-1.6-0.3
			c0.1-0.9,0.4-1.6,0.7-2.3c0.3-0.7,0.7-1.2,1.3-1.6c0.6-0.4,1.2-0.7,1.9-1C137.5,670.6,138.2,670.5,139.1,670.5z"/>
		<path class="st6" d="M154.6,675.1c0,0.7-0.1,1.3-0.3,1.9c-0.3,0.6-0.6,1-0.9,1.4c-0.4,0.4-0.9,0.7-1.3,0.9c-0.4,0.1-1,0.3-1.6,0.3
			c-0.6,0-1.2-0.1-1.6-0.3c-0.4-0.1-0.9-0.4-1.3-0.9c-0.4-0.4-0.7-0.9-0.9-1.4c-0.1-0.6-0.3-1.2-0.3-1.9c0-0.7,0.1-1.3,0.3-1.9
			c0.1-0.6,0.4-1,0.9-1.4c0.4-0.4,0.9-0.7,1.3-0.9c0.4-0.1,1-0.3,1.6-0.3c0.6,0,1.2,0.1,1.6,0.3s1,0.6,1.3,0.9
			c0.3,0.3,0.7,0.9,0.9,1.4C154.6,673.6,154.6,674.4,154.6,675.1z M160.6,671.2c0.1-0.1,0.3-0.3,0.4-0.3c0.1,0,0.3-0.1,0.6-0.1h2.2
			l-13.3,17.4c-0.1,0.1-0.3,0.3-0.4,0.3c-0.1,0.1-0.3,0.1-0.6,0.1h-2.3L160.6,671.2z M152.3,675.1c0-0.4,0-0.9-0.1-1.2
			c-0.1-0.3-0.1-0.6-0.4-0.7c-0.1-0.1-0.3-0.3-0.6-0.4c-0.3-0.1-0.4-0.1-0.7-0.1s-0.4,0-0.7,0.1c-0.1,0.1-0.4,0.3-0.6,0.4
			c-0.1,0.1-0.3,0.4-0.4,0.7c-0.1,0.3-0.1,0.7-0.1,1.2c0,0.4,0,0.9,0.1,1.2c0.1,0.3,0.1,0.6,0.4,0.7c0.3,0.1,0.3,0.3,0.6,0.4
			c0.1,0.1,0.4,0.1,0.7,0.1s0.4,0,0.7-0.1c0.3-0.1,0.4-0.3,0.6-0.4c0.1-0.1,0.3-0.4,0.4-0.7C152.3,675.8,152.3,675.5,152.3,675.1z
			 M164.8,684.4c0,0.7-0.1,1.3-0.3,1.9c-0.3,0.6-0.6,1-0.9,1.4c-0.4,0.4-0.9,0.7-1.3,0.9c-0.4,0.1-1,0.3-1.6,0.3
			c-0.6,0-1.2-0.1-1.6-0.3c-0.4-0.1-0.9-0.4-1.3-0.9s-0.7-0.9-0.9-1.4c-0.1-0.6-0.3-1.2-0.3-1.9c0-0.7,0.1-1.3,0.3-1.9
			c0.1-0.6,0.4-1,0.9-1.4s0.9-0.7,1.3-0.9c0.4-0.1,1-0.3,1.6-0.3c0.6,0,1.2,0.1,1.6,0.3c0.4,0.1,1,0.6,1.3,0.9s0.7,0.9,0.9,1.4
			C164.6,683.1,164.8,683.6,164.8,684.4z M162.5,684.4c0-0.4,0-0.9-0.1-1.2c-0.1-0.3-0.3-0.6-0.4-0.7c-0.1-0.1-0.3-0.3-0.6-0.4
			c-0.3-0.1-0.4-0.1-0.7-0.1s-0.4,0-0.7,0.1c-0.1,0.1-0.4,0.3-0.6,0.4c-0.1,0.1-0.3,0.4-0.4,0.7c-0.1,0.3-0.1,0.7-0.1,1.2
			c0,0.4,0,0.9,0.1,1.2c0.1,0.3,0.1,0.6,0.4,0.7c0.1,0.1,0.3,0.3,0.6,0.4c0.1,0.1,0.4,0.1,0.7,0.1s0.4,0,0.7-0.1s0.4-0.3,0.6-0.4
			c0.1-0.1,0.3-0.4,0.4-0.7C162.3,685.2,162.5,684.8,162.5,684.4z"/>
	</g>
</g>
</svg>
