<?xml version="1.0" encoding="utf-8"?>
<!-- Generator: Adobe Illustrator 22.1.0, SVG Export Plug-In . SVG Version: 6.00 Build 0)  -->
<svg version="1.1" id="Layer_1" xmlns="http://www.w3.org/2000/svg" xmlns:xlink="http://www.w3.org/1999/xlink" x="0px" y="0px"
	 viewBox="0 0 32 32" style="enable-background:new 0 0 32 32;" xml:space="preserve">
<style type="text/css">
	.st0{fill:#A0A0A0;}
	.st1{fill:#FFFFFF;}
</style>
<title>facebook</title>
<desc>Created with Sketch.</desc>
<path id="Fill-5" class="st0" d="M16,0c8.8,0,16,7.2,16,16s-7.2,16-16,16C7.2,32,0,24.8,0,16S7.2,0,16,0"/>
<g>
	<g>
		<path class="st1" d="M24.3,11c-0.6,0.3-1.3,0.4-2,0.5c0.7-0.4,1.2-1.1,1.5-1.8c-0.7,0.4-1.4,0.6-2.2,0.8c-0.6-0.6-1.4-1-2.4-1
			c-2.1,0-3.4,1.5-3.4,3.3c0,0.3,0,0.6,0.1,0.8c-2.8-0.1-5.4-1.5-7.1-3.5c-0.3,0.5-0.5,1.1-0.5,1.7c0,1.1,0.6,2.2,1.5,2.7
			c-0.6,0-1.1-0.2-1.5-0.4c0,0,0,0,0,0c0,1.6,1.2,2.9,2.7,3.2c-0.3,0.1-0.6,0.1-0.9,0.1c-0.2,0-0.4,0-0.6-0.1
			c0.4,1.3,1.7,2.3,3.2,2.3c-1.2,0.9-2.6,1.4-4.2,1.4c-0.3,0-0.5,0-0.8,0C9.2,22,11,22.5,13,22.5c6.3,0,9.5-5,9.5-9.4
			c0-0.1,0-0.3,0-0.4C23.2,12.3,23.8,11.7,24.3,11z"/>
	</g>
</g>
</svg>
