<?xml version="1.0" encoding="utf-8"?>
<!-- Generator: Adobe Illustrator 22.1.0, SVG Export Plug-In . SVG Version: 6.00 Build 0)  -->
<svg version="1.1" id="Layer_1" xmlns="http://www.w3.org/2000/svg" xmlns:xlink="http://www.w3.org/1999/xlink" x="0px" y="0px"
	 viewBox="0 0 300 180" style="enable-background:new 0 0 300 180;" xml:space="preserve">
<style type="text/css">
	.st0{fill:none;stroke:#242626;stroke-linecap:round;stroke-linejoin:round;stroke-miterlimit:10;}
	.st1{fill:#242626;}
	.st2{fill:none;stroke:#91C433;stroke-linecap:round;stroke-linejoin:round;stroke-miterlimit:10;}
</style>
<g>
	<g>
		<g>
			<g>
				<g>
					<g>
						<line class="st0" x1="120" y1="142.8" x2="120" y2="177.7"/>
						<line class="st0" x1="126.2" y1="141.2" x2="126.2" y2="177.7"/>
					</g>
					<g>
						<line class="st0" x1="177.1" y1="142.8" x2="177.1" y2="177.7"/>
						<line class="st0" x1="170.8" y1="141.2" x2="170.8" y2="177.7"/>
					</g>
					<path class="st0" d="M158.1,131.7l4.8,6.3l9.5,3.2c9.5,3.2,20.6,7.8,20.6,17.5v19"/>
					<path class="st0" d="M138.9,131.7l-4.8,6.3l-9.5,3.2c-9.5,3.2-20.6,7.8-20.6,17.5v19"/>
					<g>
						<path class="st0" d="M131.1,92v-7.9l-3.2-3.2v-3.2h31.7c3.5,0,6.3,2.8,6.3,6.3v11.1l-7.9-3.2h-15.8l-4.8-3.2l-1.6,3.2
							L131.1,92L131.1,92z"/>
						<path class="st0" d="M165.9,104.7c0,11.1-9.5,15.9-9.5,15.9l-3.2-6.3h-9.5l-3.2,6.3c0,0-9.5-4.8-9.5-15.9"/>
						<path class="st0" d="M165.9,98.3v19c0,7.9-6.3,15.9-17.5,15.9s-17.5-7.9-17.5-15.9V95.1"/>
						<circle class="st0" cx="140.6" cy="103.1" r="4.8"/>
						<circle class="st0" cx="156.4" cy="103.1" r="4.8"/>
						<line class="st0" x1="135.9" y1="103.1" x2="131.1" y2="103.1"/>
						<line class="st0" x1="161.2" y1="103.1" x2="165.9" y2="103.1"/>
						<line class="st0" x1="145.4" y1="103.1" x2="151.7" y2="103.1"/>
					</g>
					<polyline class="st0" points="158.1,133.3 148.6,142.8 138.9,133.3 					"/>
					<g>
						<polygon class="st0" points="156.4,153.9 148.6,149.1 140.6,153.9 135.9,153.9 135.9,144.4 140.6,144.4 148.6,149.1 
							156.4,144.4 161.2,144.4 161.2,153.9 						"/>
					</g>
					<line class="st0" x1="148.6" y1="155.5" x2="148.6" y2="158.7"/>
					<line class="st0" x1="148.6" y1="161.8" x2="148.6" y2="165"/>
					<line class="st0" x1="148.6" y1="168.2" x2="148.6" y2="171.4"/>
				</g>
			</g>
		</g>
		<circle class="st1" cx="156.4" cy="100" r="1.6"/>
		<circle class="st1" cx="140.6" cy="100" r="1.6"/>
		<line class="st0" x1="148.6" y1="103.1" x2="148.6" y2="114.2"/>
		<path class="st0" d="M145.7,118.7c1.6,1.6,4.1,1.6,5.6,0"/>
	</g>
	<g>
		<path class="st0" d="M97,168.2v-4l2-8v-9c0-1.1-0.9-2-2-2s-2,0.9-2,2v-2c0-1.1-0.9-2-2-2s-2,0.9-2,2v-2c0-1.1-0.9-2-2-2
			s-2,0.9-2,2"/>
		<line class="st0" x1="91" y1="145.2" x2="91" y2="150.2"/>
		<line class="st0" x1="95" y1="147.2" x2="95" y2="151.2"/>
		<path class="st0" d="M87,149.2v-15c0-1.1-0.9-2-2-2s-2,0.9-2,2v17"/>
		<path class="st0" d="M81,146.2c-1.7,0-3,2-3,2v7l6,8v2"/>
		<polyline class="st0" points="82,177.2 82,168.2 97,168.2 97,177.2 		"/>
		<line class="st0" x1="85" y1="172.2" x2="87" y2="172.2"/>
	</g>
	<g>
		<g>
			<polyline class="st0" points="174,24.3 181,24.3 181,64.3 119,64.3 119,24.3 126,24.3 			"/>
			<polyline class="st0" points="171,34.3 171,10.3 163,2.3 129,2.3 129,34.3 			"/>
			<line class="st2" x1="132" y1="6.3" x2="160" y2="6.3"/>
			<line class="st2" x1="132" y1="10.3" x2="160" y2="10.3"/>
			<polygon class="st0" points="150,40.3 119,64.3 181,64.3 			"/>
			<line class="st0" x1="119" y1="24.3" x2="139" y2="44.3"/>
			<line class="st0" x1="181" y1="24.3" x2="161" y2="44.3"/>
			<polyline class="st0" points="171,10.3 163,10.3 163,2.3 			"/>
			<line class="st0" x1="149" y1="60.3" x2="151" y2="60.3"/>
			<line class="st0" x1="153" y1="60.3" x2="155" y2="60.3"/>
			<line class="st0" x1="145" y1="60.3" x2="147" y2="60.3"/>
			<g>
				<g>
					<g>
						<g>
							<polyline class="st2" points="155.7,29.1 159.4,26.7 161.7,30.8 							"/>
						</g>
						<path class="st2" d="M159.3,27.5c-0.6,4.6-4.3,8.1-9.3,8.1c-4.4,0-8.2-2.8-9.3-6.6"/>
					</g>
				</g>
				<g>
					<g>
						<g>
							<polyline class="st2" points="144.3,22.7 140.6,25.1 138.3,21.1 							"/>
						</g>
						<path class="st2" d="M140.7,24.3c0.6-4.6,4.3-8.1,9.3-8.1c4.4,0,8.2,2.8,9.3,6.6"/>
					</g>
				</g>
			</g>
		</g>
	</g>
</g>
</svg>
